<svg width="32" height="32" viewBox="0 0 32 32" fill="none" xmlns="http://www.w3.org/2000/svg">
<g id="favicon-2">
<g id="Group 21">
<circle id="Ellipse 20" cx="16" cy="16" r="16" fill="white"/>
<path id="Subtract" fill-rule="evenodd" clip-rule="evenodd" d="M14.5 6.1116C9.68874 6.83532 6 10.9868 6 15.9998C6 21.0129 9.68874 25.1644 14.5 25.8881V28.9142C8.02684 28.1705 3 22.6722 3 15.9998C3 9.32746 8.02684 3.82915 14.5 3.08545V6.1116ZM17.5 28.9142C23.9732 28.1705 29 22.6722 29 15.9998C29 9.32746 23.9732 3.82915 17.5 3.08545V6.1116C22.3113 6.83532 26 10.9868 26 15.9998C26 21.0129 22.3113 25.1644 17.5 25.8881V28.9142Z" fill="#777"/>
<path id="Vector 10" d="M13 27V19H5M5 13H13V5" stroke="#777" stroke-width="3"/>
<path id="Vector 11" d="M19 27V18M18 13H27" stroke="#777" stroke-width="3"/>
</g>
</g>
</svg>
