<?xml version="1.0" encoding="UTF-8"?><svg id="Layer_2" xmlns="http://www.w3.org/2000/svg" viewBox="0 0 1351.76 177"><defs><style>.cls-1{fill:#fefefe;}</style></defs><g id="Layer_1-2"><g><g><path class="cls-1" d="M88.5,0C39.7,0,0,39.7,0,88.5s39.7,88.5,88.5,88.5,88.5-39.7,88.5-88.5S137.3,0,88.5,0Zm0,175.5C40.53,175.5,1.5,136.47,1.5,88.5S40.53,1.5,88.5,1.5s87,39.03,87,87-39.03,87-87,87Z"/><path class="cls-1" d="M88.5,27c-33.91,0-61.5,27.59-61.5,61.5s27.59,61.5,61.5,61.5,61.5-27.59,61.5-61.5-27.59-61.5-61.5-61.5Zm0,3c5.78,0,11.36,.86,16.64,2.43l-9.27,28.53c-2.36-.62-4.83-.95-7.37-.95s-5.02,.33-7.37,.95l-9.27-28.53c5.28-1.57,10.86-2.43,16.64-2.43Zm0,83.57c-4.65-2.66-9.4-5.13-14.24-7.41,4.64-3.27,9.39-6.34,14.24-9.18,4.85,2.84,9.6,5.9,14.24,9.18-4.84,2.28-9.59,4.75-14.24,7.41Zm0,3.46c5.35,3.12,10.56,6.48,15.59,10.09-5.19-.18-10.38-.28-15.55-.28s-10.42,.1-15.64,.28c5.03-3.61,10.24-6.97,15.6-10.09Zm-24.53-35.43c3.07-11.01,12.97-18.6,24.53-18.6s21.46,7.59,24.53,18.6c-8.43,3.4-16.62,7.37-24.53,11.92-7.92-4.54-16.11-8.51-24.53-11.92Zm5.04-48.25l9.27,28.53c-4.7,1.79-8.8,4.78-11.94,8.66l-24.24-17.61c6.83-8.89,16.15-15.77,26.91-19.58Zm-28.67,22l24.24,17.61c-1.47,2.28-2.62,4.8-3.41,7.51-9.3-3.59-18.89-6.48-28.73-8.66,1.77-5.94,4.45-11.48,7.89-16.46Zm-10.33,33.14c0-4.75,.58-9.36,1.66-13.78,19,4.21,37.03,11.1,53.85,20.56-4.9,2.93-9.7,6.07-14.38,9.43-13.18-5.93-26.98-10.45-41.05-13.4-.04-.93-.07-1.87-.07-2.81Zm.3,5.93c19.24,4.13,37.94,11.22,55.2,20.88-6.2,3.69-12.21,7.71-17.97,12.04-7.13,.34-14.24,.86-21.28,1.54-8.77-9.17-14.6-21.16-15.94-34.46Zm58.2,52.57c-15.19,0-29.05-5.83-39.46-15.35,13.07-1.19,26.34-1.8,39.5-1.8s26.39,.61,39.43,1.8c-10.41,9.53-24.27,15.36-39.47,15.36Zm42.26-18.12c-7.05-.68-14.16-1.2-21.29-1.54-5.76-4.33-11.76-8.35-17.96-12.04,17.26-9.66,35.96-16.75,55.2-20.88-1.34,13.3-7.18,25.29-15.94,34.46Zm16.24-40.38c0,.94-.03,1.88-.07,2.81-14.08,2.95-27.87,7.47-41.05,13.4-4.68-3.36-9.48-6.5-14.38-9.43,16.82-9.46,34.86-16.35,53.85-20.56,1.07,4.42,1.66,9.03,1.66,13.78Zm-2.44-16.68c-9.84,2.19-19.43,5.07-28.73,8.66-.79-2.71-1.94-5.23-3.41-7.51l24.24-17.61c3.44,4.99,6.12,10.53,7.89,16.46Zm-33.9-1.27c-3.13-3.88-7.24-6.87-11.94-8.66l9.27-28.53c10.76,3.82,20.08,10.69,26.91,19.58l-24.24,17.61Z"/></g><g><path class="cls-1" d="M274.27,120.51c-4.86,0-9.32-.83-13.34-2.5-4.03-1.66-7.53-4.04-10.47-7.15-2.95-3.11-5.23-6.78-6.87-11.04s-2.45-8.92-2.45-13.97,.87-9.38,2.6-13.54,4.13-7.8,7.2-10.94c3.08-3.13,6.66-5.58,10.75-7.3s8.54-2.59,13.35-2.59c3.26,0,6.43,.48,9.5,1.44,3.07,.97,5.89,2.29,8.45,3.98,2.56,1.7,4.71,3.67,6.44,5.91l-7.97,8.74c-1.67-1.73-3.38-3.18-5.14-4.38-1.77-1.18-3.58-2.08-5.48-2.69-1.88-.61-3.82-.91-5.8-.91-2.95,0-5.71,.54-8.31,1.63-2.59,1.08-4.83,2.63-6.72,4.61s-3.38,4.34-4.46,7.05c-1.09,2.72-1.63,5.74-1.63,9.07s.53,6.46,1.58,9.22,2.56,5.12,4.51,7.1,4.29,3.51,7.01,4.56c2.71,1.05,5.71,1.58,8.97,1.58,2.11,0,4.16-.28,6.14-.86s3.83-1.4,5.52-2.45c1.7-1.05,3.25-2.29,4.66-3.69l6.14,9.88c-1.53,1.73-3.58,3.3-6.14,4.71s-5.42,2.51-8.59,3.31c-3.16,.8-6.32,1.2-9.45,1.2Z"/><path class="cls-1" d="M347.43,120.51c-4.8,0-9.26-.86-13.35-2.59s-7.67-4.15-10.7-7.26c-3.04-3.1-5.39-6.77-7.05-10.99-1.67-4.23-2.5-8.84-2.5-13.83s.83-9.6,2.5-13.82c1.66-4.23,4.01-7.89,7.05-11s6.61-5.52,10.7-7.25,8.54-2.59,13.35-2.59,9.34,.86,13.44,2.59c4.09,1.73,7.65,4.16,10.65,7.29s5.34,6.8,7.01,11c1.66,4.19,2.49,8.78,2.49,13.77s-.83,9.5-2.49,13.73c-1.67,4.23-4,7.9-7.01,11.04-3.01,3.13-6.56,5.57-10.65,7.29-4.1,1.73-8.57,2.59-13.44,2.59Zm0-11.9c3.07,0,5.87-.56,8.4-1.68s4.72-2.71,6.57-4.79,3.31-4.5,4.37-7.26c1.06-2.74,1.59-5.75,1.59-9.02s-.53-6.27-1.59-9.02c-1.05-2.74-2.51-5.17-4.37-7.25s-4.04-3.68-6.57-4.79c-2.53-1.12-5.33-1.69-8.4-1.69s-5.8,.57-8.36,1.69c-2.56,1.11-4.77,2.7-6.62,4.75s-3.3,4.45-4.32,7.2c-1.03,2.75-1.54,5.8-1.54,9.12s.52,6.29,1.54,9.07c1.02,2.78,2.46,5.21,4.32,7.25,1.86,2.05,4.06,3.63,6.62,4.76s5.34,1.68,8.36,1.68Z"/><path class="cls-1" d="M401.67,119.55V52.35h29.18c4.03,0,7.71,.95,11.04,2.83,3.32,1.89,5.97,4.45,7.92,7.69s2.93,6.87,2.93,10.9-.98,7.37-2.93,10.61-4.58,5.79-7.87,7.68c-3.3,1.89-6.99,2.83-11.09,2.83h-16.99v24.68h-12.19Zm12.19-35.52h17.09c1.86,0,3.48-.44,4.85-1.3,1.37-.87,2.44-2.07,3.21-3.6,.76-1.53,1.15-3.23,1.15-5.09,0-2.11-.48-3.94-1.45-5.47-.96-1.53-2.3-2.75-4.03-3.65-1.72-.89-3.71-1.34-5.95-1.34h-14.88v20.45Zm26.79,35.52l-17.09-30.34,12.86-2.39,19.01,32.83-14.79-.1Z"/><path class="cls-1" d="M487.11,119.55V63.87h-19.21v-11.52h51.46v11.52h-19.78v55.68h-12.48Z"/><path class="cls-1" d="M537.6,119.55V52.35h12.48v55.68h31.01v11.52h-43.49Z"/><path class="cls-1" d="M591.46,119.55l26.2-67.21h11.72l26.02,67.21h-12.97l-14.39-38.21c-.32-.76-.75-1.98-1.3-3.64-.55-1.67-1.13-3.48-1.78-5.43-.63-1.95-1.21-3.77-1.73-5.47-.51-1.7-.89-2.93-1.15-3.7l2.4-.09c-.38,1.28-.83,2.71-1.34,4.32-.52,1.6-1.06,3.26-1.64,4.99s-1.13,3.4-1.68,4.99c-.54,1.6-1.04,3.05-1.48,4.33l-14.4,37.92h-12.47Zm11.9-15.36l4.32-10.85h30.62l4.61,10.85h-39.55Z"/><path class="cls-1" d="M671.52,119.55V52.35h11.23l38.97,52.52-2.11,.38c-.25-1.79-.48-3.63-.67-5.52s-.37-3.86-.53-5.91c-.16-2.04-.29-4.19-.38-6.43-.1-2.25-.18-4.6-.24-7.06s-.1-5.07-.1-7.82v-20.17h12.38V119.55h-11.42l-39.17-51.75,2.49-.67c.32,3.58,.6,6.64,.82,9.17s.4,4.71,.53,6.53c.13,1.82,.24,3.34,.33,4.56,.1,1.21,.17,2.31,.2,3.31,.03,.99,.05,1.93,.05,2.83v26.02h-12.38Z"/><path class="cls-1" d="M755.81,119.55V52.35h26.97c4.86,0,9.27,.8,13.2,2.4s7.32,3.91,10.18,6.91c2.84,3.01,5.02,6.56,6.52,10.65,1.5,4.1,2.26,8.64,2.26,13.63s-.75,9.55-2.26,13.68-3.66,7.68-6.47,10.65c-2.82,2.98-6.21,5.26-10.18,6.87-3.97,1.6-8.39,2.4-13.25,2.4h-26.97Zm12.48-9.7l-.97-1.83h14.98c3.13,0,5.94-.51,8.4-1.53s4.56-2.5,6.29-4.41c1.73-1.92,3.04-4.24,3.94-6.96s1.35-5.77,1.35-9.17-.45-6.45-1.35-9.17c-.9-2.71-2.23-5.04-3.98-6.95-1.76-1.92-3.86-3.4-6.29-4.42-2.43-1.02-5.21-1.53-8.35-1.53h-15.26l1.25-1.63v47.62Z"/><path class="cls-1" d="M875.9,119.55V52.35h12.48V119.55h-12.48Zm5.19-27.65v-11.72h43.96v11.72h-43.96Zm37.92,27.65V52.35h12.48V119.55h-12.48Z"/><path class="cls-1" d="M947.7,119.55l26.21-67.21h11.71l26.02,67.21h-12.96l-14.4-38.21c-.31-.76-.75-1.98-1.29-3.64-.55-1.67-1.14-3.48-1.78-5.43-.64-1.95-1.22-3.77-1.73-5.47-.52-1.7-.9-2.93-1.15-3.7l2.4-.09c-.39,1.28-.84,2.71-1.35,4.32s-1.05,3.26-1.63,4.99-1.13,3.4-1.68,4.99c-.55,1.6-1.04,3.05-1.48,4.33l-14.4,37.92h-12.48Zm11.9-15.36l4.32-10.85h30.62l4.61,10.85h-39.55Z"/><path class="cls-1" d="M1027.77,119.55V52.35h29.18c4.03,0,7.71,.95,11.04,2.83,3.32,1.89,5.97,4.45,7.92,7.69s2.93,6.87,2.93,10.9-.98,7.37-2.93,10.61-4.58,5.79-7.87,7.68c-3.3,1.89-6.99,2.83-11.09,2.83h-16.99v24.68h-12.19Zm12.19-35.52h17.09c1.86,0,3.48-.44,4.85-1.3,1.37-.87,2.44-2.07,3.21-3.6,.76-1.53,1.15-3.23,1.15-5.09,0-2.11-.48-3.94-1.45-5.47-.96-1.53-2.3-2.75-4.03-3.65-1.72-.89-3.71-1.34-5.95-1.34h-14.88v20.45Zm26.79,35.52l-17.09-30.34,12.86-2.39,19.01,32.83-14.79-.1Z"/><path class="cls-1" d="M1119.06,119.55l-26.88-67.21h13.63l14.98,38.5c.76,1.99,1.44,3.77,2.01,5.33,.58,1.57,1.09,2.99,1.54,4.28,.44,1.28,.84,2.52,1.19,3.74,.35,1.21,.75,2.49,1.2,3.84h-2.69c.45-1.73,.93-3.44,1.45-5.14,.51-1.69,1.1-3.51,1.77-5.42,.67-1.92,1.49-4.13,2.45-6.63l14.01-38.5h13.73l-27.07,67.21h-11.33Z"/><path class="cls-1" d="M1174.17,119.55V52.35h43.96v11.33h-31.68v44.55h32.06v11.33h-44.35Zm5.76-28.8v-11.14h33.31v11.14h-33.31Z"/><path class="cls-1" d="M1262.67,120.51c-3.91,0-7.49-.5-10.75-1.48-3.26-1-6.21-2.48-8.83-4.46-2.63-1.98-4.96-4.38-7.01-7.21l8.16-9.21c3.13,4.35,6.2,7.35,9.21,9.02,3.01,1.66,6.41,2.49,10.18,2.49,2.18,0,4.16-.33,5.96-1.01,1.79-.67,3.2-1.6,4.22-2.78,1.03-1.18,1.54-2.55,1.54-4.08,0-1.08-.21-2.09-.62-3.03-.42-.92-1.04-1.76-1.88-2.49s-1.86-1.43-3.07-2.06c-1.22-.64-2.6-1.19-4.13-1.64-1.53-.44-3.23-.86-5.09-1.24-3.53-.7-6.59-1.65-9.22-2.83-2.63-1.19-4.83-2.66-6.62-4.42-1.8-1.76-3.11-3.74-3.94-5.95s-1.25-4.72-1.25-7.54,.62-5.4,1.88-7.77c1.25-2.36,2.96-4.41,5.14-6.14,2.17-1.73,4.7-3.08,7.58-4.03s5.99-1.44,9.32-1.44c3.77,0,7.15,.44,10.13,1.34s5.6,2.23,7.87,3.98,4.14,3.89,5.62,6.39l-8.25,8.15c-1.29-1.98-2.72-3.62-4.33-4.94-1.6-1.31-3.33-2.3-5.19-2.98-1.86-.66-3.81-1.01-5.85-1.01-2.3,0-4.31,.32-6.01,.96-1.69,.64-3.02,1.55-3.98,2.74-.96,1.18-1.44,2.61-1.44,4.27,0,1.28,.28,2.42,.86,3.41,.58,1,1.4,1.88,2.45,2.64,1.05,.77,2.41,1.45,4.08,2.02,1.66,.58,3.55,1.08,5.66,1.53,3.52,.7,6.69,1.65,9.5,2.83s5.21,2.6,7.2,4.23,3.5,3.49,4.51,5.57c1.03,2.08,1.54,4.39,1.54,6.96,0,4.41-1.04,8.2-3.12,11.37-2.08,3.17-5.01,5.61-8.78,7.3-3.78,1.69-8.19,2.54-13.25,2.54Z"/><path class="cls-1" d="M1319.51,119.55V63.87h-19.2v-11.52h51.46v11.52h-19.78v55.68h-12.48Z"/></g></g></g></svg>