<?xml version="1.0" encoding="UTF-8"?><svg id="Layer_2" xmlns="http://www.w3.org/2000/svg" viewBox="0 0 1350.12 173.7"><g id="Layer_1-2"><g><g><path d="M272.63,118.85c-4.86,0-9.32-.83-13.34-2.5-4.03-1.66-7.53-4.04-10.47-7.15-2.95-3.11-5.23-6.78-6.87-11.04s-2.45-8.92-2.45-13.97,.87-9.38,2.6-13.54,4.13-7.8,7.2-10.94c3.08-3.13,6.66-5.58,10.75-7.3s8.54-2.59,13.35-2.59c3.26,0,6.43,.48,9.5,1.44,3.07,.97,5.89,2.29,8.45,3.98,2.56,1.7,4.71,3.67,6.44,5.91l-7.97,8.74c-1.67-1.73-3.38-3.18-5.14-4.38-1.77-1.18-3.58-2.08-5.48-2.69-1.88-.61-3.82-.91-5.8-.91-2.95,0-5.71,.54-8.31,1.63-2.59,1.08-4.83,2.63-6.72,4.61s-3.38,4.34-4.46,7.05c-1.09,2.72-1.63,5.74-1.63,9.07s.53,6.46,1.58,9.22,2.56,5.12,4.51,7.1,4.29,3.51,7.01,4.56c2.71,1.05,5.71,1.58,8.97,1.58,2.11,0,4.16-.28,6.14-.86s3.83-1.4,5.52-2.45c1.7-1.05,3.25-2.29,4.66-3.69l6.14,9.88c-1.53,1.73-3.58,3.3-6.14,4.71s-5.42,2.51-8.59,3.31c-3.16,.8-6.32,1.2-9.45,1.2Z"/><path d="M345.78,118.85c-4.8,0-9.26-.86-13.35-2.59s-7.67-4.15-10.7-7.26c-3.04-3.1-5.39-6.77-7.05-10.99-1.67-4.23-2.5-8.84-2.5-13.83s.83-9.6,2.5-13.82c1.66-4.23,4.01-7.89,7.05-11s6.61-5.52,10.7-7.25,8.54-2.59,13.35-2.59,9.34,.86,13.44,2.59c4.09,1.73,7.65,4.16,10.65,7.29s5.34,6.8,7.01,11c1.66,4.19,2.49,8.78,2.49,13.77s-.83,9.5-2.49,13.73c-1.67,4.23-4,7.9-7.01,11.04-3.01,3.13-6.56,5.57-10.65,7.29-4.1,1.73-8.57,2.59-13.44,2.59Zm0-11.9c3.07,0,5.87-.56,8.4-1.68s4.72-2.71,6.57-4.79,3.31-4.5,4.37-7.26c1.06-2.74,1.59-5.75,1.59-9.02s-.53-6.27-1.59-9.02c-1.05-2.74-2.51-5.17-4.37-7.25s-4.04-3.68-6.57-4.79c-2.53-1.12-5.33-1.69-8.4-1.69s-5.8,.57-8.36,1.69c-2.56,1.11-4.77,2.7-6.62,4.75s-3.3,4.45-4.32,7.2c-1.03,2.75-1.54,5.8-1.54,9.12s.52,6.29,1.54,9.07c1.02,2.78,2.46,5.21,4.32,7.25,1.86,2.05,4.06,3.63,6.62,4.76s5.34,1.68,8.36,1.68Z"/><path d="M400.02,117.89V50.69h29.18c4.03,0,7.71,.95,11.04,2.83,3.32,1.89,5.97,4.45,7.92,7.69s2.93,6.87,2.93,10.9-.98,7.37-2.93,10.61-4.58,5.79-7.87,7.68c-3.3,1.89-6.99,2.83-11.09,2.83h-16.99v24.68h-12.19Zm12.19-35.52h17.09c1.86,0,3.48-.44,4.85-1.3,1.37-.87,2.44-2.07,3.21-3.6,.76-1.53,1.15-3.23,1.15-5.09,0-2.11-.48-3.94-1.45-5.47-.96-1.53-2.3-2.75-4.03-3.65-1.72-.89-3.71-1.34-5.95-1.34h-14.88v20.45Zm26.79,35.52l-17.09-30.34,12.86-2.39,19.01,32.83-14.79-.1Z"/><path d="M485.46,117.89V62.21h-19.21v-11.52h51.46v11.52h-19.78v55.68h-12.48Z"/><path d="M535.95,117.89V50.69h12.48v55.68h31.01v11.52h-43.49Z"/><path d="M589.81,117.89l26.2-67.21h11.72l26.02,67.21h-12.97l-14.39-38.21c-.32-.76-.75-1.98-1.3-3.64-.55-1.67-1.13-3.48-1.78-5.43-.63-1.95-1.21-3.77-1.73-5.47-.51-1.7-.89-2.93-1.15-3.7l2.4-.09c-.38,1.28-.83,2.71-1.34,4.32-.52,1.6-1.06,3.26-1.64,4.99s-1.13,3.4-1.68,4.99c-.54,1.6-1.04,3.05-1.48,4.33l-14.4,37.92h-12.47Zm11.9-15.36l4.32-10.85h30.62l4.61,10.85h-39.55Z"/><path d="M669.87,117.89V50.69h11.23l38.97,52.52-2.11,.38c-.25-1.79-.48-3.63-.67-5.52s-.37-3.86-.53-5.91c-.16-2.04-.29-4.19-.38-6.43-.1-2.25-.18-4.6-.24-7.06s-.1-5.07-.1-7.82v-20.17h12.38V117.89h-11.42l-39.17-51.75,2.49-.67c.32,3.58,.6,6.64,.82,9.17s.4,4.71,.53,6.53c.13,1.82,.24,3.34,.33,4.56,.1,1.21,.17,2.31,.2,3.31,.03,.99,.05,1.93,.05,2.83v26.02h-12.38Z"/><path d="M754.16,117.89V50.69h26.97c4.86,0,9.27,.8,13.2,2.4s7.32,3.91,10.18,6.91c2.84,3.01,5.02,6.56,6.52,10.65,1.5,4.1,2.26,8.64,2.26,13.63s-.75,9.55-2.26,13.68-3.66,7.68-6.47,10.65c-2.82,2.98-6.21,5.26-10.18,6.87-3.97,1.6-8.39,2.4-13.25,2.4h-26.97Zm12.48-9.7l-.97-1.83h14.98c3.13,0,5.94-.51,8.4-1.53s4.56-2.5,6.29-4.41c1.73-1.92,3.04-4.24,3.94-6.96s1.35-5.77,1.35-9.17-.45-6.45-1.35-9.17c-.9-2.71-2.23-5.04-3.98-6.95-1.76-1.92-3.86-3.4-6.29-4.42-2.43-1.02-5.21-1.53-8.35-1.53h-15.26l1.25-1.63v47.62Z"/><path d="M874.25,117.89V50.69h12.48V117.89h-12.48Zm5.19-27.65v-11.72h43.96v11.72h-43.96Zm37.92,27.65V50.69h12.48V117.89h-12.48Z"/><path d="M946.05,117.89l26.21-67.21h11.71l26.02,67.21h-12.96l-14.4-38.21c-.31-.76-.75-1.98-1.29-3.64-.55-1.67-1.14-3.48-1.78-5.43-.64-1.95-1.22-3.77-1.73-5.47-.52-1.7-.9-2.93-1.15-3.7l2.4-.09c-.39,1.28-.84,2.71-1.35,4.32s-1.05,3.26-1.63,4.99-1.13,3.4-1.68,4.99c-.55,1.6-1.04,3.05-1.48,4.33l-14.4,37.92h-12.48Zm11.9-15.36l4.32-10.85h30.62l4.61,10.85h-39.55Z"/><path d="M1026.12,117.89V50.69h29.18c4.03,0,7.71,.95,11.04,2.83,3.32,1.89,5.97,4.45,7.92,7.69s2.93,6.87,2.93,10.9-.98,7.37-2.93,10.61-4.58,5.79-7.87,7.68c-3.3,1.89-6.99,2.83-11.09,2.83h-16.99v24.68h-12.19Zm12.19-35.52h17.09c1.86,0,3.48-.44,4.85-1.3,1.37-.87,2.44-2.07,3.21-3.6,.76-1.53,1.15-3.23,1.15-5.09,0-2.11-.48-3.94-1.45-5.47-.96-1.53-2.3-2.75-4.03-3.65-1.72-.89-3.71-1.34-5.95-1.34h-14.88v20.45Zm26.79,35.52l-17.09-30.34,12.86-2.39,19.01,32.83-14.79-.1Z"/><path d="M1117.41,117.89l-26.88-67.21h13.63l14.98,38.5c.76,1.99,1.44,3.77,2.01,5.33,.58,1.57,1.09,2.99,1.54,4.28,.44,1.28,.84,2.52,1.19,3.74,.35,1.21,.75,2.49,1.2,3.84h-2.69c.45-1.73,.93-3.44,1.45-5.14,.51-1.69,1.1-3.51,1.77-5.42,.67-1.92,1.49-4.13,2.45-6.63l14.01-38.5h13.73l-27.07,67.21h-11.33Z"/><path d="M1172.52,117.89V50.69h43.96v11.33h-31.68v44.55h32.06v11.33h-44.35Zm5.76-28.8v-11.14h33.31v11.14h-33.31Z"/><path d="M1261.02,118.85c-3.91,0-7.49-.5-10.75-1.48-3.26-1-6.21-2.48-8.83-4.46-2.63-1.98-4.96-4.38-7.01-7.21l8.16-9.21c3.13,4.35,6.2,7.35,9.21,9.02,3.01,1.66,6.41,2.49,10.18,2.49,2.18,0,4.16-.33,5.96-1.01,1.79-.67,3.2-1.6,4.22-2.78,1.03-1.18,1.54-2.55,1.54-4.08,0-1.08-.21-2.09-.62-3.03-.42-.92-1.04-1.76-1.88-2.49s-1.86-1.43-3.07-2.06c-1.22-.64-2.6-1.19-4.13-1.64-1.53-.44-3.23-.86-5.09-1.24-3.53-.7-6.59-1.65-9.22-2.83-2.63-1.19-4.83-2.66-6.62-4.42-1.8-1.76-3.11-3.74-3.94-5.95s-1.25-4.72-1.25-7.54,.62-5.4,1.88-7.77c1.25-2.36,2.96-4.41,5.14-6.14,2.17-1.73,4.7-3.08,7.58-4.03s5.99-1.44,9.32-1.44c3.77,0,7.15,.44,10.13,1.34s5.6,2.23,7.87,3.98,4.14,3.89,5.62,6.39l-8.25,8.15c-1.29-1.98-2.72-3.62-4.33-4.94-1.6-1.31-3.33-2.3-5.19-2.98-1.86-.66-3.81-1.01-5.85-1.01-2.3,0-4.31,.32-6.01,.96-1.69,.64-3.02,1.55-3.98,2.74-.96,1.18-1.44,2.61-1.44,4.27,0,1.28,.28,2.42,.86,3.41,.58,1,1.4,1.88,2.45,2.64,1.05,.77,2.41,1.45,4.08,2.02,1.66,.58,3.55,1.08,5.66,1.53,3.52,.7,6.69,1.65,9.5,2.83s5.21,2.6,7.2,4.23,3.5,3.49,4.51,5.57c1.03,2.08,1.54,4.39,1.54,6.96,0,4.41-1.04,8.2-3.12,11.37-2.08,3.17-5.01,5.61-8.78,7.3-3.78,1.69-8.19,2.54-13.25,2.54Z"/><path d="M1317.86,117.89V62.21h-19.2v-11.52h51.46v11.52h-19.78v55.68h-12.48Z"/></g><g><path d="M86.86,0C38.96,0,0,38.96,0,86.85s38.96,86.86,86.86,86.86,86.85-38.96,86.85-86.86S134.74,0,86.86,0Zm0,148.5c-33.99,0-61.65-27.66-61.65-61.65S52.86,25.21,86.86,25.21s61.64,27.65,61.64,61.64-27.65,61.65-61.64,61.65Z"/><path d="M59.41,78.63c.77-2.59,1.88-5.03,3.3-7.28l-23.99-17.43c-3.41,4.96-6.01,10.38-7.74,16.13,9.71,2.17,19.28,5.05,28.44,8.57Z"/><path d="M90.15,93.63c4.76,2.84,9.5,5.96,14.1,9.25,13.19-5.93,26.94-10.42,40.89-13.35,.05-1.06,.07-1.89,.07-2.69,0-4.55-.55-9.12-1.62-13.6-18.77,4.18-36.75,11.04-53.44,20.39Z"/><path d="M86.86,111.75c4.51-2.58,9.2-5.02,13.95-7.26-4.45-3.13-9.15-6.16-13.95-8.97-4.74,2.77-9.42,5.79-13.96,8.97,4.73,2.23,9.42,4.67,13.96,7.26Z"/><path d="M86.86,61.49c-11.46,0-21.23,7.38-24.36,18.37,8.35,3.37,16.54,7.35,24.36,11.83,7.8-4.47,15.99-8.45,24.35-11.83-3.12-10.99-12.9-18.37-24.35-18.37Z"/><path d="M86.89,125.05c5.08,0,10.14,.08,15.06,.25-4.79-3.42-9.87-6.69-15.1-9.75-5.22,3.05-10.3,6.33-15.12,9.76,4.88-.18,9.98-.26,15.16-.26Z"/><g><path d="M129.05,127.08c8.89-9.32,14.5-21.43,15.83-34.12-19.1,4.13-37.51,11.09-54.73,20.7,6.07,3.62,12.04,7.62,17.71,11.88,7.02,.33,14.15,.85,21.18,1.53Z"/><path d="M65.83,125.56c5.63-4.25,11.59-8.24,17.71-11.9-17.23-9.61-35.63-16.57-54.73-20.69,1.33,12.7,6.94,24.8,15.83,34.13,6.85-.67,13.96-1.19,21.18-1.53Z"/></g><path d="M86.86,145.21c14.48,0,28.35-5.36,39.11-15.1-12.94-1.17-26.07-1.77-39.07-1.77s-26.22,.61-39.15,1.78c10.76,9.73,24.64,15.09,39.11,15.09Z"/><path d="M106.45,31.89l-9.18,28.25c4.6,1.78,8.66,4.73,11.78,8.54l23.99-17.44c-6.88-8.9-16.06-15.59-26.59-19.36Z"/><path d="M28.56,89.53c13.95,2.93,27.7,7.42,40.89,13.35,4.6-3.29,9.35-6.41,14.1-9.25-16.69-9.36-34.67-16.21-53.44-20.39-1.07,4.48-1.62,9.05-1.62,13.6,0,.79,.02,1.62,.07,2.69Z"/><path d="M142.72,70.06c-1.74-5.75-4.34-11.17-7.74-16.13l-23.99,17.43c1.42,2.25,2.53,4.69,3.3,7.28,9.16-3.53,18.73-6.41,28.44-8.57Z"/><path d="M40.66,51.25l23.99,17.44c3.12-3.82,7.18-6.77,11.79-8.54l-9.19-28.25c-10.53,3.77-19.72,10.46-26.59,19.36Z"/><path d="M70.39,30.87l9.19,28.25c2.36-.61,4.8-.92,7.28-.92s4.9,.31,7.28,.92l9.18-28.25c-10.76-3.14-22.16-3.14-32.92,0Z"/></g></g></g></svg>