<?xml version="1.0" encoding="UTF-8"?><svg id="Layer_2" xmlns="http://www.w3.org/2000/svg" viewBox="0 0 1349.98 173.42"><defs><style>.cls-1{fill:#fefefe;}</style></defs><g id="Layer_1-2"><g><g><g><path class="cls-1" d="M240.15,149.37v-21h9.12c1.26,0,2.41,.29,3.45,.88,1.04,.6,1.87,1.4,2.48,2.4,.61,1.02,.91,2.15,.91,3.41s-.3,2.3-.91,3.31c-.62,1.02-1.44,1.82-2.46,2.4-1.04,.6-2.19,.89-3.47,.89h-5.31v7.71h-3.81Zm3.81-11.09h5.34c.58,0,1.08-.14,1.51-.41s.76-.64,1.01-1.12,.36-1.01,.36-1.59c0-.65-.15-1.23-.45-1.71s-.72-.86-1.26-1.14c-.55-.27-1.16-.42-1.87-.42h-4.65v6.4Zm8.37,11.09l-5.34-9.48,4.02-.74,5.94,10.25-4.62-.03Z"/><path class="cls-1" d="M270.72,149.67c-1.49,0-2.89-.27-4.17-.81s-2.39-1.3-3.34-2.27c-.96-.97-1.69-2.11-2.21-3.44-.52-1.32-.78-2.75-.78-4.32s.26-3,.78-4.32c.52-1.33,1.25-2.47,2.21-3.44,.95-.97,2.06-1.73,3.34-2.27s2.68-.81,4.17-.81,2.92,.27,4.2,.81,2.39,1.3,3.33,2.28c.95,.99,1.67,2.13,2.2,3.44,.52,1.31,.77,2.74,.77,4.31s-.25,2.97-.77,4.29c-.53,1.32-1.25,2.47-2.2,3.46-.94,.98-2.05,1.74-3.33,2.28s-2.68,.81-4.2,.81Zm0-3.72c.97,0,1.84-.18,2.63-.53s1.47-.85,2.05-1.49c.59-.65,1.04-1.41,1.37-2.27s.5-1.81,.5-2.82-.17-1.96-.5-2.82-.78-1.61-1.37-2.27c-.58-.64-1.26-1.14-2.05-1.49s-1.66-.53-2.63-.53-1.81,.18-2.61,.53-1.49,.84-2.07,1.48c-.58,.63-1.03,1.39-1.35,2.25s-.48,1.82-.48,2.85,.16,1.96,.48,2.83,.77,1.63,1.35,2.27c.58,.64,1.27,1.13,2.07,1.48s1.67,.53,2.61,.53Z"/><path class="cls-1" d="M295.62,149.67c-1.5,0-2.89-.27-4.17-.81s-2.4-1.3-3.35-2.27-1.68-2.11-2.21-3.44c-.52-1.32-.77-2.75-.77-4.32s.25-3,.77-4.32c.53-1.33,1.26-2.47,2.21-3.44s2.07-1.73,3.35-2.27,2.67-.81,4.17-.81,2.92,.27,4.2,.81,2.39,1.3,3.33,2.28c.94,.99,1.67,2.13,2.19,3.44s.78,2.74,.78,4.31-.26,2.97-.78,4.29-1.25,2.47-2.19,3.46c-.94,.98-2.05,1.74-3.33,2.28s-2.69,.81-4.2,.81Zm0-3.72c.96,0,1.84-.18,2.63-.53,.78-.35,1.47-.85,2.05-1.49,.58-.65,1.04-1.41,1.37-2.27s.49-1.81,.49-2.82-.16-1.96-.49-2.82-.79-1.61-1.37-2.27c-.58-.64-1.27-1.14-2.05-1.49-.79-.35-1.67-.53-2.63-.53s-1.82,.18-2.62,.53c-.79,.35-1.48,.84-2.06,1.48-.59,.63-1.04,1.39-1.36,2.25-.31,.86-.48,1.82-.48,2.85s.17,1.96,.48,2.83c.32,.87,.77,1.63,1.36,2.27,.58,.64,1.27,1.13,2.06,1.48,.8,.35,1.67,.53,2.62,.53Z"/><path class="cls-1" d="M314.31,149.37v-17.4h-6.01v-3.59h16.08v3.59h-6.18v17.4h-3.9Z"/><path class="cls-1" d="M329.43,149.37v-21h13.74v3.54h-9.9v13.93h10.02v3.54h-13.86Zm1.8-8.99v-3.49h10.41v3.49h-10.41Z"/><path class="cls-1" d="M349.32,149.37v-21h8.43c1.51,0,2.89,.24,4.12,.75,1.23,.5,2.29,1.22,3.18,2.16s1.57,2.05,2.04,3.33,.7,2.7,.7,4.26-.23,2.99-.7,4.28-1.15,2.4-2.03,3.33-1.93,1.64-3.17,2.14c-1.24,.51-2.63,.75-4.14,.75h-8.43Zm3.9-3.03l-.3-.57h4.68c.99,0,1.86-.17,2.63-.49,.77-.31,1.43-.77,1.96-1.38,.55-.6,.96-1.33,1.23-2.18,.28-.85,.42-1.8,.42-2.86s-.14-2.01-.42-2.86c-.27-.85-.69-1.58-1.24-2.18s-1.21-1.06-1.96-1.38c-.76-.32-1.63-.49-2.62-.49h-4.77l.39-.51v14.88Z"/><path class="cls-1" d="M383.82,149.37v-3.45h3.45v-14.1h-3.45v-3.45h10.79v3.45h-3.45v14.1h3.45v3.45h-10.79Z"/><path class="cls-1" d="M400.62,149.37v-21h3.51l12.18,16.41-.65,.13c-.09-.57-.16-1.14-.21-1.73-.06-.6-.12-1.2-.17-1.85s-.09-1.31-.12-2.01-.06-1.44-.08-2.21c-.02-.76-.03-1.58-.03-2.44v-6.3h3.87v21h-3.56l-12.25-16.17,.78-.21c.11,1.12,.19,2.07,.25,2.86,.08,.79,.13,1.47,.17,2.04,.04,.58,.08,1.04,.11,1.43s.05,.72,.06,1.04,.02,.61,.02,.89v8.12h-3.87Z"/><path class="cls-1" d="M446.04,149.67c-1.5,0-2.89-.27-4.17-.81s-2.4-1.3-3.35-2.27-1.68-2.11-2.21-3.44c-.52-1.32-.77-2.75-.77-4.32s.25-3,.77-4.32c.53-1.33,1.26-2.47,2.21-3.44s2.07-1.73,3.35-2.27,2.67-.81,4.17-.81,2.92,.27,4.2,.81,2.39,1.3,3.33,2.28c.94,.99,1.67,2.13,2.19,3.44s.78,2.74,.78,4.31-.26,2.97-.78,4.29-1.25,2.47-2.19,3.46c-.94,.98-2.05,1.74-3.33,2.28s-2.69,.81-4.2,.81Zm0-3.72c.96,0,1.84-.18,2.63-.53,.78-.35,1.47-.85,2.05-1.49,.58-.65,1.04-1.41,1.37-2.27s.49-1.81,.49-2.82-.16-1.96-.49-2.82-.79-1.61-1.37-2.27c-.58-.64-1.27-1.14-2.05-1.49-.79-.35-1.67-.53-2.63-.53s-1.82,.18-2.62,.53c-.79,.35-1.48,.84-2.06,1.48-.59,.63-1.04,1.39-1.36,2.25-.31,.86-.48,1.82-.48,2.85s.17,1.96,.48,2.83c.32,.87,.77,1.63,1.36,2.27,.58,.64,1.27,1.13,2.06,1.48,.8,.35,1.67,.53,2.62,.53Z"/><path class="cls-1" d="M470.36,149.56c-1.66,0-3.13-.36-4.43-1.06-1.31-.71-2.33-1.69-3.08-2.94-.75-1.25-1.13-2.67-1.13-4.25v-12.96h3.94v12.69c0,.95,.21,1.78,.64,2.51s1.01,1.31,1.73,1.75c.71,.45,1.49,.66,2.33,.66,.92,0,1.75-.21,2.49-.66,.74-.44,1.33-1.02,1.76-1.75s.64-1.56,.64-2.51v-12.69h3.78v12.96c0,1.58-.37,3-1.12,4.25s-1.78,2.23-3.08,2.94c-1.3,.7-2.79,1.06-4.47,1.06Z"/><path class="cls-1" d="M485.7,149.37v-21h9.12c1.26,0,2.41,.29,3.45,.88,1.04,.6,1.87,1.4,2.48,2.4,.61,1.02,.91,2.15,.91,3.41s-.3,2.3-.91,3.31c-.62,1.02-1.44,1.82-2.46,2.4-1.04,.6-2.19,.89-3.47,.89h-5.31v7.71h-3.81Zm3.81-11.09h5.34c.58,0,1.08-.14,1.51-.41s.76-.64,1.01-1.12,.36-1.01,.36-1.59c0-.65-.15-1.23-.45-1.71s-.72-.86-1.26-1.14c-.55-.27-1.16-.42-1.87-.42h-4.65v6.4Zm8.37,11.09l-5.34-9.48,4.02-.74,5.94,10.25-4.62-.03Z"/><path class="cls-1" d="M519.03,149.37v-21h3.9v17.4h9.69v3.59h-13.58Z"/><path class="cls-1" d="M534.74,149.37l8.19-21h3.66l8.12,21h-4.04l-4.5-11.93c-.1-.24-.23-.62-.41-1.14-.17-.52-.35-1.08-.55-1.7-.21-.61-.38-1.18-.55-1.71-.16-.53-.27-.92-.36-1.15l.75-.03c-.12,.4-.25,.85-.42,1.35-.16,.5-.33,1.03-.51,1.56s-.35,1.05-.53,1.56c-.17,.5-.32,.95-.46,1.35l-4.5,11.85h-3.91Zm3.72-4.79l1.36-3.39h9.57l1.44,3.39h-12.36Z"/><path class="cls-1" d="M558.63,149.37v-21h3.51l12.19,16.41-.66,.13c-.08-.57-.15-1.14-.21-1.73-.07-.6-.12-1.2-.17-1.85s-.1-1.31-.13-2.01-.05-1.44-.07-2.21c-.02-.76-.03-1.58-.03-2.44v-6.3h3.87v21h-3.57l-12.24-16.17,.78-.21c.1,1.12,.19,2.07,.25,2.86s.13,1.47,.17,2.04c.04,.58,.08,1.04,.11,1.43s.05,.72,.06,1.04,0,.61,0,.89v8.12h-3.87Z"/><path class="cls-1" d="M583.73,149.37v-21h8.43c1.52,0,2.9,.24,4.13,.75,1.23,.5,2.29,1.22,3.17,2.16s1.57,2.05,2.04,3.33,.7,2.7,.7,4.26-.23,2.99-.7,4.28-1.14,2.4-2.02,3.33-1.94,1.64-3.18,2.14c-1.24,.51-2.62,.75-4.14,.75h-8.43Zm3.9-3.03l-.29-.57h4.68c.98,0,1.86-.17,2.63-.49,.77-.31,1.43-.77,1.96-1.38,.54-.6,.95-1.33,1.23-2.18s.42-1.8,.42-2.86-.14-2.01-.42-2.86-.69-1.58-1.25-2.18c-.55-.6-1.2-1.06-1.96-1.38-.76-.32-1.63-.49-2.61-.49h-4.78l.39-.51v14.88Z"/><path class="cls-1" d="M608.04,154.96l-1.23-1.47c.73-.4,1.33-.86,1.78-1.4,.45-.53,.67-.99,.67-1.37,0-.2-.04-.39-.13-.58-.1-.2-.31-.45-.64-.77-.42-.38-.7-.7-.84-.99-.15-.28-.21-.6-.21-.93,0-.53,.2-.95,.57-1.26,.38-.32,.88-.49,1.47-.49,.54,0,1.03,.16,1.46,.46,.43,.29,.76,.71,1.01,1.24,.23,.53,.36,1.14,.36,1.85,0,.62-.11,1.22-.32,1.82-.21,.59-.51,1.13-.9,1.63s-.84,.95-1.35,1.34-1.07,.69-1.69,.92Z"/><path class="cls-1" d="M638.42,149.67c-1.58,0-3.04-.27-4.38-.83-1.34-.55-2.5-1.31-3.49-2.29-1-.98-1.76-2.12-2.29-3.43-.55-1.31-.81-2.73-.81-4.28s.27-2.94,.82-4.25,1.33-2.45,2.32-3.42c1.01-.97,2.18-1.73,3.53-2.27s2.8-.81,4.37-.81c1.1,0,2.16,.16,3.18,.45,1.02,.3,1.93,.72,2.75,1.26,.82,.55,1.5,1.15,2.04,1.84l-2.46,2.58c-.56-.54-1.13-.99-1.72-1.35-.6-.36-1.21-.64-1.85-.84-.64-.21-1.3-.3-1.98-.3-1,0-1.92,.18-2.77,.54s-1.59,.86-2.23,1.5c-.62,.63-1.12,1.39-1.48,2.25-.35,.86-.54,1.81-.54,2.82s.19,1.91,.56,2.79,.89,1.65,1.54,2.3,1.43,1.18,2.29,1.54c.87,.37,1.8,.56,2.77,.56,.74,0,1.44-.11,2.07-.33,.64-.21,1.21-.52,1.71-.91,.51-.39,.89-.85,1.16-1.37,.26-.52,.4-1.08,.4-1.68v-.66l.54,.63h-6.2v-3.48h9.5c.04,.21,.08,.46,.1,.73,.02,.26,.03,.53,.04,.78,0,.24,.02,.46,.02,.64,0,1.38-.24,2.64-.72,3.76-.48,1.13-1.15,2.11-2.02,2.93s-1.88,1.46-3.04,1.9c-1.14,.45-2.39,.67-3.73,.67Z"/><path class="cls-1" d="M652.97,149.37v-21h9.12c1.26,0,2.41,.29,3.45,.88,1.04,.6,1.87,1.4,2.48,2.4,.61,1.02,.91,2.15,.91,3.41s-.3,2.3-.91,3.31c-.62,1.02-1.44,1.82-2.46,2.4-1.04,.6-2.19,.89-3.47,.89h-5.31v7.71h-3.81Zm3.81-11.09h5.34c.58,0,1.08-.14,1.51-.41s.76-.64,1.01-1.12,.36-1.01,.36-1.59c0-.65-.15-1.23-.45-1.71s-.72-.86-1.26-1.14c-.55-.27-1.16-.42-1.87-.42h-4.65v6.4Zm8.37,11.09l-5.34-9.48,4.02-.74,5.94,10.25-4.62-.03Z"/><path class="cls-1" d="M683.54,149.67c-1.49,0-2.89-.27-4.17-.81s-2.39-1.3-3.34-2.27c-.96-.97-1.69-2.11-2.21-3.44-.52-1.32-.78-2.75-.78-4.32s.26-3,.78-4.32c.52-1.33,1.25-2.47,2.21-3.44,.95-.97,2.06-1.73,3.34-2.27s2.68-.81,4.17-.81,2.92,.27,4.2,.81,2.39,1.3,3.33,2.28c.95,.99,1.67,2.13,2.2,3.44,.52,1.31,.77,2.74,.77,4.31s-.25,2.97-.77,4.29c-.53,1.32-1.25,2.47-2.2,3.46-.94,.98-2.05,1.74-3.33,2.28s-2.68,.81-4.2,.81Zm0-3.72c.97,0,1.84-.18,2.63-.53s1.47-.85,2.05-1.49c.59-.65,1.04-1.41,1.37-2.27s.5-1.81,.5-2.82-.17-1.96-.5-2.82-.78-1.61-1.37-2.27c-.58-.64-1.26-1.14-2.05-1.49s-1.66-.53-2.63-.53-1.81,.18-2.61,.53-1.49,.84-2.07,1.48c-.58,.63-1.03,1.39-1.35,2.25s-.48,1.82-.48,2.85,.16,1.96,.48,2.83,.77,1.63,1.35,2.27c.58,.64,1.27,1.13,2.07,1.48s1.67,.53,2.61,.53Z"/><path class="cls-1" d="M702.89,149.37l-6.54-21h4.08l3.72,12.39c.12,.38,.22,.8,.32,1.26,.11,.46,.2,.91,.27,1.36s.15,.87,.21,1.25c.06,.38,.12,.7,.18,.96l-.81-.03c.24-.94,.43-1.7,.57-2.28,.15-.59,.27-1.06,.38-1.46s.22-.76,.34-1.09l3.54-9.06h3.33l3.45,9.06c.2,.56,.38,1.09,.54,1.6,.17,.51,.29,1.01,.41,1.49,.11,.5,.21,1,.31,1.52l-.72,.15c.08-.48,.15-.87,.19-1.17s.08-.57,.12-.81l.12-.7c.04-.23,.11-.51,.2-.84s.21-.75,.35-1.28l3.68-12.32h4.05l-6.57,21h-2.81l-5.34-12.77,.36,.12-5.07,12.66h-2.85Z"/><path class="cls-1" d="M728.51,149.37v-3.45h3.45v-14.1h-3.45v-3.45h10.8v3.45h-3.45v14.1h3.45v3.45h-10.8Z"/><path class="cls-1" d="M745.37,149.37v-21h3.51l12.18,16.41-.65,.13c-.09-.57-.16-1.14-.21-1.73-.06-.6-.12-1.2-.17-1.85s-.09-1.31-.12-2.01-.06-1.44-.08-2.21c-.02-.76-.03-1.58-.03-2.44v-6.3h3.87v21h-3.56l-12.25-16.17,.78-.21c.11,1.12,.19,2.07,.25,2.86,.08,.79,.13,1.47,.17,2.04,.04,.58,.08,1.04,.11,1.43s.05,.72,.06,1.04,.02,.61,.02,.89v8.12h-3.87Z"/><path class="cls-1" d="M779.78,149.67c-1.58,0-3.04-.27-4.38-.83-1.34-.55-2.5-1.31-3.49-2.29-1-.98-1.76-2.12-2.29-3.43-.55-1.31-.81-2.73-.81-4.28s.27-2.94,.82-4.25,1.33-2.45,2.32-3.42c1.01-.97,2.18-1.73,3.53-2.27s2.8-.81,4.37-.81c1.1,0,2.16,.16,3.18,.45,1.02,.3,1.93,.72,2.75,1.26,.82,.55,1.5,1.15,2.04,1.84l-2.46,2.58c-.56-.54-1.13-.99-1.72-1.35-.6-.36-1.21-.64-1.85-.84-.64-.21-1.3-.3-1.98-.3-1,0-1.92,.18-2.77,.54s-1.59,.86-2.23,1.5c-.62,.63-1.12,1.39-1.48,2.25-.35,.86-.54,1.81-.54,2.82s.19,1.91,.56,2.79,.89,1.65,1.54,2.3,1.43,1.18,2.29,1.54c.87,.37,1.8,.56,2.77,.56,.74,0,1.44-.11,2.07-.33,.64-.21,1.21-.52,1.71-.91,.51-.39,.89-.85,1.16-1.37,.26-.52,.4-1.08,.4-1.68v-.66l.54,.63h-6.2v-3.48h9.5c.04,.21,.08,.46,.1,.73,.02,.26,.03,.53,.04,.78,0,.24,.02,.46,.02,.64,0,1.38-.24,2.64-.72,3.76-.48,1.13-1.15,2.11-2.02,2.93s-1.88,1.46-3.04,1.9c-1.14,.45-2.39,.67-3.73,.67Z"/><path class="cls-1" d="M814.85,149.67c-1.49,0-2.89-.27-4.17-.81s-2.39-1.3-3.34-2.27c-.96-.97-1.69-2.11-2.21-3.44-.52-1.32-.78-2.75-.78-4.32s.26-3,.78-4.32c.52-1.33,1.25-2.47,2.21-3.44,.95-.97,2.06-1.73,3.34-2.27s2.68-.81,4.17-.81,2.92,.27,4.2,.81,2.39,1.3,3.33,2.28c.95,.99,1.67,2.13,2.2,3.44,.52,1.31,.77,2.74,.77,4.31s-.25,2.97-.77,4.29c-.53,1.32-1.25,2.47-2.2,3.46-.94,.98-2.05,1.74-3.33,2.28s-2.68,.81-4.2,.81Zm0-3.72c.97,0,1.84-.18,2.63-.53s1.47-.85,2.05-1.49c.59-.65,1.04-1.41,1.37-2.27s.5-1.81,.5-2.82-.17-1.96-.5-2.82-.78-1.61-1.37-2.27c-.58-.64-1.26-1.14-2.05-1.49s-1.66-.53-2.63-.53-1.81,.18-2.61,.53-1.49,.84-2.07,1.48c-.58,.63-1.03,1.39-1.35,2.25s-.48,1.82-.48,2.85,.16,1.96,.48,2.83,.77,1.63,1.35,2.27c.58,.64,1.27,1.13,2.07,1.48s1.67,.53,2.61,.53Z"/><path class="cls-1" d="M839.17,149.56c-1.66,0-3.13-.36-4.43-1.06-1.31-.71-2.33-1.69-3.08-2.94-.75-1.25-1.13-2.67-1.13-4.25v-12.96h3.94v12.69c0,.95,.21,1.78,.64,2.51s1.01,1.31,1.73,1.75c.71,.45,1.49,.66,2.33,.66,.92,0,1.75-.21,2.49-.66,.74-.44,1.33-1.02,1.76-1.75s.64-1.56,.64-2.51v-12.69h3.78v12.96c0,1.58-.37,3-1.12,4.25s-1.78,2.23-3.08,2.94c-1.3,.7-2.79,1.06-4.47,1.06Z"/><path class="cls-1" d="M854.51,149.37v-21h9.12c1.26,0,2.41,.29,3.45,.88,1.04,.6,1.87,1.4,2.48,2.4,.61,1.02,.91,2.15,.91,3.41s-.3,2.3-.91,3.31c-.62,1.02-1.44,1.82-2.46,2.4-1.04,.6-2.19,.89-3.47,.89h-5.31v7.71h-3.81Zm3.81-11.09h5.34c.58,0,1.08-.14,1.51-.41s.76-.64,1.01-1.12,.36-1.01,.36-1.59c0-.65-.15-1.23-.45-1.71s-.72-.86-1.26-1.14c-.55-.27-1.16-.42-1.87-.42h-4.65v6.4Zm8.37,11.09l-5.34-9.48,4.02-.74,5.94,10.25-4.62-.03Z"/><path class="cls-1" d="M896.74,149.67c-1.51,0-2.91-.26-4.17-.78s-2.34-1.26-3.26-2.24c-.93-.97-1.64-2.12-2.15-3.45s-.76-2.78-.76-4.37,.26-2.93,.81-4.23c.54-1.3,1.29-2.44,2.25-3.42,.96-.99,2.08-1.75,3.36-2.29s2.67-.81,4.17-.81c1.02,0,2.01,.16,2.97,.45,.96,.3,1.85,.72,2.64,1.25,.8,.53,1.47,1.14,2.01,1.85l-2.49,2.72c-.52-.54-1.05-1-1.6-1.37-.55-.36-1.12-.64-1.71-.84-.6-.19-1.2-.28-1.82-.28-.92,0-1.79,.18-2.6,.51-.81,.34-1.5,.82-2.1,1.45-.59,.62-1.05,1.36-1.4,2.21-.33,.85-.51,1.8-.51,2.83s.17,2.02,.5,2.88,.8,1.6,1.41,2.22c.62,.62,1.34,1.09,2.19,1.43s1.79,.5,2.81,.5c.65,0,1.3-.09,1.91-.27,.62-.18,1.2-.43,1.73-.76s1.02-.71,1.46-1.15l1.92,3.09c-.49,.54-1.12,1.04-1.92,1.47s-1.7,.78-2.69,1.04c-.99,.24-1.97,.37-2.96,.37Z"/><path class="cls-1" d="M918.61,149.67c-1.49,0-2.89-.27-4.17-.81s-2.39-1.3-3.34-2.27c-.96-.97-1.69-2.11-2.21-3.44-.52-1.32-.78-2.75-.78-4.32s.26-3,.78-4.32c.52-1.33,1.25-2.47,2.21-3.44,.95-.97,2.06-1.73,3.34-2.27s2.68-.81,4.17-.81,2.92,.27,4.2,.81,2.39,1.3,3.33,2.28c.95,.99,1.67,2.13,2.2,3.44,.52,1.31,.77,2.74,.77,4.31s-.25,2.97-.77,4.29c-.53,1.32-1.25,2.47-2.2,3.46-.94,.98-2.05,1.74-3.33,2.28s-2.68,.81-4.2,.81Zm0-3.72c.97,0,1.84-.18,2.63-.53s1.47-.85,2.05-1.49c.59-.65,1.04-1.41,1.37-2.27s.5-1.81,.5-2.82-.17-1.96-.5-2.82-.78-1.61-1.37-2.27c-.58-.64-1.26-1.14-2.05-1.49s-1.66-.53-2.63-.53-1.81,.18-2.61,.53-1.49,.84-2.07,1.48c-.58,.63-1.03,1.39-1.35,2.25s-.48,1.82-.48,2.85,.16,1.96,.48,2.83,.77,1.63,1.35,2.27c.58,.64,1.27,1.13,2.07,1.48s1.67,.53,2.61,.53Z"/><path class="cls-1" d="M934.07,149.37v-21h3.68l7.66,12.45-2.16-.03,7.73-12.42h3.52v21h-3.88v-7.89c0-1.8,.05-3.42,.14-4.85,.09-1.45,.24-2.87,.47-4.3l.48,1.29-6.51,10.06h-1.98l-6.3-9.96,.42-1.39c.22,1.35,.38,2.71,.47,4.13,.09,1.41,.14,3.09,.14,5.02v7.89h-3.87Z"/><path class="cls-1" d="M961.3,149.37v-21h3.68l7.66,12.45-2.16-.03,7.73-12.42h3.52v21h-3.88v-7.89c0-1.8,.05-3.42,.14-4.85,.09-1.45,.24-2.87,.47-4.3l.48,1.29-6.51,10.06h-1.98l-6.3-9.96,.42-1.39c.22,1.35,.38,2.71,.47,4.13,.09,1.41,.14,3.09,.14,5.02v7.89h-3.87Z"/><path class="cls-1" d="M996.94,149.56c-1.66,0-3.13-.36-4.43-1.06-1.31-.71-2.33-1.69-3.08-2.94-.75-1.25-1.13-2.67-1.13-4.25v-12.96h3.94v12.69c0,.95,.21,1.78,.64,2.51s1.01,1.31,1.73,1.75c.71,.45,1.49,.66,2.33,.66,.92,0,1.75-.21,2.49-.66,.74-.44,1.33-1.02,1.76-1.75s.64-1.56,.64-2.51v-12.69h3.78v12.96c0,1.58-.37,3-1.12,4.25s-1.78,2.23-3.08,2.94c-1.3,.7-2.79,1.06-4.47,1.06Z"/><path class="cls-1" d="M1012.18,149.37v-21h3.51l12.19,16.41-.66,.13c-.08-.57-.15-1.14-.21-1.73-.07-.6-.12-1.2-.17-1.85s-.1-1.31-.13-2.01-.05-1.44-.07-2.21c-.02-.76-.03-1.58-.03-2.44v-6.3h3.87v21h-3.57l-12.24-16.17,.78-.21c.1,1.12,.19,2.07,.25,2.86s.13,1.47,.17,2.04c.04,.58,.08,1.04,.11,1.43s.05,.72,.06,1.04,0,.61,0,.89v8.12h-3.87Z"/><path class="cls-1" d="M1036.66,149.37v-3.45h3.45v-14.1h-3.45v-3.45h10.79v3.45h-3.45v14.1h3.45v3.45h-10.79Z"/><path class="cls-1" d="M1057.24,149.37v-17.4h-6v-3.59h16.07v3.59h-6.18v17.4h-3.9Z"/><path class="cls-1" d="M1077.28,149.37v-10.47l.21,1.47-8.49-12h4.55l6.48,9.3-1.41-.09,5.85-9.21h4.38l-8.12,12.32,.45-2.03v10.7h-3.91Z"/></g><g><path class="cls-1" d="M272.48,89.26c-4.86,0-9.31-.83-13.34-2.5-4.03-1.66-7.52-4.04-10.47-7.15-2.94-3.11-5.22-6.78-6.86-11.04s-2.45-8.92-2.45-13.97,.86-9.38,2.59-13.54,4.13-7.8,7.21-10.94c3.07-3.13,6.65-5.58,10.75-7.3,4.09-1.73,8.54-2.59,13.34-2.59,3.26,0,6.44,.48,9.5,1.44,3.08,.97,5.89,2.29,8.45,3.98,2.56,1.7,4.71,3.67,6.44,5.91l-7.97,8.74c-1.66-1.73-3.38-3.18-5.14-4.38-1.76-1.18-3.58-2.08-5.47-2.69-1.89-.61-3.83-.91-5.81-.91-2.94,0-5.71,.54-8.3,1.63-2.6,1.08-4.83,2.63-6.72,4.61-1.89,1.98-3.38,4.34-4.46,7.05-1.09,2.72-1.64,5.74-1.64,9.07s.53,6.46,1.59,9.22c1.05,2.75,2.56,5.12,4.51,7.1,1.94,1.98,4.29,3.51,7,4.56,2.72,1.05,5.71,1.58,8.97,1.58,2.12,0,4.16-.28,6.15-.86,1.98-.58,3.82-1.4,5.52-2.45,1.69-1.05,3.24-2.29,4.66-3.69l6.14,9.88c-1.54,1.73-3.58,3.3-6.14,4.71-2.57,1.41-5.43,2.51-8.59,3.31-3.17,.8-6.33,1.2-9.46,1.2Z"/><path class="cls-1" d="M345.64,89.26c-4.79,0-9.25-.86-13.34-2.59-4.1-1.73-7.67-4.15-10.7-7.26-3.05-3.1-5.4-6.77-7.06-10.99-1.66-4.23-2.5-8.84-2.5-13.83s.84-9.6,2.5-13.82c1.66-4.23,4.01-7.89,7.06-11,3.04-3.11,6.6-5.52,10.7-7.25,4.09-1.73,8.54-2.59,13.34-2.59s9.35,.86,13.44,2.59c4.1,1.73,7.65,4.16,10.66,7.29,3,3.13,5.34,6.8,7,11,1.66,4.19,2.5,8.78,2.5,13.77s-.84,9.5-2.5,13.73-4,7.9-7,11.04c-3.02,3.13-6.56,5.57-10.66,7.29-4.09,1.73-8.57,2.59-13.44,2.59Zm0-11.9c3.08,0,5.87-.56,8.4-1.68s4.72-2.71,6.58-4.79c1.86-2.08,3.31-4.5,4.37-7.26,1.05-2.74,1.58-5.75,1.58-9.02s-.53-6.27-1.58-9.02c-1.05-2.74-2.51-5.17-4.37-7.25-1.87-2.08-4.05-3.68-6.58-4.79-2.53-1.12-5.32-1.69-8.4-1.69s-5.79,.57-8.35,1.69c-2.56,1.11-4.77,2.7-6.62,4.75-1.87,2.05-3.3,4.45-4.33,7.2-1.03,2.75-1.53,5.8-1.53,9.12s.51,6.29,1.53,9.07,2.46,5.21,4.33,7.25c1.86,2.05,4.06,3.63,6.62,4.76s5.34,1.68,8.35,1.68Z"/><path class="cls-1" d="M399.88,88.31V21.1h29.19c4.03,0,7.71,.95,11.04,2.83,3.33,1.89,5.97,4.45,7.92,7.69s2.93,6.87,2.93,10.9-.98,7.37-2.93,10.61-4.57,5.79-7.87,7.68c-3.29,1.89-6.99,2.83-11.08,2.83h-16.99v24.68h-12.2Zm12.2-35.52h17.09c1.86,0,3.47-.44,4.84-1.3,1.38-.87,2.45-2.07,3.21-3.6,.77-1.53,1.15-3.23,1.15-5.09,0-2.11-.48-3.94-1.44-5.47s-2.3-2.75-4.03-3.65c-1.73-.89-3.71-1.34-5.96-1.34h-14.87v20.45Zm26.78,35.52l-17.08-30.34,12.86-2.39,19,32.83-14.79-.1Z"/><path class="cls-1" d="M485.32,88.31V32.62h-19.2v-11.52h51.46v11.52h-19.78v55.68h-12.48Z"/><path class="cls-1" d="M535.81,88.31V21.1h12.48v55.68h31.01v11.52h-43.49Z"/><path class="cls-1" d="M589.67,88.31l26.21-67.21h11.71l26.02,67.21h-12.96l-14.4-38.21c-.31-.76-.75-1.98-1.29-3.64-.55-1.67-1.14-3.48-1.78-5.43-.64-1.95-1.22-3.77-1.73-5.47-.52-1.7-.9-2.93-1.15-3.7l2.4-.09c-.39,1.28-.84,2.71-1.35,4.32s-1.05,3.26-1.63,4.99-1.13,3.4-1.68,4.99c-.55,1.6-1.04,3.05-1.48,4.33l-14.4,37.92h-12.48Zm11.9-15.36l4.32-10.85h30.62l4.61,10.85h-39.55Z"/><path class="cls-1" d="M669.73,88.31V21.1h11.23l38.98,52.52-2.12,.38c-.25-1.79-.48-3.63-.66-5.52-.2-1.88-.37-3.86-.54-5.91-.16-2.04-.28-4.19-.38-6.43-.1-2.25-.18-4.6-.23-7.06-.07-2.46-.1-5.07-.1-7.82V21.1h12.38V88.31h-11.43l-39.17-51.75,2.5-.67c.32,3.58,.59,6.64,.81,9.17s.4,4.71,.53,6.53c.14,1.82,.24,3.34,.34,4.56,.1,1.21,.16,2.31,.2,3.31,.03,.99,.04,1.93,.04,2.83v26.02h-12.38Z"/><path class="cls-1" d="M754.02,88.31V21.1h26.98c4.86,0,9.26,.8,13.19,2.4s7.33,3.91,10.18,6.91c2.85,3.01,5.03,6.56,6.53,10.65,1.5,4.1,2.26,8.64,2.26,13.63s-.75,9.55-2.26,13.68-3.66,7.68-6.48,10.65c-2.81,2.98-6.2,5.26-10.18,6.87-3.96,1.6-8.38,2.4-13.24,2.4h-26.98Zm12.48-9.7l-.96-1.83h14.97c3.14,0,5.94-.51,8.41-1.53,2.46-1.03,4.56-2.5,6.29-4.41,1.72-1.92,3.04-4.24,3.94-6.96,.89-2.72,1.34-5.77,1.34-9.17s-.45-6.45-1.34-9.17c-.9-2.71-2.23-5.04-3.98-6.95-1.77-1.92-3.86-3.4-6.29-4.42-2.43-1.02-5.21-1.53-8.36-1.53h-15.26l1.25-1.63v47.62Z"/><path class="cls-1" d="M874.11,88.31V21.1h12.48V88.31h-12.48Zm5.19-27.65v-11.72h43.96v11.72h-43.96Zm37.92,27.65V21.1h12.48V88.31h-12.48Z"/><path class="cls-1" d="M945.92,88.31l26.2-67.21h11.72l26.02,67.21h-12.97l-14.39-38.21c-.32-.76-.75-1.98-1.3-3.64-.55-1.67-1.13-3.48-1.78-5.43-.63-1.95-1.21-3.77-1.73-5.47-.51-1.7-.89-2.93-1.15-3.7l2.4-.09c-.38,1.28-.83,2.71-1.34,4.32-.52,1.6-1.06,3.26-1.64,4.99s-1.13,3.4-1.68,4.99c-.54,1.6-1.04,3.05-1.48,4.33l-14.4,37.92h-12.47Zm11.9-15.36l4.32-10.85h30.62l4.61,10.85h-39.55Z"/><path class="cls-1" d="M1025.98,88.31V21.1h29.19c4.03,0,7.71,.95,11.04,2.83,3.33,1.89,5.97,4.45,7.92,7.69s2.93,6.87,2.93,10.9-.98,7.37-2.93,10.61-4.57,5.79-7.87,7.68c-3.29,1.89-6.99,2.83-11.08,2.83h-16.99v24.68h-12.2Zm12.2-35.52h17.09c1.86,0,3.47-.44,4.84-1.3,1.38-.87,2.45-2.07,3.21-3.6,.77-1.53,1.15-3.23,1.15-5.09,0-2.11-.48-3.94-1.44-5.47s-2.3-2.75-4.03-3.65c-1.73-.89-3.71-1.34-5.96-1.34h-14.87v20.45Zm26.78,35.52l-17.08-30.34,12.86-2.39,19,32.83-14.79-.1Z"/><path class="cls-1" d="M1117.27,88.31l-26.88-67.21h13.63l14.97,38.5c.77,1.99,1.45,3.77,2.02,5.33,.58,1.57,1.08,2.99,1.53,4.28,.45,1.28,.85,2.52,1.2,3.74,.35,1.21,.75,2.49,1.2,3.84h-2.69c.44-1.73,.92-3.44,1.44-5.14,.51-1.69,1.1-3.51,1.78-5.42,.67-1.92,1.48-4.13,2.45-6.63l14.01-38.5h13.73l-27.08,67.21h-11.33Z"/><path class="cls-1" d="M1172.38,88.31V21.1h43.97v11.33h-31.68v44.55h32.06v11.33h-44.36Zm5.76-28.8v-11.14h33.31v11.14h-33.31Z"/><path class="cls-1" d="M1260.89,89.26c-3.91,0-7.49-.5-10.75-1.48-3.27-1-6.21-2.48-8.84-4.46s-4.96-4.38-7-7.21l8.15-9.21c3.13,4.35,6.21,7.35,9.22,9.02,3.01,1.66,6.4,2.49,10.18,2.49,2.18,0,4.16-.33,5.95-1.01,1.8-.67,3.2-1.6,4.23-2.78s1.53-2.55,1.53-4.08c0-1.08-.21-2.09-.62-3.03-.41-.92-1.04-1.76-1.87-2.49-.84-.73-1.86-1.43-3.08-2.06-1.21-.64-2.59-1.19-4.13-1.64-1.53-.44-3.23-.86-5.09-1.24-3.52-.7-6.59-1.65-9.21-2.83-2.63-1.19-4.83-2.66-6.63-4.42-1.79-1.76-3.11-3.74-3.94-5.95s-1.24-4.72-1.24-7.54,.62-5.4,1.87-7.77c1.25-2.36,2.96-4.41,5.14-6.14s4.71-3.08,7.59-4.03,5.98-1.44,9.31-1.44c3.78,0,7.16,.44,10.13,1.34,2.98,.9,5.61,2.23,7.87,3.98,2.28,1.76,4.15,3.89,5.62,6.39l-8.26,8.15c-1.28-1.98-2.71-3.62-4.32-4.94-1.6-1.31-3.33-2.3-5.19-2.98-1.86-.66-3.81-1.01-5.86-1.01-2.3,0-4.31,.32-6,.96-1.7,.64-3.03,1.55-3.98,2.74-.96,1.18-1.45,2.61-1.45,4.27,0,1.28,.29,2.42,.87,3.41,.58,1,1.39,1.88,2.45,2.64,1.05,.77,2.41,1.45,4.07,2.02,1.67,.58,3.55,1.08,5.66,1.53,3.53,.7,6.69,1.65,9.51,2.83,2.81,1.18,5.21,2.6,7.2,4.23s3.49,3.49,4.51,5.57,1.53,4.39,1.53,6.96c0,4.41-1.04,8.2-3.12,11.37-2.08,3.17-5.01,5.61-8.79,7.3-3.78,1.69-8.19,2.54-13.24,2.54Z"/><path class="cls-1" d="M1317.73,88.31V32.62h-19.21v-11.52h51.46v11.52h-19.78v55.68h-12.48Z"/></g></g><g><path class="cls-1" d="M86.71,0C38.9,0,0,38.9,0,86.71s38.9,86.71,86.71,86.71,86.71-38.9,86.71-86.71S134.52,0,86.71,0Zm0,148.51c-34.07,0-61.8-27.72-61.8-61.8S52.64,24.92,86.71,24.92s61.8,27.71,61.8,61.79-27.72,61.8-61.8,61.8Z"/><path class="cls-1" d="M59.18,78.29c.76-2.52,1.84-4.88,3.19-7.03l-23.76-17.28c-3.34,4.9-5.89,10.22-7.59,15.82,9.62,2.16,19.09,5.01,28.15,8.49Z"/><path class="cls-1" d="M90.29,93.5c4.76,2.86,9.4,5.91,13.82,9.07,13.11-5.88,26.81-10.35,40.73-13.29,.05-.97,.07-1.77,.07-2.57,0-4.48-.54-8.99-1.58-13.43-18.62,4.16-36.46,10.97-53.04,20.21Z"/><path class="cls-1" d="M86.71,111.44c4.39-2.51,8.98-4.89,13.64-7.11-4.4-3.09-8.98-6.04-13.64-8.77-4.66,2.72-9.24,5.68-13.64,8.77,4.66,2.22,9.25,4.6,13.64,7.11Z"/><path class="cls-1" d="M86.71,61.5c-11.33,0-21.03,7.29-24.17,18.13,8.29,3.36,16.43,7.31,24.17,11.74,7.74-4.42,15.88-8.38,24.17-11.74-3.14-10.85-12.84-18.13-24.17-18.13Z"/><path class="cls-1" d="M86.75,124.76c4.94,0,9.84,.08,14.57,.24-4.74-3.35-9.65-6.51-14.61-9.4-5,2.92-9.91,6.07-14.61,9.4,4.75-.17,9.67-.24,14.65-.24Z"/><g><path class="cls-1" d="M128.86,126.79c8.77-9.23,14.35-21.21,15.71-33.77-18.92,4.1-37.17,11-54.26,20.51,6.03,3.6,11.89,7.55,17.47,11.74,7.14,.34,14.23,.85,21.07,1.52Z"/><path class="cls-1" d="M83.11,113.53c-17.09-9.51-35.34-16.41-54.26-20.51,1.37,12.57,6.94,24.55,15.72,33.77,7.02-.68,14.11-1.19,21.05-1.52,2.06-1.55,4.28-2.83,6.4-4.3,1.57-1.09,3.15-2.15,4.75-3.19,2.13-1.38,4.17-2.95,6.33-4.25Z"/></g><path class="cls-1" d="M86.71,144.92c14.32,0,28.07-5.27,38.76-14.84-12.98-1.15-26.01-1.74-38.72-1.74s-25.86,.59-38.8,1.75c10.7,9.57,24.46,14.83,38.76,14.83Z"/><path class="cls-1" d="M106.39,31.94l-9.08,27.98c4.53,1.78,8.54,4.69,11.62,8.43l23.75-17.27c-6.81-8.77-15.89-15.38-26.29-19.14Z"/><path class="cls-1" d="M28.57,89.28c13.93,2.94,27.63,7.41,40.73,13.29,4.41-3.16,9.05-6.22,13.82-9.07-16.57-9.26-34.41-16.05-53.04-20.21-1.04,4.43-1.58,8.95-1.58,13.43,0,.8,.02,1.6,.07,2.57Z"/><path class="cls-1" d="M142.39,69.8c-1.71-5.62-4.26-10.94-7.59-15.82l-23.76,17.28c1.36,2.15,2.43,4.51,3.19,7.03,9.06-3.48,18.54-6.33,28.15-8.49Z"/><path class="cls-1" d="M40.73,51.08l23.76,17.27c3.08-3.74,7.09-6.65,11.62-8.43l-9.08-27.98c-10.4,3.76-19.48,10.37-26.3,19.14Z"/><path class="cls-1" d="M79.54,58.8c2.34-.59,4.76-.88,7.17-.88s4.82,.29,7.17,.88l9.09-27.96c-10.59-3.09-21.93-3.09-32.52,0l9.09,27.96Z"/></g></g></g></svg>