<?xml version="1.0" encoding="UTF-8"?><svg id="Layer_2" xmlns="http://www.w3.org/2000/svg" viewBox="0 0 1353.27 180"><g id="Layer_1-2"><g><g><path d="M90,0C40.29,0,0,40.29,0,90s40.29,90,90,90,90-40.29,90-90S139.71,0,90,0Zm0,178.5C41.2,178.5,1.5,138.8,1.5,90S41.2,1.5,90,1.5s88.5,39.7,88.5,88.5-39.7,88.5-88.5,88.5Z"/><path d="M90,1.5C41.2,1.5,1.5,41.2,1.5,90s39.7,88.5,88.5,88.5,88.5-39.7,88.5-88.5S138.8,1.5,90,1.5Zm0,175.5C42.03,177,3,137.97,3,90S42.03,3,90,3s87,39.03,87,87-39.03,87-87,87Z"/><path d="M90,28.5c-33.91,0-61.5,27.59-61.5,61.5s27.59,61.5,61.5,61.5,61.5-27.59,61.5-61.5-27.59-61.5-61.5-61.5Zm0,3c5.78,0,11.36,.86,16.64,2.43l-9.27,28.53c-2.36-.62-4.83-.95-7.37-.95s-5.02,.33-7.37,.95l-9.27-28.53c5.28-1.57,10.86-2.43,16.64-2.43Zm0,83.57c-4.65-2.66-9.4-5.13-14.24-7.41,4.64-3.27,9.39-6.34,14.24-9.18,4.85,2.84,9.6,5.9,14.24,9.18-4.84,2.28-9.59,4.75-14.24,7.41Zm0,3.46c5.35,3.12,10.56,6.48,15.59,10.09-5.19-.18-10.38-.28-15.55-.28s-10.42,.1-15.64,.28c5.03-3.61,10.24-6.97,15.6-10.09Zm-24.53-35.43c3.07-11.01,12.97-18.6,24.53-18.6s21.46,7.59,24.53,18.6c-8.43,3.4-16.62,7.37-24.53,11.92-7.92-4.54-16.11-8.51-24.53-11.92Zm5.04-48.25l9.27,28.53c-4.7,1.79-8.8,4.78-11.94,8.66l-24.24-17.61c6.83-8.89,16.15-15.77,26.91-19.58Zm-28.67,22l24.24,17.61c-1.47,2.28-2.62,4.8-3.41,7.51-9.3-3.59-18.89-6.48-28.73-8.66,1.77-5.94,4.45-11.48,7.89-16.46Zm-10.33,33.14c0-4.75,.58-9.36,1.66-13.78,19,4.21,37.03,11.1,53.85,20.56-4.9,2.93-9.7,6.07-14.38,9.43-13.18-5.93-26.98-10.45-41.05-13.4-.04-.93-.07-1.87-.07-2.81Zm.3,5.93c19.24,4.13,37.94,11.22,55.2,20.88-6.2,3.69-12.21,7.71-17.97,12.04-7.13,.34-14.24,.86-21.28,1.54-8.77-9.17-14.6-21.16-15.94-34.46Zm58.2,52.57c-15.19,0-29.05-5.83-39.46-15.35,13.07-1.19,26.34-1.8,39.5-1.8s26.39,.61,39.43,1.8c-10.41,9.53-24.27,15.36-39.47,15.36Zm42.26-18.12c-7.05-.68-14.16-1.2-21.29-1.54-5.76-4.33-11.76-8.35-17.96-12.04,17.26-9.66,35.96-16.75,55.2-20.88-1.34,13.3-7.18,25.29-15.94,34.46Zm16.24-40.38c0,.94-.03,1.88-.07,2.81-14.08,2.95-27.87,7.47-41.05,13.4-4.68-3.36-9.48-6.5-14.38-9.43,16.82-9.46,34.86-16.35,53.85-20.56,1.07,4.42,1.66,9.03,1.66,13.78Zm-2.44-16.68c-9.84,2.19-19.43,5.07-28.73,8.66-.79-2.71-1.94-5.23-3.41-7.51l24.24-17.61c3.44,4.99,6.12,10.53,7.89,16.46Zm-33.9-1.27c-3.13-3.88-7.24-6.87-11.94-8.66l9.27-28.53c10.76,3.82,20.08,10.69,26.91,19.58l-24.24,17.61Z"/></g><g><g><path d="M243.44,152.66v-21.01h9.11c1.27,0,2.42,.3,3.46,.89s1.87,1.39,2.48,2.4c.61,1.01,.91,2.14,.91,3.4s-.3,2.3-.91,3.32c-.62,1.01-1.44,1.81-2.46,2.4-1.04,.59-2.19,.88-3.48,.88h-5.3v7.71h-3.81Zm3.81-11.1h5.34c.58,0,1.08-.14,1.51-.4,.43-.27,.76-.64,1.01-1.13,.23-.48,.35-1.01,.35-1.58,0-.66-.14-1.23-.45-1.71-.29-.49-.71-.87-1.25-1.14-.55-.28-1.17-.42-1.87-.42h-4.65v6.39Zm8.37,11.1l-5.34-9.48,4.02-.75,5.94,10.26-4.62-.03Z"/><path d="M274.01,152.96c-1.49,0-2.89-.26-4.17-.8-1.28-.55-2.4-1.3-3.34-2.27-.96-.98-1.69-2.12-2.21-3.44-.53-1.32-.78-2.76-.78-4.33s.25-3,.78-4.32c.52-1.32,1.25-2.46,2.21-3.44,.94-.97,2.06-1.72,3.34-2.27,1.28-.54,2.68-.81,4.17-.81s2.92,.27,4.2,.81c1.28,.55,2.39,1.31,3.33,2.29s1.67,2.13,2.19,3.44c.53,1.31,.78,2.74,.78,4.3s-.25,2.98-.78,4.3c-.52,1.32-1.25,2.47-2.19,3.45s-2.05,1.74-3.33,2.29c-1.28,.54-2.69,.8-4.2,.8Zm0-3.71c.97,0,1.84-.18,2.63-.53,.78-.35,1.47-.85,2.05-1.5,.59-.64,1.04-1.41,1.37-2.27s.49-1.8,.49-2.82-.16-1.95-.49-2.81-.78-1.62-1.37-2.27c-.58-.65-1.27-1.15-2.05-1.5-.79-.35-1.66-.53-2.63-.53s-1.81,.18-2.61,.53-1.49,.85-2.07,1.48c-.59,.64-1.04,1.4-1.35,2.26-.32,.86-.49,1.81-.49,2.84s.17,1.97,.49,2.84c.31,.87,.76,1.62,1.35,2.27,.58,.63,1.27,1.13,2.07,1.48s1.66,.53,2.61,.53Z"/><path d="M298.9,152.96c-1.49,0-2.89-.26-4.16-.8-1.29-.55-2.4-1.3-3.35-2.27-.95-.98-1.69-2.12-2.21-3.44s-.77-2.76-.77-4.33,.25-3,.77-4.32,1.26-2.46,2.21-3.44c.95-.97,2.06-1.72,3.35-2.27,1.27-.54,2.67-.81,4.16-.81s2.93,.27,4.2,.81c1.29,.55,2.4,1.31,3.34,2.29s1.66,2.13,2.19,3.44c.52,1.31,.78,2.74,.78,4.3s-.26,2.98-.78,4.3c-.53,1.32-1.25,2.47-2.19,3.45s-2.05,1.74-3.34,2.29c-1.27,.54-2.68,.8-4.2,.8Zm0-3.71c.97,0,1.84-.18,2.64-.53,.78-.35,1.46-.85,2.05-1.5,.58-.64,1.04-1.41,1.37-2.27s.49-1.8,.49-2.82-.16-1.95-.49-2.81-.79-1.62-1.37-2.27c-.59-.65-1.27-1.15-2.05-1.5-.8-.35-1.67-.53-2.64-.53s-1.81,.18-2.61,.53c-.79,.35-1.49,.85-2.06,1.48-.59,.64-1.04,1.4-1.36,2.26s-.48,1.81-.48,2.84,.16,1.97,.48,2.84,.77,1.62,1.36,2.27c.57,.63,1.27,1.13,2.06,1.48,.8,.35,1.67,.53,2.61,.53Z"/><path d="M317.59,152.66v-17.4h-6v-3.6h16.07v3.6h-6.17v17.4h-3.91Z"/><path d="M332.72,152.66v-21.01h13.74v3.54h-9.9v13.92h10.02v3.54h-13.86Zm1.8-9v-3.48h10.41v3.48h-10.41Z"/><path d="M352.61,152.66v-21.01h8.42c1.52,0,2.9,.25,4.13,.75s2.29,1.22,3.17,2.16c.9,.95,1.58,2.05,2.05,3.33s.7,2.71,.7,4.27-.23,2.98-.7,4.27-1.15,2.4-2.03,3.33c-.88,.94-1.93,1.65-3.18,2.15-1.23,.5-2.62,.75-4.14,.75h-8.42Zm3.89-3.04l-.29-.57h4.68c.99,0,1.86-.16,2.63-.48s1.43-.78,1.96-1.38c.54-.61,.95-1.33,1.23-2.18s.42-1.81,.42-2.86-.14-2.02-.42-2.87-.69-1.57-1.24-2.18c-.55-.6-1.21-1.05-1.97-1.38s-1.62-.48-2.61-.48h-4.78l.39-.51v14.87Z"/><path d="M387.1,152.66v-3.46h3.46v-14.09h-3.46v-3.46h10.8v3.46h-3.45v14.09h3.45v3.46h-10.8Z"/><path d="M403.9,152.66v-21.01h3.52l12.18,16.42-.65,.12c-.09-.56-.16-1.13-.21-1.73-.06-.59-.12-1.2-.17-1.85-.05-.63-.09-1.31-.13-2-.02-.7-.05-1.44-.07-2.21s-.03-1.58-.03-2.45v-6.3h3.87v21.01h-3.57l-12.24-16.17,.78-.21c.11,1.12,.19,2.08,.25,2.87s.13,1.46,.17,2.04c.04,.57,.08,1.04,.11,1.43s.05,.72,.06,1.04c0,.3,0,.61,0,.88v8.13h-3.87Z"/><path d="M449.33,152.96c-1.5,0-2.89-.26-4.18-.8-1.27-.55-2.39-1.3-3.34-2.27-.96-.98-1.68-2.12-2.21-3.44-.52-1.32-.78-2.76-.78-4.33s.26-3,.78-4.32c.53-1.32,1.25-2.46,2.21-3.44,.95-.97,2.07-1.72,3.34-2.27,1.29-.54,2.68-.81,4.18-.81s2.91,.27,4.2,.81c1.27,.55,2.38,1.31,3.32,2.29,.95,.98,1.68,2.13,2.2,3.44s.77,2.74,.77,4.3-.25,2.98-.77,4.3-1.25,2.47-2.2,3.45c-.94,.98-2.05,1.74-3.32,2.29-1.29,.54-2.69,.8-4.2,.8Zm0-3.71c.96,0,1.84-.18,2.62-.53,.79-.35,1.48-.85,2.05-1.5,.59-.64,1.04-1.41,1.37-2.27s.5-1.8,.5-2.82-.17-1.95-.5-2.81-.78-1.62-1.37-2.27c-.57-.65-1.26-1.15-2.05-1.5-.78-.35-1.66-.53-2.62-.53s-1.82,.18-2.62,.53-1.48,.85-2.07,1.48c-.58,.64-1.03,1.4-1.35,2.26-.31,.86-.48,1.81-.48,2.84s.17,1.97,.48,2.84c.32,.87,.77,1.62,1.35,2.27,.59,.63,1.27,1.13,2.07,1.48s1.67,.53,2.62,.53Z"/><path d="M473.66,152.84c-1.66,0-3.13-.35-4.44-1.06-1.3-.71-2.32-1.69-3.07-2.94-.76-1.25-1.13-2.67-1.13-4.25v-12.96h3.93v12.7c0,.94,.21,1.78,.64,2.5,.43,.73,1.02,1.32,1.74,1.76,.71,.44,1.49,.66,2.33,.66,.92,0,1.75-.22,2.49-.66s1.33-1.03,1.76-1.76c.43-.72,.64-1.56,.64-2.5v-12.7h3.77v12.96c0,1.58-.37,3-1.11,4.25-.76,1.25-1.78,2.23-3.09,2.94-1.29,.71-2.78,1.06-4.46,1.06Z"/><path d="M488.99,152.66v-21.01h9.11c1.27,0,2.42,.3,3.46,.89s1.87,1.39,2.48,2.4c.61,1.01,.91,2.14,.91,3.4s-.3,2.3-.91,3.32c-.62,1.01-1.44,1.81-2.46,2.4-1.04,.59-2.19,.88-3.48,.88h-5.3v7.71h-3.81Zm3.81-11.1h5.34c.58,0,1.08-.14,1.51-.4,.43-.27,.76-.64,1.01-1.13,.23-.48,.35-1.01,.35-1.58,0-.66-.14-1.23-.45-1.71-.29-.49-.71-.87-1.25-1.14-.55-.28-1.17-.42-1.87-.42h-4.65v6.39Zm8.37,11.1l-5.34-9.48,4.02-.75,5.94,10.26-4.62-.03Z"/><path d="M522.32,152.66v-21.01h3.89v17.4h9.7v3.6h-13.58Z"/><path d="M538.03,152.66l8.19-21.01h3.65l8.13,21.01h-4.05l-4.49-11.94c-.1-.23-.23-.62-.41-1.14-.18-.52-.35-1.08-.55-1.69-.21-.62-.39-1.18-.55-1.71-.16-.54-.27-.92-.36-1.16l.75-.03c-.12,.4-.25,.85-.42,1.36-.17,.5-.33,1.02-.52,1.55-.18,.55-.35,1.06-.52,1.56s-.32,.95-.46,1.35l-4.51,11.86h-3.9Zm3.72-4.8l1.35-3.39h9.57l1.45,3.39h-12.36Z"/><path d="M561.92,152.66v-21.01h3.51l12.19,16.42-.66,.12c-.08-.56-.16-1.13-.21-1.73-.06-.59-.12-1.2-.16-1.85-.06-.63-.1-1.31-.13-2-.03-.7-.05-1.44-.07-2.21s-.04-1.58-.04-2.45v-6.3h3.87v21.01h-3.56l-12.24-16.17,.78-.21c.1,1.12,.18,2.08,.25,2.87,.07,.79,.12,1.46,.16,2.04,.04,.57,.08,1.04,.12,1.43,.02,.38,.04,.72,.06,1.04,0,.3,0,.61,0,.88v8.13h-3.87Z"/><path d="M587.02,152.66v-21.01h8.43c1.51,0,2.9,.25,4.13,.75s2.29,1.22,3.17,2.16c.89,.95,1.57,2.05,2.04,3.33s.7,2.71,.7,4.27-.23,2.98-.7,4.27-1.15,2.4-2.03,3.33c-.88,.94-1.93,1.65-3.17,2.15s-2.63,.75-4.14,.75h-8.43Zm3.9-3.04l-.3-.57h4.69c.98,0,1.86-.16,2.62-.48,.78-.32,1.43-.78,1.97-1.38,.54-.61,.95-1.33,1.23-2.18,.27-.85,.41-1.81,.41-2.86s-.14-2.02-.41-2.87c-.28-.85-.7-1.57-1.25-2.18-.55-.6-1.21-1.05-1.96-1.38-.76-.32-1.63-.48-2.61-.48h-4.78l.39-.51v14.87Z"/><path d="M611.32,158.24l-1.23-1.46c.74-.4,1.34-.87,1.79-1.4,.45-.54,.67-.99,.67-1.37,0-.21-.04-.39-.14-.59-.09-.19-.3-.45-.64-.76-.41-.38-.7-.71-.84-1-.14-.27-.21-.59-.21-.93,0-.52,.19-.94,.57-1.26s.87-.48,1.47-.48c.54,0,1.02,.15,1.45,.45s.77,.71,1.02,1.25c.23,.53,.35,1.14,.35,1.84,0,.62-.1,1.23-.31,1.82-.21,.6-.51,1.14-.9,1.64s-.84,.95-1.35,1.33c-.51,.39-1.07,.7-1.7,.92Z"/><path d="M641.71,152.96c-1.58,0-3.05-.27-4.38-.82s-2.51-1.32-3.49-2.29c-1-.98-1.76-2.13-2.3-3.44-.54-1.31-.8-2.73-.8-4.28s.27-2.93,.82-4.24,1.33-2.45,2.32-3.42c1-.98,2.17-1.73,3.53-2.27,1.35-.55,2.8-.81,4.37-.81,1.09,0,2.16,.15,3.18,.45,1.02,.3,1.93,.72,2.75,1.26s1.5,1.15,2.04,1.83l-2.46,2.58c-.56-.54-1.13-.99-1.73-1.35-.59-.36-1.2-.63-1.84-.84-.64-.2-1.31-.3-1.99-.3-1,0-1.91,.19-2.77,.55-.84,.36-1.58,.86-2.22,1.49-.63,.64-1.12,1.4-1.48,2.26s-.54,1.8-.54,2.81,.19,1.91,.55,2.79c.37,.88,.9,1.65,1.55,2.31,.65,.65,1.43,1.17,2.29,1.54s1.8,.56,2.77,.56c.74,0,1.43-.11,2.07-.33s1.21-.53,1.71-.92,.89-.84,1.16-1.37c.26-.52,.4-1.07,.4-1.68v-.65l.54,.62h-6.21v-3.48h9.51c.04,.22,.08,.47,.1,.73,.02,.27,.03,.54,.04,.78,0,.25,.02,.47,.02,.64,0,1.39-.24,2.64-.72,3.77-.49,1.12-1.15,2.1-2.03,2.92-.86,.82-1.88,1.46-3.03,1.9s-2.39,.67-3.73,.67Z"/><path d="M656.26,152.66v-21.01h9.12c1.25,0,2.4,.3,3.45,.89s1.87,1.39,2.47,2.4c.62,1.01,.92,2.14,.92,3.4s-.3,2.3-.92,3.32c-.61,1.01-1.43,1.81-2.46,2.4-1.03,.59-2.19,.88-3.46,.88h-5.31v7.71h-3.81Zm3.81-11.1h5.33c.59,0,1.09-.14,1.52-.4,.43-.27,.76-.64,1.01-1.13,.24-.48,.36-1.01,.36-1.58,0-.66-.16-1.23-.45-1.71-.3-.49-.72-.87-1.27-1.14-.54-.28-1.15-.42-1.86-.42h-4.65v6.39Zm8.37,11.1l-5.34-9.48,4.02-.75,5.94,10.26-4.62-.03Z"/><path d="M686.83,152.96c-1.5,0-2.89-.26-4.17-.8-1.28-.55-2.39-1.3-3.35-2.27-.95-.98-1.68-2.12-2.21-3.44-.51-1.32-.77-2.76-.77-4.33s.26-3,.77-4.32c.53-1.32,1.26-2.46,2.21-3.44,.96-.97,2.07-1.72,3.35-2.27,1.28-.54,2.67-.81,4.17-.81s2.92,.27,4.2,.81c1.28,.55,2.39,1.31,3.33,2.29,.95,.98,1.67,2.13,2.2,3.44,.51,1.31,.77,2.74,.77,4.3s-.26,2.98-.77,4.3c-.53,1.32-1.25,2.47-2.2,3.45-.94,.98-2.05,1.74-3.33,2.29-1.28,.54-2.68,.8-4.2,.8Zm0-3.71c.96,0,1.84-.18,2.63-.53s1.47-.85,2.05-1.5c.58-.64,1.04-1.41,1.37-2.27s.5-1.8,.5-2.82-.17-1.95-.5-2.81-.79-1.62-1.37-2.27c-.58-.65-1.26-1.15-2.05-1.5s-1.67-.53-2.63-.53-1.82,.18-2.62,.53c-.79,.35-1.48,.85-2.06,1.48-.58,.64-1.03,1.4-1.36,2.26-.31,.86-.47,1.81-.47,2.84s.16,1.97,.47,2.84c.33,.87,.78,1.62,1.36,2.27,.58,.63,1.27,1.13,2.06,1.48,.8,.35,1.68,.53,2.62,.53Z"/><path d="M706.18,152.66l-6.54-21.01h4.08l3.71,12.39c.12,.38,.23,.8,.33,1.26s.2,.92,.27,1.37,.15,.86,.21,1.24c.06,.38,.12,.7,.18,.97l-.81-.03c.24-.95,.43-1.7,.57-2.29,.15-.58,.26-1.06,.38-1.46,.11-.39,.21-.75,.34-1.09l3.54-9.06h3.32l3.46,9.06c.2,.56,.37,1.09,.54,1.6,.17,.52,.29,1.02,.4,1.5,.12,.49,.21,1,.32,1.51l-.72,.15c.08-.48,.15-.87,.19-1.16,.04-.3,.08-.58,.12-.81,.04-.24,.08-.48,.12-.7,.04-.23,.11-.52,.2-.84,.09-.33,.21-.76,.35-1.28l3.68-12.33h4.05l-6.57,21.01h-2.82l-5.33-12.78,.35,.12-5.06,12.67h-2.85Z"/><path d="M731.8,152.66v-3.46h3.45v-14.09h-3.45v-3.46h10.79v3.46h-3.44v14.09h3.44v3.46h-10.79Z"/><path d="M748.67,152.66v-21.01h3.5l12.19,16.42-.66,.12c-.08-.56-.15-1.13-.21-1.73-.07-.59-.12-1.2-.17-1.85-.05-.63-.1-1.31-.12-2-.04-.7-.06-1.44-.08-2.21s-.03-1.58-.03-2.45v-6.3h3.87v21.01h-3.56l-12.25-16.17,.78-.21c.1,1.12,.19,2.08,.25,2.87,.08,.79,.13,1.46,.17,2.04,.04,.57,.08,1.04,.11,1.43s.05,.72,.06,1.04c0,.3,.02,.61,.02,.88v8.13h-3.87Z"/><path d="M783.06,152.96c-1.57,0-3.03-.27-4.38-.82-1.34-.55-2.5-1.32-3.5-2.29-.99-.98-1.76-2.13-2.29-3.44-.55-1.31-.82-2.73-.82-4.28s.27-2.93,.83-4.24c.55-1.31,1.32-2.45,2.32-3.42,1.01-.98,2.18-1.73,3.53-2.27,1.35-.55,2.8-.81,4.37-.81,1.1,0,2.16,.15,3.17,.45,1.03,.3,1.94,.72,2.76,1.26s1.49,1.15,2.04,1.83l-2.46,2.58c-.57-.54-1.13-.99-1.72-1.35-.6-.36-1.21-.63-1.86-.84-.63-.2-1.29-.3-1.97-.3-1,0-1.93,.19-2.77,.55-.86,.36-1.59,.86-2.23,1.49-.62,.64-1.12,1.4-1.48,2.26-.35,.86-.54,1.8-.54,2.81s.19,1.91,.56,2.79,.88,1.65,1.54,2.31c.66,.65,1.43,1.17,2.29,1.54s1.79,.56,2.77,.56c.74,0,1.44-.11,2.07-.33s1.21-.53,1.71-.92c.51-.39,.89-.84,1.15-1.37,.27-.52,.41-1.07,.41-1.68v-.65l.54,.62h-6.2v-3.48h9.5c.04,.22,.07,.47,.09,.73,.02,.27,.04,.54,.05,.78,0,.25,0,.47,0,.64,0,1.39-.23,2.64-.71,3.77-.48,1.12-1.16,2.1-2.02,2.92-.88,.82-1.88,1.46-3.04,1.9-1.14,.45-2.39,.67-3.74,.67Z"/><path d="M818.14,152.96c-1.5,0-2.89-.26-4.17-.8-1.28-.55-2.39-1.3-3.35-2.27-.95-.98-1.68-2.12-2.21-3.44-.51-1.32-.77-2.76-.77-4.33s.26-3,.77-4.32c.53-1.32,1.26-2.46,2.21-3.44,.96-.97,2.07-1.72,3.35-2.27,1.28-.54,2.67-.81,4.17-.81s2.92,.27,4.2,.81c1.28,.55,2.39,1.31,3.33,2.29,.95,.98,1.67,2.13,2.2,3.44,.51,1.31,.77,2.74,.77,4.3s-.26,2.98-.77,4.3c-.53,1.32-1.25,2.47-2.2,3.45-.94,.98-2.05,1.74-3.33,2.29-1.28,.54-2.68,.8-4.2,.8Zm0-3.71c.96,0,1.84-.18,2.63-.53s1.47-.85,2.05-1.5c.58-.64,1.04-1.41,1.37-2.27s.5-1.8,.5-2.82-.17-1.95-.5-2.81-.79-1.62-1.37-2.27c-.58-.65-1.26-1.15-2.05-1.5s-1.67-.53-2.63-.53-1.82,.18-2.62,.53c-.79,.35-1.48,.85-2.06,1.48-.58,.64-1.03,1.4-1.36,2.26-.31,.86-.47,1.81-.47,2.84s.16,1.97,.47,2.84c.33,.87,.78,1.62,1.36,2.27,.58,.63,1.27,1.13,2.06,1.48,.8,.35,1.68,.53,2.62,.53Z"/><path d="M842.46,152.84c-1.66,0-3.13-.35-4.44-1.06-1.3-.71-2.32-1.69-3.07-2.94-.76-1.25-1.13-2.67-1.13-4.25v-12.96h3.93v12.7c0,.94,.21,1.78,.64,2.5,.43,.73,1.02,1.32,1.74,1.76,.71,.44,1.49,.66,2.33,.66,.92,0,1.75-.22,2.49-.66s1.33-1.03,1.76-1.76c.43-.72,.64-1.56,.64-2.5v-12.7h3.77v12.96c0,1.58-.37,3-1.11,4.25-.76,1.25-1.78,2.23-3.09,2.94-1.29,.71-2.78,1.06-4.46,1.06Z"/><path d="M857.8,152.66v-21.01h9.11c1.27,0,2.42,.3,3.46,.89s1.87,1.39,2.48,2.4c.61,1.01,.91,2.14,.91,3.4s-.3,2.3-.91,3.32c-.62,1.01-1.44,1.81-2.46,2.4-1.04,.59-2.19,.88-3.48,.88h-5.3v7.71h-3.81Zm3.81-11.1h5.34c.58,0,1.08-.14,1.51-.4,.43-.27,.76-.64,1.01-1.13,.23-.48,.35-1.01,.35-1.58,0-.66-.14-1.23-.45-1.71-.29-.49-.71-.87-1.25-1.14-.55-.28-1.17-.42-1.87-.42h-4.65v6.39Zm8.37,11.1l-5.34-9.48,4.02-.75,5.94,10.26-4.62-.03Z"/><path d="M900.03,152.96c-1.52,0-2.91-.25-4.17-.77-1.26-.53-2.35-1.27-3.27-2.24-.92-.98-1.63-2.12-2.15-3.46-.51-1.33-.76-2.78-.76-4.37s.27-2.93,.82-4.23c.53-1.3,1.29-2.44,2.25-3.42s2.07-1.74,3.36-2.28c1.28-.55,2.67-.81,4.16-.81,1.03,0,2.01,.15,2.98,.45,.96,.3,1.85,.71,2.64,1.24,.8,.54,1.47,1.15,2.01,1.85l-2.49,2.73c-.52-.55-1.05-1-1.6-1.37s-1.12-.65-1.72-.84c-.59-.19-1.19-.28-1.82-.28-.92,0-1.78,.17-2.59,.51s-1.51,.82-2.1,1.44c-.59,.62-1.05,1.36-1.4,2.21s-.51,1.8-.51,2.84,.17,2.01,.5,2.87c.33,.87,.8,1.6,1.41,2.23,.61,.62,1.34,1.09,2.19,1.43s1.79,.49,2.81,.49c.65,0,1.29-.09,1.91-.26,.62-.19,1.19-.44,1.72-.77,.54-.32,1.02-.71,1.46-1.15l1.91,3.1c-.48,.54-1.11,1.03-1.91,1.46s-1.7,.78-2.7,1.04c-.98,.25-1.97,.37-2.95,.37Z"/><path d="M921.9,152.96c-1.49,0-2.89-.26-4.17-.8-1.28-.55-2.4-1.3-3.34-2.27-.96-.98-1.69-2.12-2.21-3.44-.53-1.32-.78-2.76-.78-4.33s.25-3,.78-4.32c.52-1.32,1.25-2.46,2.21-3.44,.94-.97,2.06-1.72,3.34-2.27,1.28-.54,2.68-.81,4.17-.81s2.92,.27,4.2,.81c1.28,.55,2.39,1.31,3.33,2.29s1.67,2.13,2.19,3.44c.53,1.31,.78,2.74,.78,4.3s-.25,2.98-.78,4.3c-.52,1.32-1.25,2.47-2.19,3.45s-2.05,1.74-3.33,2.29c-1.28,.54-2.69,.8-4.2,.8Zm0-3.71c.97,0,1.84-.18,2.63-.53,.78-.35,1.47-.85,2.05-1.5,.59-.64,1.04-1.41,1.37-2.27s.49-1.8,.49-2.82-.16-1.95-.49-2.81-.78-1.62-1.37-2.27c-.58-.65-1.27-1.15-2.05-1.5-.79-.35-1.66-.53-2.63-.53s-1.81,.18-2.61,.53-1.49,.85-2.07,1.48c-.59,.64-1.04,1.4-1.35,2.26-.32,.86-.49,1.81-.49,2.84s.17,1.97,.49,2.84c.31,.87,.76,1.62,1.35,2.27,.58,.63,1.27,1.13,2.07,1.48s1.66,.53,2.61,.53Z"/><path d="M937.36,152.66v-21.01h3.68l7.65,12.45-2.15-.03,7.73-12.42h3.52v21.01h-3.88v-7.89c0-1.81,.05-3.42,.14-4.86,.09-1.44,.24-2.87,.46-4.29l.49,1.29-6.51,10.05h-1.98l-6.3-9.96,.42-1.38c.21,1.34,.37,2.71,.47,4.12,.09,1.42,.14,3.09,.14,5.03v7.89h-3.87Z"/><path d="M964.58,152.66v-21.01h3.69l7.66,12.45-2.17-.03,7.74-12.42h3.51v21.01h-3.87v-7.89c0-1.81,.04-3.42,.14-4.86,.09-1.44,.24-2.87,.47-4.29l.47,1.29-6.5,10.05h-1.98l-6.3-9.96,.42-1.38c.22,1.34,.38,2.71,.46,4.12,.1,1.42,.14,3.09,.14,5.03v7.89h-3.87Z"/><path d="M1000.23,152.84c-1.66,0-3.14-.35-4.43-1.06-1.31-.71-2.33-1.69-3.09-2.94-.74-1.25-1.12-2.67-1.12-4.25v-12.96h3.94v12.7c0,.94,.21,1.78,.64,2.5,.43,.73,1,1.32,1.72,1.76s1.5,.66,2.34,.66c.92,0,1.75-.22,2.49-.66,.73-.44,1.32-1.03,1.75-1.76,.43-.72,.64-1.56,.64-2.5v-12.7h3.79v12.96c0,1.58-.37,3-1.13,4.25-.74,1.25-1.77,2.23-3.07,2.94-1.31,.71-2.79,1.06-4.47,1.06Z"/><path d="M1015.47,152.66v-21.01h3.51l12.19,16.42-.66,.12c-.08-.56-.16-1.13-.21-1.73-.06-.59-.12-1.2-.16-1.85-.06-.63-.1-1.31-.13-2-.03-.7-.05-1.44-.07-2.21s-.04-1.58-.04-2.45v-6.3h3.87v21.01h-3.56l-12.24-16.17,.78-.21c.1,1.12,.18,2.08,.25,2.87,.07,.79,.12,1.46,.16,2.04,.04,.57,.08,1.04,.12,1.43,.02,.38,.04,.72,.06,1.04,0,.3,0,.61,0,.88v8.13h-3.87Z"/><path d="M1039.95,152.66v-3.46h3.44v-14.09h-3.44v-3.46h10.79v3.46h-3.45v14.09h3.45v3.46h-10.79Z"/><path d="M1060.53,152.66v-17.4h-6.01v-3.6h16.08v3.6h-6.18v17.4h-3.9Z"/><path d="M1080.57,152.66v-10.47l.21,1.46-8.48-12h4.55l6.48,9.31-1.41-.1,5.84-9.21h4.38l-8.13,12.33,.45-2.04v10.71h-3.9Z"/></g><g><path d="M275.77,92.56c-4.86,0-9.32-.83-13.34-2.5-4.03-1.66-7.52-4.04-10.47-7.15s-5.23-6.78-6.86-11.04c-1.64-4.26-2.46-8.92-2.46-13.97s.87-9.38,2.6-13.54,4.13-7.8,7.21-10.94c3.07-3.13,6.65-5.58,10.74-7.3,4.1-1.73,8.55-2.59,13.35-2.59,3.26,0,6.44,.48,9.5,1.44,3.07,.97,5.89,2.29,8.45,3.98,2.56,1.7,4.71,3.67,6.44,5.91l-7.97,8.74c-1.66-1.73-3.38-3.18-5.14-4.38-1.76-1.18-3.58-2.08-5.47-2.69-1.89-.61-3.83-.91-5.81-.91-2.94,0-5.71,.54-8.31,1.63-2.59,1.08-4.82,2.63-6.72,4.61-1.88,1.98-3.38,4.34-4.45,7.05-1.09,2.72-1.64,5.74-1.64,9.07s.53,6.46,1.58,9.22,2.56,5.12,4.51,7.1,4.3,3.51,7.01,4.56,5.71,1.58,8.97,1.58c2.12,0,4.16-.28,6.14-.86,1.99-.58,3.83-1.4,5.53-2.45,1.69-1.05,3.24-2.29,4.65-3.69l6.15,9.88c-1.54,1.73-3.59,3.3-6.15,4.71s-5.42,2.51-8.59,3.31c-3.16,.8-6.32,1.2-9.45,1.2Z"/><path d="M348.93,92.56c-4.79,0-9.25-.86-13.35-2.59-4.09-1.73-7.66-4.15-10.7-7.26-3.04-3.1-5.39-6.77-7.05-10.99-1.66-4.23-2.5-8.84-2.5-13.83s.84-9.6,2.5-13.82c1.66-4.23,4.01-7.89,7.05-11,3.05-3.11,6.61-5.52,10.7-7.25,4.1-1.73,8.55-2.59,13.35-2.59s9.35,.86,13.44,2.59,7.65,4.16,10.65,7.29,5.35,6.8,7.01,11c1.66,4.19,2.5,8.78,2.5,13.77s-.84,9.5-2.5,13.73-4,7.9-7.01,11.04c-3.01,3.13-6.56,5.57-10.65,7.29s-8.57,2.59-13.44,2.59Zm0-11.9c3.08,0,5.87-.56,8.4-1.68s4.72-2.71,6.57-4.79,3.32-4.5,4.38-7.26c1.05-2.74,1.58-5.75,1.58-9.02s-.53-6.27-1.58-9.02c-1.05-2.74-2.52-5.17-4.38-7.25s-4.04-3.68-6.57-4.79c-2.53-1.12-5.32-1.69-8.4-1.69s-5.79,.57-8.35,1.69c-2.56,1.11-4.77,2.7-6.62,4.75-1.87,2.05-3.3,4.45-4.33,7.2-1.03,2.75-1.53,5.8-1.53,9.12s.51,6.29,1.53,9.07,2.46,5.21,4.33,7.25c1.86,2.05,4.06,3.63,6.62,4.76s5.33,1.68,8.35,1.68Z"/><path d="M403.17,91.6V24.39h29.19c4.02,0,7.71,.95,11.04,2.83,3.32,1.89,5.97,4.45,7.92,7.69s2.93,6.87,2.93,10.9-.98,7.37-2.93,10.61-4.58,5.79-7.87,7.68c-3.29,1.89-6.99,2.83-11.08,2.83h-16.99v24.68h-12.2Zm12.2-35.52h17.09c1.86,0,3.47-.44,4.84-1.3,1.37-.87,2.44-2.07,3.21-3.6s1.15-3.23,1.15-5.09c0-2.11-.48-3.94-1.44-5.47s-2.3-2.75-4.04-3.65c-1.72-.89-3.71-1.34-5.95-1.34h-14.87v20.45Zm26.78,35.52l-17.09-30.34,12.87-2.39,19,32.83-14.79-.1Z"/><path d="M488.61,91.6V35.92h-19.2v-11.52h51.46v11.52h-19.78v55.68h-12.48Z"/><path d="M539.1,91.6V24.39h12.48v55.68h31.02v11.52h-43.5Z"/><path d="M592.96,91.6l26.21-67.21h11.71l26.02,67.21h-12.96l-14.4-38.21c-.32-.76-.75-1.98-1.3-3.64-.55-1.67-1.13-3.48-1.78-5.43-.63-1.95-1.21-3.77-1.72-5.47-.52-1.7-.9-2.93-1.15-3.7l2.4-.09c-.39,1.28-.84,2.71-1.35,4.32s-1.05,3.26-1.64,4.99c-.57,1.73-1.13,3.4-1.68,4.99-.54,1.6-1.04,3.05-1.48,4.33l-14.39,37.92h-12.48Zm11.9-15.36l4.32-10.85h30.62l4.61,10.85h-39.55Z"/><path d="M673.02,91.6V24.39h11.23l38.98,52.52-2.12,.38c-.25-1.79-.48-3.63-.67-5.52s-.37-3.86-.53-5.91c-.16-2.04-.29-4.19-.38-6.43-.1-2.25-.18-4.6-.24-7.06-.06-2.46-.1-5.07-.1-7.82V24.39h12.38V91.6h-11.42l-39.17-51.75,2.5-.67c.31,3.58,.59,6.64,.81,9.17s.4,4.71,.53,6.53c.13,1.82,.24,3.34,.34,4.56,.1,1.21,.16,2.31,.2,3.31,.02,.99,.04,1.93,.04,2.83v26.02h-12.38Z"/><path d="M757.31,91.6V24.39h26.98c4.86,0,9.26,.8,13.19,2.4s7.33,3.91,10.18,6.91,5.03,6.56,6.53,10.65c1.5,4.1,2.25,8.64,2.25,13.63s-.74,9.55-2.25,13.68-3.67,7.68-6.48,10.65-6.21,5.26-10.18,6.87-8.38,2.4-13.24,2.4h-26.98Zm12.48-9.7l-.97-1.83h14.98c3.14,0,5.94-.51,8.4-1.53s4.57-2.5,6.29-4.41c1.73-1.92,3.05-4.24,3.95-6.96,.89-2.72,1.34-5.77,1.34-9.17s-.45-6.45-1.34-9.17c-.9-2.71-2.23-5.04-3.98-6.95-1.77-1.92-3.87-3.4-6.29-4.42-2.44-1.02-5.21-1.53-8.36-1.53h-15.26l1.25-1.63v47.62Z"/><path d="M877.4,91.6V24.39h12.48V91.6h-12.48Zm5.2-27.65v-11.72h43.96v11.72h-43.96Zm37.91,27.65V24.39h12.48V91.6h-12.48Z"/><path d="M949.21,91.6l26.2-67.21h11.71l26.02,67.21h-12.96l-14.4-38.21c-.31-.76-.74-1.98-1.29-3.64-.55-1.67-1.13-3.48-1.78-5.43s-1.21-3.77-1.73-5.47-.89-2.93-1.15-3.7l2.4-.09c-.38,1.28-.83,2.71-1.34,4.32-.52,1.6-1.06,3.26-1.64,4.99s-1.13,3.4-1.68,4.99c-.55,1.6-1.04,3.05-1.48,4.33l-14.4,37.92h-12.47Zm11.89-15.36l4.32-10.85h30.62l4.61,10.85h-39.55Z"/><path d="M1029.27,91.6V24.39h29.18c4.04,0,7.71,.95,11.04,2.83,3.33,1.89,5.97,4.45,7.92,7.69s2.93,6.87,2.93,10.9-.98,7.37-2.93,10.61-4.57,5.79-7.87,7.68c-3.3,1.89-6.99,2.83-11.09,2.83h-16.99v24.68h-12.19Zm12.19-35.52h17.09c1.86,0,3.48-.44,4.85-1.3,1.38-.87,2.45-2.07,3.21-3.6s1.15-3.23,1.15-5.09c0-2.11-.48-3.94-1.45-5.47-.96-1.53-2.3-2.75-4.02-3.65-1.73-.89-3.71-1.34-5.96-1.34h-14.88v20.45Zm26.79,35.52l-17.08-30.34,12.85-2.39,19.01,32.83-14.79-.1Z"/><path d="M1120.56,91.6l-26.88-67.21h13.63l14.97,38.5c.77,1.99,1.44,3.77,2.02,5.33,.57,1.57,1.08,2.99,1.53,4.28,.44,1.28,.85,2.52,1.2,3.74,.35,1.21,.74,2.49,1.19,3.84h-2.68c.44-1.73,.92-3.44,1.44-5.14,.51-1.69,1.1-3.51,1.77-5.42,.68-1.92,1.49-4.13,2.46-6.63l14-38.5h13.73l-27.07,67.21h-11.33Z"/><path d="M1175.67,91.6V24.39h43.97v11.33h-31.68v44.55h32.05v11.33h-44.35Zm5.76-28.8v-11.14h33.31v11.14h-33.31Z"/><path d="M1264.17,92.56c-3.91,0-7.48-.5-10.74-1.48-3.27-1-6.21-2.48-8.84-4.46s-4.96-4.38-7-7.21l8.15-9.21c3.13,4.35,6.2,7.35,9.21,9.02,3.01,1.66,6.41,2.49,10.18,2.49,2.19,0,4.16-.33,5.96-1.01s3.2-1.6,4.22-2.78c1.04-1.18,1.54-2.55,1.54-4.08,0-1.08-.21-2.09-.62-3.03-.41-.92-1.04-1.76-1.88-2.49-.83-.73-1.86-1.43-3.07-2.06-1.21-.64-2.6-1.19-4.13-1.64-1.53-.44-3.23-.86-5.09-1.24-3.52-.7-6.59-1.65-9.22-2.83-2.62-1.19-4.82-2.66-6.62-4.42-1.8-1.76-3.11-3.74-3.94-5.95s-1.24-4.72-1.24-7.54,.62-5.4,1.87-7.77c1.25-2.36,2.96-4.41,5.14-6.14s4.7-3.08,7.59-4.03c2.87-.96,5.98-1.44,9.31-1.44,3.78,0,7.16,.44,10.13,1.34,2.98,.9,5.61,2.23,7.87,3.98,2.28,1.76,4.14,3.89,5.62,6.39l-8.26,8.15c-1.29-1.98-2.71-3.62-4.32-4.94-1.6-1.31-3.34-2.3-5.2-2.98-1.86-.66-3.81-1.01-5.85-1.01-2.3,0-4.31,.32-6.01,.96-1.69,.64-3.02,1.55-3.98,2.74-.96,1.18-1.44,2.61-1.44,4.27,0,1.28,.28,2.42,.87,3.41,.57,1,1.39,1.88,2.44,2.64,1.05,.77,2.42,1.45,4.08,2.02s3.55,1.08,5.66,1.53c3.52,.7,6.69,1.65,9.51,2.83,2.81,1.18,5.21,2.6,7.19,4.23,1.99,1.63,3.5,3.49,4.51,5.57,1.04,2.08,1.54,4.39,1.54,6.96,0,4.41-1.04,8.2-3.12,11.37-2.07,3.17-5,5.61-8.78,7.3-3.78,1.69-8.19,2.54-13.25,2.54Z"/><path d="M1321.01,91.6V35.92h-19.2v-11.52h51.46v11.52h-19.79v55.68h-12.48Z"/></g></g></g></g></svg>