<?xml version="1.0" encoding="UTF-8"?><svg id="Layer_2" xmlns="http://www.w3.org/2000/svg" viewBox="0 0 1353.26 180"><defs><style>.cls-1{fill:#6b6b6c;}.cls-2{fill:#b8b8b8;}.cls-3{fill:#8d8c8c;}.cls-4{fill:#e6e6e5;}.cls-5{fill:#434343;}.cls-6{fill:#8a8a8a;}.cls-7{fill:#9e9e9e;}.cls-8{fill:#c7c7c3;}</style></defs><g id="Layer_1-2"><g><g><path class="cls-2" d="M90,3C42.03,3,3,42.03,3,90s39.03,87,87,87,87-39.03,87-87S137.97,3,90,3Zm0,148.5c-33.91,0-61.5-27.59-61.5-61.5S56.09,28.5,90,28.5s61.5,27.59,61.5,61.5-27.59,61.5-61.5,61.5Z"/><path d="M90,0C40.29,0,0,40.29,0,90s40.29,90,90,90,90-40.29,90-90S139.71,0,90,0Zm0,178.5C41.2,178.5,1.5,138.8,1.5,90S41.2,1.5,90,1.5s88.5,39.7,88.5,88.5-39.7,88.5-88.5,88.5Z"/><path d="M90,1.5C41.2,1.5,1.5,41.2,1.5,90s39.7,88.5,88.5,88.5,88.5-39.7,88.5-88.5S138.8,1.5,90,1.5Zm0,175.5C42.03,177,3,137.97,3,90S42.03,3,90,3s87,39.03,87,87-39.03,87-87,87Z"/><path class="cls-4" d="M66.07,74.47l-24.24-17.61c-3.44,4.99-6.12,10.53-7.89,16.46,9.84,2.19,19.43,5.07,28.73,8.66,.79-2.71,1.94-5.23,3.41-7.51Z"/><path class="cls-8" d="M107.37,106.21c13.18-5.93,26.98-10.45,41.05-13.4,.04-.93,.07-1.87,.07-2.81,0-4.75-.58-9.36-1.66-13.78-19,4.21-37.03,11.1-53.85,20.56,4.9,2.93,9.7,6.07,14.38,9.43Z"/><path class="cls-7" d="M90,98.49c-4.85,2.84-9.6,5.9-14.24,9.18,4.84,2.28,9.59,4.75,14.24,7.41,4.65-2.66,9.4-5.13,14.24-7.41-4.64-3.27-9.39-6.34-14.24-9.18Z"/><path class="cls-6" d="M90,64.5c-11.56,0-21.46,7.59-24.53,18.6,8.43,3.4,16.62,7.37,24.53,11.92,7.92-4.54,16.11-8.51,24.53-11.92-3.07-11.01-12.97-18.6-24.53-18.6Z"/><path class="cls-1" d="M90.04,128.34c5.17,0,10.36,.1,15.55,.28-5.03-3.61-10.24-6.97-15.59-10.09-5.35,3.12-10.56,6.48-15.6,10.09,5.22-.19,10.43-.28,15.64-.28Z"/><g><path class="cls-8" d="M110.97,128.85c7.13,.34,14.25,.86,21.29,1.54,8.76-9.17,14.59-21.16,15.94-34.46-19.24,4.13-37.94,11.22-55.2,20.88,6.2,3.69,12.2,7.71,17.96,12.04Z"/><path class="cls-8" d="M87,116.81c-17.26-9.66-35.96-16.75-55.2-20.88,1.35,13.31,7.18,25.3,15.94,34.46,7.05-.69,14.15-1.2,21.28-1.54,5.76-4.33,11.76-8.35,17.97-12.04Z"/></g><path class="cls-1" d="M50.54,133.15c10.41,9.53,24.27,15.35,39.46,15.35s29.06-5.83,39.47-15.36c-13.04-1.19-26.29-1.8-39.43-1.8s-26.44,.61-39.5,1.8Z"/><path class="cls-4" d="M109.5,34.85l-9.27,28.53c4.7,1.79,8.8,4.78,11.94,8.66l24.24-17.61c-6.83-8.89-16.15-15.77-26.91-19.58Z"/><path class="cls-8" d="M87.01,96.78c-16.82-9.46-34.86-16.35-53.85-20.56-1.07,4.42-1.66,9.03-1.66,13.78,0,.94,.03,1.88,.07,2.81,14.08,2.95,27.88,7.47,41.05,13.4,4.68-3.36,9.48-6.5,14.38-9.43Z"/><path class="cls-4" d="M117.34,81.98c9.3-3.59,18.89-6.48,28.73-8.66-1.77-5.94-4.45-11.48-7.89-16.46l-24.24,17.61c1.47,2.28,2.62,4.8,3.41,7.51Z"/><path class="cls-4" d="M79.78,63.39l-9.27-28.53c-10.76,3.82-20.08,10.69-26.91,19.58l24.24,17.61c3.13-3.88,7.24-6.87,11.94-8.66Z"/><path class="cls-4" d="M90,61.5c2.54,0,5.02,.33,7.37,.95l9.27-28.53c-5.28-1.57-10.86-2.43-16.64-2.43s-11.36,.86-16.64,2.43l9.27,28.53c2.36-.62,4.83-.95,7.37-.95Z"/><g><g><path class="cls-3" d="M136.76,107.63c-3.95-2.74-7.62-5.16-10.73-7.13-1.8,.61-3.59,1.24-5.37,1.9,3.2,2.03,7.02,4.54,11.13,7.39,4.32,3,8.2,5.79,11.35,8.11,.74-1.4,1.42-2.83,2.04-4.3-2.51-1.82-5.35-3.84-8.42-5.97Z"/><path class="cls-3" d="M122.24,117.55c-5.88-4.09-11.14-7.43-14.83-9.7-.08,.04-.15,.07-.23,.11-1.84,.84-3.67,1.7-5.47,2.6,3.56,2.22,8.13,5.18,13.15,8.67,7.43,5.16,13.54,9.7,16.92,12.26,.5,.03,1,.07,1.5,.1,1.15-1.19,2.24-2.44,3.29-3.72-3.49-2.61-8.5-6.27-14.32-10.31Z"/><path class="cls-3" d="M129.97,112.42c-4.99-3.46-9.53-6.4-13.05-8.6-1.85,.73-3.69,1.48-5.51,2.26,3.52,2.2,8,5.1,12.89,8.5,5.88,4.08,10.93,7.78,14.45,10.41,1-1.39,1.93-2.82,2.81-4.29-3.18-2.34-7.15-5.21-11.6-8.29Z"/><path class="cls-3" d="M148.1,99.6c-1.98-1.37-3.89-2.66-5.69-3.86-1.43,.35-2.85,.71-4.27,1.09,1.9,1.26,3.92,2.62,6.01,4.08,1.46,1.02,2.88,2.01,4.23,2.97,.28-1.18,.52-2.37,.73-3.57-.33-.23-.67-.47-1.01-.7Z"/><path class="cls-3" d="M112.46,122.66c-6.04-4.2-11.43-7.61-15.13-9.89-2.47,1.3-4.92,2.65-7.33,4.04,7.11,4.12,13.96,8.64,20.48,13.58,4.56,.15,9.1,.35,13.63,.6-3.19-2.35-7.18-5.23-11.66-8.34Z"/><path class="cls-3" d="M149.56,97.2c.12-1.04,.22-2.08,.29-3.13-1.24,.25-2.48,.52-3.71,.79,1.11,.75,2.25,1.53,3.42,2.34Z"/><path class="cls-3" d="M142.56,103.21c-2.85-1.98-5.55-3.78-8-5.38-1.71,.49-3.4,1.01-5.09,1.54,2.69,1.74,5.7,3.74,8.89,5.96,2.85,1.98,5.51,3.87,7.89,5.59,.51-1.36,.96-2.74,1.37-4.15-1.6-1.14-3.29-2.33-5.06-3.56Z"/></g><g><path class="cls-3" d="M43.24,107.63c3.95-2.74,7.62-5.16,10.73-7.13,1.8,.61,3.59,1.24,5.37,1.9-3.2,2.03-7.02,4.54-11.13,7.39-4.32,3-8.2,5.79-11.35,8.11-.74-1.4-1.42-2.83-2.04-4.3,2.51-1.82,5.35-3.84,8.42-5.97Z"/><path class="cls-3" d="M57.76,117.55c5.88-4.09,11.14-7.43,14.83-9.7,.08,.04,.15,.07,.23,.11,1.84,.84,3.67,1.7,5.47,2.6-3.56,2.22-8.13,5.18-13.15,8.67-7.43,5.16-13.54,9.7-16.92,12.26-.5,.03-1,.07-1.5,.1-1.15-1.19-2.24-2.44-3.29-3.72,3.49-2.61,8.5-6.27,14.32-10.31Z"/><path class="cls-3" d="M50.03,112.42c4.99-3.46,9.53-6.4,13.05-8.6,1.85,.73,3.69,1.48,5.51,2.26-3.52,2.2-8,5.1-12.89,8.5-5.88,4.08-10.93,7.78-14.45,10.41-1-1.39-1.93-2.82-2.81-4.29,3.18-2.34,7.15-5.21,11.6-8.29Z"/><path class="cls-3" d="M31.9,99.6c1.98-1.37,3.89-2.66,5.69-3.86,1.43,.35,2.85,.71,4.27,1.09-1.9,1.26-3.92,2.62-6.01,4.08-1.46,1.02-2.88,2.01-4.23,2.97-.28-1.18-.52-2.37-.73-3.57,.33-.23,.67-.47,1.01-.7Z"/><path class="cls-3" d="M67.54,122.66c6.04-4.2,11.43-7.61,15.13-9.89,2.47,1.3,4.92,2.65,7.33,4.04-7.11,4.12-13.96,8.64-20.48,13.58-4.56,.15-9.1,.35-13.63,.6,3.19-2.35,7.18-5.23,11.66-8.34Z"/><path class="cls-3" d="M30.44,97.2c-.12-1.04-.22-2.08-.29-3.13,1.24,.25,2.48,.52,3.71,.79-1.11,.75-2.25,1.53-3.42,2.34Z"/><path class="cls-3" d="M37.44,103.21c2.85-1.98,5.55-3.78,8-5.38,1.71,.49,3.4,1.01,5.09,1.54-2.69,1.74-5.7,3.74-8.89,5.96-2.85,1.98-5.51,3.87-7.89,5.59-.51-1.36-.96-2.74-1.37-4.15,1.6-1.14,3.29-2.33,5.06-3.56Z"/></g></g><g><path class="cls-5" d="M125.01,131.08v7.71c2.97-2.14,5.74-4.55,8.27-7.18-2.75-.2-5.51-.37-8.27-.53Z"/><path class="cls-5" d="M77.01,148.66c3.24,.72,6.58,1.17,10,1.34v-19.92c-3.34,.02-6.67,.06-10,.14v18.44Z"/><path class="cls-5" d="M109.01,147c3.49-1.17,6.83-2.64,10-4.4v-11.83c-2.84-.13-5.68-.25-8.52-.34-.49-.02-.98-.03-1.48-.05v16.62Z"/><path class="cls-5" d="M103.01,130.22c-3.33-.07-6.66-.12-10-.14v19.92c3.42-.17,6.76-.62,10-1.34v-18.44Z"/><path class="cls-5" d="M60.01,142.04c3.46,2.01,7.14,3.67,11,4.96v-16.62c-.49,.02-.98,.03-1.47,.05-3.18,.11-6.36,.24-9.53,.39v11.22Z"/><path class="cls-5" d="M54.01,131.14c-2.43,.14-4.86,.3-7.28,.47,2.25,2.34,4.68,4.5,7.28,6.45v-6.93Z"/></g><path d="M90,28.5c-33.91,0-61.5,27.59-61.5,61.5s27.59,61.5,61.5,61.5,61.5-27.59,61.5-61.5-27.59-61.5-61.5-61.5Zm0,3c5.78,0,11.36,.86,16.64,2.43l-9.27,28.53c-2.36-.62-4.83-.95-7.37-.95s-5.02,.33-7.37,.95l-9.27-28.53c5.28-1.57,10.86-2.43,16.64-2.43Zm0,83.57c-4.65-2.66-9.4-5.13-14.24-7.41,4.64-3.27,9.39-6.34,14.24-9.18,4.85,2.84,9.6,5.9,14.24,9.18-4.84,2.28-9.59,4.75-14.24,7.41Zm0,3.46c5.35,3.12,10.56,6.48,15.59,10.09-5.19-.18-10.38-.28-15.55-.28s-10.42,.1-15.64,.28c5.03-3.61,10.24-6.97,15.6-10.09Zm-24.53-35.43c3.07-11.01,12.97-18.6,24.53-18.6s21.46,7.59,24.53,18.6c-8.43,3.4-16.62,7.37-24.53,11.92-7.92-4.54-16.11-8.51-24.53-11.92Zm5.04-48.25l9.27,28.53c-4.7,1.79-8.8,4.78-11.94,8.66l-24.24-17.61c6.83-8.89,16.15-15.77,26.91-19.58Zm-28.67,22l24.24,17.61c-1.47,2.28-2.62,4.8-3.41,7.51-9.3-3.59-18.89-6.48-28.73-8.66,1.77-5.94,4.45-11.48,7.89-16.46Zm-10.33,33.14c0-4.75,.58-9.36,1.66-13.78,19,4.21,37.03,11.1,53.85,20.56-4.9,2.93-9.7,6.07-14.38,9.43-13.18-5.93-26.98-10.45-41.05-13.4-.04-.93-.07-1.87-.07-2.81Zm.3,5.93c19.24,4.13,37.94,11.22,55.2,20.88-6.2,3.69-12.21,7.71-17.97,12.04-7.13,.34-14.24,.86-21.28,1.54-8.77-9.17-14.6-21.16-15.94-34.46Zm58.2,52.57c-15.19,0-29.05-5.83-39.46-15.35,13.07-1.19,26.34-1.8,39.5-1.8s26.39,.61,39.43,1.8c-10.41,9.53-24.27,15.36-39.47,15.36Zm42.26-18.12c-7.05-.68-14.16-1.2-21.29-1.54-5.76-4.33-11.76-8.35-17.96-12.04,17.26-9.66,35.96-16.75,55.2-20.88-1.34,13.3-7.18,25.29-15.94,34.46Zm16.24-40.38c0,.94-.03,1.88-.07,2.81-14.08,2.95-27.87,7.47-41.05,13.4-4.68-3.36-9.48-6.5-14.38-9.43,16.82-9.46,34.86-16.35,53.85-20.56,1.07,4.42,1.66,9.03,1.66,13.78Zm-2.44-16.68c-9.84,2.19-19.43,5.07-28.73,8.66-.79-2.71-1.94-5.23-3.41-7.51l24.24-17.61c3.44,4.99,6.12,10.53,7.89,16.46Zm-33.9-1.27c-3.13-3.88-7.24-6.87-11.94-8.66l9.27-28.53c10.76,3.82,20.08,10.69,26.91,19.58l-24.24,17.61Z"/></g><g><path d="M275.77,122c-4.86,0-9.32-.83-13.34-2.5-4.03-1.66-7.53-4.04-10.47-7.15-2.95-3.11-5.23-6.78-6.87-11.04s-2.45-8.91-2.45-13.97,.87-9.38,2.6-13.54,4.13-7.81,7.2-10.94c3.08-3.13,6.66-5.57,10.75-7.3s8.54-2.59,13.35-2.59c3.26,0,6.43,.48,9.5,1.44,3.07,.96,5.89,2.29,8.45,3.98,2.56,1.7,4.71,3.67,6.44,5.9l-7.97,8.74c-1.67-1.73-3.38-3.18-5.14-4.37-1.77-1.18-3.58-2.08-5.48-2.69-1.88-.61-3.82-.91-5.8-.91-2.95,0-5.71,.54-8.31,1.63-2.59,1.09-4.83,2.63-6.72,4.61s-3.38,4.34-4.46,7.06c-1.09,2.72-1.63,5.74-1.63,9.07s.53,6.46,1.58,9.21c1.05,2.75,2.56,5.12,4.51,7.1s4.29,3.51,7.01,4.56c2.71,1.05,5.71,1.58,8.97,1.58,2.11,0,4.16-.29,6.14-.86s3.83-1.39,5.52-2.45c1.7-1.05,3.25-2.29,4.66-3.7l6.14,9.89c-1.53,1.73-3.58,3.3-6.14,4.71-2.56,1.41-5.42,2.51-8.59,3.31-3.16,.8-6.32,1.2-9.45,1.2Z"/><path d="M348.93,122c-4.8,0-9.26-.86-13.35-2.59s-7.67-4.15-10.7-7.25c-3.04-3.1-5.39-6.77-7.05-10.99-1.67-4.22-2.5-8.83-2.5-13.82s.83-9.6,2.5-13.82c1.66-4.22,4.01-7.89,7.05-10.99s6.61-5.52,10.7-7.25,8.54-2.59,13.35-2.59,9.34,.86,13.44,2.59c4.09,1.73,7.65,4.17,10.65,7.3s5.34,6.8,7.01,10.99c1.66,4.19,2.49,8.78,2.49,13.77s-.83,9.5-2.49,13.73c-1.67,4.22-4,7.9-7.01,11.04-3.01,3.13-6.56,5.57-10.65,7.29-4.1,1.73-8.57,2.59-13.44,2.59Zm0-11.9c3.07,0,5.87-.56,8.4-1.68,2.53-1.12,4.72-2.72,6.57-4.8s3.31-4.5,4.37-7.25c1.06-2.75,1.59-5.76,1.59-9.02s-.53-6.27-1.59-9.02c-1.05-2.75-2.51-5.17-4.37-7.25s-4.04-3.68-6.57-4.8c-2.53-1.12-5.33-1.68-8.4-1.68s-5.8,.56-8.36,1.68c-2.56,1.12-4.77,2.7-6.62,4.75-1.86,2.05-3.3,4.45-4.32,7.2-1.03,2.75-1.54,5.8-1.54,9.12s.52,6.29,1.54,9.07c1.02,2.78,2.46,5.2,4.32,7.25,1.86,2.05,4.06,3.63,6.62,4.76,2.56,1.12,5.34,1.68,8.36,1.68Z"/><path d="M403.17,121.04V53.84h29.18c4.03,0,7.71,.95,11.04,2.83,3.32,1.89,5.97,4.45,7.92,7.68,1.95,3.23,2.93,6.87,2.93,10.9s-.98,7.38-2.93,10.61c-1.95,3.23-4.58,5.8-7.87,7.68-3.3,1.89-6.99,2.83-11.09,2.83h-16.99v24.67h-12.19Zm12.19-35.52h17.09c1.86,0,3.48-.43,4.85-1.3,1.37-.86,2.44-2.07,3.21-3.6,.76-1.54,1.15-3.23,1.15-5.09,0-2.11-.48-3.94-1.45-5.47-.96-1.53-2.3-2.75-4.03-3.65-1.72-.89-3.71-1.34-5.95-1.34h-14.88v20.45Zm26.79,35.52l-17.09-30.34,12.86-2.4,19.01,32.83-14.79-.1Z"/><path d="M488.61,121.04v-55.68h-19.21v-11.52h51.46v11.52h-19.78v55.68h-12.48Z"/><path d="M539.1,121.04V53.84h12.48v55.68h31.01v11.52h-43.49Z"/><path d="M592.96,121.04l26.2-67.2h11.72l26.02,67.2h-12.97l-14.39-38.21c-.32-.77-.75-1.98-1.3-3.65s-1.13-3.47-1.78-5.42c-.63-1.95-1.21-3.77-1.73-5.47-.51-1.69-.89-2.92-1.15-3.7l2.4-.09c-.38,1.28-.83,2.72-1.34,4.32-.52,1.6-1.06,3.26-1.64,4.99s-1.13,3.39-1.68,4.99c-.54,1.6-1.04,3.04-1.48,4.32l-14.4,37.92h-12.47Zm11.9-15.36l4.32-10.84h30.62l4.61,10.84h-39.55Z"/><path d="M673.02,121.04V53.84h11.23l38.97,52.51-2.11,.39c-.25-1.79-.48-3.63-.67-5.52-.2-1.88-.37-3.85-.53-5.9-.16-2.05-.29-4.19-.38-6.43-.1-2.24-.18-4.59-.24-7.06-.07-2.47-.1-5.07-.1-7.83v-20.16h12.38V121.04h-11.42l-39.17-51.74,2.49-.67c.32,3.58,.6,6.64,.82,9.17s.4,4.7,.53,6.53c.13,1.82,.24,3.34,.33,4.56,.1,1.22,.17,2.32,.2,3.31s.05,1.94,.05,2.83v26.02h-12.38Z"/><path d="M757.31,121.04V53.84h26.97c4.86,0,9.27,.8,13.2,2.4s7.32,3.91,10.18,6.91c2.84,3.01,5.02,6.56,6.52,10.65s2.26,8.64,2.26,13.63-.75,9.55-2.26,13.68c-1.5,4.13-3.66,7.68-6.47,10.66-2.82,2.97-6.21,5.26-10.18,6.86-3.97,1.6-8.39,2.4-13.25,2.4h-26.97Zm12.48-9.7l-.97-1.82h14.98c3.13,0,5.94-.51,8.4-1.54,2.46-1.02,4.56-2.5,6.29-4.41s3.04-4.24,3.94-6.96c.9-2.72,1.35-5.77,1.35-9.17s-.45-6.45-1.35-9.17-2.23-5.04-3.98-6.96c-1.76-1.92-3.86-3.39-6.29-4.42-2.43-1.02-5.21-1.53-8.35-1.53h-15.26l1.25-1.63v47.61Z"/><path d="M877.4,121.04V53.84h12.48V121.04h-12.48Zm5.19-27.65v-11.71h43.96v11.71h-43.96Zm37.92,27.65V53.84h12.48V121.04h-12.48Z"/><path d="M949.2,121.04l26.21-67.2h11.71l26.02,67.2h-12.96l-14.4-38.21c-.31-.77-.75-1.98-1.29-3.65-.55-1.67-1.14-3.47-1.78-5.42-.64-1.95-1.22-3.77-1.73-5.47-.52-1.69-.9-2.92-1.15-3.7l2.4-.09c-.39,1.28-.84,2.72-1.35,4.32-.51,1.6-1.05,3.26-1.63,4.99s-1.13,3.39-1.68,4.99c-.55,1.6-1.04,3.04-1.48,4.32l-14.4,37.92h-12.48Zm11.9-15.36l4.32-10.84h30.62l4.61,10.84h-39.55Z"/><path d="M1029.27,121.04V53.84h29.18c4.03,0,7.71,.95,11.04,2.83,3.32,1.89,5.97,4.45,7.92,7.68,1.95,3.23,2.93,6.87,2.93,10.9s-.98,7.38-2.93,10.61c-1.95,3.23-4.58,5.8-7.87,7.68-3.3,1.89-6.99,2.83-11.09,2.83h-16.99v24.67h-12.19Zm12.19-35.52h17.09c1.86,0,3.48-.43,4.85-1.3,1.37-.86,2.44-2.07,3.21-3.6,.76-1.54,1.15-3.23,1.15-5.09,0-2.11-.48-3.94-1.45-5.47-.96-1.53-2.3-2.75-4.03-3.65-1.72-.89-3.71-1.34-5.95-1.34h-14.88v20.45Zm26.79,35.52l-17.09-30.34,12.86-2.4,19.01,32.83-14.79-.1Z"/><path d="M1120.56,121.04l-26.88-67.2h13.63l14.98,38.5c.76,1.99,1.44,3.76,2.01,5.33s1.09,2.99,1.54,4.27c.44,1.28,.84,2.52,1.19,3.74s.75,2.5,1.2,3.84h-2.69c.45-1.73,.93-3.44,1.45-5.14,.51-1.69,1.1-3.51,1.77-5.42,.67-1.92,1.49-4.13,2.45-6.63l14.01-38.5h13.73l-27.07,67.2h-11.33Z"/><path d="M1175.67,121.04V53.84h43.96v11.33h-31.68v44.55h32.06v11.33h-44.35Zm5.76-28.8v-11.14h33.31v11.14h-33.31Z"/><path d="M1264.17,122c-3.91,0-7.49-.5-10.75-1.49s-6.21-2.48-8.83-4.46c-2.63-1.98-4.96-4.38-7.01-7.2l8.16-9.21c3.13,4.35,6.2,7.36,9.21,9.02s6.41,2.5,10.18,2.5c2.18,0,4.16-.34,5.96-1.01,1.79-.67,3.2-1.6,4.22-2.78,1.03-1.18,1.54-2.54,1.54-4.08,0-1.09-.21-2.09-.62-3.03-.42-.92-1.04-1.76-1.88-2.5-.83-.73-1.86-1.42-3.07-2.06-1.22-.64-2.6-1.19-4.13-1.64-1.53-.44-3.23-.86-5.09-1.25-3.53-.7-6.59-1.65-9.22-2.83-2.63-1.19-4.83-2.66-6.62-4.42-1.8-1.76-3.11-3.74-3.94-5.95-.83-2.21-1.25-4.72-1.25-7.53s.62-5.41,1.88-7.78c1.25-2.36,2.96-4.41,5.14-6.14,2.17-1.73,4.7-3.07,7.58-4.03,2.88-.96,5.99-1.44,9.32-1.44,3.77,0,7.15,.44,10.13,1.34,2.98,.89,5.6,2.22,7.87,3.98,2.28,1.76,4.14,3.89,5.62,6.38l-8.25,8.16c-1.29-1.98-2.72-3.63-4.33-4.94s-3.33-2.3-5.19-2.98c-1.86-.67-3.81-1.01-5.85-1.01-2.3,0-4.31,.32-6.01,.96-1.69,.64-3.02,1.55-3.98,2.74-.96,1.18-1.44,2.61-1.44,4.27,0,1.28,.28,2.42,.86,3.41s1.4,1.87,2.45,2.64c1.05,.77,2.41,1.44,4.08,2.02,1.66,.58,3.55,1.09,5.66,1.54,3.52,.7,6.69,1.65,9.5,2.83,2.81,1.18,5.21,2.59,7.2,4.22s3.5,3.49,4.51,5.57c1.03,2.08,1.54,4.4,1.54,6.96,0,4.41-1.04,8.21-3.12,11.37-2.08,3.17-5.01,5.6-8.78,7.3-3.78,1.69-8.19,2.54-13.25,2.54Z"/><path d="M1321.01,121.04v-55.68h-19.2v-11.52h51.46v11.52h-19.78v55.68h-12.48Z"/></g></g></g></svg>