<?xml version="1.0" encoding="UTF-8"?><svg id="Layer_2" xmlns="http://www.w3.org/2000/svg" viewBox="0 0 1349.98 173.42"><defs><style>.cls-1{fill:#fefefe;}</style></defs><g id="Layer_1-2"><g><g><path class="cls-1" d="M272.48,118.71c-4.86,0-9.31-.84-13.34-2.5s-7.52-4.04-10.47-7.15c-2.94-3.11-5.22-6.79-6.86-11.04s-2.45-8.91-2.45-13.96,.86-9.38,2.59-13.54,4.13-7.81,7.21-10.95c3.07-3.13,6.65-5.57,10.75-7.29,4.09-1.73,8.54-2.6,13.34-2.6,3.26,0,6.44,.49,9.5,1.45,3.08,.96,5.89,2.29,8.45,3.98s4.71,3.66,6.44,5.9l-7.97,8.74c-1.66-1.73-3.38-3.18-5.14-4.37s-3.58-2.08-5.47-2.69c-1.89-.62-3.83-.92-5.81-.92-2.94,0-5.71,.55-8.3,1.63-2.6,1.09-4.83,2.63-6.72,4.61-1.89,1.98-3.38,4.34-4.46,7.06-1.09,2.71-1.64,5.74-1.64,9.07s.53,6.46,1.59,9.21c1.05,2.75,2.56,5.13,4.51,7.11,1.94,1.98,4.29,3.51,7,4.56,2.72,1.05,5.71,1.58,8.97,1.58,2.12,0,4.16-.29,6.15-.87,1.98-.58,3.82-1.39,5.52-2.44,1.69-1.05,3.24-2.29,4.66-3.7l6.14,9.89c-1.54,1.73-3.58,3.29-6.14,4.71-2.57,1.41-5.43,2.51-8.59,3.31-3.17,.8-6.33,1.2-9.46,1.2Z"/><path class="cls-1" d="M345.64,118.71c-4.79,0-9.25-.87-13.34-2.6-4.1-1.73-7.67-4.14-10.7-7.25-3.05-3.11-5.4-6.77-7.06-11-1.66-4.22-2.5-8.83-2.5-13.82s.84-9.6,2.5-13.83c1.66-4.22,4.01-7.88,7.06-10.99,3.04-3.11,6.6-5.53,10.7-7.26,4.09-1.73,8.54-2.59,13.34-2.59s9.35,.86,13.44,2.59c4.1,1.73,7.65,4.17,10.66,7.3,3,3.13,5.34,6.8,7,10.99s2.5,8.79,2.5,13.78-.84,9.5-2.5,13.73c-1.66,4.22-4,7.9-7,11.04-3.02,3.13-6.56,5.57-10.66,7.29-4.09,1.73-8.57,2.6-13.44,2.6Zm0-11.9c3.08,0,5.87-.57,8.4-1.68,2.53-1.12,4.72-2.72,6.58-4.8,1.86-2.08,3.31-4.49,4.37-7.25s1.58-5.76,1.58-9.02-.53-6.27-1.58-9.02-2.51-5.17-4.37-7.25c-1.87-2.08-4.05-3.68-6.58-4.8s-5.32-1.68-8.4-1.68-5.79,.56-8.35,1.68-4.77,2.71-6.62,4.76c-1.87,2.04-3.3,4.44-4.33,7.2s-1.53,5.79-1.53,9.12,.51,6.29,1.53,9.07,2.46,5.2,4.33,7.25c1.86,2.05,4.06,3.63,6.62,4.76,2.56,1.11,5.34,1.68,8.35,1.68Z"/><path class="cls-1" d="M399.88,117.75V50.55h29.19c4.03,0,7.71,.95,11.04,2.83s5.97,4.45,7.92,7.68c1.95,3.23,2.93,6.87,2.93,10.9s-.98,7.38-2.93,10.61c-1.95,3.23-4.57,5.8-7.87,7.69-3.29,1.88-6.99,2.83-11.08,2.83h-16.99v24.67h-12.2Zm12.2-35.52h17.09c1.86,0,3.47-.43,4.84-1.3,1.38-.86,2.45-2.06,3.21-3.59,.77-1.54,1.15-3.23,1.15-5.09,0-2.12-.48-3.94-1.44-5.48-.96-1.53-2.3-2.74-4.03-3.64s-3.71-1.35-5.96-1.35h-14.87v20.45Zm26.78,35.52l-17.08-30.33,12.86-2.4,19,32.83-14.79-.1Z"/><path class="cls-1" d="M485.32,117.75V62.07h-19.2v-11.52h51.46v11.52h-19.78v55.67h-12.48Z"/><path class="cls-1" d="M535.81,117.75V50.55h12.48v55.68h31.01v11.51h-43.49Z"/><path class="cls-1" d="M589.67,117.75l26.21-67.2h11.71l26.02,67.2h-12.96l-14.4-38.2c-.31-.77-.75-1.98-1.29-3.65-.55-1.66-1.14-3.47-1.78-5.42-.64-1.95-1.22-3.78-1.73-5.48-.52-1.69-.9-2.92-1.15-3.69l2.4-.1c-.39,1.28-.84,2.72-1.35,4.33-.51,1.59-1.05,3.26-1.63,4.99s-1.13,3.39-1.68,4.99-1.04,3.04-1.48,4.32l-14.4,37.92h-12.48Zm11.9-15.36l4.32-10.84h30.62l4.61,10.84h-39.55Z"/><path class="cls-1" d="M669.73,117.75V50.55h11.23l38.98,52.51-2.12,.39c-.25-1.8-.48-3.63-.66-5.53-.2-1.88-.37-3.85-.54-5.9-.16-2.05-.28-4.19-.38-6.44-.1-2.24-.18-4.59-.23-7.05-.07-2.47-.1-5.08-.1-7.83v-20.16h12.38V117.75h-11.43l-39.17-51.74,2.5-.67c.32,3.58,.59,6.64,.81,9.17s.4,4.7,.53,6.52c.14,1.83,.24,3.35,.34,4.56,.1,1.22,.16,2.32,.2,3.31,.03,1,.04,1.94,.04,2.83v26.02h-12.38Z"/><path class="cls-1" d="M754.02,117.75V50.55h26.98c4.86,0,9.26,.8,13.19,2.4s7.33,3.91,10.18,6.91c2.85,3.01,5.03,6.55,6.53,10.65,1.5,4.09,2.26,8.63,2.26,13.63s-.75,9.55-2.26,13.67c-1.5,4.13-3.66,7.69-6.48,10.66-2.81,2.97-6.2,5.26-10.18,6.86-3.96,1.6-8.38,2.4-13.24,2.4h-26.98Zm12.48-9.7l-.96-1.82h14.97c3.14,0,5.94-.52,8.41-1.54,2.46-1.02,4.56-2.49,6.29-4.41,1.72-1.91,3.04-4.24,3.94-6.96,.89-2.71,1.34-5.77,1.34-9.16s-.45-6.46-1.34-9.17c-.9-2.72-2.23-5.04-3.98-6.96-1.77-1.92-3.86-3.39-6.29-4.41s-5.21-1.53-8.36-1.53h-15.26l1.25-1.63v47.61Z"/><path class="cls-1" d="M874.11,117.75V50.55h12.48V117.75h-12.48Zm5.19-27.65v-11.71h43.96v11.71h-43.96Zm37.92,27.65V50.55h12.48V117.75h-12.48Z"/><path class="cls-1" d="M945.92,117.75l26.2-67.2h11.72l26.02,67.2h-12.97l-14.39-38.2c-.32-.77-.75-1.98-1.3-3.65-.55-1.66-1.13-3.47-1.78-5.42-.63-1.95-1.21-3.78-1.73-5.48-.51-1.69-.89-2.92-1.15-3.69l2.4-.1c-.38,1.28-.83,2.72-1.34,4.33-.52,1.59-1.06,3.26-1.64,4.99s-1.13,3.39-1.68,4.99c-.54,1.6-1.04,3.04-1.48,4.32l-14.4,37.92h-12.47Zm11.9-15.36l4.32-10.84h30.62l4.61,10.84h-39.55Z"/><path class="cls-1" d="M1025.98,117.75V50.55h29.19c4.03,0,7.71,.95,11.04,2.83s5.97,4.45,7.92,7.68c1.95,3.23,2.93,6.87,2.93,10.9s-.98,7.38-2.93,10.61c-1.95,3.23-4.57,5.8-7.87,7.69-3.29,1.88-6.99,2.83-11.08,2.83h-16.99v24.67h-12.2Zm12.2-35.52h17.09c1.86,0,3.47-.43,4.84-1.3,1.38-.86,2.45-2.06,3.21-3.59,.77-1.54,1.15-3.23,1.15-5.09,0-2.12-.48-3.94-1.44-5.48-.96-1.53-2.3-2.74-4.03-3.64s-3.71-1.35-5.96-1.35h-14.87v20.45Zm26.78,35.52l-17.08-30.33,12.86-2.4,19,32.83-14.79-.1Z"/><path class="cls-1" d="M1117.27,117.75l-26.88-67.2h13.63l14.97,38.5c.77,1.98,1.45,3.76,2.02,5.33,.58,1.56,1.08,2.99,1.53,4.27s.85,2.53,1.2,3.74c.35,1.22,.75,2.5,1.2,3.85h-2.69c.44-1.73,.92-3.45,1.44-5.14,.51-1.7,1.1-3.51,1.78-5.43,.67-1.91,1.48-4.12,2.45-6.62l14.01-38.5h13.73l-27.08,67.2h-11.33Z"/><path class="cls-1" d="M1172.38,117.75V50.55h43.97v11.33h-31.68v44.54h32.06v11.33h-44.36Zm5.76-28.8v-11.13h33.31v11.13h-33.31Z"/><path class="cls-1" d="M1260.89,118.71c-3.91,0-7.49-.5-10.75-1.49-3.27-.99-6.21-2.48-8.84-4.46s-4.96-4.38-7-7.2l8.15-9.22c3.13,4.36,6.21,7.36,9.22,9.02,3.01,1.67,6.4,2.5,10.18,2.5,2.18,0,4.16-.34,5.95-1.02,1.8-.66,3.2-1.59,4.23-2.78,1.03-1.18,1.53-2.54,1.53-4.07,0-1.09-.21-2.1-.62-3.03-.41-.93-1.04-1.76-1.87-2.5-.84-.73-1.86-1.42-3.08-2.06-1.21-.63-2.59-1.18-4.13-1.63-1.53-.45-3.23-.87-5.09-1.25-3.52-.7-6.59-1.65-9.21-2.83-2.63-1.18-4.83-2.66-6.63-4.41-1.79-1.76-3.11-3.74-3.94-5.96-.83-2.21-1.24-4.72-1.24-7.53s.62-5.41,1.87-7.78c1.25-2.36,2.96-4.41,5.14-6.14s4.71-3.07,7.59-4.03c2.88-.96,5.98-1.44,9.31-1.44,3.78,0,7.16,.45,10.13,1.35,2.98,.89,5.61,2.22,7.87,3.98,2.28,1.76,4.15,3.89,5.62,6.38l-8.26,8.16c-1.28-1.98-2.71-3.63-4.32-4.94-1.6-1.32-3.33-2.3-5.19-2.98s-3.81-1.01-5.86-1.01c-2.3,0-4.31,.32-6,.96-1.7,.64-3.03,1.55-3.98,2.73s-1.45,2.61-1.45,4.28c0,1.28,.29,2.41,.87,3.41,.58,.99,1.39,1.87,2.45,2.64,1.05,.77,2.41,1.44,4.07,2.01,1.67,.58,3.55,1.09,5.66,1.54,3.53,.7,6.69,1.64,9.51,2.83,2.81,1.18,5.21,2.59,7.2,4.22s3.49,3.49,4.51,5.57,1.53,4.4,1.53,6.96c0,4.41-1.04,8.21-3.12,11.38s-5.01,5.6-8.79,7.29-8.19,2.55-13.24,2.55Z"/><path class="cls-1" d="M1317.73,117.75V62.07h-19.21v-11.52h51.46v11.52h-19.78v55.67h-12.48Z"/></g><g><path class="cls-1" d="M86.71,0C38.9,0,0,38.9,0,86.71s38.9,86.71,86.71,86.71,86.71-38.9,86.71-86.71S134.52,0,86.71,0Zm0,148.51c-34.07,0-61.8-27.72-61.8-61.8S52.64,24.92,86.71,24.92s61.8,27.71,61.8,61.79-27.72,61.8-61.8,61.8Z"/><path class="cls-1" d="M59.18,78.29c.76-2.52,1.84-4.88,3.19-7.03l-23.76-17.28c-3.34,4.9-5.89,10.22-7.59,15.82,9.62,2.16,19.09,5.01,28.15,8.49Z"/><path class="cls-1" d="M90.29,93.5c4.76,2.86,9.4,5.91,13.82,9.07,13.11-5.88,26.81-10.35,40.73-13.29,.05-.97,.07-1.77,.07-2.57,0-4.48-.54-8.99-1.58-13.43-18.62,4.16-36.46,10.97-53.04,20.21Z"/><path class="cls-1" d="M86.71,111.44c4.39-2.51,8.98-4.89,13.64-7.11-4.4-3.09-8.98-6.04-13.64-8.77-4.66,2.72-9.24,5.68-13.64,8.77,4.66,2.22,9.25,4.6,13.64,7.11Z"/><path class="cls-1" d="M86.71,61.5c-11.33,0-21.03,7.29-24.17,18.13,8.29,3.36,16.43,7.31,24.17,11.74,7.74-4.42,15.88-8.38,24.17-11.74-3.14-10.85-12.84-18.13-24.17-18.13Z"/><path class="cls-1" d="M86.75,124.76c4.94,0,9.84,.08,14.57,.24-4.74-3.35-9.65-6.51-14.61-9.4-5,2.92-9.91,6.07-14.61,9.4,4.75-.17,9.67-.24,14.65-.24Z"/><g><path class="cls-1" d="M128.86,126.79c8.77-9.23,14.35-21.21,15.71-33.77-18.92,4.1-37.17,11-54.26,20.51,6.03,3.6,11.89,7.55,17.47,11.74,7.14,.34,14.23,.85,21.07,1.52Z"/><path class="cls-1" d="M83.11,113.53c-17.09-9.51-35.34-16.41-54.26-20.51,1.37,12.57,6.94,24.55,15.72,33.77,7.02-.68,14.11-1.19,21.05-1.52,2.06-1.55,4.28-2.83,6.4-4.3,1.57-1.09,3.15-2.15,4.75-3.19,2.13-1.38,4.17-2.95,6.33-4.25Z"/></g><path class="cls-1" d="M86.71,144.92c14.32,0,28.07-5.27,38.76-14.84-12.98-1.15-26.01-1.74-38.72-1.74s-25.86,.59-38.8,1.75c10.7,9.57,24.46,14.83,38.76,14.83Z"/><path class="cls-1" d="M106.39,31.94l-9.08,27.98c4.53,1.78,8.54,4.69,11.62,8.43l23.75-17.27c-6.81-8.77-15.89-15.38-26.29-19.14Z"/><path class="cls-1" d="M28.57,89.28c13.93,2.94,27.63,7.41,40.73,13.29,4.41-3.16,9.05-6.22,13.82-9.07-16.57-9.26-34.41-16.05-53.04-20.21-1.04,4.43-1.58,8.95-1.58,13.43,0,.8,.02,1.6,.07,2.57Z"/><path class="cls-1" d="M142.39,69.8c-1.71-5.62-4.26-10.94-7.59-15.82l-23.76,17.28c1.36,2.15,2.43,4.51,3.19,7.03,9.06-3.48,18.54-6.33,28.15-8.49Z"/><path class="cls-1" d="M40.73,51.08l23.76,17.27c3.08-3.74,7.09-6.65,11.62-8.43l-9.08-27.98c-10.4,3.76-19.48,10.37-26.3,19.14Z"/><path class="cls-1" d="M79.54,58.8c2.34-.59,4.76-.88,7.17-.88s4.82,.29,7.17,.88l9.09-27.96c-10.59-3.09-21.93-3.09-32.52,0l9.09,27.96Z"/></g></g></g></svg>