<?xml version="1.0" encoding="UTF-8"?><svg id="Layer_2" xmlns="http://www.w3.org/2000/svg" viewBox="0 0 1350.13 173.7"><g id="Layer_1-2"><g><g><g><path d="M240.29,149.51v-21h9.11c1.27,0,2.42,.3,3.46,.88,1.04,.59,1.87,1.39,2.48,2.4,.61,1.01,.91,2.14,.91,3.4s-.3,2.3-.91,3.32c-.62,1.01-1.44,1.81-2.46,2.4-1.04,.59-2.19,.88-3.48,.88h-5.3v7.71h-3.81Zm3.81-11.1h5.34c.58,0,1.08-.14,1.51-.41,.43-.27,.76-.64,1.01-1.13,.23-.48,.35-1.01,.35-1.59,0-.66-.14-1.23-.45-1.71-.29-.48-.71-.86-1.25-1.14-.55-.28-1.17-.42-1.87-.42h-4.65v6.39Zm8.37,11.1l-5.34-9.48,4.02-.75,5.94,10.26-4.62-.03Z"/><path d="M270.86,149.81c-1.49,0-2.89-.27-4.17-.81-1.28-.54-2.4-1.3-3.34-2.27-.96-.97-1.69-2.11-2.21-3.44-.53-1.32-.78-2.76-.78-4.32s.25-3,.78-4.32c.52-1.32,1.25-2.47,2.21-3.44,.94-.97,2.06-1.72,3.34-2.27,1.28-.54,2.68-.81,4.17-.81s2.92,.27,4.2,.81c1.28,.54,2.39,1.3,3.33,2.28,.94,.98,1.67,2.13,2.19,3.44,.53,1.31,.78,2.74,.78,4.3s-.25,2.97-.78,4.29c-.52,1.32-1.25,2.47-2.19,3.45-.94,.98-2.05,1.74-3.33,2.28-1.28,.54-2.69,.81-4.2,.81Zm0-3.72c.97,0,1.84-.18,2.63-.53,.78-.35,1.47-.85,2.05-1.5,.59-.65,1.04-1.41,1.37-2.27s.49-1.8,.49-2.82-.16-1.96-.49-2.82-.78-1.62-1.37-2.27c-.58-.65-1.27-1.15-2.05-1.5-.79-.35-1.66-.53-2.63-.53s-1.81,.18-2.61,.53-1.49,.84-2.07,1.48c-.59,.64-1.04,1.39-1.35,2.25-.32,.86-.49,1.81-.49,2.85s.17,1.97,.49,2.84c.31,.87,.76,1.63,1.35,2.27,.58,.64,1.27,1.13,2.07,1.48s1.66,.53,2.61,.53Z"/><path d="M295.75,149.81c-1.49,0-2.89-.27-4.16-.81-1.29-.54-2.4-1.3-3.35-2.27-.95-.97-1.69-2.11-2.21-3.44-.52-1.32-.77-2.76-.77-4.32s.25-3,.77-4.32c.52-1.32,1.26-2.47,2.21-3.44,.95-.97,2.06-1.72,3.35-2.27,1.27-.54,2.67-.81,4.16-.81s2.93,.27,4.2,.81c1.29,.54,2.4,1.3,3.34,2.28,.94,.98,1.66,2.13,2.19,3.44,.52,1.31,.78,2.74,.78,4.3s-.26,2.97-.78,4.29c-.53,1.32-1.25,2.47-2.19,3.45-.94,.98-2.05,1.74-3.34,2.28-1.27,.54-2.68,.81-4.2,.81Zm0-3.72c.97,0,1.84-.18,2.64-.53,.78-.35,1.46-.85,2.05-1.5,.58-.65,1.04-1.41,1.37-2.27s.49-1.8,.49-2.82-.16-1.96-.49-2.82-.79-1.62-1.37-2.27c-.59-.65-1.27-1.15-2.05-1.5-.8-.35-1.67-.53-2.64-.53s-1.81,.18-2.61,.53c-.79,.35-1.49,.84-2.06,1.48-.59,.64-1.04,1.39-1.36,2.25s-.48,1.81-.48,2.85,.16,1.97,.48,2.84,.77,1.63,1.36,2.27c.57,.64,1.27,1.13,2.06,1.48,.8,.35,1.67,.53,2.61,.53Z"/><path d="M314.44,149.51v-17.4h-6v-3.6h16.07v3.6h-6.17v17.4h-3.91Z"/><path d="M329.57,149.51v-21h13.74v3.54h-9.9v13.92h10.02v3.54h-13.86Zm1.8-9v-3.48h10.41v3.48h-10.41Z"/><path d="M349.46,149.51v-21h8.42c1.52,0,2.9,.25,4.13,.75,1.23,.5,2.29,1.22,3.17,2.16,.9,.94,1.58,2.05,2.05,3.33s.7,2.7,.7,4.26-.23,2.98-.7,4.27-1.15,2.4-2.03,3.33c-.88,.93-1.93,1.65-3.18,2.14-1.23,.5-2.62,.75-4.14,.75h-8.42Zm3.89-3.03l-.29-.57h4.68c.99,0,1.86-.16,2.63-.48,.77-.32,1.43-.78,1.96-1.38s.95-1.33,1.23-2.18,.42-1.8,.42-2.86-.14-2.02-.42-2.87-.69-1.58-1.24-2.18c-.55-.6-1.21-1.06-1.97-1.38-.76-.32-1.62-.48-2.61-.48h-4.78l.39-.51v14.88Z"/><path d="M383.95,149.51v-3.45h3.46v-14.1h-3.46v-3.45h10.8v3.45h-3.45v14.1h3.45v3.45h-10.8Z"/><path d="M400.75,149.51v-21h3.52l12.18,16.41-.65,.12c-.09-.56-.16-1.14-.21-1.73s-.12-1.2-.17-1.85c-.05-.64-.09-1.31-.13-2.01-.02-.7-.05-1.44-.07-2.21-.02-.77-.03-1.58-.03-2.45v-6.3h3.87v21h-3.57l-12.24-16.17,.78-.21c.11,1.12,.19,2.08,.25,2.87s.13,1.47,.17,2.04,.08,1.04,.11,1.43,.05,.72,.06,1.04c0,.31,0,.61,0,.88v8.13h-3.87Z"/><path d="M446.18,149.81c-1.5,0-2.89-.27-4.18-.81-1.27-.54-2.39-1.3-3.34-2.27-.96-.97-1.68-2.11-2.21-3.44-.52-1.32-.78-2.76-.78-4.32s.26-3,.78-4.32c.53-1.32,1.25-2.47,2.21-3.44,.95-.97,2.07-1.72,3.34-2.27,1.29-.54,2.68-.81,4.18-.81s2.91,.27,4.2,.81c1.27,.54,2.38,1.3,3.32,2.28,.95,.98,1.68,2.13,2.2,3.44s.77,2.74,.77,4.3-.25,2.97-.77,4.29-1.25,2.47-2.2,3.45c-.94,.98-2.05,1.74-3.32,2.28-1.29,.54-2.69,.81-4.2,.81Zm0-3.72c.96,0,1.84-.18,2.62-.53,.79-.35,1.48-.85,2.05-1.5,.59-.65,1.04-1.41,1.37-2.27s.5-1.8,.5-2.82-.17-1.96-.5-2.82-.78-1.62-1.37-2.27c-.57-.65-1.26-1.15-2.05-1.5-.78-.35-1.66-.53-2.62-.53s-1.82,.18-2.62,.53-1.48,.84-2.07,1.48c-.58,.64-1.03,1.39-1.35,2.25-.31,.86-.48,1.81-.48,2.85s.17,1.97,.48,2.84c.32,.87,.77,1.63,1.35,2.27,.59,.64,1.27,1.13,2.07,1.48s1.67,.53,2.62,.53Z"/><path d="M470.51,149.69c-1.66,0-3.13-.36-4.44-1.06-1.3-.71-2.32-1.69-3.07-2.94-.76-1.25-1.13-2.67-1.13-4.25v-12.96h3.93v12.69c0,.94,.21,1.78,.64,2.5,.43,.73,1.02,1.31,1.74,1.75,.71,.44,1.49,.66,2.33,.66,.92,0,1.75-.22,2.49-.66,.74-.44,1.33-1.02,1.76-1.75,.43-.73,.64-1.56,.64-2.5v-12.69h3.77v12.96c0,1.58-.37,3-1.11,4.25-.76,1.25-1.78,2.23-3.09,2.94-1.29,.71-2.78,1.06-4.46,1.06Z"/><path d="M485.84,149.51v-21h9.11c1.27,0,2.42,.3,3.46,.88,1.04,.59,1.87,1.39,2.48,2.4,.61,1.01,.91,2.14,.91,3.4s-.3,2.3-.91,3.32c-.62,1.01-1.44,1.81-2.46,2.4-1.04,.59-2.19,.88-3.48,.88h-5.3v7.71h-3.81Zm3.81-11.1h5.34c.58,0,1.08-.14,1.51-.41,.43-.27,.76-.64,1.01-1.13,.23-.48,.35-1.01,.35-1.59,0-.66-.14-1.23-.45-1.71-.29-.48-.71-.86-1.25-1.14-.55-.28-1.17-.42-1.87-.42h-4.65v6.39Zm8.37,11.1l-5.34-9.48,4.02-.75,5.94,10.26-4.62-.03Z"/><path d="M519.17,149.51v-21h3.89v17.4h9.7v3.6h-13.58Z"/><path d="M534.88,149.51l8.19-21h3.65l8.13,21h-4.05l-4.49-11.94c-.1-.24-.23-.62-.41-1.14-.18-.52-.35-1.08-.55-1.69-.21-.61-.39-1.18-.55-1.71-.16-.53-.27-.92-.36-1.16l.75-.03c-.12,.4-.25,.85-.42,1.35-.17,.5-.33,1.02-.52,1.56-.18,.54-.35,1.06-.52,1.56-.17,.5-.32,.95-.46,1.35l-4.51,11.85h-3.9Zm3.72-4.8l1.35-3.39h9.57l1.45,3.39h-12.36Z"/><path d="M558.77,149.51v-21h3.51l12.19,16.41-.66,.12c-.08-.56-.16-1.14-.21-1.73s-.12-1.2-.16-1.85c-.06-.64-.1-1.31-.13-2.01-.03-.7-.05-1.44-.07-2.21-.02-.77-.04-1.58-.04-2.45v-6.3h3.87v21h-3.56l-12.24-16.17,.78-.21c.1,1.12,.18,2.08,.25,2.87,.07,.79,.12,1.47,.16,2.04s.08,1.04,.12,1.43c.02,.38,.04,.72,.06,1.04,0,.31,0,.61,0,.88v8.13h-3.87Z"/><path d="M583.88,149.51v-21h8.43c1.51,0,2.9,.25,4.13,.75,1.23,.5,2.29,1.22,3.17,2.16,.89,.94,1.57,2.05,2.04,3.33s.7,2.7,.7,4.26-.23,2.98-.7,4.27-1.15,2.4-2.03,3.33c-.88,.93-1.93,1.65-3.17,2.14-1.24,.5-2.63,.75-4.14,.75h-8.43Zm3.9-3.03l-.3-.57h4.69c.98,0,1.86-.16,2.62-.48,.78-.32,1.43-.78,1.97-1.38,.54-.6,.95-1.33,1.23-2.18,.27-.85,.41-1.8,.41-2.86s-.14-2.02-.41-2.87c-.28-.85-.7-1.58-1.25-2.18-.55-.6-1.21-1.06-1.96-1.38-.76-.32-1.63-.48-2.61-.48h-4.78l.39-.51v14.88Z"/><path d="M608.17,155.09l-1.23-1.47c.74-.4,1.34-.86,1.79-1.4s.67-.99,.67-1.37c0-.2-.04-.39-.14-.58-.09-.19-.3-.45-.64-.77-.41-.38-.7-.71-.84-.99-.14-.28-.21-.59-.21-.93,0-.52,.19-.94,.57-1.26,.38-.32,.87-.48,1.47-.48,.54,0,1.02,.15,1.45,.45,.43,.3,.77,.71,1.02,1.25,.23,.53,.35,1.14,.35,1.84,0,.62-.1,1.23-.31,1.82s-.51,1.14-.9,1.64-.84,.95-1.35,1.33c-.51,.39-1.07,.7-1.7,.92Z"/><path d="M638.56,149.81c-1.58,0-3.05-.27-4.38-.83-1.34-.55-2.51-1.31-3.49-2.29-1-.98-1.76-2.12-2.3-3.43-.54-1.31-.8-2.73-.8-4.28s.27-2.93,.82-4.24,1.33-2.45,2.32-3.42c1-.97,2.17-1.73,3.53-2.27,1.35-.54,2.8-.81,4.37-.81,1.09,0,2.16,.15,3.18,.45,1.02,.3,1.93,.72,2.75,1.26,.82,.54,1.5,1.15,2.04,1.83l-2.46,2.58c-.56-.54-1.13-.99-1.73-1.35-.59-.36-1.2-.64-1.84-.84-.64-.2-1.31-.3-1.99-.3-1,0-1.91,.18-2.77,.54-.84,.36-1.58,.86-2.22,1.5s-1.12,1.39-1.48,2.25-.54,1.8-.54,2.82,.19,1.91,.55,2.79c.37,.88,.9,1.65,1.55,2.31s1.43,1.18,2.29,1.54c.87,.37,1.8,.56,2.77,.56,.74,0,1.43-.11,2.07-.33,.64-.22,1.21-.52,1.71-.91s.89-.84,1.16-1.37c.26-.52,.4-1.08,.4-1.68v-.66l.54,.63h-6.21v-3.48h9.51c.04,.22,.08,.46,.1,.73s.03,.53,.04,.78,.02,.46,.02,.64c0,1.38-.24,2.64-.72,3.76-.49,1.13-1.15,2.1-2.03,2.92-.86,.82-1.88,1.46-3.03,1.9s-2.39,.67-3.73,.67Z"/><path d="M653.11,149.51v-21h9.12c1.25,0,2.4,.3,3.45,.88,1.04,.59,1.87,1.39,2.47,2.4,.62,1.01,.92,2.14,.92,3.4s-.3,2.3-.92,3.32c-.61,1.01-1.43,1.81-2.46,2.4-1.03,.59-2.19,.88-3.46,.88h-5.31v7.71h-3.81Zm3.81-11.1h5.33c.59,0,1.09-.14,1.52-.41,.43-.27,.76-.64,1.01-1.13,.24-.48,.36-1.01,.36-1.59,0-.66-.16-1.23-.45-1.71-.3-.48-.72-.86-1.27-1.14-.54-.28-1.15-.42-1.86-.42h-4.65v6.39Zm8.37,11.1l-5.34-9.48,4.02-.75,5.94,10.26-4.62-.03Z"/><path d="M683.68,149.81c-1.5,0-2.89-.27-4.17-.81-1.28-.54-2.39-1.3-3.35-2.27-.95-.97-1.68-2.11-2.21-3.44-.51-1.32-.77-2.76-.77-4.32s.26-3,.77-4.32c.53-1.32,1.26-2.47,2.21-3.44,.96-.97,2.07-1.72,3.35-2.27,1.28-.54,2.67-.81,4.17-.81s2.92,.27,4.2,.81c1.28,.54,2.39,1.3,3.33,2.28,.95,.98,1.67,2.13,2.2,3.44,.51,1.31,.77,2.74,.77,4.3s-.26,2.97-.77,4.29c-.53,1.32-1.25,2.47-2.2,3.45-.94,.98-2.05,1.74-3.33,2.28-1.28,.54-2.68,.81-4.2,.81Zm0-3.72c.96,0,1.84-.18,2.63-.53s1.47-.85,2.05-1.5,1.04-1.41,1.37-2.27,.5-1.8,.5-2.82-.17-1.96-.5-2.82-.79-1.62-1.37-2.27-1.26-1.15-2.05-1.5-1.67-.53-2.63-.53-1.82,.18-2.62,.53c-.79,.35-1.48,.84-2.06,1.48s-1.03,1.39-1.36,2.25c-.31,.86-.47,1.81-.47,2.85s.16,1.97,.47,2.84c.33,.87,.78,1.63,1.36,2.27s1.27,1.13,2.06,1.48c.8,.35,1.68,.53,2.62,.53Z"/><path d="M703.04,149.51l-6.54-21h4.08l3.71,12.39c.12,.38,.23,.8,.33,1.26s.2,.91,.27,1.36,.15,.86,.21,1.25c.06,.38,.12,.7,.18,.96l-.81-.03c.24-.94,.43-1.7,.57-2.28,.15-.58,.26-1.06,.38-1.46,.11-.39,.21-.76,.34-1.09l3.54-9.06h3.32l3.46,9.06c.2,.56,.37,1.09,.54,1.6,.17,.51,.29,1.01,.4,1.5,.12,.49,.21,1,.32,1.52l-.72,.15c.08-.48,.15-.87,.19-1.17,.04-.3,.08-.57,.12-.81s.08-.47,.12-.7c.04-.23,.11-.51,.2-.84,.09-.33,.21-.76,.35-1.28l3.68-12.33h4.05l-6.57,21h-2.82l-5.33-12.78,.35,.12-5.06,12.66h-2.85Z"/><path d="M728.65,149.51v-3.45h3.45v-14.1h-3.45v-3.45h10.79v3.45h-3.44v14.1h3.44v3.45h-10.79Z"/><path d="M745.52,149.51v-21h3.5l12.19,16.41-.66,.12c-.08-.56-.15-1.14-.21-1.73-.07-.59-.12-1.2-.17-1.85-.05-.64-.1-1.31-.12-2.01-.04-.7-.06-1.44-.08-2.21-.02-.77-.03-1.58-.03-2.45v-6.3h3.87v21h-3.56l-12.25-16.17,.78-.21c.1,1.12,.19,2.08,.25,2.87,.08,.79,.13,1.47,.17,2.04s.08,1.04,.11,1.43,.05,.72,.06,1.04c0,.31,.02,.61,.02,.88v8.13h-3.87Z"/><path d="M779.91,149.81c-1.57,0-3.03-.27-4.38-.83-1.34-.55-2.5-1.31-3.5-2.29-.99-.98-1.76-2.12-2.29-3.43-.55-1.31-.82-2.73-.82-4.28s.27-2.93,.83-4.24c.55-1.31,1.32-2.45,2.32-3.42,1.01-.97,2.18-1.73,3.53-2.27,1.35-.54,2.8-.81,4.37-.81,1.1,0,2.16,.15,3.17,.45,1.03,.3,1.94,.72,2.76,1.26,.82,.54,1.49,1.15,2.04,1.83l-2.46,2.58c-.57-.54-1.13-.99-1.72-1.35-.6-.36-1.21-.64-1.86-.84-.63-.2-1.29-.3-1.97-.3-1,0-1.93,.18-2.77,.54-.86,.36-1.59,.86-2.23,1.5-.62,.64-1.12,1.39-1.48,2.25-.35,.86-.54,1.8-.54,2.82s.19,1.91,.56,2.79,.88,1.65,1.54,2.31,1.43,1.18,2.29,1.54c.87,.37,1.79,.56,2.77,.56,.74,0,1.44-.11,2.07-.33,.63-.22,1.21-.52,1.71-.91,.51-.39,.89-.84,1.15-1.37,.27-.52,.41-1.08,.41-1.68v-.66l.54,.63h-6.2v-3.48h9.5c.04,.22,.07,.46,.09,.73s.04,.53,.05,.78,0,.46,0,.64c0,1.38-.23,2.64-.71,3.76s-1.16,2.1-2.02,2.92c-.88,.82-1.88,1.46-3.04,1.9-1.14,.45-2.39,.67-3.74,.67Z"/><path d="M814.99,149.81c-1.5,0-2.89-.27-4.17-.81-1.28-.54-2.39-1.3-3.35-2.27-.95-.97-1.68-2.11-2.21-3.44-.51-1.32-.77-2.76-.77-4.32s.26-3,.77-4.32c.53-1.32,1.26-2.47,2.21-3.44,.96-.97,2.07-1.72,3.35-2.27,1.28-.54,2.67-.81,4.17-.81s2.92,.27,4.2,.81c1.28,.54,2.39,1.3,3.33,2.28,.95,.98,1.67,2.13,2.2,3.44,.51,1.31,.77,2.74,.77,4.3s-.26,2.97-.77,4.29c-.53,1.32-1.25,2.47-2.2,3.45-.94,.98-2.05,1.74-3.33,2.28-1.28,.54-2.68,.81-4.2,.81Zm0-3.72c.96,0,1.84-.18,2.63-.53s1.47-.85,2.05-1.5,1.04-1.41,1.37-2.27,.5-1.8,.5-2.82-.17-1.96-.5-2.82-.79-1.62-1.37-2.27-1.26-1.15-2.05-1.5-1.67-.53-2.63-.53-1.82,.18-2.62,.53c-.79,.35-1.48,.84-2.06,1.48s-1.03,1.39-1.36,2.25c-.31,.86-.47,1.81-.47,2.85s.16,1.97,.47,2.84c.33,.87,.78,1.63,1.36,2.27s1.27,1.13,2.06,1.48c.8,.35,1.68,.53,2.62,.53Z"/><path d="M839.31,149.69c-1.66,0-3.13-.36-4.44-1.06-1.3-.71-2.32-1.69-3.07-2.94-.76-1.25-1.13-2.67-1.13-4.25v-12.96h3.93v12.69c0,.94,.21,1.78,.64,2.5,.43,.73,1.02,1.31,1.74,1.75,.71,.44,1.49,.66,2.33,.66,.92,0,1.75-.22,2.49-.66,.74-.44,1.33-1.02,1.76-1.75,.43-.73,.64-1.56,.64-2.5v-12.69h3.77v12.96c0,1.58-.37,3-1.11,4.25-.76,1.25-1.78,2.23-3.09,2.94-1.29,.71-2.78,1.06-4.46,1.06Z"/><path d="M854.65,149.51v-21h9.11c1.27,0,2.42,.3,3.46,.88,1.04,.59,1.87,1.39,2.48,2.4,.61,1.01,.91,2.14,.91,3.4s-.3,2.3-.91,3.32c-.62,1.01-1.44,1.81-2.46,2.4-1.04,.59-2.19,.88-3.48,.88h-5.3v7.71h-3.81Zm3.81-11.1h5.34c.58,0,1.08-.14,1.51-.41,.43-.27,.76-.64,1.01-1.13,.23-.48,.35-1.01,.35-1.59,0-.66-.14-1.23-.45-1.71-.29-.48-.71-.86-1.25-1.14-.55-.28-1.17-.42-1.87-.42h-4.65v6.39Zm8.37,11.1l-5.34-9.48,4.02-.75,5.94,10.26-4.62-.03Z"/><path d="M896.88,149.81c-1.52,0-2.91-.26-4.17-.78-1.26-.52-2.35-1.26-3.27-2.24s-1.63-2.12-2.15-3.45c-.51-1.33-.76-2.78-.76-4.37s.27-2.93,.82-4.23c.53-1.3,1.29-2.44,2.25-3.42,.96-.98,2.07-1.74,3.36-2.28,1.28-.54,2.67-.81,4.16-.81,1.03,0,2.01,.15,2.98,.45,.96,.3,1.85,.72,2.64,1.25,.8,.53,1.47,1.15,2.01,1.85l-2.49,2.73c-.52-.54-1.05-1-1.6-1.37-.55-.37-1.12-.65-1.72-.84-.59-.19-1.19-.28-1.82-.28-.92,0-1.78,.17-2.59,.51-.81,.34-1.51,.82-2.1,1.44s-1.05,1.36-1.4,2.21-.51,1.8-.51,2.84,.17,2.02,.5,2.88c.33,.86,.8,1.6,1.41,2.22s1.34,1.09,2.19,1.43,1.79,.49,2.81,.49c.65,0,1.29-.09,1.91-.27s1.19-.43,1.72-.77c.54-.33,1.02-.71,1.46-1.15l1.91,3.09c-.48,.54-1.11,1.03-1.91,1.47s-1.7,.78-2.7,1.04c-.98,.25-1.97,.37-2.95,.37Z"/><path d="M918.75,149.81c-1.49,0-2.89-.27-4.17-.81-1.28-.54-2.4-1.3-3.34-2.27-.96-.97-1.69-2.11-2.21-3.44-.53-1.32-.78-2.76-.78-4.32s.25-3,.78-4.32c.52-1.32,1.25-2.47,2.21-3.44,.94-.97,2.06-1.72,3.34-2.27,1.28-.54,2.68-.81,4.17-.81s2.92,.27,4.2,.81c1.28,.54,2.39,1.3,3.33,2.28,.94,.98,1.67,2.13,2.19,3.44,.53,1.31,.78,2.74,.78,4.3s-.25,2.97-.78,4.29c-.52,1.32-1.25,2.47-2.19,3.45-.94,.98-2.05,1.74-3.33,2.28-1.28,.54-2.69,.81-4.2,.81Zm0-3.72c.97,0,1.84-.18,2.63-.53,.78-.35,1.47-.85,2.05-1.5,.59-.65,1.04-1.41,1.37-2.27s.49-1.8,.49-2.82-.16-1.96-.49-2.82-.78-1.62-1.37-2.27c-.58-.65-1.27-1.15-2.05-1.5-.79-.35-1.66-.53-2.63-.53s-1.81,.18-2.61,.53-1.49,.84-2.07,1.48c-.59,.64-1.04,1.39-1.35,2.25-.32,.86-.49,1.81-.49,2.85s.17,1.97,.49,2.84c.31,.87,.76,1.63,1.35,2.27,.58,.64,1.27,1.13,2.07,1.48s1.66,.53,2.61,.53Z"/><path d="M934.21,149.51v-21h3.68l7.65,12.45-2.15-.03,7.73-12.42h3.52v21h-3.88v-7.89c0-1.8,.05-3.42,.14-4.86s.24-2.87,.46-4.29l.49,1.29-6.51,10.05h-1.98l-6.3-9.96,.42-1.38c.21,1.34,.37,2.71,.47,4.13,.09,1.41,.14,3.09,.14,5.02v7.89h-3.87Z"/><path d="M961.43,149.51v-21h3.69l7.66,12.45-2.17-.03,7.74-12.42h3.51v21h-3.87v-7.89c0-1.8,.04-3.42,.14-4.86,.09-1.44,.24-2.87,.47-4.29l.47,1.29-6.5,10.05h-1.98l-6.3-9.96,.42-1.38c.22,1.34,.38,2.71,.46,4.13,.1,1.41,.14,3.09,.14,5.02v7.89h-3.87Z"/><path d="M997.08,149.69c-1.66,0-3.14-.36-4.43-1.06-1.31-.71-2.33-1.69-3.09-2.94-.74-1.25-1.12-2.67-1.12-4.25v-12.96h3.94v12.69c0,.94,.21,1.78,.64,2.5,.43,.73,1,1.31,1.72,1.75,.72,.44,1.5,.66,2.34,.66,.92,0,1.75-.22,2.49-.66,.73-.44,1.32-1.02,1.75-1.75,.43-.73,.64-1.56,.64-2.5v-12.69h3.79v12.96c0,1.58-.37,3-1.13,4.25-.74,1.25-1.77,2.23-3.07,2.94-1.31,.71-2.79,1.06-4.47,1.06Z"/><path d="M1012.32,149.51v-21h3.51l12.19,16.41-.66,.12c-.08-.56-.16-1.14-.21-1.73s-.12-1.2-.16-1.85c-.06-.64-.1-1.31-.13-2.01-.03-.7-.05-1.44-.07-2.21-.02-.77-.04-1.58-.04-2.45v-6.3h3.87v21h-3.56l-12.24-16.17,.78-.21c.1,1.12,.18,2.08,.25,2.87,.07,.79,.12,1.47,.16,2.04s.08,1.04,.12,1.43c.02,.38,.04,.72,.06,1.04,0,.31,0,.61,0,.88v8.13h-3.87Z"/><path d="M1036.81,149.51v-3.45h3.44v-14.1h-3.44v-3.45h10.79v3.45h-3.45v14.1h3.45v3.45h-10.79Z"/><path d="M1057.38,149.51v-17.4h-6.01v-3.6h16.08v3.6h-6.18v17.4h-3.9Z"/><path d="M1077.42,149.51v-10.47l.21,1.47-8.48-12h4.55l6.48,9.3-1.41-.09,5.84-9.21h4.38l-8.13,12.33,.45-2.04v10.71h-3.9Z"/></g><g><path d="M272.63,89.41c-4.86,0-9.32-.83-13.34-2.5-4.03-1.66-7.52-4.04-10.47-7.15s-5.23-6.78-6.86-11.04c-1.64-4.26-2.46-8.91-2.46-13.97s.87-9.38,2.6-13.54,4.13-7.81,7.21-10.94c3.07-3.13,6.65-5.57,10.74-7.3,4.1-1.73,8.55-2.59,13.35-2.59,3.26,0,6.44,.48,9.5,1.44,3.07,.96,5.89,2.29,8.45,3.98,2.56,1.7,4.71,3.67,6.44,5.9l-7.97,8.74c-1.66-1.73-3.38-3.18-5.14-4.37-1.76-1.18-3.58-2.08-5.47-2.69-1.89-.61-3.83-.91-5.81-.91-2.94,0-5.71,.54-8.31,1.63-2.59,1.09-4.82,2.63-6.72,4.61-1.88,1.98-3.38,4.34-4.45,7.06-1.09,2.72-1.64,5.74-1.64,9.07s.53,6.46,1.58,9.21c1.05,2.75,2.56,5.12,4.51,7.1s4.3,3.51,7.01,4.56,5.71,1.58,8.97,1.58c2.12,0,4.16-.29,6.14-.86,1.99-.58,3.83-1.39,5.53-2.45,1.69-1.05,3.24-2.29,4.65-3.7l6.15,9.89c-1.54,1.73-3.59,3.3-6.15,4.71-2.56,1.41-5.42,2.51-8.59,3.31-3.16,.8-6.32,1.2-9.45,1.2Z"/><path d="M345.78,89.41c-4.79,0-9.25-.86-13.35-2.59-4.09-1.73-7.66-4.15-10.7-7.25-3.04-3.1-5.39-6.77-7.05-10.99s-2.5-8.83-2.5-13.82,.84-9.6,2.5-13.82,4.01-7.89,7.05-10.99c3.05-3.11,6.61-5.52,10.7-7.25,4.1-1.73,8.55-2.59,13.35-2.59s9.35,.86,13.44,2.59,7.65,4.17,10.65,7.3,5.35,6.8,7.01,10.99c1.66,4.19,2.5,8.78,2.5,13.77s-.84,9.5-2.5,13.73c-1.66,4.22-4,7.9-7.01,11.04-3.01,3.13-6.56,5.57-10.65,7.29s-8.57,2.59-13.44,2.59Zm0-11.9c3.08,0,5.87-.56,8.4-1.68,2.53-1.12,4.72-2.72,6.57-4.8s3.32-4.5,4.38-7.25c1.05-2.75,1.58-5.76,1.58-9.02s-.53-6.27-1.58-9.02c-1.05-2.75-2.52-5.17-4.38-7.25s-4.04-3.68-6.57-4.8c-2.53-1.12-5.32-1.68-8.4-1.68s-5.79,.56-8.35,1.68c-2.56,1.12-4.77,2.7-6.62,4.75-1.87,2.05-3.3,4.45-4.33,7.2-1.03,2.75-1.53,5.8-1.53,9.12s.51,6.29,1.53,9.07,2.46,5.2,4.33,7.25c1.86,2.05,4.06,3.63,6.62,4.76,2.56,1.12,5.33,1.68,8.35,1.68Z"/><path d="M400.02,88.44V21.24h29.19c4.02,0,7.71,.95,11.04,2.83,3.32,1.89,5.97,4.45,7.92,7.68,1.95,3.23,2.93,6.87,2.93,10.9s-.98,7.38-2.93,10.61c-1.95,3.23-4.58,5.8-7.87,7.68-3.29,1.89-6.99,2.83-11.08,2.83h-16.99v24.67h-12.2Zm12.2-35.52h17.09c1.86,0,3.47-.43,4.84-1.3,1.37-.86,2.44-2.07,3.21-3.6,.77-1.54,1.15-3.23,1.15-5.09,0-2.11-.48-3.94-1.44-5.47-.96-1.53-2.3-2.75-4.04-3.65-1.72-.89-3.71-1.34-5.95-1.34h-14.87v20.45Zm26.78,35.52l-17.09-30.34,12.87-2.4,19,32.83-14.79-.1Z"/><path d="M485.46,88.44V32.76h-19.2v-11.52h51.46v11.52h-19.78v55.68h-12.48Z"/><path d="M535.95,88.44V21.24h12.48v55.68h31.02v11.52h-43.5Z"/><path d="M589.81,88.44l26.21-67.2h11.71l26.02,67.2h-12.96l-14.4-38.21c-.32-.77-.75-1.98-1.3-3.65s-1.13-3.47-1.78-5.42c-.63-1.95-1.21-3.77-1.72-5.47-.52-1.69-.9-2.92-1.15-3.7l2.4-.09c-.39,1.28-.84,2.72-1.35,4.32-.51,1.6-1.05,3.26-1.64,4.99-.57,1.73-1.13,3.39-1.68,4.99-.54,1.6-1.04,3.04-1.48,4.32l-14.39,37.92h-12.48Zm11.9-15.36l4.32-10.84h30.62l4.61,10.84h-39.55Z"/><path d="M669.87,88.44V21.24h11.23l38.98,52.51-2.12,.39c-.25-1.79-.48-3.63-.67-5.52-.2-1.88-.37-3.85-.53-5.9-.16-2.05-.29-4.19-.38-6.43-.1-2.24-.18-4.59-.24-7.06-.06-2.47-.1-5.07-.1-7.83V21.24h12.38V88.44h-11.42l-39.17-51.74,2.5-.67c.31,3.58,.59,6.64,.81,9.17s.4,4.7,.53,6.53c.13,1.82,.24,3.34,.34,4.56s.16,2.32,.2,3.31c.02,.99,.04,1.94,.04,2.83v26.02h-12.38Z"/><path d="M754.16,88.44V21.24h26.98c4.86,0,9.26,.8,13.19,2.4s7.33,3.91,10.18,6.91,5.03,6.56,6.53,10.65,2.25,8.64,2.25,13.63-.74,9.55-2.25,13.68c-1.5,4.13-3.67,7.68-6.48,10.66-2.81,2.97-6.21,5.26-10.18,6.86-3.96,1.6-8.38,2.4-13.24,2.4h-26.98Zm12.48-9.7l-.97-1.82h14.98c3.14,0,5.94-.51,8.4-1.54,2.46-1.02,4.57-2.5,6.29-4.41,1.73-1.92,3.05-4.24,3.95-6.96,.89-2.72,1.34-5.77,1.34-9.17s-.45-6.45-1.34-9.17c-.9-2.72-2.23-5.04-3.98-6.96-1.77-1.92-3.87-3.39-6.29-4.42-2.44-1.02-5.21-1.53-8.36-1.53h-15.26l1.25-1.63v47.61Z"/><path d="M874.25,88.44V21.24h12.48V88.44h-12.48Zm5.2-27.65v-11.71h43.96v11.71h-43.96Zm37.91,27.65V21.24h12.48V88.44h-12.48Z"/><path d="M946.06,88.44l26.2-67.2h11.71l26.02,67.2h-12.96l-14.4-38.21c-.31-.77-.74-1.98-1.29-3.65s-1.13-3.47-1.78-5.42-1.21-3.77-1.73-5.47c-.52-1.69-.89-2.92-1.15-3.7l2.4-.09c-.38,1.28-.83,2.72-1.34,4.32-.52,1.6-1.06,3.26-1.64,4.99s-1.13,3.39-1.68,4.99c-.55,1.6-1.04,3.04-1.48,4.32l-14.4,37.92h-12.47Zm11.89-15.36l4.32-10.84h30.62l4.61,10.84h-39.55Z"/><path d="M1026.12,88.44V21.24h29.18c4.04,0,7.71,.95,11.04,2.83,3.33,1.89,5.97,4.45,7.92,7.68,1.95,3.23,2.93,6.87,2.93,10.9s-.98,7.38-2.93,10.61c-1.95,3.23-4.57,5.8-7.87,7.68-3.3,1.89-6.99,2.83-11.09,2.83h-16.99v24.67h-12.19Zm12.19-35.52h17.09c1.86,0,3.48-.43,4.85-1.3s2.45-2.07,3.21-3.6c.76-1.54,1.15-3.23,1.15-5.09,0-2.11-.48-3.94-1.45-5.47-.96-1.53-2.3-2.75-4.02-3.65-1.73-.89-3.71-1.34-5.96-1.34h-14.88v20.45Zm26.79,35.52l-17.08-30.34,12.85-2.4,19.01,32.83-14.79-.1Z"/><path d="M1117.41,88.44l-26.88-67.2h13.63l14.97,38.5c.77,1.99,1.44,3.76,2.02,5.33,.57,1.57,1.08,2.99,1.53,4.27,.44,1.28,.85,2.52,1.2,3.74s.74,2.5,1.19,3.84h-2.68c.44-1.73,.92-3.44,1.44-5.14,.51-1.69,1.1-3.51,1.77-5.42,.68-1.92,1.49-4.13,2.46-6.63l14-38.5h13.73l-27.07,67.2h-11.33Z"/><path d="M1172.52,88.44V21.24h43.97v11.33h-31.68v44.55h32.05v11.33h-44.35Zm5.76-28.8v-11.14h33.31v11.14h-33.31Z"/><path d="M1261.02,89.41c-3.91,0-7.48-.5-10.74-1.49-3.27-.99-6.21-2.48-8.84-4.46s-4.96-4.38-7-7.2l8.15-9.21c3.13,4.35,6.2,7.36,9.21,9.02s6.41,2.5,10.18,2.5c2.19,0,4.16-.34,5.96-1.01,1.8-.67,3.2-1.6,4.22-2.78,1.04-1.18,1.54-2.54,1.54-4.08,0-1.09-.21-2.09-.62-3.03-.41-.92-1.04-1.76-1.88-2.5-.83-.73-1.86-1.42-3.07-2.06s-2.6-1.19-4.13-1.64c-1.53-.44-3.23-.86-5.09-1.25-3.52-.7-6.59-1.65-9.22-2.83-2.62-1.19-4.82-2.66-6.62-4.42-1.8-1.76-3.11-3.74-3.94-5.95-.83-2.21-1.24-4.72-1.24-7.53s.62-5.41,1.87-7.78c1.25-2.36,2.96-4.41,5.14-6.14s4.7-3.07,7.59-4.03c2.87-.96,5.98-1.44,9.31-1.44,3.78,0,7.16,.44,10.13,1.34,2.98,.89,5.61,2.22,7.87,3.98,2.28,1.76,4.14,3.89,5.62,6.38l-8.26,8.16c-1.29-1.98-2.71-3.63-4.32-4.94s-3.34-2.3-5.2-2.98c-1.86-.67-3.81-1.01-5.85-1.01-2.3,0-4.31,.32-6.01,.96-1.69,.64-3.02,1.55-3.98,2.74-.96,1.18-1.44,2.61-1.44,4.27,0,1.28,.28,2.42,.87,3.41,.57,.99,1.39,1.87,2.44,2.64,1.05,.77,2.42,1.44,4.08,2.02s3.55,1.09,5.66,1.54c3.52,.7,6.69,1.65,9.51,2.83,2.81,1.18,5.21,2.59,7.19,4.22,1.99,1.63,3.5,3.49,4.51,5.57,1.04,2.08,1.54,4.4,1.54,6.96,0,4.41-1.04,8.21-3.12,11.37-2.07,3.17-5,5.6-8.78,7.3-3.78,1.69-8.19,2.54-13.25,2.54Z"/><path d="M1317.86,88.44V32.76h-19.2v-11.52h51.46v11.52h-19.79v55.68h-12.48Z"/></g></g><g><path d="M86.86,0C38.96,0,0,38.96,0,86.85s38.96,86.86,86.86,86.86,86.85-38.96,86.85-86.86S134.74,0,86.86,0Zm0,148.5c-33.99,0-61.65-27.66-61.65-61.65S52.86,25.21,86.86,25.21s61.64,27.65,61.64,61.64-27.65,61.65-61.64,61.65Z"/><path d="M59.41,78.63c.77-2.59,1.88-5.03,3.3-7.28l-23.99-17.43c-3.41,4.96-6.01,10.38-7.74,16.13,9.71,2.17,19.28,5.05,28.44,8.57Z"/><path d="M90.15,93.63c4.76,2.84,9.5,5.96,14.1,9.25,13.19-5.93,26.94-10.42,40.89-13.35,.05-1.06,.07-1.89,.07-2.69,0-4.55-.55-9.12-1.62-13.6-18.77,4.18-36.75,11.04-53.44,20.39Z"/><path d="M86.86,111.75c4.51-2.58,9.2-5.02,13.95-7.26-4.45-3.13-9.15-6.16-13.95-8.97-4.74,2.77-9.42,5.79-13.96,8.97,4.73,2.23,9.42,4.67,13.96,7.26Z"/><path d="M86.86,61.49c-11.46,0-21.23,7.38-24.36,18.37,8.35,3.37,16.54,7.35,24.36,11.83,7.8-4.47,15.99-8.45,24.35-11.83-3.12-10.99-12.9-18.37-24.35-18.37Z"/><path d="M86.89,125.05c5.08,0,10.14,.08,15.06,.25-4.79-3.42-9.87-6.69-15.1-9.75-5.22,3.05-10.3,6.33-15.12,9.76,4.88-.18,9.98-.26,15.16-.26Z"/><g><path d="M129.05,127.08c8.89-9.32,14.5-21.43,15.83-34.12-19.1,4.13-37.51,11.09-54.73,20.7,6.07,3.62,12.04,7.62,17.71,11.88,7.02,.33,14.15,.85,21.18,1.53Z"/><path d="M65.83,125.56c5.63-4.25,11.59-8.24,17.71-11.9-17.23-9.61-35.63-16.57-54.73-20.69,1.33,12.7,6.94,24.8,15.83,34.13,6.85-.67,13.96-1.19,21.18-1.53Z"/></g><path d="M86.86,145.21c14.48,0,28.35-5.36,39.11-15.1-12.94-1.17-26.07-1.77-39.07-1.77s-26.22,.61-39.15,1.78c10.76,9.73,24.64,15.09,39.11,15.09Z"/><path d="M106.45,31.89l-9.18,28.25c4.6,1.78,8.66,4.73,11.78,8.54l23.99-17.44c-6.88-8.9-16.06-15.59-26.59-19.36Z"/><path d="M28.56,89.53c13.95,2.93,27.7,7.42,40.89,13.35,4.6-3.29,9.35-6.41,14.1-9.25-16.69-9.36-34.67-16.21-53.44-20.39-1.07,4.48-1.62,9.05-1.62,13.6,0,.79,.02,1.62,.07,2.69Z"/><path d="M142.72,70.06c-1.74-5.75-4.34-11.17-7.74-16.13l-23.99,17.43c1.42,2.25,2.53,4.69,3.3,7.28,9.16-3.53,18.73-6.41,28.44-8.57Z"/><path d="M40.66,51.25l23.99,17.44c3.12-3.82,7.18-6.77,11.79-8.54l-9.19-28.25c-10.53,3.77-19.72,10.46-26.59,19.36Z"/><path d="M70.39,30.87l9.19,28.25c2.36-.61,4.8-.92,7.28-.92s4.9,.31,7.28,.92l9.18-28.25c-10.76-3.14-22.16-3.14-32.92,0Z"/></g></g></g></svg>