<?xml version="1.0" encoding="UTF-8"?><svg id="Layer_2" xmlns="http://www.w3.org/2000/svg" viewBox="0 0 1353.26 180"><g id="Layer_1-2"><g><g><path d="M90,0C40.29,0,0,40.29,0,90s40.29,90,90,90,90-40.29,90-90S139.71,0,90,0Zm0,178.5C41.2,178.5,1.5,138.8,1.5,90S41.2,1.5,90,1.5s88.5,39.7,88.5,88.5-39.7,88.5-88.5,88.5Z"/><path d="M90,1.5C41.2,1.5,1.5,41.2,1.5,90s39.7,88.5,88.5,88.5,88.5-39.7,88.5-88.5S138.8,1.5,90,1.5Zm0,175.5C42.03,177,3,137.97,3,90S42.03,3,90,3s87,39.03,87,87-39.03,87-87,87Z"/><path d="M90,28.5c-33.91,0-61.5,27.59-61.5,61.5s27.59,61.5,61.5,61.5,61.5-27.59,61.5-61.5-27.59-61.5-61.5-61.5Zm0,3c5.78,0,11.36,.86,16.64,2.43l-9.27,28.53c-2.36-.62-4.83-.95-7.37-.95s-5.02,.33-7.37,.95l-9.27-28.53c5.28-1.57,10.86-2.43,16.64-2.43Zm0,83.57c-4.65-2.66-9.4-5.13-14.24-7.41,4.64-3.27,9.39-6.34,14.24-9.18,4.85,2.84,9.6,5.9,14.24,9.18-4.84,2.28-9.59,4.75-14.24,7.41Zm0,3.46c5.35,3.12,10.56,6.48,15.59,10.09-5.19-.18-10.38-.28-15.55-.28s-10.42,.1-15.64,.28c5.03-3.61,10.24-6.97,15.6-10.09Zm-24.53-35.43c3.07-11.01,12.97-18.6,24.53-18.6s21.46,7.59,24.53,18.6c-8.43,3.4-16.62,7.37-24.53,11.92-7.92-4.54-16.11-8.51-24.53-11.92Zm5.04-48.25l9.27,28.53c-4.7,1.79-8.8,4.78-11.94,8.66l-24.24-17.61c6.83-8.89,16.15-15.77,26.91-19.58Zm-28.67,22l24.24,17.61c-1.47,2.28-2.62,4.8-3.41,7.51-9.3-3.59-18.89-6.48-28.73-8.66,1.77-5.94,4.45-11.48,7.89-16.46Zm-10.33,33.14c0-4.75,.58-9.36,1.66-13.78,19,4.21,37.03,11.1,53.85,20.56-4.9,2.93-9.7,6.07-14.38,9.43-13.18-5.93-26.98-10.45-41.05-13.4-.04-.93-.07-1.87-.07-2.81Zm.3,5.93c19.24,4.13,37.94,11.22,55.2,20.88-6.2,3.69-12.21,7.71-17.97,12.04-7.13,.34-14.24,.86-21.28,1.54-8.77-9.17-14.6-21.16-15.94-34.46Zm58.2,52.57c-15.19,0-29.05-5.83-39.46-15.35,13.07-1.19,26.34-1.8,39.5-1.8s26.39,.61,39.43,1.8c-10.41,9.53-24.27,15.36-39.47,15.36Zm42.26-18.12c-7.05-.68-14.16-1.2-21.29-1.54-5.76-4.33-11.76-8.35-17.96-12.04,17.26-9.66,35.96-16.75,55.2-20.88-1.34,13.3-7.18,25.29-15.94,34.46Zm16.24-40.38c0,.94-.03,1.88-.07,2.81-14.08,2.95-27.87,7.47-41.05,13.4-4.68-3.36-9.48-6.5-14.38-9.43,16.82-9.46,34.86-16.35,53.85-20.56,1.07,4.42,1.66,9.03,1.66,13.78Zm-2.44-16.68c-9.84,2.19-19.43,5.07-28.73,8.66-.79-2.71-1.94-5.23-3.41-7.51l24.24-17.61c3.44,4.99,6.12,10.53,7.89,16.46Zm-33.9-1.27c-3.13-3.88-7.24-6.87-11.94-8.66l9.27-28.53c10.76,3.82,20.08,10.69,26.91,19.58l-24.24,17.61Z"/></g><g><path d="M275.77,122.01c-4.86,0-9.32-.84-13.34-2.5-4.03-1.66-7.53-4.04-10.47-7.15-2.95-3.11-5.23-6.79-6.87-11.04s-2.45-8.91-2.45-13.96,.87-9.38,2.6-13.54,4.13-7.81,7.2-10.95c3.08-3.13,6.66-5.57,10.75-7.29s8.54-2.6,13.35-2.6c3.26,0,6.43,.49,9.5,1.45,3.07,.96,5.89,2.29,8.45,3.98s4.71,3.66,6.44,5.9l-7.97,8.74c-1.67-1.73-3.38-3.18-5.14-4.37-1.77-1.18-3.58-2.08-5.48-2.69-1.88-.62-3.82-.92-5.8-.92-2.95,0-5.71,.55-8.31,1.63-2.59,1.09-4.83,2.63-6.72,4.61s-3.38,4.34-4.46,7.06c-1.09,2.71-1.63,5.74-1.63,9.07s.53,6.46,1.58,9.21c1.05,2.75,2.56,5.13,4.51,7.11s4.29,3.51,7.01,4.56c2.71,1.05,5.71,1.58,8.97,1.58,2.11,0,4.16-.29,6.14-.87s3.83-1.39,5.52-2.44c1.7-1.05,3.25-2.29,4.66-3.7l6.14,9.89c-1.53,1.73-3.58,3.29-6.14,4.71-2.56,1.41-5.42,2.51-8.59,3.31-3.16,.8-6.32,1.2-9.45,1.2Z"/><path d="M348.93,122.01c-4.8,0-9.26-.87-13.35-2.6s-7.67-4.14-10.7-7.25-5.39-6.77-7.05-11c-1.67-4.22-2.5-8.83-2.5-13.82s.83-9.6,2.5-13.83c1.66-4.22,4.01-7.88,7.05-10.99s6.61-5.53,10.7-7.26,8.54-2.59,13.35-2.59,9.34,.86,13.44,2.59c4.09,1.73,7.65,4.17,10.65,7.3s5.34,6.8,7.01,10.99c1.66,4.19,2.49,8.79,2.49,13.78s-.83,9.5-2.49,13.73c-1.67,4.22-4,7.9-7.01,11.04s-6.56,5.57-10.65,7.29c-4.1,1.73-8.57,2.6-13.44,2.6Zm0-11.9c3.07,0,5.87-.57,8.4-1.68,2.53-1.12,4.72-2.72,6.57-4.8s3.31-4.49,4.37-7.25c1.06-2.75,1.59-5.76,1.59-9.02s-.53-6.27-1.59-9.02c-1.05-2.75-2.51-5.17-4.37-7.25s-4.04-3.68-6.57-4.8-5.33-1.68-8.4-1.68-5.8,.56-8.36,1.68-4.77,2.71-6.62,4.76c-1.86,2.04-3.3,4.44-4.32,7.2-1.03,2.75-1.54,5.79-1.54,9.12s.52,6.29,1.54,9.07c1.02,2.78,2.46,5.2,4.32,7.25s4.06,3.63,6.62,4.76c2.56,1.11,5.34,1.68,8.36,1.68Z"/><path d="M403.17,121.04V53.84h29.18c4.03,0,7.71,.95,11.04,2.83,3.32,1.88,5.97,4.45,7.92,7.68,1.95,3.23,2.93,6.87,2.93,10.9s-.98,7.38-2.93,10.61c-1.95,3.23-4.58,5.8-7.87,7.69-3.3,1.88-6.99,2.83-11.09,2.83h-16.99v24.67h-12.19Zm12.19-35.52h17.09c1.86,0,3.48-.43,4.85-1.3,1.37-.86,2.44-2.06,3.21-3.59,.76-1.54,1.15-3.23,1.15-5.09,0-2.12-.48-3.94-1.45-5.48-.96-1.53-2.3-2.74-4.03-3.64-1.72-.9-3.71-1.35-5.95-1.35h-14.88v20.45Zm26.79,35.52l-17.09-30.33,12.86-2.4,19.01,32.83-14.79-.1Z"/><path d="M488.61,121.04v-55.67h-19.21v-11.52h51.46v11.52h-19.78v55.67h-12.48Z"/><path d="M539.1,121.04V53.84h12.48v55.68h31.01v11.51h-43.49Z"/><path d="M592.96,121.04l26.2-67.2h11.72l26.02,67.2h-12.97l-14.39-38.2c-.32-.77-.75-1.98-1.3-3.65-.55-1.66-1.13-3.47-1.78-5.42-.63-1.95-1.21-3.78-1.73-5.48-.51-1.69-.89-2.92-1.15-3.69l2.4-.1c-.38,1.28-.83,2.72-1.34,4.33-.52,1.59-1.06,3.26-1.64,4.99s-1.13,3.39-1.68,4.99c-.54,1.6-1.04,3.04-1.48,4.32l-14.4,37.92h-12.47Zm11.9-15.36l4.32-10.84h30.62l4.61,10.84h-39.55Z"/><path d="M673.02,121.04V53.84h11.23l38.97,52.51-2.11,.39c-.25-1.8-.48-3.63-.67-5.53-.2-1.88-.37-3.85-.53-5.9s-.29-4.19-.38-6.44c-.1-2.24-.18-4.59-.24-7.05-.07-2.47-.1-5.08-.1-7.83v-20.16h12.38V121.04h-11.42l-39.17-51.74,2.49-.67c.32,3.58,.6,6.64,.82,9.17s.4,4.7,.53,6.52,.24,3.35,.33,4.56c.1,1.22,.17,2.32,.2,3.31,.03,1,.05,1.94,.05,2.83v26.02h-12.38Z"/><path d="M757.31,121.04V53.84h26.97c4.86,0,9.27,.8,13.2,2.4s7.32,3.91,10.18,6.91c2.84,3.01,5.02,6.55,6.52,10.65,1.5,4.09,2.26,8.63,2.26,13.63s-.75,9.55-2.26,13.67c-1.5,4.13-3.66,7.69-6.47,10.66-2.82,2.97-6.21,5.26-10.18,6.86-3.97,1.6-8.39,2.4-13.25,2.4h-26.97Zm12.48-9.7l-.97-1.82h14.98c3.13,0,5.94-.52,8.4-1.54,2.46-1.02,4.56-2.49,6.29-4.41,1.73-1.91,3.04-4.24,3.94-6.96,.9-2.71,1.35-5.77,1.35-9.16s-.45-6.46-1.35-9.17c-.9-2.72-2.23-5.04-3.98-6.96s-3.86-3.39-6.29-4.41-5.21-1.53-8.35-1.53h-15.26l1.25-1.63v47.61Z"/><path d="M877.4,121.04V53.84h12.48V121.04h-12.48Zm5.19-27.65v-11.71h43.96v11.71h-43.96Zm37.92,27.65V53.84h12.48V121.04h-12.48Z"/><path d="M949.2,121.04l26.21-67.2h11.71l26.02,67.2h-12.96l-14.4-38.2c-.31-.77-.75-1.98-1.29-3.65-.55-1.66-1.14-3.47-1.78-5.42-.64-1.95-1.22-3.78-1.73-5.48-.52-1.69-.9-2.92-1.15-3.69l2.4-.1c-.39,1.28-.84,2.72-1.35,4.33-.51,1.59-1.05,3.26-1.63,4.99s-1.13,3.39-1.68,4.99-1.04,3.04-1.48,4.32l-14.4,37.92h-12.48Zm11.9-15.36l4.32-10.84h30.62l4.61,10.84h-39.55Z"/><path d="M1029.27,121.04V53.84h29.18c4.03,0,7.71,.95,11.04,2.83,3.32,1.88,5.97,4.45,7.92,7.68,1.95,3.23,2.93,6.87,2.93,10.9s-.98,7.38-2.93,10.61c-1.95,3.23-4.58,5.8-7.87,7.69-3.3,1.88-6.99,2.83-11.09,2.83h-16.99v24.67h-12.19Zm12.19-35.52h17.09c1.86,0,3.48-.43,4.85-1.3,1.37-.86,2.44-2.06,3.21-3.59,.76-1.54,1.15-3.23,1.15-5.09,0-2.12-.48-3.94-1.45-5.48-.96-1.53-2.3-2.74-4.03-3.64-1.72-.9-3.71-1.35-5.95-1.35h-14.88v20.45Zm26.79,35.52l-17.09-30.33,12.86-2.4,19.01,32.83-14.79-.1Z"/><path d="M1120.56,121.04l-26.88-67.2h13.63l14.98,38.5c.76,1.98,1.44,3.76,2.01,5.33,.58,1.56,1.09,2.99,1.54,4.27,.44,1.28,.84,2.53,1.19,3.74,.35,1.22,.75,2.5,1.2,3.85h-2.69c.45-1.73,.93-3.45,1.45-5.14,.51-1.7,1.1-3.51,1.77-5.43,.67-1.91,1.49-4.12,2.45-6.62l14.01-38.5h13.73l-27.07,67.2h-11.33Z"/><path d="M1175.67,121.04V53.84h43.96v11.33h-31.68v44.54h32.06v11.33h-44.35Zm5.76-28.8v-11.13h33.31v11.13h-33.31Z"/><path d="M1264.17,122.01c-3.91,0-7.49-.5-10.75-1.49-3.26-.99-6.21-2.48-8.83-4.46-2.63-1.98-4.96-4.38-7.01-7.2l8.16-9.22c3.13,4.36,6.2,7.36,9.21,9.02,3.01,1.67,6.41,2.5,10.18,2.5,2.18,0,4.16-.34,5.96-1.02,1.79-.66,3.2-1.59,4.22-2.78,1.03-1.18,1.54-2.54,1.54-4.07,0-1.09-.21-2.1-.62-3.03-.42-.93-1.04-1.76-1.88-2.5-.83-.73-1.86-1.42-3.07-2.06-1.22-.63-2.6-1.18-4.13-1.63s-3.23-.87-5.09-1.25c-3.53-.7-6.59-1.65-9.22-2.83s-4.83-2.66-6.62-4.41c-1.8-1.76-3.11-3.74-3.94-5.96-.83-2.21-1.25-4.72-1.25-7.53s.62-5.41,1.88-7.78c1.25-2.36,2.96-4.41,5.14-6.14,2.17-1.73,4.7-3.07,7.58-4.03,2.88-.96,5.99-1.44,9.32-1.44,3.77,0,7.15,.45,10.13,1.35,2.98,.89,5.6,2.22,7.87,3.98,2.28,1.76,4.14,3.89,5.62,6.38l-8.25,8.16c-1.29-1.98-2.72-3.63-4.33-4.94-1.6-1.32-3.33-2.3-5.19-2.98s-3.81-1.01-5.85-1.01c-2.3,0-4.31,.32-6.01,.96-1.69,.64-3.02,1.55-3.98,2.73-.96,1.18-1.44,2.61-1.44,4.28,0,1.28,.28,2.41,.86,3.41,.58,.99,1.4,1.87,2.45,2.64s2.41,1.44,4.08,2.01c1.66,.58,3.55,1.09,5.66,1.54,3.52,.7,6.69,1.64,9.5,2.83,2.81,1.18,5.21,2.59,7.2,4.22s3.5,3.49,4.51,5.57c1.03,2.08,1.54,4.4,1.54,6.96,0,4.41-1.04,8.21-3.12,11.38s-5.01,5.6-8.78,7.29c-3.78,1.7-8.19,2.55-13.25,2.55Z"/><path d="M1321.01,121.04v-55.67h-19.2v-11.52h51.46v11.52h-19.78v55.67h-12.48Z"/></g></g></g></svg>