<?xml version="1.0" encoding="UTF-8"?><svg id="Layer_2" xmlns="http://www.w3.org/2000/svg" viewBox="0 0 173.7 173.7"><g id="Layer_1-2"><g><path d="M86.86,0C38.96,0,0,38.96,0,86.85s38.96,86.86,86.86,86.86,86.85-38.96,86.85-86.86S134.74,0,86.86,0Zm0,148.5c-33.99,0-61.65-27.66-61.65-61.65S52.86,25.21,86.86,25.21s61.64,27.65,61.64,61.64-27.65,61.65-61.64,61.65Z"/><path d="M59.41,78.63c.77-2.59,1.88-5.03,3.3-7.28l-23.99-17.43c-3.41,4.96-6.01,10.38-7.74,16.13,9.71,2.17,19.28,5.05,28.44,8.57Z"/><path d="M90.15,93.63c4.76,2.84,9.5,5.96,14.1,9.25,13.19-5.93,26.94-10.42,40.89-13.35,.05-1.06,.07-1.89,.07-2.69,0-4.55-.55-9.12-1.62-13.6-18.77,4.18-36.75,11.04-53.44,20.39Z"/><path d="M86.86,111.75c4.51-2.58,9.2-5.02,13.95-7.26-4.45-3.13-9.15-6.16-13.95-8.97-4.74,2.77-9.42,5.79-13.96,8.97,4.73,2.23,9.42,4.67,13.96,7.26Z"/><path d="M86.86,61.49c-11.46,0-21.23,7.38-24.36,18.37,8.35,3.37,16.54,7.35,24.36,11.83,7.8-4.47,15.99-8.45,24.35-11.83-3.12-10.99-12.9-18.37-24.35-18.37Z"/><path d="M86.89,125.05c5.08,0,10.14,.08,15.06,.25-4.79-3.42-9.87-6.69-15.1-9.75-5.22,3.05-10.3,6.33-15.12,9.76,4.88-.18,9.98-.26,15.16-.26Z"/><g><path d="M129.05,127.08c8.89-9.32,14.5-21.43,15.83-34.12-19.1,4.13-37.51,11.09-54.73,20.7,6.07,3.62,12.04,7.62,17.71,11.88,7.02,.33,14.15,.85,21.18,1.53Z"/><path d="M65.83,125.56c5.63-4.25,11.59-8.24,17.71-11.9-17.23-9.61-35.63-16.57-54.73-20.69,1.33,12.7,6.94,24.8,15.83,34.13,6.85-.67,13.96-1.19,21.18-1.53Z"/></g><path d="M86.86,145.21c14.48,0,28.35-5.36,39.11-15.1-12.94-1.17-26.07-1.77-39.07-1.77s-26.22,.61-39.15,1.78c10.76,9.73,24.64,15.09,39.11,15.09Z"/><path d="M106.45,31.89l-9.18,28.25c4.6,1.78,8.66,4.73,11.78,8.54l23.99-17.44c-6.88-8.9-16.06-15.59-26.59-19.36Z"/><path d="M28.56,89.53c13.95,2.93,27.7,7.42,40.89,13.35,4.6-3.29,9.35-6.41,14.1-9.25-16.69-9.36-34.67-16.21-53.44-20.39-1.07,4.48-1.62,9.05-1.62,13.6,0,.79,.02,1.62,.07,2.69Z"/><path d="M142.72,70.06c-1.74-5.75-4.34-11.17-7.74-16.13l-23.99,17.43c1.42,2.25,2.53,4.69,3.3,7.28,9.16-3.53,18.73-6.41,28.44-8.57Z"/><path d="M40.66,51.25l23.99,17.44c3.12-3.82,7.18-6.77,11.79-8.54l-9.19-28.25c-10.53,3.77-19.72,10.46-26.59,19.36Z"/><path d="M70.39,30.87l9.19,28.25c2.36-.61,4.8-.92,7.28-.92s4.9,.31,7.28,.92l9.18-28.25c-10.76-3.14-22.16-3.14-32.92,0Z"/></g></g></svg>