<?xml version="1.0" encoding="UTF-8"?><svg id="Layer_2" xmlns="http://www.w3.org/2000/svg" viewBox="0 0 173.42 173.42"><defs><style>.cls-1{fill:#fefefe;}</style></defs><g id="Layer_1-2"><g><path class="cls-1" d="M86.71,0C38.9,0,0,38.9,0,86.71s38.9,86.71,86.71,86.71,86.71-38.9,86.71-86.71S134.52,0,86.71,0Zm0,148.51c-34.07,0-61.8-27.72-61.8-61.8S52.64,24.92,86.71,24.92s61.8,27.71,61.8,61.79-27.72,61.8-61.8,61.8Z"/><path class="cls-1" d="M59.18,78.29c.76-2.52,1.84-4.88,3.19-7.03l-23.76-17.28c-3.34,4.9-5.89,10.22-7.59,15.82,9.62,2.16,19.09,5.01,28.15,8.49Z"/><path class="cls-1" d="M90.29,93.5c4.76,2.86,9.4,5.91,13.82,9.07,13.11-5.88,26.81-10.35,40.73-13.29,.05-.97,.07-1.77,.07-2.57,0-4.48-.54-8.99-1.58-13.43-18.62,4.16-36.46,10.97-53.04,20.21Z"/><path class="cls-1" d="M86.71,111.44c4.39-2.51,8.98-4.89,13.64-7.11-4.4-3.09-8.98-6.04-13.64-8.77-4.66,2.72-9.24,5.68-13.64,8.77,4.66,2.22,9.25,4.6,13.64,7.11Z"/><path class="cls-1" d="M86.71,61.5c-11.33,0-21.03,7.29-24.17,18.13,8.29,3.36,16.43,7.31,24.17,11.74,7.74-4.42,15.88-8.38,24.17-11.74-3.14-10.85-12.84-18.13-24.17-18.13Z"/><path class="cls-1" d="M86.75,124.76c4.94,0,9.84,.08,14.57,.24-4.74-3.35-9.65-6.51-14.61-9.4-5,2.92-9.91,6.07-14.61,9.4,4.75-.17,9.67-.24,14.65-.24Z"/><g><path class="cls-1" d="M128.86,126.79c8.77-9.23,14.35-21.21,15.71-33.77-18.92,4.1-37.17,11-54.26,20.51,6.03,3.6,11.89,7.55,17.47,11.74,7.14,.34,14.23,.85,21.07,1.52Z"/><path class="cls-1" d="M83.11,113.53c-17.09-9.51-35.34-16.41-54.26-20.51,1.37,12.57,6.94,24.55,15.72,33.77,7.02-.68,14.11-1.19,21.05-1.52,2.06-1.55,4.28-2.83,6.4-4.3,1.57-1.09,3.15-2.15,4.75-3.19,2.13-1.38,4.17-2.95,6.33-4.25Z"/></g><path class="cls-1" d="M86.71,144.92c14.32,0,28.07-5.27,38.76-14.84-12.98-1.15-26.01-1.74-38.72-1.74s-25.86,.59-38.8,1.75c10.7,9.57,24.46,14.83,38.76,14.83Z"/><path class="cls-1" d="M106.39,31.94l-9.08,27.98c4.53,1.78,8.54,4.69,11.62,8.43l23.75-17.27c-6.81-8.77-15.89-15.38-26.29-19.14Z"/><path class="cls-1" d="M28.57,89.28c13.93,2.94,27.63,7.41,40.73,13.29,4.41-3.16,9.05-6.22,13.82-9.07-16.57-9.26-34.41-16.05-53.04-20.21-1.04,4.43-1.58,8.95-1.58,13.43,0,.8,.02,1.6,.07,2.57Z"/><path class="cls-1" d="M142.39,69.8c-1.71-5.62-4.26-10.94-7.59-15.82l-23.76,17.28c1.36,2.15,2.43,4.51,3.19,7.03,9.06-3.48,18.54-6.33,28.15-8.49Z"/><path class="cls-1" d="M40.73,51.08l23.76,17.27c3.08-3.74,7.09-6.65,11.62-8.43l-9.08-27.98c-10.4,3.76-19.48,10.37-26.3,19.14Z"/><path class="cls-1" d="M79.54,58.8c2.34-.59,4.76-.88,7.17-.88s4.82,.29,7.17,.88l9.09-27.96c-10.59-3.09-21.93-3.09-32.52,0l9.09,27.96Z"/></g></g></svg>