<?xml version="1.0" encoding="UTF-8"?><svg id="Layer_2" xmlns="http://www.w3.org/2000/svg" viewBox="0 0 180 180"><defs><style>.cls-1{fill:#969e3a;}.cls-2{fill:#657834;}.cls-3{fill:#c8d774;}.cls-4{fill:#465022;}.cls-5{fill:#b7dfe5;}.cls-6{fill:#e79048;}.cls-7{fill:#eacd5e;}.cls-8{fill:#a5b14d;}</style></defs><g id="Layer_1-2"><g><path class="cls-7" d="M90,3C42.03,3,3,42.03,3,90s39.03,87,87,87,87-39.03,87-87S137.97,3,90,3Zm0,148.5c-33.91,0-61.5-27.59-61.5-61.5S56.09,28.5,90,28.5s61.5,27.59,61.5,61.5-27.59,61.5-61.5,61.5Z"/><path d="M90,0C40.29,0,0,40.29,0,90s40.29,90,90,90,90-40.29,90-90S139.71,0,90,0Zm0,178.5C41.2,178.5,1.5,138.8,1.5,90S41.2,1.5,90,1.5s88.5,39.7,88.5,88.5-39.7,88.5-88.5,88.5Z"/><path d="M90,1.5C41.2,1.5,1.5,41.2,1.5,90s39.7,88.5,88.5,88.5,88.5-39.7,88.5-88.5S138.8,1.5,90,1.5Zm0,175.5C42.03,177,3,137.97,3,90S42.03,3,90,3s87,39.03,87,87-39.03,87-87,87Z"/><path class="cls-5" d="M66.07,74.47l-24.24-17.61c-3.44,4.99-6.12,10.53-7.89,16.46,9.84,2.19,19.43,5.07,28.73,8.66,.79-2.71,1.94-5.23,3.41-7.51Z"/><path class="cls-3" d="M107.37,106.21c13.18-5.93,26.98-10.45,41.05-13.4,.04-.93,.07-1.87,.07-2.81,0-4.75-.58-9.36-1.66-13.78-19,4.21-37.03,11.1-53.85,20.56,4.9,2.93,9.7,6.07,14.38,9.43Z"/><path class="cls-8" d="M90,98.49c-4.85,2.84-9.6,5.9-14.24,9.18,4.84,2.28,9.59,4.75,14.24,7.41,4.65-2.66,9.4-5.13,14.24-7.41-4.64-3.27-9.39-6.34-14.24-9.18Z"/><path class="cls-6" d="M90,64.5c-11.56,0-21.46,7.59-24.53,18.6,8.43,3.4,16.62,7.37,24.53,11.92,7.92-4.54,16.11-8.51,24.53-11.92-3.07-11.01-12.97-18.6-24.53-18.6Z"/><path class="cls-2" d="M90.04,128.34c5.17,0,10.36,.1,15.55,.28-5.03-3.61-10.24-6.97-15.59-10.09-5.35,3.12-10.56,6.48-15.6,10.09,5.22-.19,10.43-.28,15.64-.28Z"/><g><path class="cls-3" d="M110.97,128.85c7.13,.34,14.25,.86,21.29,1.54,8.76-9.17,14.59-21.16,15.94-34.46-19.24,4.13-37.94,11.22-55.2,20.88,6.2,3.69,12.2,7.71,17.96,12.04Z"/><path class="cls-3" d="M87,116.81c-17.26-9.66-35.96-16.75-55.2-20.88,1.35,13.31,7.18,25.3,15.94,34.46,7.05-.69,14.15-1.2,21.28-1.54,5.76-4.33,11.76-8.35,17.97-12.04Z"/></g><path class="cls-2" d="M50.54,133.15c10.41,9.53,24.27,15.35,39.46,15.35s29.06-5.83,39.47-15.36c-13.04-1.19-26.29-1.8-39.43-1.8s-26.44,.61-39.5,1.8Z"/><path class="cls-5" d="M109.5,34.85l-9.27,28.53c4.7,1.79,8.8,4.78,11.94,8.66l24.24-17.61c-6.83-8.89-16.15-15.77-26.91-19.58Z"/><path class="cls-3" d="M87.01,96.78c-16.82-9.46-34.86-16.35-53.85-20.56-1.07,4.42-1.66,9.03-1.66,13.78,0,.94,.03,1.88,.07,2.81,14.08,2.95,27.88,7.47,41.05,13.4,4.68-3.36,9.48-6.5,14.38-9.43Z"/><path class="cls-5" d="M117.34,81.98c9.3-3.59,18.89-6.48,28.73-8.66-1.77-5.94-4.45-11.48-7.89-16.46l-24.24,17.61c1.47,2.28,2.62,4.8,3.41,7.51Z"/><path class="cls-5" d="M79.78,63.39l-9.27-28.53c-10.76,3.82-20.08,10.69-26.91,19.58l24.24,17.61c3.13-3.88,7.24-6.87,11.94-8.66Z"/><path class="cls-5" d="M90,61.5c2.54,0,5.02,.33,7.37,.95l9.27-28.53c-5.28-1.57-10.86-2.43-16.64-2.43s-11.36,.86-16.64,2.43l9.27,28.53c2.36-.62,4.83-.95,7.37-.95Z"/><g><g><path class="cls-1" d="M136.76,107.63c-3.95-2.74-7.62-5.16-10.73-7.13-1.8,.61-3.59,1.24-5.37,1.9,3.2,2.03,7.02,4.54,11.13,7.39,4.32,3,8.2,5.79,11.35,8.11,.74-1.4,1.42-2.83,2.04-4.3-2.51-1.82-5.35-3.84-8.42-5.97Z"/><path class="cls-1" d="M122.24,117.55c-5.88-4.09-11.14-7.43-14.83-9.7-.08,.04-.15,.07-.23,.11-1.84,.84-3.67,1.7-5.47,2.6,3.56,2.22,8.13,5.18,13.15,8.67,7.43,5.16,13.54,9.7,16.92,12.26,.5,.03,1,.07,1.5,.1,1.15-1.19,2.24-2.44,3.29-3.72-3.49-2.61-8.5-6.27-14.32-10.31Z"/><path class="cls-1" d="M129.97,112.42c-4.99-3.46-9.53-6.4-13.05-8.6-1.85,.73-3.69,1.48-5.51,2.26,3.52,2.2,8,5.1,12.89,8.5,5.88,4.08,10.93,7.78,14.45,10.41,1-1.39,1.93-2.82,2.81-4.29-3.18-2.34-7.15-5.21-11.6-8.29Z"/><path class="cls-1" d="M148.1,99.6c-1.98-1.37-3.89-2.66-5.69-3.86-1.43,.35-2.85,.71-4.27,1.09,1.9,1.26,3.92,2.62,6.01,4.08,1.46,1.02,2.88,2.01,4.23,2.97,.28-1.18,.52-2.37,.73-3.57-.33-.23-.67-.47-1.01-.7Z"/><path class="cls-1" d="M112.46,122.66c-6.04-4.2-11.43-7.61-15.13-9.89-2.47,1.3-4.92,2.65-7.33,4.04,7.11,4.12,13.96,8.64,20.48,13.58,4.56,.15,9.1,.35,13.63,.6-3.19-2.35-7.18-5.23-11.66-8.34Z"/><path class="cls-1" d="M149.56,97.2c.12-1.04,.22-2.08,.29-3.13-1.24,.25-2.48,.52-3.71,.79,1.11,.75,2.25,1.53,3.42,2.34Z"/><path class="cls-1" d="M142.56,103.21c-2.85-1.98-5.55-3.78-8-5.38-1.71,.49-3.4,1.01-5.09,1.54,2.69,1.74,5.7,3.74,8.89,5.96,2.85,1.98,5.51,3.87,7.89,5.59,.51-1.36,.96-2.74,1.37-4.15-1.6-1.14-3.29-2.33-5.06-3.56Z"/></g><g><path class="cls-1" d="M43.24,107.63c3.95-2.74,7.62-5.16,10.73-7.13,1.8,.61,3.59,1.24,5.37,1.9-3.2,2.03-7.02,4.54-11.13,7.39-4.32,3-8.2,5.79-11.35,8.11-.74-1.4-1.42-2.83-2.04-4.3,2.51-1.82,5.35-3.84,8.42-5.97Z"/><path class="cls-1" d="M57.76,117.55c5.88-4.09,11.14-7.43,14.83-9.7,.08,.04,.15,.07,.23,.11,1.84,.84,3.67,1.7,5.47,2.6-3.56,2.22-8.13,5.18-13.15,8.67-7.43,5.16-13.54,9.7-16.92,12.26-.5,.03-1,.07-1.5,.1-1.15-1.19-2.24-2.44-3.29-3.72,3.49-2.61,8.5-6.27,14.32-10.31Z"/><path class="cls-1" d="M50.03,112.42c4.99-3.46,9.53-6.4,13.05-8.6,1.85,.73,3.69,1.48,5.51,2.26-3.52,2.2-8,5.1-12.89,8.5-5.88,4.08-10.93,7.78-14.45,10.41-1-1.39-1.93-2.82-2.81-4.29,3.18-2.34,7.15-5.21,11.6-8.29Z"/><path class="cls-1" d="M31.9,99.6c1.98-1.37,3.89-2.66,5.69-3.86,1.43,.35,2.85,.71,4.27,1.09-1.9,1.26-3.92,2.62-6.01,4.08-1.46,1.02-2.88,2.01-4.23,2.97-.28-1.18-.52-2.37-.73-3.57,.33-.23,.67-.47,1.01-.7Z"/><path class="cls-1" d="M67.54,122.66c6.04-4.2,11.43-7.61,15.13-9.89,2.47,1.3,4.92,2.65,7.33,4.04-7.11,4.12-13.96,8.64-20.48,13.58-4.56,.15-9.1,.35-13.63,.6,3.19-2.35,7.18-5.23,11.66-8.34Z"/><path class="cls-1" d="M30.44,97.2c-.12-1.04-.22-2.08-.29-3.13,1.24,.25,2.48,.52,3.71,.79-1.11,.75-2.25,1.53-3.42,2.34Z"/><path class="cls-1" d="M37.44,103.21c2.85-1.98,5.55-3.78,8-5.38,1.71,.49,3.4,1.01,5.09,1.54-2.69,1.74-5.7,3.74-8.89,5.96-2.85,1.98-5.51,3.87-7.89,5.59-.51-1.36-.96-2.74-1.37-4.15,1.6-1.14,3.29-2.33,5.06-3.56Z"/></g></g><g><path class="cls-4" d="M125.01,131.08v7.71c2.97-2.14,5.74-4.55,8.27-7.18-2.75-.2-5.51-.37-8.27-.53Z"/><path class="cls-4" d="M77.01,148.66c3.24,.72,6.58,1.17,10,1.34v-19.92c-3.34,.02-6.67,.06-10,.14v18.44Z"/><path class="cls-4" d="M109.01,147c3.49-1.17,6.83-2.64,10-4.4v-11.83c-2.84-.13-5.68-.25-8.52-.34-.49-.02-.98-.03-1.48-.05v16.62Z"/><path class="cls-4" d="M103.01,130.22c-3.33-.07-6.66-.12-10-.14v19.92c3.42-.17,6.76-.62,10-1.34v-18.44Z"/><path class="cls-4" d="M60.01,142.04c3.46,2.01,7.14,3.67,11,4.96v-16.62c-.49,.02-.98,.03-1.47,.05-3.18,.11-6.36,.24-9.53,.39v11.22Z"/><path class="cls-4" d="M54.01,131.14c-2.43,.14-4.86,.3-7.28,.47,2.25,2.34,4.68,4.5,7.28,6.45v-6.93Z"/></g><path d="M90,28.5c-33.91,0-61.5,27.59-61.5,61.5s27.59,61.5,61.5,61.5,61.5-27.59,61.5-61.5-27.59-61.5-61.5-61.5Zm0,3c5.78,0,11.36,.86,16.64,2.43l-9.27,28.53c-2.36-.62-4.83-.95-7.37-.95s-5.02,.33-7.37,.95l-9.27-28.53c5.28-1.57,10.86-2.43,16.64-2.43Zm0,83.57c-4.65-2.66-9.4-5.13-14.24-7.41,4.64-3.27,9.39-6.34,14.24-9.18,4.85,2.84,9.6,5.9,14.24,9.18-4.84,2.28-9.59,4.75-14.24,7.41Zm0,3.46c5.35,3.12,10.56,6.48,15.59,10.09-5.19-.18-10.38-.28-15.55-.28s-10.42,.1-15.64,.28c5.03-3.61,10.24-6.97,15.6-10.09Zm-24.53-35.43c3.07-11.01,12.97-18.6,24.53-18.6s21.46,7.59,24.53,18.6c-8.43,3.4-16.62,7.37-24.53,11.92-7.92-4.54-16.11-8.51-24.53-11.92Zm5.04-48.25l9.27,28.53c-4.7,1.79-8.8,4.78-11.94,8.66l-24.24-17.61c6.83-8.89,16.15-15.77,26.91-19.58Zm-28.67,22l24.24,17.61c-1.47,2.28-2.62,4.8-3.41,7.51-9.3-3.59-18.89-6.48-28.73-8.66,1.77-5.94,4.45-11.48,7.89-16.46Zm-10.33,33.14c0-4.75,.58-9.36,1.66-13.78,19,4.21,37.03,11.1,53.85,20.56-4.9,2.93-9.7,6.07-14.38,9.43-13.18-5.93-26.98-10.45-41.05-13.4-.04-.93-.07-1.87-.07-2.81Zm.3,5.93c19.24,4.13,37.94,11.22,55.2,20.88-6.2,3.69-12.21,7.71-17.97,12.04-7.13,.34-14.24,.86-21.28,1.54-8.77-9.17-14.6-21.16-15.94-34.46Zm58.2,52.57c-15.19,0-29.05-5.83-39.46-15.35,13.07-1.19,26.34-1.8,39.5-1.8s26.39,.61,39.43,1.8c-10.41,9.53-24.27,15.36-39.47,15.36Zm42.26-18.12c-7.05-.68-14.16-1.2-21.29-1.54-5.76-4.33-11.76-8.35-17.96-12.04,17.26-9.66,35.96-16.75,55.2-20.88-1.34,13.3-7.18,25.29-15.94,34.46Zm16.24-40.38c0,.94-.03,1.88-.07,2.81-14.08,2.95-27.87,7.47-41.05,13.4-4.68-3.36-9.48-6.5-14.38-9.43,16.82-9.46,34.86-16.35,53.85-20.56,1.07,4.42,1.66,9.03,1.66,13.78Zm-2.44-16.68c-9.84,2.19-19.43,5.07-28.73,8.66-.79-2.71-1.94-5.23-3.41-7.51l24.24-17.61c3.44,4.99,6.12,10.53,7.89,16.46Zm-33.9-1.27c-3.13-3.88-7.24-6.87-11.94-8.66l9.27-28.53c10.76,3.82,20.08,10.69,26.91,19.58l-24.24,17.61Z"/></g></g></svg>