<?xml version="1.0" encoding="UTF-8"?><svg id="Layer_2" xmlns="http://www.w3.org/2000/svg" viewBox="0 0 226.63 230.82"><defs><style>.cls-1{fill:#fefefe;}</style></defs><g id="Layer_1-2"><g><g><path class="cls-1" d="M.31,124.09l8.03-.59,.25,3.49c.04,.48-.05,.93-.24,1.34-.2,.42-.48,.75-.85,1.02s-.79,.41-1.27,.45c-.46,.03-.9-.06-1.3-.26s-.73-.5-.99-.87c-.25-.38-.4-.81-.43-1.3l-.15-2.03-2.95,.21-.11-1.46Zm.34,4.65l3.47-2.3,.4,1.52-3.75,2.55-.12-1.77Zm4-3.51l.15,2.04c.02,.22,.09,.41,.21,.57,.11,.16,.26,.27,.46,.36,.19,.08,.39,.11,.62,.09,.25-.02,.47-.09,.63-.21,.18-.14,.31-.3,.41-.52,.09-.21,.13-.46,.11-.72l-.14-1.78-2.44,.18Z"/><path class="cls-1" d="M1.49,136.32c-.09-.57-.07-1.1,.06-1.62s.34-.99,.65-1.41c.31-.41,.7-.76,1.17-1.04s1-.46,1.58-.56c.6-.1,1.15-.08,1.69,.04,.53,.12,1.01,.33,1.43,.62,.43,.3,.78,.68,1.06,1.13,.27,.46,.46,.97,.56,1.53,.09,.58,.07,1.12-.06,1.64s-.35,.98-.66,1.4c-.31,.41-.7,.76-1.17,1.04s-1,.46-1.58,.55c-.59,.1-1.14,.08-1.67-.04-.54-.12-1.02-.32-1.44-.62-.43-.3-.78-.67-1.06-1.13-.28-.45-.47-.97-.56-1.54Zm1.41-.21c.06,.36,.18,.68,.35,.96,.19,.28,.41,.51,.69,.69,.28,.18,.6,.3,.94,.38,.35,.07,.71,.08,1.1,.02,.38-.06,.73-.19,1.04-.36s.57-.39,.77-.64c.21-.26,.36-.55,.45-.87s.1-.66,.04-1.03c-.05-.36-.18-.67-.35-.96s-.41-.52-.68-.69c-.28-.19-.59-.31-.94-.38-.34-.07-.71-.07-1.1,0s-.73,.18-1.04,.35-.57,.39-.78,.64c-.21,.25-.35,.55-.44,.87-.08,.32-.1,.66-.04,1.03Z"/><path class="cls-1" d="M3.55,146.43c-.14-.56-.18-1.1-.09-1.63,.08-.53,.25-1.01,.53-1.46,.26-.44,.62-.82,1.06-1.14,.44-.31,.95-.55,1.53-.69,.58-.15,1.13-.19,1.68-.12,.54,.07,1.03,.23,1.48,.49,.45,.26,.83,.61,1.15,1.04,.32,.42,.56,.91,.69,1.47,.15,.56,.18,1.1,.1,1.63s-.25,1.02-.54,1.46c-.27,.44-.62,.82-1.06,1.13-.44,.32-.95,.56-1.52,.7s-1.13,.18-1.67,.11-1.04-.22-1.49-.49c-.45-.25-.84-.6-1.15-1.02-.32-.43-.56-.92-.7-1.48Zm1.39-.35c.09,.35,.23,.66,.44,.93,.21,.25,.46,.47,.75,.62,.29,.16,.62,.25,.97,.29,.35,.05,.72,.02,1.09-.08,.38-.1,.71-.24,1.01-.45,.28-.21,.53-.45,.71-.72s.3-.58,.36-.91c.06-.32,.04-.66-.05-1.02s-.23-.66-.45-.93c-.21-.26-.45-.47-.74-.62s-.62-.25-.97-.29c-.34-.04-.71,0-1.1,.1-.38,.09-.71,.24-1.01,.44-.29,.21-.53,.44-.71,.71-.19,.28-.3,.59-.36,.92-.05,.32-.03,.66,.06,1.02Z"/><path class="cls-1" d="M5.86,153.93l6.32-2.14-.73-2.18,1.3-.44,1.98,5.84-1.31,.44-.76-2.25-6.32,2.14-.48-1.42Z"/><path class="cls-1" d="M7.92,159.7l7.42-3.12,2.03,4.86-1.25,.52-1.46-3.5-4.92,2.06,1.48,3.54-1.25,.53-2.05-4.9Zm3.45-.69l1.23-.52,1.54,3.68-1.23,.52-1.54-3.68Z"/><path class="cls-1" d="M11.13,167.11l7.16-3.69,1.47,2.87c.27,.52,.43,1.04,.47,1.54,.05,.51,0,1-.18,1.46s-.42,.89-.77,1.28c-.35,.38-.8,.71-1.33,.99-.54,.27-1.05,.45-1.58,.51-.52,.07-1.02,.04-1.49-.1-.47-.14-.9-.37-1.29-.71-.38-.33-.71-.76-.98-1.28l-1.48-2.87Zm1.72,.8l.14-.21,.83,1.59c.17,.34,.38,.61,.62,.81s.51,.35,.81,.43,.62,.09,.96,.04c.34-.06,.69-.18,1.05-.36s.65-.4,.9-.64,.41-.52,.52-.81,.16-.6,.13-.91c-.02-.32-.12-.64-.29-.98l-.84-1.62,.24,.04-5.07,2.62Z"/><path class="cls-1" d="M18.01,179.38l1.1-.73,.73,1.09,4.49-3.01-.74-1.1,1.1-.73,2.3,3.44-1.1,.74-.73-1.1-4.49,3.01,.74,1.1-1.1,.73-2.3-3.44Z"/><path class="cls-1" d="M21.54,184.58l6.36-4.93,.83,1.06-2.11,7.55-.2-.18c.16-.16,.31-.31,.48-.47s.33-.32,.52-.49,.38-.33,.59-.51c.21-.17,.42-.35,.64-.54,.23-.19,.48-.38,.73-.59l1.91-1.48,.91,1.17-6.36,4.94-.84-1.08,2.01-7.51,.25,.2c-.32,.29-.59,.54-.81,.74-.22,.21-.42,.39-.58,.54-.17,.15-.3,.26-.41,.36s-.21,.19-.3,.26c-.09,.08-.18,.15-.26,.21l-2.46,1.9-.91-1.17Z"/><path class="cls-1" d="M33.41,198.49c-.41-.4-.71-.85-.92-1.35-.21-.49-.3-1-.3-1.51s.11-1.04,.32-1.53,.54-.96,.96-1.39c.42-.42,.88-.75,1.38-.97,.5-.22,1.01-.33,1.52-.34s1.03,.09,1.52,.28,.95,.5,1.36,.9c.41,.41,.72,.86,.93,1.36,.21,.49,.3,1,.29,1.51,0,.53-.12,1.04-.33,1.53-.21,.5-.53,.96-.95,1.38-.41,.42-.87,.74-1.37,.97-.5,.21-1.01,.33-1.52,.35-.53,0-1.04-.08-1.52-.28-.5-.2-.95-.5-1.37-.91Zm1.01-1.02c.26,.26,.55,.45,.86,.57,.3,.12,.62,.17,.96,.15s.66-.11,.99-.25,.62-.35,.9-.63,.48-.58,.62-.9c.14-.32,.21-.65,.23-.99s-.04-.65-.16-.97c-.12-.3-.31-.59-.58-.85s-.54-.44-.85-.56-.63-.18-.97-.16-.65,.11-.98,.25c-.31,.15-.62,.36-.9,.64-.27,.28-.49,.58-.63,.91-.15,.32-.22,.64-.23,.98-.02,.33,.04,.65,.16,.97,.13,.3,.32,.59,.58,.84Z"/><path class="cls-1" d="M40.41,204.79c-.49-.41-.83-.88-1.04-1.41-.21-.53-.26-1.06-.18-1.62,.08-.56,.32-1.06,.71-1.52l3.18-3.82,1.15,.97-3.12,3.74c-.23,.27-.37,.57-.43,.89-.05,.32-.03,.63,.08,.95,.11,.3,.28,.56,.53,.76,.27,.22,.57,.37,.89,.42,.33,.05,.64,.03,.95-.09,.31-.11,.58-.3,.81-.58l3.12-3.73,1.11,.93-3.18,3.81c-.39,.47-.85,.79-1.38,.98s-1.06,.21-1.62,.11-1.08-.37-1.58-.78Z"/><path class="cls-1" d="M45.28,208.6l4.64-6.57,2.86,2.01c.39,.28,.68,.62,.88,1.04,.2,.41,.28,.85,.24,1.3-.03,.45-.19,.87-.47,1.27-.26,.37-.61,.65-1.02,.83-.41,.19-.85,.25-1.3,.21-.46-.04-.88-.21-1.28-.49l-1.67-1.17-1.7,2.41-1.19-.84Zm3.64-2.64l1.67,1.18c.19,.13,.37,.21,.57,.21s.38-.04,.57-.14c.18-.1,.33-.23,.46-.41,.15-.21,.22-.42,.24-.63,0-.22-.04-.43-.15-.64-.11-.21-.27-.38-.49-.54l-1.46-1.04-1.42,2Zm.17,5.33l.43-4.15,1.43,.65-.41,4.52-1.45-1.03Z"/><path class="cls-1" d="M56.45,215.92l3.87-7.06,1.31,.71-3.2,5.86,3.26,1.78-.66,1.21-4.57-2.5Z"/><path class="cls-1" d="M62.02,218.97l6.22-6.01,1.27,.59-.53,8.61-1.41-.64,.34-4.88c0-.1,.02-.25,.04-.46s.05-.43,.08-.68c.03-.24,.06-.47,.09-.67,.03-.21,.05-.37,.06-.46l.26,.11c-.11,.12-.22,.25-.36,.4s-.28,.3-.43,.46c-.15,.17-.29,.31-.43,.46s-.26,.28-.38,.4l-3.47,3.41-1.36-.62Zm2.07-1.07l1.01-.97,3.34,1.53-.04,1.41-4.31-1.97Z"/><path class="cls-1" d="M70.73,222.88l2.74-7.57,1.27,.46,2.25,7.5-.25-.04c.04-.21,.09-.43,.15-.64,.06-.22,.12-.45,.19-.69,.06-.23,.14-.48,.21-.74,.08-.25,.17-.52,.26-.8,.09-.28,.2-.58,.31-.89l.82-2.27,1.4,.51-2.74,7.57-1.29-.47-2.29-7.43,.3,.03c-.11,.42-.21,.77-.28,1.06s-.15,.55-.21,.76c-.06,.21-.11,.38-.15,.53-.04,.14-.08,.26-.12,.38-.04,.11-.07,.21-.11,.32l-1.06,2.93-1.4-.51Z"/><path class="cls-1" d="M80.39,226.22l2.06-7.78,3.12,.83c.56,.15,1.04,.37,1.46,.67,.4,.31,.72,.68,.97,1.11,.23,.44,.38,.92,.43,1.44s0,1.07-.16,1.65c-.16,.58-.38,1.08-.68,1.51s-.65,.78-1.07,1.04c-.42,.26-.88,.42-1.39,.49-.51,.06-1.04,.02-1.61-.13l-3.12-.83Zm1.75-.74l-.06-.23,1.74,.46c.36,.09,.7,.12,1.02,.08,.31-.05,.61-.16,.86-.32,.26-.18,.49-.4,.67-.68,.19-.29,.33-.63,.44-1.03,.1-.39,.14-.76,.12-1.1s-.1-.65-.24-.93-.34-.51-.6-.7-.56-.33-.92-.43l-1.77-.47,.2-.15-1.46,5.51Z"/><path class="cls-1" d="M89.01,230.52l-.35-.64c.31-.1,.57-.22,.78-.39,.21-.17,.32-.32,.35-.46,.02-.08,0-.16,0-.23s-.08-.19-.18-.33c-.14-.18-.21-.32-.24-.44s-.04-.23,0-.36c.04-.2,.15-.34,.31-.43,.17-.1,.36-.12,.59-.07,.21,.04,.37,.13,.51,.27,.15,.15,.23,.33,.28,.55,.06,.21,.05,.46,0,.72-.05,.22-.13,.45-.25,.65s-.28,.39-.46,.55c-.19,.16-.39,.29-.62,.4-.21,.11-.45,.18-.7,.21Z"/><path class="cls-1" d="M101.42,230.35c-.61-.06-1.15-.21-1.64-.48-.49-.25-.91-.6-1.25-1.01s-.59-.88-.74-1.4-.21-1.07-.15-1.66c.05-.58,.21-1.11,.47-1.59,.26-.48,.6-.88,1.02-1.21s.9-.58,1.43-.73c.54-.16,1.1-.21,1.7-.15,.42,.04,.82,.14,1.2,.29,.37,.15,.71,.34,1.01,.58,.29,.24,.53,.5,.7,.78l-1.04,.89c-.2-.22-.39-.42-.61-.58-.21-.17-.44-.29-.67-.39s-.48-.17-.74-.2c-.38-.03-.74,0-1.07,.11-.34,.11-.64,.26-.91,.49s-.48,.49-.65,.8c-.17,.31-.27,.66-.31,1.05-.03,.38,0,.74,.11,1.08,.11,.35,.28,.66,.51,.95,.22,.27,.5,.5,.82,.67,.31,.18,.66,.27,1.04,.31,.28,.03,.55,0,.8-.05s.48-.16,.68-.28,.37-.29,.5-.48c.12-.19,.2-.4,.21-.62l.03-.25,.18,.26-2.36-.23,.13-1.33,3.62,.36c0,.08,0,.18,0,.28,0,.1,0,.21,0,.29,0,.1,0,.19-.02,.25-.05,.52-.19,1-.42,1.41-.22,.41-.52,.76-.88,1.04-.36,.28-.77,.49-1.23,.62-.45,.13-.94,.17-1.45,.12Z"/><path class="cls-1" d="M107.68,230.7l.13-8.05,3.5,.05c.49,0,.92,.13,1.32,.36,.39,.23,.7,.55,.94,.94,.22,.39,.33,.83,.32,1.31,0,.46-.13,.88-.37,1.27-.23,.38-.56,.68-.96,.9-.4,.22-.84,.33-1.33,.32l-2.04-.03-.05,2.95-1.46-.02Zm1.52-4.23l2.05,.03c.22,0,.42-.05,.59-.15s.29-.24,.39-.43c.1-.18,.15-.38,.15-.61,0-.25-.05-.47-.17-.65-.11-.19-.26-.33-.47-.45-.21-.11-.45-.17-.71-.17l-1.79-.03-.04,2.45Zm3.14,4.3l-1.99-3.66,1.55-.26,2.21,3.97-1.77-.05Z"/><path class="cls-1" d="M120.13,230.59c-.57,.04-1.11-.02-1.61-.2-.51-.18-.96-.43-1.34-.78-.39-.34-.7-.76-.94-1.25s-.37-1.04-.42-1.63c-.04-.6,.02-1.15,.19-1.67,.17-.53,.42-.98,.75-1.38,.34-.4,.74-.71,1.22-.96,.48-.23,1-.38,1.57-.42s1.12,.03,1.63,.2c.5,.18,.95,.44,1.33,.78,.39,.35,.7,.77,.94,1.26s.37,1.03,.41,1.62-.02,1.14-.19,1.67c-.17,.52-.41,.98-.74,1.38s-.74,.71-1.21,.96c-.48,.24-1.01,.38-1.59,.42Zm-.1-1.42c.37-.03,.69-.12,.99-.27s.55-.36,.75-.63c.21-.26,.35-.56,.46-.9s.15-.7,.12-1.09-.12-.74-.26-1.06c-.16-.32-.35-.6-.59-.83-.24-.23-.52-.4-.83-.52-.31-.11-.64-.16-1.02-.13-.36,.02-.68,.12-.99,.26-.29,.16-.55,.37-.75,.62-.21,.26-.35,.57-.45,.9-.1,.34-.14,.7-.11,1.1,.03,.39,.11,.74,.25,1.07,.15,.32,.34,.6,.58,.83,.24,.22,.52,.4,.83,.51,.32,.12,.65,.16,1.02,.14Z"/><path class="cls-1" d="M128.4,229.63l-3.84-7.51,1.54-.26,2.21,4.44c.07,.13,.14,.28,.21,.45s.14,.33,.2,.5,.11,.32,.16,.46,.1,.25,.14,.35l-.31,.04c.03-.37,.05-.67,.07-.9,0-.22,.03-.42,.05-.58,0-.16,.03-.29,.06-.43l.74-3.65,1.26-.22,1.89,3.2c.11,.2,.21,.39,.31,.57,.09,.19,.18,.36,.24,.55,.08,.18,.15,.36,.21,.55l-.25,.11c0-.19,0-.34,0-.46,0-.12,0-.21,0-.31v-.27c0-.09,0-.2,.02-.33,0-.13,.03-.29,.05-.5l.59-4.9,1.53-.26-1.11,8.36-1.06,.19-2.85-4.48,.15,.02-1.09,5.12-1.07,.19Z"/><path class="cls-1" d="M138.56,227.66l-.33-1.28,1.28-.33-1.36-5.22-1.29,.33-.33-1.28,4.01-1.04,.33,1.28-1.28,.33,1.36,5.23,1.28-.34,.33,1.28-4,1.04Z"/><path class="cls-1" d="M145.16,225.88l-2.61-7.62,1.27-.43,6.46,4.43-.22,.13c-.1-.2-.2-.39-.29-.6-.09-.21-.19-.42-.28-.65-.1-.22-.2-.46-.29-.71-.1-.24-.2-.51-.3-.79-.1-.27-.21-.57-.31-.88l-.78-2.29,1.41-.48,2.6,7.62-1.29,.44-6.45-4.35,.25-.18c.18,.4,.32,.73,.45,1.01,.13,.28,.22,.52,.31,.72s.16,.37,.21,.51c.06,.13,.11,.25,.15,.36,.05,.12,.09,.22,.12,.32l1.01,2.95-1.4,.48Z"/><path class="cls-1" d="M158.03,221.12c-.56,.24-1.1,.37-1.66,.39s-1.08-.07-1.58-.26c-.5-.19-.95-.47-1.34-.84-.4-.38-.71-.83-.95-1.38-.24-.53-.36-1.06-.38-1.61,0-.55,.09-1.06,.28-1.56,.21-.5,.5-.94,.88-1.34,.39-.4,.86-.72,1.41-.97,.39-.18,.78-.28,1.18-.34,.41-.05,.79-.05,1.16,.02,.37,.06,.71,.17,1.01,.32l-.46,1.28c-.28-.1-.56-.17-.82-.2-.26-.04-.52-.04-.77,0s-.51,.1-.74,.21c-.35,.16-.64,.36-.89,.62-.24,.26-.42,.56-.55,.88-.12,.32-.18,.65-.17,1.02s.09,.71,.25,1.07c.15,.34,.36,.63,.62,.89s.57,.44,.9,.57,.68,.19,1.04,.19c.36,0,.71-.09,1.06-.23,.25-.12,.48-.26,.67-.44,.19-.18,.34-.37,.45-.59,.12-.21,.19-.44,.2-.66s-.03-.44-.12-.65l-.11-.22,.29,.14-2.18,.97-.55-1.22,3.33-1.48c.05,.08,.1,.16,.15,.24,.05,.1,.1,.19,.14,.26,.05,.09,.08,.17,.11,.22,.21,.49,.33,.97,.34,1.44,0,.47-.08,.92-.25,1.34-.19,.42-.44,.8-.77,1.14-.33,.33-.73,.61-1.2,.82Z"/><path class="cls-1" d="M170.36,214.62c-.5,.29-1.01,.49-1.53,.57s-1.04,.05-1.54-.08c-.51-.13-.98-.36-1.41-.68-.43-.33-.81-.75-1.11-1.26-.31-.52-.52-1.04-.61-1.57-.1-.54-.08-1.05,.04-1.56s.33-.98,.64-1.42c.31-.43,.71-.79,1.2-1.09,.5-.3,1.02-.49,1.54-.57,.52-.08,1.04-.05,1.54,.08,.5,.14,.97,.37,1.4,.69s.8,.74,1.11,1.26c.31,.5,.51,1.03,.6,1.55,.1,.54,.09,1.06-.03,1.57-.11,.51-.32,.98-.63,1.41s-.71,.8-1.21,1.1Zm-.74-1.22c.31-.19,.57-.42,.75-.69,.2-.27,.31-.58,.38-.9,.06-.33,.06-.66,0-1.02-.06-.35-.2-.68-.4-1.03-.21-.33-.44-.61-.72-.82-.27-.21-.58-.37-.9-.47-.31-.1-.64-.13-.97-.09-.33,.05-.65,.17-.97,.35s-.56,.42-.75,.69-.32,.58-.38,.9-.06,.66,0,1.01c.06,.34,.2,.68,.4,1.03s.45,.62,.72,.84c.28,.21,.58,.37,.9,.47,.31,.1,.64,.12,.98,.08,.33-.05,.64-.17,.96-.35Z"/><path class="cls-1" d="M178.2,209.36c-.52,.38-1.05,.61-1.61,.67-.57,.08-1.1,0-1.62-.21s-.95-.57-1.31-1.06l-2.93-4.01,1.22-.89,2.87,3.94c.21,.29,.46,.5,.76,.62,.29,.14,.61,.19,.93,.16s.62-.14,.88-.32c.28-.21,.49-.46,.62-.77,.14-.3,.19-.62,.15-.94-.03-.32-.15-.62-.36-.92l-2.87-3.94,1.17-.85,2.93,4.01c.36,.49,.56,1.02,.62,1.57,.05,.56-.05,1.08-.29,1.6s-.62,.96-1.14,1.34Z"/><path class="cls-1" d="M183.31,205.36l-5.27-6.08,2.64-2.29c.37-.31,.77-.52,1.22-.61,.45-.1,.89-.07,1.33,.07,.43,.15,.8,.39,1.11,.76,.3,.34,.49,.74,.57,1.19,.08,.44,.04,.88-.11,1.31s-.41,.8-.78,1.12l-1.54,1.34,1.94,2.24-1.1,.96Zm-1.69-4.18l1.55-1.34c.17-.15,.27-.31,.33-.5s.06-.38,0-.58c-.05-.21-.15-.38-.29-.56-.17-.19-.35-.31-.56-.38-.21-.06-.43-.07-.65,0-.22,.05-.44,.17-.64,.34l-1.35,1.17,1.6,1.85Zm5.21,1.11l-3.93-1.41,.98-1.22,4.3,1.48-1.35,1.14Z"/><path class="cls-1" d="M195.47,193.84c-.39,.43-.83,.75-1.3,.98s-.97,.34-1.47,.35c-.52,0-1.03-.09-1.53-.28-.51-.21-.99-.51-1.44-.91-.43-.4-.76-.84-.99-1.33-.23-.49-.36-1-.39-1.52-.03-.52,.05-1.04,.22-1.53,.18-.51,.46-.97,.84-1.4,.26-.28,.57-.53,.9-.72s.67-.33,1.04-.43c.36-.09,.7-.12,1.04-.09l.13,1.41c-.28,0-.56,.05-.8,.11s-.47,.15-.68,.26c-.21,.12-.38,.26-.55,.44-.23,.26-.41,.56-.53,.87-.11,.32-.16,.64-.13,.97,.02,.33,.11,.64,.26,.97,.15,.31,.37,.61,.66,.88,.3,.27,.62,.47,.95,.6,.33,.14,.66,.19,1,.18s.65-.1,.97-.25,.61-.37,.86-.66c.18-.19,.31-.39,.42-.62,.12-.22,.19-.45,.23-.68,.04-.23,.06-.47,.05-.71l1.37,.25c.03,.27,0,.59-.08,.93-.08,.34-.21,.68-.4,1.03s-.4,.65-.65,.94Z"/><path class="cls-1" d="M201.05,187.17c-.35,.46-.76,.81-1.22,1.07-.47,.26-.96,.43-1.47,.49s-1.04,0-1.55-.14c-.53-.15-1.03-.41-1.49-.77-.48-.37-.85-.78-1.13-1.25-.27-.47-.45-.96-.53-1.47-.07-.52-.04-1.03,.1-1.54s.38-1.01,.73-1.46c.35-.47,.76-.83,1.23-1.08,.46-.26,.95-.43,1.46-.48,.52-.06,1.04,0,1.56,.14,.52,.15,1.02,.41,1.48,.77s.84,.77,1.12,1.24c.27,.47,.46,.96,.54,1.47,.07,.51,.04,1.03-.09,1.54-.14,.52-.39,1.01-.74,1.46Zm-1.13-.87c.22-.29,.38-.6,.46-.92s.09-.65,.03-.98c-.07-.33-.19-.64-.37-.95s-.43-.58-.74-.81-.63-.41-.97-.51c-.34-.11-.67-.14-1.01-.12-.34,.02-.65,.12-.94,.27-.29,.16-.56,.38-.78,.67-.21,.28-.37,.59-.45,.92-.08,.32-.09,.64-.03,.98,.06,.32,.18,.63,.36,.93,.19,.3,.44,.58,.75,.82,.31,.23,.63,.41,.98,.52s.67,.15,1.01,.12,.64-.12,.94-.28c.29-.16,.55-.38,.76-.66Z"/><path class="cls-1" d="M205.04,181.57l-6.82-4.28,.75-1.2,5.6,.06-.45,.69-2.45-5.05,.71-1.13,6.82,4.28-.78,1.26-2.57-1.61c-.58-.37-1.09-.71-1.54-1.04s-.89-.66-1.3-1.03l.52,.11,1.93,4.16-.41,.64-4.51,.02-.36-.42c.48,.2,.96,.43,1.44,.68,.47,.26,1.03,.59,1.65,.99l2.57,1.61-.79,1.25Z"/><path class="cls-1" d="M210.68,172.33l-7.21-3.6,.63-1.27,5.59-.48-.38,.73-2.93-4.79,.6-1.2,7.21,3.6-.66,1.33-2.71-1.36c-.62-.31-1.17-.61-1.65-.88s-.94-.58-1.39-.9l.53,.06,2.32,3.96-.34,.68-4.49,.45-.4-.38c.5,.16,1,.33,1.49,.55s1.08,.48,1.75,.82l2.71,1.35-.66,1.33Z"/><path class="cls-1" d="M216.65,159.51c-.23,.6-.57,1.07-1.01,1.44-.43,.37-.92,.6-1.47,.69-.55,.09-1.1,.03-1.67-.2l-4.63-1.81,.55-1.4,4.53,1.77c.33,.13,.66,.17,.99,.12s.61-.18,.87-.37c.25-.2,.44-.44,.56-.74,.13-.33,.17-.65,.12-.99-.06-.32-.19-.62-.38-.87-.21-.25-.47-.45-.81-.58l-4.53-1.77,.53-1.36,4.63,1.82c.57,.21,1.02,.55,1.36,.99,.34,.45,.55,.95,.62,1.51,.07,.56,0,1.14-.24,1.74Z"/><path class="cls-1" d="M218.75,153.61l-7.72-2.27,.38-1.29,7.34-2.71-.03,.25c-.21-.03-.43-.07-.65-.11s-.46-.09-.69-.14c-.24-.05-.5-.11-.75-.18-.26-.06-.54-.13-.82-.21-.29-.08-.59-.16-.91-.25l-2.31-.67,.41-1.43,7.73,2.26-.39,1.32-7.27,2.76v-.31c.43,.09,.79,.16,1.09,.21,.29,.06,.55,.12,.76,.16,.21,.05,.4,.09,.54,.12,.15,.03,.27,.06,.39,.09s.22,.06,.32,.09l3,.88-.42,1.43Z"/><path class="cls-1" d="M221.38,144.02l-1.3-.27,.27-1.3-5.28-1.11-.27,1.3-1.3-.27,.86-4.05,1.29,.27-.27,1.29,5.29,1.12,.27-1.3,1.29,.27-.85,4.05Z"/><path class="cls-1" d="M222.93,135.88l-6.6-.98-.33,2.29-1.37-.21,.9-6.1,1.36,.21-.34,2.34,6.6,.97-.21,1.48Z"/><path class="cls-1" d="M223.88,127.63l-4-.29,.57-.04-4.82,2.92,.13-1.75,3.74-2.22-.08,.54-3.36-2.49,.13-1.68,4.48,3.46-.76-.23,4.09,.3-.11,1.48Z"/></g><g><path class="cls-1" d="M16.71,83.53c-.4,1.14-.98,2.12-1.7,2.93-.73,.81-1.58,1.44-2.57,1.87-.98,.43-2.03,.66-3.17,.69-1.13,.03-2.3-.17-3.5-.6-1.14-.41-2.13-.99-2.97-1.74-.83-.76-1.49-1.63-1.97-2.62s-.75-2.03-.82-3.14c-.06-1.11,.11-2.23,.51-3.36,.27-.77,.65-1.47,1.13-2.12,.49-.64,1.04-1.19,1.65-1.66,.62-.46,1.26-.8,1.93-1.02l1.39,2.61c-.55,.24-1.04,.53-1.46,.85-.43,.31-.79,.66-1.09,1.05-.3,.4-.54,.83-.7,1.3-.24,.69-.35,1.39-.31,2.09s.21,1.36,.53,1.97c.3,.61,.73,1.15,1.28,1.64,.56,.48,1.22,.86,2,1.14,.8,.28,1.57,.42,2.3,.4,.74-.02,1.43-.18,2.05-.47,.63-.29,1.18-.71,1.66-1.27,.48-.55,.85-1.21,1.12-1.98,.19-.5,.28-1.01,.31-1.51,.03-.52,0-1.03-.11-1.51s-.27-.96-.49-1.41l2.85-.62c.27,.51,.47,1.12,.59,1.85,.12,.71,.14,1.48,.07,2.29-.08,.82-.25,1.59-.52,2.33Z"/><path class="cls-1" d="M23.95,68.1c-.61,1.04-1.35,1.9-2.23,2.57-.89,.67-1.86,1.15-2.91,1.42-1.04,.27-2.14,.33-3.26,.17s-2.22-.57-3.3-1.18c-1.08-.62-1.98-1.38-2.69-2.27-.71-.89-1.21-1.86-1.5-2.9s-.37-2.12-.23-3.22,.5-2.18,1.09-3.21c.62-1.05,1.36-1.92,2.24-2.59,.89-.67,1.86-1.14,2.91-1.41,1.05-.25,2.15-.31,3.26-.15s2.22,.56,3.29,1.17,1.96,1.37,2.67,2.26c.71,.89,1.22,1.86,1.52,2.89,.3,1.04,.39,2.12,.25,3.22s-.51,2.18-1.11,3.23Zm-2.59-1.48c.39-.66,.62-1.34,.68-2.02,.08-.69,0-1.37-.21-2.03-.22-.65-.57-1.28-1.03-1.85-.47-.58-1.05-1.06-1.76-1.46-.71-.41-1.43-.67-2.16-.78-.72-.12-1.44-.11-2.11,.04-.68,.15-1.31,.42-1.87,.83s-1.03,.95-1.41,1.61c-.38,.65-.61,1.32-.68,2.02-.07,.69,0,1.37,.21,2.02,.21,.66,.56,1.27,1.03,1.84s1.06,1.05,1.79,1.46c.7,.41,1.43,.67,2.16,.8s1.44,.12,2.11-.03,1.29-.43,1.86-.85c.56-.41,1.03-.95,1.4-1.6Z"/><path class="cls-1" d="M30.54,57.34l-12.79-10.89,4.73-5.56c.65-.77,1.43-1.32,2.32-1.64,.9-.33,1.82-.42,2.74-.26,.94,.15,1.79,.55,2.55,1.2,.73,.62,1.25,1.39,1.54,2.28,.3,.9,.36,1.82,.2,2.74-.18,.94-.6,1.8-1.26,2.57l-2.75,3.24,4.7,3.99-1.97,2.32Zm-4.79-8.08l2.76-3.25c.3-.36,.48-.73,.54-1.13,.06-.41,0-.8-.17-1.2-.17-.39-.43-.74-.78-1.04-.4-.34-.83-.55-1.27-.61-.45-.07-.9,0-1.35,.18-.46,.19-.86,.49-1.22,.92l-2.41,2.83,3.9,3.31Zm11.09,.65l-8.54-1.66,1.63-2.84,9.34,1.7-2.42,2.8Z"/><path class="cls-1" d="M44.24,42.69l-9.11-10.53-3.63,3.14-1.88-2.18,9.73-8.42,1.88,2.18-3.74,3.23,9.11,10.53-2.35,2.04Z"/><path class="cls-1" d="M53.57,35.14l-8.97-14.2,2.64-1.67,7.44,11.77,6.55-4.15,1.53,2.44-9.19,5.81Z"/><path class="cls-1" d="M64.34,28.31l-.67-18.03,2.69-1.16,12.65,12.82-2.97,1.29-7.1-7.32c-.16-.15-.37-.38-.66-.71-.29-.32-.61-.68-.95-1.06s-.65-.74-.94-1.08c-.29-.34-.5-.59-.63-.73l.54-.26c.04,.33,.08,.71,.13,1.12,.04,.42,.08,.86,.12,1.31,.04,.46,.08,.89,.12,1.32,.03,.42,.06,.8,.09,1.13l.47,10.13-2.86,1.25Zm1.2-4.71l-.09-2.92,7.02-3.05,2.14,2.03-9.07,3.94Z"/><path class="cls-1" d="M82.36,20.9l-3.73-16.38,2.73-.62,12.41,10.64-.49,.21c-.17-.42-.32-.86-.47-1.31-.16-.45-.3-.92-.46-1.41s-.3-1.01-.45-1.54c-.15-.55-.3-1.11-.45-1.71-.16-.6-.3-1.23-.46-1.9l-1.12-4.91,3.03-.69,3.72,16.39-2.78,.63-12.41-10.44,.57-.3c.27,.85,.51,1.58,.7,2.19s.36,1.12,.5,1.56c.13,.44,.24,.8,.33,1.09s.17,.56,.23,.79c.06,.24,.12,.47,.17,.69l1.45,6.34-3.02,.68Z"/><path class="cls-1" d="M102.11,17.01L101.58,.22,108.32,0c1.21-.04,2.32,.13,3.32,.5s1.86,.92,2.6,1.64c.73,.73,1.3,1.6,1.71,2.62,.41,1.01,.63,2.14,.67,3.39,.04,1.24-.12,2.39-.46,3.44-.34,1.04-.85,1.94-1.53,2.71-.67,.76-1.5,1.36-2.49,1.79-.98,.44-2.07,.67-3.29,.71l-6.74,.21Zm3.05-2.52l-.25-.45,3.74-.12c.78-.02,1.47-.18,2.08-.45,.62-.27,1.12-.66,1.54-1.15,.41-.5,.72-1.08,.93-1.77,.21-.69,.29-1.46,.26-2.3s-.17-1.61-.41-2.28c-.24-.67-.6-1.25-1.05-1.71-.45-.47-.99-.82-1.6-1.05s-1.32-.34-2.1-.32l-3.82,.13,.3-.42,.38,11.89Z"/><path class="cls-1" d="M130.99,18.22l4.19-16.27,3.02,.78-4.19,16.26-3.02-.77Zm2.98-6.38l.72-2.83,10.64,2.74-.72,2.83-10.64-2.74Zm7.45,9.06l4.19-16.27,3.03,.78-4.19,16.27-3.03-.78Z"/><path class="cls-1" d="M147.51,22.67l12.97-12.53,2.66,1.22-1.1,17.98-2.95-1.35,.72-10.19c0-.21,.04-.53,.09-.97,.05-.43,.11-.91,.17-1.42s.12-.99,.18-1.43,.1-.75,.13-.96l.55,.23c-.21,.24-.47,.53-.75,.84-.28,.3-.58,.62-.89,.96s-.62,.65-.91,.96c-.29,.31-.56,.59-.79,.83l-7.23,7.11-2.83-1.3Zm4.31-2.25l2.11-2.01,6.96,3.19-.09,2.95-8.98-4.13Z"/><path class="cls-1" d="M164.98,31.23l9.53-13.84,6.01,4.14c.83,.57,1.46,1.29,1.88,2.15s.6,1.76,.54,2.71c-.05,.94-.36,1.83-.94,2.66-.55,.79-1.25,1.38-2.11,1.77s-1.76,.55-2.71,.47-1.85-.41-2.69-1l-3.5-2.4-3.51,5.08-2.51-1.73Zm7.55-5.59l3.52,2.42c.38,.26,.78,.4,1.18,.42,.41,.02,.8-.08,1.17-.28,.38-.21,.7-.5,.97-.89,.29-.43,.46-.87,.48-1.33,.02-.45-.09-.89-.31-1.32-.23-.43-.58-.8-1.04-1.12l-3.07-2.11-2.9,4.21Zm.48,11.11l.78-8.67,2.99,1.33-.74,9.46-3.03-2.12Z"/><path class="cls-1" d="M181.78,44.13l6.78-16.78,2.46,2.35-3.96,9.54c-.21,.49-.39,.93-.56,1.31s-.32,.73-.46,1.04c-.15,.31-.28,.61-.43,.89-.15,.27-.3,.58-.45,.9l-.49-.47c.38-.23,.76-.46,1.15-.67,.38-.21,.8-.44,1.26-.67,.45-.22,.98-.49,1.58-.77l9.19-4.52,2.48,2.38-16.51,7.43-2.04-1.95Z"/><path class="cls-1" d="M190.62,53.29l13.42-10.11,6.61,8.79-2.26,1.7-4.77-6.33-8.9,6.7,4.81,6.41-2.26,1.7-6.67-8.86Zm6.62-3.18l2.22-1.67,5.01,6.65-2.23,1.68-5-6.66Z"/><path class="cls-1" d="M202.44,71.66c-.45-.87-.75-1.72-.91-2.56-.17-.84-.18-1.66-.04-2.47s.39-1.61,.78-2.39l2.99,.74c-.61,1.2-.91,2.23-.93,3.09s.19,1.71,.62,2.55c.25,.48,.56,.88,.91,1.2,.36,.31,.73,.52,1.11,.61,.38,.1,.74,.05,1.07-.13,.24-.13,.45-.29,.61-.49,.16-.21,.26-.44,.33-.7,.07-.27,.1-.58,.1-.93s-.04-.7-.12-1.1c-.08-.39-.18-.81-.31-1.27-.25-.86-.4-1.65-.44-2.36-.04-.72,.03-1.39,.21-1.98,.18-.61,.47-1.12,.86-1.56s.9-.82,1.52-1.15c.62-.32,1.27-.49,1.93-.49s1.33,.15,1.96,.43,1.22,.68,1.77,1.21,1.02,1.16,1.41,1.89c.43,.84,.72,1.64,.87,2.4s.16,1.49,.03,2.2c-.13,.71-.38,1.38-.76,1.99l-2.76-.89c.29-.51,.49-1.03,.6-1.52,.11-.51,.13-1.01,.06-1.49s-.21-.97-.46-1.42c-.26-.51-.57-.92-.91-1.22-.33-.3-.69-.49-1.06-.57-.37-.07-.74,0-1.11,.18-.28,.16-.5,.35-.65,.6-.16,.23-.25,.52-.3,.84s-.04,.7,.03,1.14c.07,.43,.17,.91,.31,1.44,.25,.86,.41,1.67,.48,2.43,.06,.76,.03,1.46-.1,2.08-.14,.63-.37,1.18-.71,1.65s-.8,.85-1.37,1.14c-.98,.52-1.93,.72-2.88,.62-.94-.09-1.82-.46-2.64-1.09-.81-.64-1.51-1.52-2.1-2.64Z"/><path class="cls-1" d="M208.13,83.89l13.15-4.54-1.56-4.54,2.71-.94,4.2,12.16-2.71,.95-1.62-4.68-13.15,4.54-1.02-2.95Z"/></g><g><path class="cls-1" d="M112.22,32.04c-47.81,0-86.71,38.9-86.71,86.71s38.9,86.71,86.71,86.71,86.71-38.9,86.71-86.71S160.03,32.04,112.22,32.04Zm0,148.51c-34.07,0-61.8-27.72-61.8-61.8s27.72-61.79,61.8-61.79,61.8,27.71,61.8,61.79-27.72,61.8-61.8,61.8Z"/><path class="cls-1" d="M84.69,110.33c.76-2.52,1.84-4.88,3.19-7.03l-23.76-17.28c-3.34,4.9-5.89,10.22-7.59,15.82,9.62,2.16,19.09,5.01,28.15,8.49Z"/><path class="cls-1" d="M115.81,125.54c4.76,2.86,9.4,5.91,13.82,9.07,13.11-5.88,26.81-10.35,40.73-13.29,.05-.97,.07-1.77,.07-2.57,0-4.48-.54-8.99-1.58-13.43-18.62,4.16-36.46,10.97-53.04,20.21Z"/><path class="cls-1" d="M112.22,143.48c4.39-2.51,8.98-4.89,13.64-7.11-4.4-3.09-8.98-6.04-13.64-8.77-4.66,2.72-9.24,5.68-13.64,8.77,4.66,2.22,9.25,4.6,13.64,7.11Z"/><path class="cls-1" d="M112.22,93.54c-11.33,0-21.03,7.29-24.17,18.13,8.29,3.36,16.43,7.31,24.17,11.74,7.74-4.42,15.88-8.38,24.17-11.74-3.14-10.85-12.84-18.13-24.17-18.13Z"/><path class="cls-1" d="M112.26,156.8c4.94,0,9.84,.08,14.57,.24-4.74-3.35-9.65-6.51-14.61-9.4-5,2.92-9.91,6.07-14.61,9.4,4.75-.17,9.67-.24,14.65-.24Z"/><g><path class="cls-1" d="M154.37,158.83c8.77-9.23,14.35-21.21,15.71-33.77-18.92,4.1-37.17,11-54.26,20.51,6.03,3.6,11.89,7.55,17.47,11.74,7.14,.34,14.23,.85,21.07,1.52Z"/><path class="cls-1" d="M108.62,145.57c-17.09-9.51-35.34-16.41-54.26-20.51,1.37,12.57,6.94,24.55,15.72,33.77,7.02-.68,14.11-1.19,21.05-1.52,2.06-1.55,4.28-2.83,6.4-4.3,1.57-1.09,3.15-2.15,4.75-3.19,2.13-1.38,4.17-2.95,6.33-4.25Z"/></g><path class="cls-1" d="M112.22,176.96c14.32,0,28.07-5.27,38.76-14.84-12.98-1.15-26.01-1.74-38.72-1.74s-25.86,.59-38.8,1.75c10.7,9.57,24.46,14.83,38.76,14.83Z"/><path class="cls-1" d="M131.9,63.98l-9.08,27.98c4.53,1.78,8.54,4.69,11.62,8.43l23.75-17.27c-6.81-8.77-15.89-15.38-26.29-19.14Z"/><path class="cls-1" d="M54.09,121.32c13.93,2.94,27.63,7.41,40.73,13.29,4.41-3.16,9.05-6.22,13.82-9.07-16.57-9.26-34.41-16.05-53.04-20.21-1.04,4.43-1.58,8.95-1.58,13.43,0,.8,.02,1.6,.07,2.57Z"/><path class="cls-1" d="M167.91,101.84c-1.71-5.62-4.26-10.94-7.59-15.82l-23.76,17.28c1.36,2.15,2.43,4.51,3.19,7.03,9.06-3.48,18.54-6.33,28.15-8.49Z"/><path class="cls-1" d="M66.25,83.12l23.76,17.27c3.08-3.74,7.09-6.65,11.62-8.43l-9.08-27.98c-10.4,3.76-19.48,10.37-26.3,19.14Z"/><path class="cls-1" d="M105.05,90.84c2.34-.59,4.76-.88,7.17-.88s4.82,.29,7.17,.88l9.09-27.96c-10.59-3.09-21.93-3.09-32.52,0l9.09,27.96Z"/></g></g></g></svg>