<?xml version="1.0" encoding="UTF-8"?><svg id="Layer_2" xmlns="http://www.w3.org/2000/svg" viewBox="0 0 226.65 230.82"><g id="Layer_1-2"><g><path d="M.31,124.09l8.03-.59,.25,3.49c.04,.48-.04,.93-.23,1.34-.21,.42-.48,.75-.85,1.02-.37,.26-.8,.41-1.28,.44-.46,.03-.89-.05-1.29-.26-.41-.21-.73-.5-.99-.87s-.4-.81-.44-1.3l-.15-2.03-2.95,.21-.11-1.46Zm.34,4.65l3.48-2.3,.4,1.52-3.76,2.55-.12-1.77Zm4.01-3.51l.15,2.04c.02,.22,.08,.41,.2,.57s.27,.27,.46,.36c.2,.08,.4,.11,.62,.09,.25-.02,.47-.09,.64-.22,.18-.13,.31-.3,.4-.52,.09-.21,.13-.45,.11-.72l-.13-1.78-2.44,.18Z"/><path d="M1.51,136.51c-.09-.57-.07-1.1,.06-1.62s.34-.99,.65-1.41,.69-.76,1.16-1.04c.47-.27,1-.46,1.59-.55,.59-.1,1.15-.09,1.68,.03,.54,.12,1.02,.32,1.44,.62s.78,.68,1.05,1.13c.28,.45,.47,.97,.57,1.53,.09,.58,.07,1.12-.06,1.63-.13,.52-.35,.99-.66,1.41-.31,.41-.7,.75-1.16,1.04-.47,.27-1,.46-1.58,.56-.59,.09-1.14,.08-1.68-.04-.53-.12-1.01-.32-1.44-.62-.43-.29-.78-.67-1.06-1.12s-.47-.97-.56-1.54Zm1.41-.22c.06,.37,.18,.68,.36,.97,.18,.27,.41,.51,.69,.68,.27,.19,.59,.31,.94,.38,.34,.08,.71,.08,1.09,.02,.39-.06,.73-.18,1.04-.36,.31-.18,.57-.39,.78-.64,.21-.26,.36-.56,.44-.87,.09-.32,.1-.66,.04-1.03-.05-.36-.18-.67-.35-.96-.19-.28-.41-.52-.68-.69-.28-.19-.6-.31-.94-.38s-.71-.07-1.1,0-.74,.18-1.04,.35c-.31,.18-.58,.39-.78,.65-.21,.25-.35,.55-.44,.87-.08,.32-.1,.66-.04,1.02Z"/><path d="M3.55,146.43c-.14-.56-.18-1.1-.09-1.63,.08-.53,.25-1.01,.53-1.46,.26-.44,.62-.82,1.06-1.14,.44-.31,.95-.55,1.53-.69,.58-.15,1.13-.19,1.68-.12,.54,.07,1.03,.23,1.48,.49,.45,.26,.83,.61,1.15,1.04,.32,.42,.56,.91,.69,1.47,.15,.56,.18,1.1,.1,1.63s-.25,1.02-.54,1.46c-.27,.44-.62,.82-1.06,1.13-.44,.32-.95,.56-1.52,.7s-1.13,.18-1.67,.11-1.04-.22-1.49-.49c-.45-.25-.84-.6-1.15-1.02-.32-.43-.56-.92-.7-1.48Zm1.39-.35c.09,.35,.23,.66,.44,.93,.21,.25,.46,.47,.75,.62,.29,.16,.62,.25,.97,.29,.35,.05,.72,.02,1.09-.08,.38-.1,.71-.24,1.01-.45,.28-.21,.53-.45,.71-.72s.3-.58,.36-.91c.06-.32,.04-.66-.05-1.02s-.23-.66-.45-.93c-.21-.26-.45-.47-.74-.62s-.62-.25-.97-.29c-.34-.04-.71,0-1.1,.1-.38,.09-.71,.24-1.01,.44-.29,.21-.53,.44-.71,.71-.19,.28-.3,.59-.36,.92-.05,.32-.03,.66,.06,1.02Z"/><path d="M5.86,153.93l6.32-2.14-.74-2.18,1.31-.44,1.97,5.84-1.31,.44-.75-2.25-6.32,2.14-.48-1.42Z"/><path d="M7.92,159.7l7.42-3.12,2.04,4.86-1.25,.52-1.47-3.5-4.92,2.06,1.49,3.54-1.26,.53-2.05-4.9Zm3.45-.69l1.23-.52,1.54,3.68-1.23,.52-1.54-3.68Z"/><path d="M11.14,167.11l7.15-3.69,1.48,2.87c.26,.52,.42,1.04,.47,1.54s0,1-.18,1.46-.42,.89-.78,1.28c-.35,.38-.79,.71-1.33,.99-.53,.27-1.05,.45-1.57,.51-.53,.07-1.03,.04-1.49-.1s-.9-.37-1.29-.71c-.39-.33-.71-.76-.99-1.28l-1.47-2.87Zm1.71,.8l.15-.21,.82,1.59c.18,.34,.38,.61,.62,.81s.52,.35,.82,.43c.29,.08,.62,.09,.96,.04,.33-.06,.68-.18,1.04-.36s.66-.4,.91-.64c.23-.24,.41-.52,.52-.81s.15-.6,.13-.91c-.03-.32-.13-.64-.29-.98l-.84-1.62,.23,.04-5.07,2.62Z"/><path d="M18.01,179.38l1.1-.73,.73,1.09,4.49-3.01-.74-1.1,1.1-.73,2.3,3.44-1.1,.73-.73-1.09-4.49,3.01,.74,1.1-1.1,.73-2.3-3.44Z"/><path d="M21.55,184.58l6.36-4.93,.83,1.06-2.11,7.54-.19-.17c.15-.16,.3-.31,.47-.47s.34-.32,.52-.49c.19-.17,.38-.33,.59-.51s.42-.35,.64-.54c.23-.19,.48-.38,.73-.59l1.91-1.48,.91,1.17-6.36,4.94-.84-1.08,2.01-7.51,.25,.2c-.32,.29-.59,.54-.81,.74-.22,.21-.42,.39-.58,.54-.17,.15-.3,.26-.41,.36s-.21,.19-.3,.26c-.09,.08-.18,.15-.26,.21l-2.46,1.9-.91-1.17Z"/><path d="M33.41,198.49c-.41-.4-.71-.85-.92-1.35-.21-.49-.3-1-.3-1.51s.11-1.04,.32-1.53,.54-.96,.96-1.39c.42-.42,.88-.75,1.38-.97,.5-.22,1.01-.33,1.52-.34s1.03,.09,1.52,.28,.95,.5,1.36,.9c.41,.41,.72,.86,.93,1.36,.21,.49,.3,1,.29,1.51,0,.53-.12,1.04-.33,1.53-.21,.5-.53,.96-.95,1.38-.41,.42-.87,.74-1.37,.97-.5,.21-1.01,.33-1.52,.35-.53,0-1.04-.08-1.52-.28-.5-.2-.95-.5-1.37-.91Zm1.01-1.02c.26,.26,.55,.45,.86,.57,.3,.12,.62,.17,.96,.15s.66-.11,.99-.25,.62-.35,.9-.63,.48-.58,.62-.9c.14-.32,.21-.65,.23-.99s-.04-.65-.16-.97c-.12-.3-.31-.59-.58-.85s-.54-.44-.85-.56-.63-.18-.97-.16-.65,.11-.98,.25c-.31,.15-.62,.36-.9,.64-.27,.28-.49,.58-.63,.91-.15,.32-.22,.64-.23,.98-.02,.33,.04,.65,.16,.97,.13,.3,.32,.59,.58,.84Z"/><path d="M40.42,204.79c-.49-.41-.83-.88-1.04-1.41-.21-.53-.26-1.06-.18-1.62,.08-.56,.32-1.06,.71-1.52l3.18-3.82,1.15,.97-3.12,3.74c-.23,.27-.37,.57-.43,.89-.05,.32-.03,.63,.08,.95,.11,.3,.28,.56,.53,.76,.27,.22,.57,.37,.89,.42,.33,.05,.64,.03,.95-.09,.31-.11,.58-.3,.81-.58l3.12-3.73,1.11,.93-3.18,3.81c-.39,.47-.85,.79-1.38,.98s-1.06,.21-1.62,.11-1.08-.37-1.58-.78Z"/><path d="M45.28,208.6l4.64-6.57,2.86,2.01c.39,.28,.68,.62,.88,1.04,.2,.41,.28,.85,.24,1.3-.03,.45-.19,.87-.47,1.27-.26,.37-.61,.65-1.02,.83-.41,.19-.85,.25-1.3,.21-.46-.04-.88-.21-1.28-.49l-1.67-1.17-1.7,2.41-1.19-.84Zm3.64-2.64l1.67,1.18c.19,.13,.37,.21,.57,.21s.38-.04,.57-.14c.18-.1,.33-.23,.46-.41,.15-.21,.22-.42,.24-.63,0-.22-.04-.43-.15-.64-.11-.21-.27-.38-.49-.54l-1.46-1.04-1.42,2Zm.17,5.33l.43-4.15,1.43,.65-.41,4.52-1.45-1.03Z"/><path d="M56.75,216.09l3.84-7.08,1.32,.72-3.19,5.86,3.27,1.77-.66,1.21-4.57-2.48Z"/><path d="M62.04,218.97l6.21-6.01,1.28,.59-.53,8.61-1.42-.64,.34-4.88c0-.1,.02-.25,.04-.46,.03-.21,.06-.44,.08-.68,.03-.24,.06-.47,.09-.67,.03-.21,.05-.37,.06-.46l.27,.11c-.11,.12-.23,.25-.37,.4-.13,.15-.27,.3-.42,.46-.16,.17-.29,.31-.44,.46-.14,.15-.26,.28-.37,.4l-3.47,3.41-1.36-.62Zm2.06-1.07l1.02-.97,3.33,1.53-.04,1.41-4.31-1.97Z"/><path d="M70.74,222.88l2.74-7.57,1.27,.46,2.25,7.5-.25-.04c.04-.21,.09-.43,.15-.64,.06-.22,.12-.45,.19-.69,.06-.23,.14-.48,.21-.74,.08-.25,.17-.52,.26-.8,.09-.28,.2-.58,.31-.89l.82-2.27,1.4,.51-2.74,7.57-1.29-.47-2.29-7.43,.3,.03c-.11,.42-.21,.77-.28,1.06s-.15,.55-.21,.76c-.06,.21-.11,.38-.15,.53-.04,.14-.08,.26-.12,.38-.04,.11-.07,.21-.11,.32l-1.06,2.93-1.4-.51Z"/><path d="M80.4,226.22l2.06-7.78,3.12,.83c.56,.15,1.04,.37,1.46,.67,.4,.31,.72,.68,.97,1.11,.23,.44,.38,.92,.43,1.44s0,1.07-.16,1.65c-.16,.58-.38,1.08-.68,1.51s-.65,.78-1.07,1.04c-.42,.26-.88,.42-1.39,.49-.51,.06-1.04,.02-1.61-.13l-3.12-.83Zm1.75-.74l-.06-.23,1.74,.46c.36,.09,.7,.12,1.02,.08,.31-.05,.61-.16,.86-.32,.26-.18,.49-.4,.67-.68,.19-.29,.33-.63,.44-1.03,.1-.39,.14-.76,.12-1.1s-.1-.65-.24-.93-.34-.51-.6-.7-.56-.33-.92-.43l-1.77-.47,.2-.15-1.46,5.51Z"/><path d="M89.01,230.52l-.35-.64c.31-.1,.57-.22,.78-.39,.21-.17,.32-.32,.35-.46,.02-.08,0-.16,0-.23s-.08-.19-.18-.33c-.14-.18-.21-.32-.24-.44s-.04-.23,0-.36c.04-.2,.15-.34,.31-.43,.17-.1,.36-.12,.59-.07,.21,.04,.37,.13,.51,.27,.15,.15,.23,.33,.28,.55,.06,.21,.05,.46,0,.72-.05,.22-.13,.45-.25,.65s-.28,.39-.46,.55c-.19,.16-.39,.29-.62,.4-.21,.11-.45,.18-.7,.21Z"/><path d="M101.6,230.36c-.61-.06-1.15-.21-1.64-.47-.49-.26-.91-.6-1.25-1.01s-.59-.88-.75-1.4c-.16-.52-.21-1.07-.15-1.66s.21-1.11,.47-1.59c.26-.48,.6-.89,1.02-1.22s.9-.58,1.43-.73c.54-.16,1.1-.21,1.7-.15,.42,.04,.82,.14,1.2,.29,.37,.15,.71,.34,1.01,.58s.53,.5,.7,.77l-1.04,.9c-.19-.22-.39-.42-.61-.58-.21-.17-.43-.29-.67-.39-.23-.1-.48-.17-.74-.19-.38-.04-.74,0-1.07,.1-.34,.11-.64,.27-.91,.49-.26,.22-.48,.5-.64,.81-.18,.31-.27,.66-.31,1.05-.04,.37,0,.73,.11,1.08s.27,.66,.51,.94c.22,.27,.5,.5,.81,.67,.32,.18,.66,.28,1.04,.31,.28,.03,.55,0,.8-.05s.48-.16,.68-.28,.37-.29,.49-.48c.13-.19,.2-.4,.22-.62l.02-.25,.19,.26-2.37-.23,.13-1.33,3.63,.35c0,.09,0,.19,0,.28,0,.11,0,.21,0,.3,0,.1-.02,.18-.02,.24-.06,.53-.2,1-.42,1.42-.22,.41-.52,.76-.88,1.04-.36,.28-.77,.49-1.22,.62-.46,.13-.95,.18-1.46,.12Z"/><path d="M107.85,230.7l.14-8.05,3.5,.05c.48,0,.92,.13,1.31,.36,.4,.23,.71,.55,.94,.94s.34,.83,.33,1.31c0,.46-.14,.88-.37,1.27-.24,.38-.56,.68-.96,.9-.4,.22-.85,.33-1.34,.32l-2.03-.03-.05,2.95-1.46-.02Zm1.53-4.23l2.05,.03c.21,0,.41-.05,.58-.15s.3-.24,.39-.43c.1-.18,.15-.38,.16-.61,0-.25-.06-.47-.17-.65-.12-.19-.27-.33-.48-.45-.21-.11-.44-.17-.71-.17l-1.78-.03-.04,2.45Zm3.13,4.3l-1.98-3.66,1.54-.26,2.22,3.97-1.78-.05Z"/><path d="M120.32,230.57c-.58,.04-1.11-.03-1.62-.21-.5-.17-.95-.43-1.34-.77s-.7-.76-.94-1.25-.37-1.04-.42-1.63c-.04-.6,.02-1.15,.19-1.67,.16-.53,.41-.98,.75-1.38,.33-.4,.74-.71,1.21-.96,.48-.24,1-.38,1.57-.43,.59-.04,1.12,.03,1.63,.2,.51,.18,.95,.44,1.34,.78,.38,.35,.69,.77,.93,1.26s.37,1.03,.42,1.62c.04,.59-.02,1.14-.19,1.66-.16,.52-.41,.99-.74,1.39s-.73,.71-1.21,.96-1.01,.38-1.58,.43Zm-.11-1.43c.37-.03,.7-.12,1-.27s.54-.36,.74-.62c.21-.27,.36-.57,.46-.91,.11-.34,.14-.7,.12-1.09-.03-.39-.12-.74-.27-1.06-.15-.32-.34-.6-.58-.83-.24-.22-.52-.4-.83-.52-.31-.11-.65-.16-1.02-.13s-.69,.12-.99,.27-.55,.36-.75,.62-.35,.56-.46,.9c-.1,.33-.13,.7-.1,1.1,.02,.39,.11,.74,.25,1.06,.15,.33,.34,.61,.58,.83,.24,.23,.52,.4,.84,.52,.31,.11,.65,.16,1.01,.13Z"/><path d="M128.39,229.63l-3.84-7.51,1.54-.26,2.21,4.44c.07,.13,.14,.28,.21,.45s.14,.33,.2,.5,.11,.32,.16,.46,.1,.25,.14,.35l-.31,.04c.03-.37,.05-.67,.07-.9,0-.22,.03-.42,.05-.58,0-.16,.03-.29,.06-.43l.74-3.65,1.26-.22,1.89,3.2c.11,.2,.21,.39,.31,.57,.09,.19,.18,.36,.24,.55,.08,.18,.15,.36,.21,.55l-.25,.11c0-.19,0-.34,0-.46,0-.12,0-.21,0-.31v-.27c0-.09,0-.2,.02-.33,0-.13,.03-.29,.05-.5l.59-4.9,1.53-.26-1.11,8.36-1.06,.19-2.85-4.48,.15,.03-1.09,5.11-1.07,.19Z"/><path d="M138.56,227.66l-.33-1.28,1.28-.33-1.36-5.22-1.29,.33-.33-1.28,4.01-1.04,.33,1.28-1.28,.33,1.36,5.23,1.28-.34,.33,1.28-4,1.04Z"/><path d="M145.16,225.88l-2.61-7.62,1.27-.43,6.46,4.43-.22,.13c-.1-.2-.2-.39-.29-.6-.09-.21-.19-.42-.28-.65-.1-.22-.2-.46-.29-.71-.1-.24-.2-.51-.3-.79-.1-.27-.21-.57-.31-.88l-.78-2.29,1.41-.48,2.6,7.62-1.29,.44-6.45-4.35,.25-.18c.18,.4,.32,.73,.45,1.01,.13,.28,.22,.52,.31,.72s.16,.37,.21,.51c.06,.13,.11,.25,.15,.36,.05,.12,.09,.22,.12,.32l1.01,2.95-1.4,.48Z"/><path d="M158.02,221.12c-.56,.24-1.1,.37-1.66,.39s-1.08-.07-1.58-.26c-.5-.19-.95-.47-1.34-.84-.39-.38-.71-.83-.95-1.38-.24-.53-.36-1.06-.38-1.61,0-.55,.09-1.06,.28-1.56,.21-.5,.5-.94,.89-1.34,.38-.4,.85-.72,1.4-.97,.39-.18,.78-.28,1.18-.34,.41-.05,.79-.05,1.17,.02,.37,.06,.7,.17,1,.32l-.46,1.28c-.28-.1-.56-.17-.82-.2-.26-.04-.52-.04-.77,0s-.51,.1-.74,.21c-.35,.16-.64,.36-.89,.62-.24,.26-.42,.56-.55,.88-.12,.32-.18,.65-.17,1.02s.09,.71,.25,1.07c.15,.34,.36,.63,.62,.89s.57,.44,.9,.57c.34,.13,.68,.2,1.04,.19s.71-.09,1.06-.23c.25-.12,.48-.26,.67-.44,.19-.18,.34-.37,.45-.59,.12-.21,.19-.44,.2-.66s-.03-.44-.12-.65l-.11-.22,.29,.14-2.18,.97-.55-1.22,3.33-1.48c.05,.08,.1,.16,.15,.24,.05,.1,.1,.19,.14,.27,.05,.08,.08,.16,.11,.21,.21,.49,.33,.97,.34,1.44,0,.47-.08,.92-.25,1.34-.19,.42-.44,.8-.77,1.14-.33,.33-.73,.61-1.2,.82Z"/><path d="M170.66,214.46c-.49,.29-1,.49-1.52,.57s-1.04,.06-1.55-.07c-.5-.13-.97-.36-1.41-.68-.43-.33-.81-.75-1.11-1.26-.31-.51-.52-1.04-.62-1.56-.09-.54-.08-1.06,.04-1.57s.32-.98,.63-1.41,.71-.8,1.2-1.1c.5-.3,1.02-.49,1.54-.57,.52-.09,1.04-.06,1.54,.08,.5,.13,.97,.36,1.4,.68,.44,.32,.81,.74,1.12,1.25,.3,.51,.51,1.03,.6,1.56,.1,.53,.09,1.05-.02,1.56-.12,.51-.32,.98-.63,1.42-.31,.43-.71,.8-1.21,1.1Zm-.74-1.22c.31-.2,.57-.42,.75-.69s.31-.58,.37-.91c.06-.32,.06-.66,0-1.01-.06-.35-.2-.69-.4-1.03s-.45-.61-.72-.82c-.28-.21-.59-.37-.9-.47-.32-.1-.64-.13-.98-.08-.32,.04-.64,.16-.97,.35-.3,.19-.56,.42-.74,.69-.2,.27-.32,.58-.38,.9s-.06,.66,0,1.01c.07,.35,.21,.69,.41,1.03,.21,.34,.45,.62,.72,.84,.28,.21,.58,.37,.9,.47,.31,.09,.64,.12,.98,.07s.64-.17,.96-.35Z"/><path d="M178.47,209.16c-.51,.38-1.04,.61-1.61,.68-.57,.07-1.1,0-1.62-.21-.51-.21-.95-.57-1.31-1.05l-2.94-4,1.22-.9,2.87,3.93c.21,.29,.47,.5,.77,.62,.29,.13,.61,.18,.93,.16,.32-.03,.62-.14,.88-.33,.28-.21,.49-.46,.62-.77,.13-.3,.18-.62,.15-.94s-.16-.62-.37-.92l-2.88-3.93,1.17-.85,2.94,4c.36,.49,.57,1.01,.62,1.56s-.04,1.09-.28,1.61c-.24,.51-.62,.96-1.14,1.34Z"/><path d="M183.32,205.36l-5.27-6.08,2.64-2.29c.37-.31,.78-.52,1.23-.61,.45-.1,.89-.07,1.32,.07,.43,.15,.8,.39,1.11,.76,.3,.34,.5,.74,.57,1.19,.08,.44,.04,.88-.11,1.31s-.41,.8-.78,1.12l-1.53,1.34,1.93,2.24-1.1,.96Zm-1.69-4.18l1.55-1.34c.17-.15,.28-.31,.33-.5,.06-.19,.06-.38,0-.58-.05-.21-.15-.38-.29-.56-.17-.19-.35-.31-.56-.38-.21-.06-.43-.07-.65,0-.22,.05-.44,.17-.64,.34l-1.35,1.17,1.6,1.85Zm5.21,1.11l-3.93-1.41,.98-1.22,4.3,1.48-1.35,1.14Z"/><path d="M195.6,193.72c-.39,.43-.82,.76-1.29,.99-.48,.22-.97,.34-1.48,.35-.51,0-1.02-.09-1.52-.28-.52-.2-1-.5-1.44-.91-.44-.39-.76-.83-1-1.32-.22-.49-.36-1-.39-1.52s.04-1.04,.22-1.54c.18-.5,.46-.97,.84-1.39,.26-.29,.57-.54,.9-.73s.67-.33,1.04-.42c.35-.1,.7-.13,1.04-.1l.14,1.41c-.29,0-.56,.05-.8,.11-.25,.06-.48,.15-.68,.26s-.39,.27-.55,.45c-.23,.25-.41,.55-.53,.86-.11,.32-.16,.64-.13,.97,.02,.33,.11,.65,.26,.97s.38,.61,.67,.88c.3,.27,.62,.47,.94,.6,.33,.14,.66,.19,1,.18s.65-.1,.97-.25,.61-.38,.87-.66c.17-.19,.31-.39,.42-.62s.19-.45,.22-.69c.04-.23,.06-.47,.05-.7l1.37,.25c.03,.27,0,.58-.08,.92-.08,.34-.21,.68-.39,1.03-.19,.35-.41,.66-.66,.94Z"/><path d="M201.26,186.91c-.35,.46-.75,.82-1.22,1.08-.46,.26-.95,.42-1.46,.49-.52,.06-1.04,.02-1.56-.14-.52-.15-1.02-.4-1.49-.77-.48-.36-.85-.77-1.13-1.24s-.46-.96-.53-1.47c-.08-.51-.05-1.03,.09-1.54s.38-1.01,.72-1.46c.36-.47,.77-.83,1.23-1.09s.96-.42,1.47-.48,1.04,0,1.55,.14,1.02,.4,1.49,.76c.47,.36,.84,.77,1.12,1.24,.27,.47,.46,.96,.54,1.47,.08,.51,.05,1.03-.09,1.54s-.38,1.01-.73,1.46Zm-1.13-.87c.22-.29,.38-.6,.46-.92s.08-.64,.02-.98c-.06-.32-.19-.64-.37-.95-.19-.29-.43-.57-.74-.8-.31-.24-.63-.41-.98-.51-.33-.1-.67-.14-1.01-.12-.33,.03-.64,.12-.94,.27-.28,.17-.55,.39-.77,.68-.21,.28-.36,.59-.45,.91-.08,.33-.09,.65-.03,.98,.06,.33,.19,.64,.37,.94,.19,.3,.44,.57,.75,.81s.63,.41,.98,.52,.67,.15,1.01,.12,.64-.12,.94-.28,.55-.38,.76-.67Z"/><path d="M205.05,181.57l-6.82-4.28,.75-1.2,5.6,.06-.45,.69-2.45-5.05,.71-1.13,6.82,4.28-.78,1.26-2.57-1.61c-.58-.37-1.09-.71-1.54-1.04s-.89-.66-1.3-1.03l.52,.11,1.93,4.16-.41,.64-4.51,.02-.36-.42c.48,.2,.96,.43,1.44,.68,.47,.26,1.03,.59,1.65,.99l2.57,1.61-.79,1.25Z"/><path d="M210.85,172.03l-7.21-3.58,.63-1.27,5.58-.5-.38,.73-2.94-4.78,.6-1.2,7.21,3.58-.65,1.33-2.71-1.35c-.62-.31-1.16-.6-1.64-.88-.48-.27-.95-.57-1.4-.89l.53,.06,2.33,3.95-.33,.68-4.49,.46-.41-.38c.5,.16,1,.33,1.5,.55,.5,.21,1.07,.48,1.75,.81l2.71,1.35-.66,1.33Z"/><path d="M216.71,159.37c-.22,.6-.56,1.07-1,1.44-.43,.37-.93,.6-1.47,.69-.56,.1-1.11,.03-1.68-.19l-4.63-1.81,.55-1.4,4.54,1.76c.33,.14,.66,.18,.98,.12,.32-.05,.62-.18,.87-.37s.45-.44,.57-.74c.13-.33,.16-.65,.11-.99-.06-.32-.19-.62-.38-.87-.21-.25-.47-.45-.81-.58l-4.53-1.77,.53-1.35,4.63,1.81c.57,.21,1.02,.55,1.36,.99s.55,.95,.62,1.5c.07,.57,0,1.15-.24,1.75Z"/><path d="M218.81,153.44l-7.73-2.25,.38-1.3,7.34-2.72-.03,.25c-.21-.03-.43-.07-.65-.11s-.46-.09-.7-.14c-.23-.05-.49-.11-.75-.17-.25-.07-.53-.14-.82-.21-.28-.07-.59-.16-.9-.24l-2.31-.67,.41-1.43,7.72,2.25-.38,1.32-7.26,2.77v-.31c.43,.08,.79,.16,1.08,.21,.3,.06,.56,.11,.77,.16s.39,.08,.54,.12c.14,.03,.27,.06,.38,.09,.12,.03,.22,.06,.33,.09l2.99,.87-.41,1.43Z"/><path d="M221.39,144.02l-1.3-.27,.27-1.3-5.28-1.11-.27,1.3-1.3-.27,.86-4.05,1.29,.27-.27,1.29,5.29,1.12,.27-1.3,1.29,.27-.85,4.05Z"/><path d="M222.98,135.53l-6.6-.95-.32,2.29-1.37-.2,.87-6.1,1.37,.2-.33,2.34,6.6,.95-.21,1.47Z"/><path d="M223.89,127.46l-3.99-.28,.57-.04-4.82,2.92,.13-1.74,3.73-2.22-.07,.54-3.37-2.49,.13-1.67,4.49,3.45-.77-.23,4.09,.29-.11,1.49Z"/></g><g><path d="M16.71,83.53c-.41,1.14-.98,2.12-1.71,2.93-.72,.81-1.58,1.43-2.56,1.87-.98,.43-2.04,.66-3.17,.69-1.14,.03-2.3-.17-3.5-.59-1.14-.41-2.14-.99-2.97-1.74-.84-.76-1.49-1.63-1.98-2.62-.48-.99-.75-2.03-.81-3.14-.07-1.11,.1-2.23,.51-3.36,.27-.77,.64-1.47,1.13-2.11,.48-.64,1.04-1.2,1.64-1.66,.62-.46,1.26-.8,1.93-1.02l1.39,2.61c-.55,.24-1.03,.53-1.46,.84-.43,.31-.79,.67-1.09,1.06-.3,.4-.54,.83-.7,1.29-.24,.69-.34,1.39-.3,2.09,.04,.7,.21,1.36,.52,1.97s.74,1.16,1.29,1.64,1.21,.86,2,1.15c.8,.28,1.56,.42,2.3,.4,.73-.01,1.42-.17,2.05-.46,.62-.3,1.18-.72,1.66-1.27s.85-1.22,1.12-1.98c.18-.5,.28-1.01,.31-1.52,.03-.52,0-1.02-.12-1.51s-.26-.96-.48-1.41l2.84-.62c.28,.5,.48,1.12,.6,1.84,.12,.72,.14,1.48,.06,2.3s-.24,1.59-.51,2.33Z"/><path d="M24.1,67.84c-.61,1.04-1.35,1.89-2.24,2.56s-1.86,1.14-2.91,1.41-2.14,.32-3.26,.15-2.23-.57-3.3-1.19c-1.08-.62-1.97-1.38-2.68-2.27-.71-.89-1.21-1.86-1.49-2.91-.29-1.04-.37-2.12-.23-3.22,.15-1.1,.52-2.17,1.11-3.21,.62-1.05,1.36-1.91,2.25-2.58s1.86-1.13,2.91-1.39,2.14-.3,3.26-.14c1.11,.17,2.21,.56,3.29,1.19,1.06,.62,1.95,1.37,2.66,2.26s1.21,1.86,1.51,2.9,.38,2.11,.24,3.22c-.15,1.1-.52,2.18-1.12,3.23Zm-2.58-1.49c.38-.66,.62-1.34,.68-2.03,.08-.69,0-1.36-.21-2.03-.22-.66-.57-1.28-1.03-1.86-.46-.57-1.04-1.06-1.76-1.47-.7-.41-1.42-.67-2.15-.79-.72-.11-1.44-.1-2.11,.04-.68,.14-1.31,.42-1.87,.82-.56,.41-1.04,.94-1.42,1.61-.38,.65-.61,1.32-.68,2.02-.08,.69,0,1.37,.2,2.03,.21,.66,.56,1.27,1.02,1.84,.47,.57,1.06,1.06,1.79,1.47,.7,.41,1.43,.68,2.15,.81,.73,.13,1.44,.12,2.11-.03,.68-.14,1.3-.42,1.87-.83,.56-.42,1.03-.95,1.41-1.6Z"/><path d="M30.53,57.33l-12.79-10.88,4.73-5.56c.65-.77,1.43-1.32,2.33-1.65,.9-.33,1.81-.42,2.74-.26,.93,.15,1.78,.55,2.55,1.21,.73,.62,1.24,1.38,1.54,2.28,.3,.9,.36,1.81,.19,2.74s-.6,1.79-1.26,2.57l-2.74,3.24,4.7,4-1.98,2.32Zm-4.79-8.08l2.76-3.25c.3-.36,.49-.73,.55-1.13,.06-.41,0-.8-.17-1.2s-.43-.74-.78-1.04c-.41-.34-.83-.55-1.28-.61-.45-.07-.9,0-1.35,.18s-.86,.49-1.22,.92l-2.41,2.83,3.9,3.31Zm11.1,.65l-8.54-1.66,1.63-2.84,9.33,1.7-2.41,2.8Z"/><path d="M44.47,42.48l-9.08-10.55-3.64,3.13-1.88-2.18,9.75-8.39,1.88,2.18-3.74,3.22,9.08,10.55-2.36,2.04Z"/><path d="M53.57,35.14l-8.98-14.2,2.64-1.67,7.44,11.76,6.55-4.15,1.54,2.44-9.19,5.81Z"/><path d="M64.6,28.15l-.62-18.02,2.69-1.16,12.62,12.86-2.98,1.28-7.08-7.35c-.15-.15-.37-.38-.65-.71-.29-.33-.61-.69-.95-1.07-.34-.38-.65-.75-.94-1.08s-.5-.59-.62-.74l.54-.26c.04,.33,.08,.71,.12,1.13,.04,.42,.08,.85,.12,1.31,.04,.45,.08,.89,.11,1.31,.04,.42,.06,.8,.09,1.14l.44,10.13-2.87,1.24Zm1.22-4.7l-.08-2.92,7.03-3.03,2.13,2.04-9.08,3.91Z"/><path d="M82.36,20.91l-3.73-16.38,2.73-.62,12.41,10.64-.49,.21c-.17-.42-.32-.86-.47-1.31-.16-.45-.3-.92-.46-1.41-.16-.49-.3-1.01-.45-1.54-.15-.54-.3-1.11-.45-1.71-.16-.6-.3-1.23-.46-1.9l-1.12-4.91,3.03-.69,3.72,16.38-2.78,.63-12.42-10.44,.58-.3c.27,.85,.51,1.59,.7,2.19,.2,.61,.36,1.13,.5,1.56,.13,.44,.24,.8,.33,1.09s.17,.56,.23,.8c.06,.24,.12,.47,.17,.69l1.45,6.34-3.02,.68Z"/><path d="M102.11,17.01L101.58,.22,108.33,0c1.21-.04,2.31,.13,3.31,.49,1,.37,1.87,.92,2.6,1.65,.73,.73,1.31,1.6,1.72,2.61s.63,2.14,.67,3.39c.04,1.25-.12,2.39-.46,3.44s-.86,1.95-1.53,2.71c-.68,.77-1.51,1.36-2.49,1.79-.98,.43-2.08,.67-3.29,.71l-6.74,.21Zm3.04-2.52l-.25-.45,3.74-.12c.79-.02,1.48-.18,2.09-.45,.61-.28,1.12-.66,1.53-1.15,.42-.49,.73-1.08,.93-1.77,.21-.69,.29-1.46,.26-2.3-.02-.85-.16-1.61-.4-2.28-.25-.67-.6-1.25-1.05-1.71s-.99-.82-1.6-1.05c-.62-.23-1.32-.34-2.1-.32l-3.82,.12,.3-.42,.37,11.9Z"/><path d="M130.98,18.21l4.18-16.27,3.03,.78-4.19,16.27-3.02-.78Zm2.98-6.37l.72-2.83,10.64,2.74-.72,2.83-10.64-2.74Zm7.45,9.06l4.19-16.27,3.02,.78-4.18,16.27-3.03-.78Z"/><path d="M147.51,22.67l12.97-12.53,2.66,1.22-1.1,17.98-2.95-1.35,.72-10.19c0-.21,.04-.53,.09-.96s.1-.91,.16-1.42c.06-.51,.13-.99,.19-1.43s.1-.76,.13-.96l.55,.23c-.21,.25-.47,.53-.75,.84-.28,.31-.59,.63-.89,.96-.31,.33-.62,.65-.91,.96s-.56,.58-.79,.83l-7.23,7.11-2.83-1.3Zm4.31-2.25l2.11-2.02,6.96,3.2-.09,2.94-8.98-4.13Z"/><path d="M164.99,31.22l9.53-13.84,6.01,4.14c.83,.57,1.46,1.29,1.88,2.15s.6,1.76,.54,2.71c-.05,.94-.36,1.83-.94,2.66-.55,.79-1.25,1.38-2.11,1.77-.86,.39-1.76,.54-2.71,.46s-1.85-.41-2.69-.99l-3.5-2.41-3.51,5.08-2.51-1.73Zm7.55-5.59l3.52,2.43c.38,.26,.78,.4,1.18,.42,.41,.01,.8-.08,1.17-.29,.38-.21,.7-.5,.97-.88,.29-.43,.46-.88,.48-1.33,.02-.45-.09-.89-.31-1.32-.23-.43-.58-.81-1.04-1.12l-3.07-2.11-2.9,4.21Zm.48,11.11l.78-8.67,2.99,1.33-.74,9.45-3.03-2.11Z"/><path d="M181.79,44.12l6.78-16.77,2.46,2.36-3.96,9.54c-.21,.49-.39,.93-.56,1.31-.17,.39-.32,.73-.46,1.04-.15,.31-.28,.6-.43,.88-.15,.28-.3,.58-.45,.9l-.49-.46c.38-.23,.76-.46,1.15-.68,.38-.22,.8-.44,1.26-.67,.45-.23,.98-.48,1.58-.77l9.19-4.52,2.48,2.37-16.51,7.44-2.04-1.96Z"/><path d="M190.83,53.51l13.46-10.06,6.58,8.8-2.27,1.7-4.75-6.34-8.92,6.67,4.8,6.42-2.28,1.7-6.64-8.88Zm6.63-3.16l2.23-1.67,4.99,6.67-2.23,1.67-4.99-6.67Z"/><path d="M202.46,71.65c-.46-.86-.76-1.72-.92-2.55-.17-.84-.18-1.67-.04-2.48s.39-1.61,.78-2.39l2.99,.74c-.61,1.2-.91,2.23-.93,3.09s.19,1.7,.62,2.54c.25,.48,.56,.88,.92,1.2,.35,.32,.72,.52,1.1,.61s.74,.04,1.08-.13c.23-.13,.44-.29,.6-.49,.16-.2,.26-.43,.33-.71,.07-.27,.1-.58,.1-.92,0-.34-.03-.71-.12-1.1-.08-.39-.18-.82-.31-1.27-.25-.86-.4-1.66-.44-2.37s.03-1.38,.21-1.98c.18-.6,.47-1.12,.86-1.56s.9-.83,1.52-1.15c.62-.32,1.27-.49,1.93-.48,.67,0,1.33,.14,1.96,.42,.63,.28,1.22,.68,1.77,1.21s1.02,1.16,1.41,1.89c.43,.83,.72,1.64,.87,2.4s.16,1.5,.03,2.21c-.12,.71-.37,1.37-.76,1.98l-2.76-.88c.29-.52,.49-1.03,.6-1.53s.13-1,.06-1.49c-.07-.49-.21-.96-.46-1.41-.26-.51-.57-.92-.91-1.22-.33-.3-.69-.49-1.06-.57-.37-.08-.74-.01-1.11,.18-.28,.15-.5,.35-.65,.59-.16,.24-.25,.53-.3,.85s-.04,.7,.03,1.14,.17,.91,.31,1.43c.25,.86,.41,1.67,.48,2.44,.07,.76,.03,1.46-.1,2.08-.14,.63-.37,1.18-.71,1.65-.34,.47-.8,.85-1.37,1.15-.98,.51-1.93,.72-2.88,.63-.94-.09-1.82-.46-2.63-1.1-.82-.64-1.51-1.52-2.1-2.64Z"/><path d="M208.14,83.89l13.15-4.55-1.56-4.54,2.71-.94,4.2,12.16-2.71,.94-1.62-4.68-13.15,4.55-1.02-2.95Z"/></g><g><path d="M112.24,31.88c-47.89,0-86.86,38.96-86.86,86.85s38.96,86.86,86.86,86.86,86.85-38.96,86.85-86.86S160.12,31.88,112.24,31.88Zm0,148.5c-33.99,0-61.65-27.66-61.65-61.65s27.66-61.64,61.65-61.64,61.64,27.65,61.64,61.64-27.65,61.65-61.64,61.65Z"/><path d="M84.8,110.51c.77-2.59,1.88-5.03,3.3-7.28l-23.99-17.43c-3.41,4.96-6.01,10.38-7.74,16.13,9.71,2.17,19.28,5.05,28.44,8.57Z"/><path d="M115.53,125.51c4.76,2.84,9.5,5.96,14.1,9.25,13.19-5.93,26.94-10.42,40.89-13.35,.05-1.06,.07-1.89,.07-2.69,0-4.55-.55-9.12-1.62-13.6-18.77,4.18-36.75,11.04-53.44,20.39Z"/><path d="M112.24,143.63c4.51-2.58,9.2-5.02,13.95-7.26-4.45-3.13-9.15-6.16-13.95-8.97-4.74,2.77-9.42,5.79-13.96,8.97,4.73,2.23,9.42,4.67,13.96,7.26Z"/><path d="M112.24,93.37c-11.46,0-21.23,7.38-24.36,18.37,8.35,3.37,16.54,7.35,24.36,11.83,7.8-4.47,15.99-8.45,24.35-11.83-3.12-10.99-12.9-18.37-24.35-18.37Z"/><path d="M112.28,156.93c5.08,0,10.14,.08,15.06,.25-4.79-3.42-9.87-6.69-15.1-9.75-5.22,3.05-10.3,6.33-15.12,9.76,4.88-.18,9.98-.26,15.16-.26Z"/><g><path d="M154.44,158.96c8.89-9.32,14.5-21.43,15.83-34.12-19.1,4.13-37.51,11.09-54.73,20.7,6.07,3.62,12.04,7.62,17.71,11.88,7.02,.33,14.15,.85,21.18,1.53Z"/><path d="M91.22,157.44c5.63-4.25,11.59-8.24,17.71-11.9-17.23-9.61-35.63-16.57-54.73-20.69,1.33,12.7,6.94,24.8,15.83,34.13,6.85-.67,13.96-1.19,21.18-1.53Z"/></g><path d="M112.24,177.08c14.48,0,28.35-5.36,39.11-15.1-12.94-1.17-26.07-1.77-39.07-1.77s-26.22,.61-39.15,1.78c10.76,9.73,24.64,15.09,39.11,15.09Z"/><path d="M131.83,63.77l-9.18,28.25c4.6,1.78,8.66,4.73,11.78,8.54l23.99-17.44c-6.88-8.9-16.06-15.59-26.59-19.36Z"/><path d="M53.95,121.41c13.95,2.93,27.7,7.42,40.89,13.35,4.6-3.29,9.35-6.41,14.1-9.25-16.69-9.36-34.67-16.21-53.44-20.39-1.07,4.48-1.62,9.05-1.62,13.6,0,.79,.02,1.62,.07,2.69Z"/><path d="M168.11,101.94c-1.74-5.75-4.34-11.17-7.74-16.13l-23.99,17.43c1.42,2.25,2.53,4.69,3.3,7.28,9.16-3.53,18.73-6.41,28.44-8.57Z"/><path d="M66.05,83.13l23.99,17.44c3.12-3.82,7.18-6.77,11.79-8.54l-9.19-28.25c-10.53,3.77-19.72,10.46-26.59,19.36Z"/><path d="M95.78,62.75l9.19,28.25c2.36-.61,4.8-.92,7.28-.92s4.9,.31,7.28,.92l9.18-28.25c-10.76-3.14-22.16-3.14-32.92,0Z"/></g></g></svg>