<?xml version="1.0" encoding="UTF-8"?><svg id="Layer_2" xmlns="http://www.w3.org/2000/svg" viewBox="0 0 226.63 230.8"><defs><style>.cls-1{fill:#969e3a;}.cls-2{fill:#657834;}.cls-3{fill:#c8d774;}.cls-4{fill:#465022;}.cls-5{fill:#b7dfe5;}.cls-6{fill:#e79048;}.cls-7{fill:#eacd5e;}.cls-8{fill:#a5b14d;}</style></defs><g id="Layer_1-2"><g><g><path d="M.3,123.91l8.03-.57,.24,3.49c.04,.48-.05,.93-.24,1.34s-.48,.75-.85,1.01-.79,.41-1.28,.44c-.46,.03-.89-.05-1.29-.26-.4-.21-.73-.5-.99-.88-.25-.38-.39-.81-.43-1.3l-.15-2.03-2.95,.21-.1-1.46Zm.33,4.66l3.48-2.3,.39,1.51-3.76,2.55-.11-1.77Zm4.01-3.51l.15,2.04c0,.22,.08,.42,.2,.57s.26,.27,.46,.35c.19,.08,.39,.11,.62,.09,.25-.01,.47-.09,.64-.21s.3-.3,.4-.51c.09-.21,.13-.46,.11-.72l-.13-1.78-2.44,.17Z"/><path d="M1.46,136.15c-.1-.57-.08-1.1,.06-1.63,.13-.51,.34-.98,.65-1.4s.7-.76,1.17-1.04c.47-.27,1-.45,1.59-.54,.59-.09,1.15-.08,1.68,.04,.54,.11,1.01,.33,1.44,.63,.42,.3,.77,.68,1.05,1.13,.28,.46,.47,.97,.56,1.53,.09,.58,.07,1.12-.06,1.64-.14,.51-.35,.98-.67,1.39-.31,.42-.7,.76-1.17,1.04-.46,.27-.99,.47-1.58,.55-.59,.1-1.14,.08-1.67-.04s-1.01-.32-1.44-.62c-.43-.29-.78-.66-1.06-1.12-.27-.46-.46-.97-.55-1.54Zm1.41-.22c.06,.37,.18,.68,.35,.97s.41,.51,.69,.69c.27,.18,.59,.31,.94,.38,.34,.07,.71,.09,1.09,.02,.39-.06,.73-.18,1.04-.35,.3-.18,.56-.4,.77-.65s.36-.55,.45-.86c.09-.33,.1-.66,.04-1.04-.05-.35-.17-.66-.35-.96-.18-.27-.41-.51-.68-.69s-.59-.3-.93-.38c-.35-.07-.72-.08-1.11,0-.38,.06-.73,.18-1.04,.35-.31,.17-.57,.38-.78,.64-.21,.25-.35,.55-.44,.87-.08,.33-.1,.66-.04,1.02Z"/><path d="M3.5,146.24c-.14-.56-.17-1.1-.09-1.62,.08-.53,.25-1.02,.53-1.46,.27-.44,.63-.82,1.07-1.13,.44-.32,.95-.56,1.53-.7,.58-.15,1.13-.19,1.68-.11,.54,.07,1.04,.23,1.48,.5,.45,.25,.83,.61,1.15,1.03,.32,.43,.55,.92,.69,1.47,.14,.57,.18,1.11,.09,1.64-.08,.53-.25,1.01-.53,1.45-.28,.44-.63,.82-1.07,1.14-.44,.31-.95,.55-1.53,.69-.57,.14-1.12,.18-1.66,.11-.55-.07-1.04-.23-1.49-.49-.45-.25-.84-.6-1.15-1.03-.32-.42-.56-.92-.7-1.48Zm1.39-.35c.09,.36,.23,.66,.44,.93s.46,.47,.75,.62,.62,.25,.97,.29,.72,.02,1.09-.08c.38-.1,.71-.24,1.01-.45s.53-.44,.71-.72c.19-.27,.31-.58,.36-.9,.06-.33,.04-.67-.05-1.03s-.23-.65-.44-.93c-.21-.26-.45-.47-.74-.62s-.62-.25-.97-.29-.71,0-1.1,.09c-.38,.1-.71,.24-1.01,.45-.29,.2-.54,.44-.71,.71-.19,.27-.3,.58-.36,.91s-.04,.67,.05,1.02Z"/><path d="M5.8,153.76l6.32-2.13-.73-2.18,1.31-.44,1.97,5.84-1.31,.44-.76-2.25-6.32,2.13-.48-1.42Z"/><path d="M7.92,159.7l7.42-3.12,2.03,4.86-1.25,.52-1.46-3.5-4.92,2.06,1.48,3.54-1.25,.53-2.05-4.9Zm3.45-.69l1.23-.52,1.54,3.68-1.23,.51-1.54-3.67Z"/><path d="M11.13,167.11l7.16-3.69,1.47,2.87c.27,.52,.43,1.04,.47,1.54,.05,.51,0,1-.18,1.46s-.42,.89-.77,1.28c-.35,.38-.8,.71-1.33,.99-.54,.27-1.05,.45-1.58,.51-.52,.07-1.02,.04-1.49-.1-.47-.14-.9-.37-1.29-.71-.38-.33-.71-.76-.98-1.28l-1.48-2.87Zm1.72,.8l.14-.21,.83,1.59c.17,.34,.38,.61,.62,.81s.51,.35,.81,.43,.62,.09,.96,.04c.34-.06,.69-.18,1.05-.36s.65-.4,.9-.64,.41-.52,.52-.81,.16-.6,.13-.91c-.02-.32-.12-.64-.29-.98l-.84-1.62,.24,.04-5.07,2.62Z"/><path d="M17.92,179.22l1.1-.73,.73,1.1,4.49-3.01-.73-1.1,1.09-.73,2.3,3.44-1.1,.74-.73-1.1-4.49,3.01,.73,1.1-1.09,.73-2.3-3.45Z"/><path d="M21.54,184.57l6.36-4.93,.83,1.06-2.11,7.55-.2-.18c.16-.16,.31-.31,.48-.47s.33-.32,.52-.49,.38-.33,.59-.51c.21-.17,.42-.35,.64-.54,.23-.19,.48-.38,.73-.59l1.91-1.48,.91,1.17-6.36,4.94-.84-1.08,2.01-7.51,.25,.2c-.32,.29-.59,.54-.81,.74-.22,.21-.42,.39-.58,.54-.17,.15-.3,.26-.41,.36s-.21,.19-.3,.26c-.09,.08-.18,.15-.26,.21l-2.46,1.9-.91-1.17Z"/><path d="M33.29,198.37c-.41-.41-.71-.86-.92-1.35-.2-.5-.3-1-.29-1.52,0-.52,.11-1.03,.32-1.52,.21-.51,.54-.97,.96-1.4,.42-.42,.88-.74,1.38-.96,.5-.22,1.01-.33,1.52-.34s1.03,.09,1.52,.28,.95,.5,1.36,.91,.72,.86,.92,1.35c.21,.5,.3,1,.29,1.52,0,.52-.12,1.03-.33,1.52-.21,.5-.53,.96-.95,1.39-.41,.42-.87,.73-1.37,.96-.5,.21-1.01,.33-1.52,.34-.53,.02-1.04-.08-1.52-.27-.5-.2-.95-.5-1.37-.91Zm1.01-1.02c.26,.25,.55,.45,.86,.57,.3,.12,.62,.17,.96,.15,.34-.02,.66-.11,.99-.25s.62-.35,.9-.63c.27-.27,.48-.58,.62-.9,.14-.32,.22-.65,.23-.99,.02-.33-.03-.65-.15-.97-.13-.3-.31-.59-.58-.85s-.54-.44-.85-.56-.63-.18-.97-.16-.65,.1-.98,.25c-.32,.15-.62,.36-.9,.64s-.49,.58-.63,.9-.22,.65-.24,.99c0,.32,.04,.64,.17,.96,.12,.31,.31,.6,.57,.85Z"/><path d="M40.28,204.67c-.49-.41-.84-.88-1.04-1.41s-.26-1.06-.18-1.62c.09-.55,.32-1.05,.71-1.52l3.19-3.81,1.15,.97-3.12,3.73c-.23,.27-.37,.58-.43,.9-.05,.32-.03,.63,.08,.94,.1,.3,.27,.57,.53,.77,.26,.22,.57,.36,.89,.42,.32,.05,.64,.02,.95-.09,.31-.11,.58-.3,.81-.58l3.12-3.73,1.1,.94-3.18,3.81c-.39,.46-.85,.78-1.38,.97s-1.07,.21-1.63,.11c-.56-.12-1.08-.37-1.57-.79Z"/><path d="M45.28,208.59l4.64-6.57,2.86,2.01c.39,.28,.68,.62,.88,1.04,.2,.41,.28,.85,.24,1.3-.03,.45-.19,.87-.47,1.27-.26,.37-.61,.65-1.02,.83-.41,.19-.85,.25-1.3,.21-.46-.04-.88-.21-1.28-.49l-1.67-1.17-1.7,2.41-1.19-.84Zm3.64-2.64l1.67,1.18c.19,.13,.37,.21,.57,.21s.38-.04,.57-.14c.18-.1,.33-.23,.46-.41,.15-.21,.22-.42,.24-.63,0-.22-.04-.43-.15-.64-.11-.21-.27-.38-.49-.54l-1.46-1.04-1.42,2Zm.17,5.33l.43-4.15,1.43,.65-.41,4.52-1.45-1.03Z"/><path d="M56.45,215.91l3.87-7.06,1.31,.71-3.2,5.86,3.26,1.78-.66,1.21-4.57-2.5Z"/><path d="M62.02,218.96l6.22-6.01,1.27,.59-.53,8.61-1.41-.64,.34-4.88c0-.1,.02-.25,.04-.46s.05-.43,.08-.68c.03-.24,.06-.47,.09-.67,.03-.21,.05-.37,.06-.46l.26,.11c-.11,.12-.22,.25-.36,.4s-.28,.3-.43,.46c-.15,.17-.29,.31-.43,.46s-.26,.28-.38,.4l-3.47,3.41-1.36-.62Zm2.07-1.07l1.01-.97,3.34,1.53-.04,1.41-4.31-1.97Z"/><path d="M70.73,222.87l2.74-7.57,1.27,.46,2.25,7.5-.25-.04c.04-.21,.09-.43,.15-.65,.06-.21,.12-.45,.19-.68,.06-.23,.14-.48,.21-.74,.08-.25,.17-.52,.26-.8,.09-.28,.2-.58,.31-.89l.82-2.27,1.4,.51-2.74,7.57-1.29-.47-2.29-7.43,.3,.03c-.11,.42-.21,.77-.28,1.06s-.15,.55-.21,.76c-.06,.21-.11,.38-.15,.53-.04,.14-.08,.26-.12,.38-.04,.11-.07,.21-.11,.31l-1.06,2.94-1.4-.51Z"/><path d="M80.39,226.2l2.06-7.78,3.12,.83c.56,.15,1.04,.37,1.46,.67,.4,.31,.72,.68,.97,1.11,.23,.44,.38,.92,.43,1.44s0,1.07-.16,1.65c-.16,.58-.38,1.08-.68,1.51s-.65,.78-1.07,1.04c-.42,.26-.88,.42-1.39,.49-.51,.06-1.04,.02-1.61-.13l-3.12-.83Zm1.75-.74l-.06-.23,1.74,.46c.36,.09,.7,.12,1.02,.08,.31-.05,.61-.16,.86-.32,.26-.18,.49-.4,.67-.68,.19-.29,.33-.63,.44-1.03,.1-.39,.14-.76,.12-1.1s-.1-.65-.24-.93-.34-.51-.6-.7-.56-.33-.92-.43l-1.77-.47,.2-.15-1.46,5.51Z"/><path d="M89.01,230.51l-.35-.64c.31-.1,.57-.22,.78-.39,.21-.17,.32-.32,.35-.46,.02-.08,0-.16,0-.23s-.08-.19-.18-.33c-.14-.18-.21-.32-.24-.44s-.04-.23,0-.36c.04-.2,.15-.34,.31-.43,.17-.1,.36-.12,.59-.07,.21,.04,.37,.13,.51,.27,.15,.15,.23,.33,.28,.55,.06,.21,.05,.46,0,.72-.05,.22-.13,.45-.25,.65s-.28,.39-.46,.55c-.19,.16-.39,.29-.62,.4-.21,.11-.45,.18-.7,.21Z"/><path d="M101.42,230.33c-.61-.06-1.15-.21-1.64-.48-.49-.25-.91-.6-1.25-1.01s-.59-.88-.74-1.4-.21-1.07-.15-1.66c.05-.58,.21-1.11,.47-1.59,.26-.48,.6-.88,1.02-1.21s.9-.58,1.43-.73c.54-.16,1.1-.21,1.7-.15,.42,.04,.82,.14,1.2,.29,.37,.15,.71,.34,1.01,.58,.29,.24,.53,.5,.7,.78l-1.04,.89c-.2-.22-.39-.42-.61-.58-.21-.17-.44-.29-.67-.39s-.48-.17-.74-.2c-.38-.03-.74,0-1.07,.11-.34,.11-.64,.26-.91,.49s-.48,.49-.65,.8c-.17,.31-.27,.66-.31,1.05-.03,.38,0,.74,.11,1.08,.11,.35,.28,.66,.51,.95,.22,.27,.5,.5,.82,.67,.31,.18,.66,.27,1.04,.31,.28,.03,.55,0,.8-.05s.48-.16,.68-.28,.37-.29,.5-.48c.12-.19,.2-.4,.21-.62l.03-.25,.18,.26-2.36-.23,.13-1.33,3.62,.36c0,.08,0,.18,0,.28,0,.1,0,.21,0,.29,0,.1,0,.19-.02,.25-.05,.52-.19,1-.42,1.41-.22,.41-.52,.76-.88,1.04-.36,.28-.77,.49-1.23,.62-.45,.13-.94,.17-1.45,.12Z"/><path d="M107.68,230.68l.13-8.05,3.5,.05c.49,0,.92,.13,1.32,.36,.39,.23,.7,.55,.94,.94,.22,.39,.33,.83,.32,1.31,0,.46-.13,.88-.37,1.27-.23,.38-.56,.68-.96,.9-.4,.22-.84,.33-1.33,.32l-2.04-.03-.05,2.95-1.46-.02Zm1.52-4.23l2.05,.03c.22,0,.42-.05,.59-.15s.29-.24,.39-.43c.1-.18,.15-.38,.15-.61,0-.25-.05-.47-.17-.65-.11-.19-.26-.33-.47-.45-.21-.11-.45-.17-.71-.17l-1.79-.03-.04,2.45Zm3.14,4.3l-1.99-3.66,1.55-.26,2.21,3.97-1.77-.05Z"/><path d="M120.13,230.58c-.57,.04-1.11-.02-1.61-.2-.51-.18-.96-.43-1.34-.78-.39-.34-.7-.76-.94-1.25s-.37-1.04-.42-1.63c-.04-.6,.02-1.15,.19-1.67,.17-.53,.42-.98,.75-1.38,.34-.4,.74-.71,1.22-.96,.48-.23,1-.38,1.57-.42s1.12,.03,1.63,.2c.5,.18,.95,.44,1.33,.78,.39,.35,.7,.77,.93,1.26,.23,.49,.38,1.03,.42,1.62s-.02,1.14-.2,1.67c-.16,.52-.41,.98-.73,1.38-.33,.4-.74,.71-1.21,.96-.48,.24-1.01,.38-1.59,.42Zm-.1-1.42c.37-.03,.69-.12,.99-.27s.55-.36,.75-.63c.21-.26,.35-.56,.46-.9s.15-.7,.12-1.09-.12-.74-.26-1.06c-.16-.32-.35-.6-.59-.83-.24-.23-.52-.4-.83-.52-.31-.11-.64-.16-1.02-.13-.36,.02-.68,.12-.99,.26-.29,.16-.55,.37-.75,.62-.21,.26-.35,.57-.45,.9-.1,.34-.14,.7-.11,1.1,.03,.39,.11,.74,.25,1.07,.15,.32,.34,.6,.58,.83,.24,.22,.52,.4,.83,.51,.32,.12,.65,.16,1.02,.14Z"/><path d="M128.39,229.62l-3.84-7.51,1.54-.26,2.21,4.44c.07,.14,.14,.28,.21,.45s.14,.33,.2,.5,.11,.32,.16,.46,.1,.25,.14,.35l-.31,.04c.03-.37,.05-.67,.07-.9,0-.22,.03-.42,.05-.58,0-.16,.03-.29,.06-.43l.74-3.65,1.26-.22,1.89,3.2c.11,.2,.21,.39,.31,.57,.09,.19,.18,.37,.24,.55,.08,.18,.15,.36,.22,.55l-.26,.11c0-.19,0-.34,0-.46,0-.11,0-.21,0-.31v-.27c0-.09,0-.2,.02-.33,0-.13,.03-.29,.05-.5l.6-4.9,1.52-.26-1.11,8.36-1.06,.19-2.85-4.48,.15,.03-1.09,5.11-1.07,.19Z"/><path d="M138.56,227.65l-.33-1.28,1.28-.33-1.36-5.22-1.29,.33-.33-1.28,4.01-1.04,.33,1.28-1.28,.33,1.36,5.23,1.28-.34,.33,1.28-4,1.04Z"/><path d="M145.16,225.87l-2.61-7.62,1.28-.43,6.45,4.44-.22,.12c-.1-.19-.2-.39-.28-.6-.1-.21-.2-.42-.29-.64-.1-.23-.2-.47-.29-.72-.1-.24-.2-.51-.3-.79-.1-.27-.21-.57-.31-.88l-.78-2.29,1.41-.48,2.6,7.62-1.29,.44-6.45-4.35,.25-.18c.18,.4,.32,.73,.45,1.01,.13,.28,.22,.52,.31,.72s.16,.37,.21,.51c.06,.13,.11,.25,.15,.36,.05,.12,.09,.22,.12,.32l1.01,2.95-1.4,.48Z"/><path d="M157.85,221.17c-.55,.24-1.1,.38-1.66,.39-.56,.02-1.08-.07-1.58-.26-.5-.19-.95-.47-1.34-.84-.39-.38-.7-.84-.95-1.38-.23-.53-.36-1.07-.37-1.61,0-.55,.09-1.06,.28-1.56,.21-.5,.5-.95,.89-1.34,.39-.4,.86-.72,1.41-.97,.38-.17,.78-.28,1.18-.33,.4-.06,.79-.05,1.16,0s.7,.18,1,.32l-.46,1.29c-.28-.1-.55-.17-.81-.21-.26-.03-.53-.04-.78,0s-.5,.1-.74,.21c-.35,.16-.64,.36-.89,.62-.23,.26-.42,.56-.55,.88-.12,.32-.18,.65-.17,1.02s.09,.71,.24,1.07c.16,.34,.36,.63,.63,.89,.26,.25,.57,.44,.9,.57,.33,.14,.68,.2,1.04,.19,.36,0,.71-.08,1.05-.23,.26-.12,.49-.25,.67-.44,.2-.18,.34-.37,.46-.59s.18-.43,.2-.65c0-.22-.03-.44-.12-.65l-.11-.22,.29,.14-2.18,.96-.55-1.22,3.34-1.47c.05,.08,.1,.16,.15,.24,.05,.1,.09,.19,.14,.27,.04,.08,.08,.16,.1,.21,.21,.49,.33,.97,.33,1.44,0,.47-.08,.92-.25,1.34s-.43,.8-.76,1.14c-.33,.33-.74,.61-1.21,.81Z"/><path d="M170.36,214.62c-.5,.3-1.01,.49-1.53,.57s-1.04,.05-1.54-.08-.98-.36-1.41-.68c-.43-.33-.81-.75-1.11-1.26-.31-.52-.52-1.04-.61-1.57-.1-.54-.08-1.05,.04-1.56s.33-.98,.64-1.42c.31-.43,.71-.79,1.2-1.09,.5-.3,1.02-.49,1.54-.57s1.04-.05,1.54,.09c.5,.13,.97,.36,1.4,.68s.8,.74,1.11,1.26c.31,.5,.51,1.03,.6,1.55,.1,.54,.09,1.06-.03,1.57-.11,.51-.32,.98-.63,1.41s-.71,.8-1.21,1.1Zm-.74-1.22c.31-.19,.57-.42,.75-.69,.2-.27,.31-.58,.38-.9,.06-.33,.06-.66,0-1.02-.06-.35-.2-.68-.4-1.03-.2-.33-.44-.61-.72-.82-.27-.21-.58-.37-.9-.47-.31-.1-.64-.13-.97-.09-.33,.05-.65,.17-.97,.35-.3,.19-.56,.42-.75,.69s-.32,.58-.38,.9-.06,.66,0,1.01c.06,.34,.2,.68,.41,1.03,.2,.34,.44,.62,.71,.84,.28,.21,.58,.37,.9,.47,.31,.1,.64,.12,.98,.08,.33-.05,.64-.17,.96-.35Z"/><path d="M178.2,209.35c-.52,.38-1.05,.61-1.61,.67-.57,.08-1.1,0-1.62-.21s-.95-.57-1.31-1.06l-2.93-4.01,1.22-.89,2.87,3.94c.21,.29,.46,.5,.76,.62,.29,.14,.61,.19,.93,.16s.62-.14,.88-.32c.28-.21,.49-.46,.62-.77,.14-.3,.19-.62,.15-.94-.03-.32-.15-.62-.36-.92l-2.87-3.94,1.17-.85,2.93,4.01c.36,.49,.56,1.02,.62,1.57,.05,.56-.05,1.08-.29,1.6s-.62,.96-1.14,1.34Z"/><path d="M183.19,205.46l-5.26-6.09,2.65-2.29c.36-.32,.77-.52,1.22-.61,.45-.1,.89-.07,1.32,.07,.43,.15,.8,.4,1.12,.76,.3,.35,.49,.74,.57,1.19,.07,.45,.04,.88-.12,1.31-.15,.43-.41,.81-.78,1.13l-1.54,1.33,1.93,2.24-1.1,.96Zm-1.68-4.18l1.55-1.34c.17-.15,.28-.31,.33-.5,.06-.19,.07-.38,0-.58-.05-.2-.15-.38-.29-.55-.17-.2-.35-.32-.56-.39-.21-.06-.42-.07-.65,0-.22,.05-.44,.17-.64,.34l-1.35,1.16,1.6,1.86Zm5.21,1.12l-3.93-1.41,.98-1.23,4.3,1.48-1.35,1.15Z"/><path d="M195.47,193.84c-.39,.43-.83,.75-1.3,.98s-.97,.34-1.47,.35c-.52,0-1.03-.09-1.53-.28-.51-.21-.99-.51-1.44-.91-.43-.4-.76-.84-.99-1.33-.23-.49-.36-1-.39-1.52-.03-.52,.05-1.04,.22-1.53,.18-.51,.46-.97,.84-1.4,.26-.28,.57-.53,.9-.72s.67-.33,1.04-.43c.36-.09,.7-.12,1.04-.09l.13,1.41c-.28,0-.56,.05-.8,.11s-.47,.15-.68,.26c-.21,.12-.38,.26-.55,.44-.23,.26-.41,.56-.53,.87-.11,.32-.16,.64-.13,.97,.02,.33,.11,.64,.26,.97,.15,.31,.37,.61,.66,.88,.3,.27,.62,.47,.95,.6,.33,.14,.66,.19,1,.18s.65-.1,.97-.25,.61-.37,.86-.66c.18-.19,.31-.39,.42-.62,.12-.22,.19-.45,.23-.68,.04-.23,.06-.47,.05-.71l1.37,.25c.03,.27,0,.59-.08,.93-.08,.34-.21,.68-.4,1.03s-.4,.65-.65,.94Z"/><path d="M201.05,187.17c-.35,.46-.76,.81-1.22,1.07-.47,.26-.96,.43-1.47,.49s-1.04,0-1.55-.14c-.53-.15-1.03-.41-1.49-.77-.48-.37-.85-.78-1.13-1.25-.27-.47-.45-.96-.53-1.47-.07-.52-.04-1.04,.1-1.54,.14-.52,.38-1.01,.73-1.46,.35-.47,.76-.83,1.23-1.08,.46-.26,.95-.43,1.46-.48,.52-.06,1.04,0,1.56,.14,.52,.15,1.02,.41,1.48,.77s.84,.77,1.12,1.24c.27,.47,.46,.96,.54,1.47,.07,.52,.05,1.03-.09,1.54s-.38,1.01-.74,1.46Zm-1.13-.87c.22-.29,.38-.6,.46-.92s.09-.65,.03-.98c-.07-.33-.19-.64-.37-.95s-.43-.58-.74-.81c-.3-.23-.63-.41-.97-.51-.34-.11-.67-.14-1.01-.12s-.64,.12-.94,.27-.56,.38-.78,.67c-.21,.28-.36,.59-.45,.92-.08,.32-.09,.64-.03,.98,.06,.32,.18,.63,.36,.93,.19,.3,.44,.58,.75,.82,.31,.23,.63,.41,.98,.52s.67,.15,1.01,.12,.64-.12,.94-.28c.29-.16,.55-.38,.76-.66Z"/><path d="M205.04,181.55l-6.82-4.28,.75-1.2,5.61,.06-.46,.69-2.45-5.05,.72-1.13,6.82,4.28-.79,1.26-2.56-1.61c-.59-.36-1.1-.71-1.55-1.04s-.88-.66-1.3-1.03l.52,.11,1.93,4.16-.4,.64-4.52,.02-.36-.42c.48,.2,.96,.43,1.44,.68,.47,.26,1.03,.59,1.65,.99l2.57,1.61-.79,1.25Z"/><path d="M210.68,172.32l-7.21-3.6,.63-1.27,5.59-.48-.38,.73-2.93-4.79,.61-1.2,7.2,3.6-.66,1.33-2.71-1.36c-.62-.31-1.17-.61-1.65-.88-.47-.28-.94-.58-1.39-.9l.53,.06,2.32,3.96-.34,.68-4.49,.45-.4-.38c.5,.16,1,.33,1.49,.55s1.08,.48,1.75,.82l2.71,1.35-.66,1.33Z"/><path d="M216.65,159.5c-.23,.6-.57,1.07-1.01,1.44-.43,.37-.92,.6-1.47,.69-.55,.09-1.1,.03-1.67-.2l-4.63-1.81,.55-1.4,4.53,1.77c.33,.13,.66,.17,.99,.12s.61-.18,.87-.37c.25-.2,.44-.44,.56-.74,.13-.33,.17-.65,.12-.99-.06-.32-.19-.62-.38-.87-.21-.25-.47-.45-.81-.58l-4.53-1.77,.53-1.36,4.63,1.82c.57,.21,1.02,.55,1.36,.99,.34,.45,.55,.95,.62,1.51,.07,.56,0,1.14-.24,1.74Z"/><path d="M218.75,153.6l-7.72-2.27,.38-1.29,7.34-2.71-.03,.25c-.21-.03-.43-.07-.65-.11s-.46-.09-.69-.14c-.24-.05-.5-.11-.75-.18-.26-.06-.54-.13-.82-.21-.29-.08-.59-.16-.91-.25l-2.31-.67,.42-1.43,7.72,2.26-.39,1.32-7.27,2.76v-.31c.43,.09,.79,.16,1.09,.21,.29,.06,.55,.12,.76,.16,.21,.05,.4,.09,.54,.12,.15,.03,.27,.06,.39,.09s.22,.06,.32,.09l3,.88-.42,1.43Z"/><path d="M221.38,144.01l-1.3-.27,.27-1.3-5.28-1.11-.27,1.29-1.3-.27,.86-4.04,1.29,.27-.27,1.29,5.29,1.12,.27-1.3,1.29,.27-.85,4.05Z"/><path d="M222.93,135.87l-6.6-.96-.33,2.27-1.37-.2,.9-6.1,1.36,.2-.34,2.34,6.6,.97-.21,1.47Z"/><path d="M223.88,127.63l-4-.29,.57-.04-4.82,2.92,.13-1.74,3.74-2.22-.08,.54-3.36-2.49,.13-1.67,4.48,3.45-.76-.23,4.09,.3-.11,1.49Z"/></g><g><path d="M16.71,83.53c-.4,1.14-.98,2.12-1.7,2.93-.73,.81-1.58,1.43-2.57,1.87-.98,.43-2.03,.66-3.17,.69-1.13,.03-2.3-.17-3.5-.59-1.14-.41-2.13-.99-2.97-1.74-.83-.76-1.49-1.63-1.97-2.62s-.75-2.03-.82-3.14c-.06-1.11,.11-2.23,.51-3.36,.27-.77,.65-1.47,1.13-2.11,.49-.64,1.04-1.2,1.65-1.66,.62-.46,1.26-.8,1.93-1.02l1.39,2.61c-.55,.24-1.04,.53-1.46,.84-.43,.31-.79,.67-1.09,1.06-.3,.4-.54,.83-.7,1.29-.24,.69-.35,1.39-.31,2.09,.04,.7,.21,1.36,.53,1.97,.3,.61,.73,1.16,1.28,1.64,.56,.48,1.22,.86,2,1.15,.8,.28,1.57,.42,2.3,.4,.74-.01,1.43-.17,2.05-.46,.63-.3,1.18-.72,1.66-1.27s.85-1.22,1.12-1.98c.19-.5,.28-1.01,.31-1.52,.03-.52,0-1.02-.11-1.51s-.27-.96-.49-1.41l2.85-.62c.27,.5,.47,1.12,.59,1.84,.12,.72,.14,1.48,.07,2.3-.08,.82-.25,1.59-.52,2.33Z"/><path d="M24.09,67.84c-.6,1.04-1.35,1.89-2.23,2.56-.89,.67-1.87,1.14-2.91,1.41-1.05,.27-2.14,.32-3.26,.15s-2.23-.57-3.31-1.19c-1.07-.62-1.97-1.38-2.68-2.27s-1.2-1.86-1.49-2.91-.36-2.12-.22-3.22,.51-2.17,1.11-3.21c.61-1.05,1.36-1.91,2.24-2.58,.89-.67,1.87-1.13,2.92-1.39s2.14-.3,3.25-.14c1.11,.17,2.22,.56,3.29,1.19,1.07,.62,1.95,1.37,2.67,2.26,.7,.89,1.2,1.86,1.5,2.9s.38,2.11,.24,3.22-.51,2.18-1.12,3.23Zm-2.58-1.49c.39-.66,.62-1.34,.69-2.03,.08-.69,0-1.36-.21-2.03s-.56-1.28-1.03-1.86c-.46-.57-1.04-1.06-1.75-1.47s-1.43-.67-2.15-.79c-.73-.11-1.44-.1-2.12,.04s-1.3,.42-1.87,.82c-.56,.41-1.03,.94-1.42,1.61-.37,.65-.61,1.32-.68,2.02-.08,.69,0,1.37,.21,2.03,.21,.66,.55,1.27,1.02,1.84s1.05,1.06,1.78,1.47c.7,.41,1.43,.68,2.16,.81s1.44,.12,2.11-.03c.67-.14,1.29-.42,1.86-.83s1.04-.95,1.41-1.6Z"/><path d="M30.72,57.1l-12.76-10.92,4.75-5.54c.65-.77,1.43-1.31,2.33-1.64,.9-.32,1.81-.41,2.74-.25,.93,.16,1.78,.56,2.54,1.22,.73,.62,1.25,1.38,1.54,2.28,.29,.89,.36,1.81,.18,2.74-.18,.93-.6,1.79-1.26,2.56l-2.76,3.23,4.69,4.01-1.98,2.31Zm-4.77-8.09l2.77-3.24c.3-.36,.49-.73,.55-1.13s0-.8-.17-1.2c-.17-.4-.42-.75-.77-1.04-.4-.35-.83-.55-1.28-.62-.45-.06-.9,0-1.35,.18s-.86,.49-1.22,.91l-2.42,2.83,3.89,3.32Zm11.1,.69l-8.54-1.68,1.64-2.84,9.33,1.73-2.42,2.79Z"/><path d="M44.46,42.48l-9.08-10.55-3.63,3.13-1.88-2.18,9.75-8.39,1.88,2.18-3.75,3.22,9.08,10.55-2.36,2.04Z"/><path d="M53.57,35.14l-8.97-14.2,2.64-1.67,7.44,11.76,6.55-4.15,1.53,2.44-9.19,5.81Z"/><path d="M64.6,28.15l-.62-18.02,2.69-1.16,12.62,12.86-2.98,1.28-7.08-7.35c-.15-.15-.37-.38-.65-.71-.29-.33-.61-.69-.95-1.07-.34-.38-.65-.75-.94-1.08s-.5-.59-.62-.74l.54-.26c.04,.33,.08,.71,.12,1.13,.04,.42,.08,.85,.12,1.31,.04,.45,.08,.89,.11,1.31,.04,.42,.06,.8,.09,1.14l.44,10.13-2.87,1.24Zm1.22-4.7l-.08-2.92,7.03-3.03,2.13,2.04-9.08,3.91Z"/><path d="M82.36,20.9l-3.73-16.38,2.73-.62,12.41,10.64-.49,.21c-.17-.42-.32-.86-.47-1.31-.16-.45-.3-.92-.46-1.41-.16-.49-.3-1.01-.45-1.54-.15-.54-.3-1.11-.45-1.71-.16-.6-.3-1.23-.46-1.9l-1.12-4.92,3.03-.69,3.72,16.38-2.78,.63-12.41-10.44,.57-.3c.27,.85,.51,1.59,.7,2.19,.2,.61,.36,1.13,.5,1.56,.13,.44,.24,.8,.33,1.09s.17,.56,.23,.8c.06,.24,.12,.47,.17,.69l1.45,6.34-3.02,.68Z"/><path d="M102.11,17.01L101.58,.22,108.32,0c1.21-.04,2.32,.13,3.32,.49,1,.37,1.86,.92,2.6,1.65,.73,.73,1.31,1.6,1.71,2.61,.41,1.02,.63,2.14,.67,3.39,.04,1.25-.11,2.39-.46,3.44-.34,1.04-.85,1.95-1.53,2.71-.67,.77-1.5,1.36-2.49,1.8-.98,.43-2.07,.66-3.29,.7l-6.74,.21Zm3.05-2.52l-.25-.45,3.74-.12c.78-.02,1.47-.18,2.08-.45,.62-.28,1.12-.66,1.54-1.15,.41-.49,.72-1.08,.93-1.77s.29-1.46,.26-2.3c-.03-.85-.17-1.61-.41-2.28s-.6-1.25-1.05-1.71c-.45-.46-.99-.82-1.6-1.05-.62-.23-1.32-.34-2.1-.32l-3.81,.12,.29-.42,.38,11.9Z"/><path d="M130.98,18.21l4.18-16.27,3.03,.78-4.19,16.27-3.02-.78Zm2.98-6.37l.72-2.83,10.64,2.74-.72,2.83-10.64-2.74Zm7.45,9.06l4.19-16.27,3.03,.78-4.19,16.27-3.03-.78Z"/><path d="M147.5,22.67l12.97-12.53,2.66,1.22-1.1,17.98-2.95-1.35,.72-10.19c0-.21,.04-.53,.09-.96s.1-.91,.16-1.42c.06-.51,.13-.99,.19-1.43s.1-.76,.13-.96l.55,.23c-.21,.25-.47,.53-.75,.84-.28,.31-.59,.63-.89,.96-.31,.33-.62,.65-.91,.96s-.56,.58-.79,.83l-7.23,7.11-2.83-1.3Zm4.31-2.25l2.11-2.02,6.96,3.2-.09,2.94-8.98-4.13Z"/><path d="M164.98,31.22l9.53-13.84,6.01,4.14c.83,.57,1.46,1.29,1.88,2.15s.6,1.76,.54,2.71c-.05,.94-.36,1.83-.94,2.66-.55,.79-1.25,1.38-2.11,1.77-.86,.39-1.76,.54-2.71,.46s-1.85-.41-2.69-.99l-3.5-2.41-3.51,5.08-2.51-1.73Zm7.55-5.59l3.52,2.43c.38,.26,.78,.4,1.18,.42,.41,.01,.8-.08,1.17-.29,.38-.21,.7-.5,.97-.88,.29-.43,.46-.88,.48-1.33,.02-.45-.09-.89-.31-1.32-.23-.43-.58-.81-1.04-1.12l-3.07-2.11-2.9,4.21Zm.48,11.11l.78-8.67,2.99,1.33-.74,9.45-3.03-2.11Z"/><path d="M181.98,44.33l6.84-16.76,2.45,2.37-3.99,9.52c-.21,.49-.39,.93-.56,1.31-.18,.39-.32,.73-.47,1.04-.14,.31-.28,.61-.43,.88s-.3,.58-.45,.9l-.49-.46c.38-.23,.76-.46,1.15-.67,.38-.22,.8-.44,1.26-.67,.45-.23,.99-.48,1.59-.77l9.2-4.49,2.47,2.38-16.53,7.39-2.04-1.96Z"/><path d="M190.81,53.51l13.46-10.06,6.58,8.8-2.27,1.7-4.75-6.34-8.92,6.67,4.8,6.42-2.28,1.7-6.64-8.88Zm6.63-3.16l2.23-1.67,4.99,6.67-2.23,1.67-4.99-6.67Z"/><path d="M202.44,71.65c-.45-.86-.75-1.72-.91-2.55-.17-.84-.18-1.67-.04-2.48s.39-1.61,.78-2.39l2.99,.74c-.61,1.2-.91,2.23-.93,3.09s.19,1.7,.62,2.54c.25,.48,.56,.88,.91,1.2,.36,.32,.73,.52,1.11,.61,.38,.09,.74,.04,1.07-.13,.24-.13,.45-.29,.61-.49s.26-.43,.33-.7c.07-.27,.1-.58,.1-.92s-.04-.71-.12-1.1c-.08-.39-.18-.82-.31-1.27-.25-.86-.4-1.65-.44-2.37-.04-.72,.03-1.38,.21-1.98,.18-.6,.47-1.12,.86-1.56,.39-.44,.9-.82,1.52-1.15s1.27-.49,1.93-.49,1.33,.14,1.96,.42,1.22,.68,1.77,1.21,1.02,1.16,1.41,1.9c.43,.83,.72,1.64,.87,2.4s.16,1.5,.03,2.2c-.13,.71-.38,1.37-.76,1.99l-2.76-.88c.29-.51,.49-1.03,.6-1.53,.11-.51,.13-1.01,.06-1.49s-.21-.96-.46-1.42c-.26-.51-.57-.91-.91-1.22-.33-.3-.69-.49-1.06-.57-.37-.07-.74-.01-1.11,.18-.28,.15-.5,.35-.65,.59-.16,.24-.25,.52-.3,.84s-.04,.7,.03,1.14,.17,.91,.31,1.44c.25,.86,.41,1.67,.48,2.43,.06,.76,.03,1.46-.1,2.08-.14,.63-.37,1.18-.71,1.65s-.8,.85-1.37,1.15c-.98,.51-1.93,.72-2.88,.62-.94-.09-1.82-.46-2.64-1.1-.81-.64-1.51-1.52-2.1-2.64Z"/><path d="M208.13,83.89l13.15-4.55-1.56-4.54,2.71-.94,4.2,12.16-2.71,.94-1.62-4.68-13.15,4.55-1.02-2.95Z"/></g><g><path class="cls-7" d="M112.22,31.74c-47.97,0-87,39.03-87,87s39.03,87,87,87,87-39.03,87-87S160.2,31.74,112.22,31.74Zm0,148.5c-33.91,0-61.5-27.59-61.5-61.5s27.59-61.5,61.5-61.5,61.5,27.59,61.5,61.5-27.59,61.5-61.5,61.5Z"/><path d="M112.22,28.74c-49.71,0-90,40.29-90,90s40.29,90,90,90,90-40.29,90-90S161.93,28.74,112.22,28.74Zm0,178.5c-48.8,0-88.5-39.7-88.5-88.5S63.43,30.24,112.22,30.24s88.5,39.7,88.5,88.5-39.7,88.5-88.5,88.5Z"/><path d="M112.22,30.24c-48.8,0-88.5,39.7-88.5,88.5s39.7,88.5,88.5,88.5,88.5-39.7,88.5-88.5S161.02,30.24,112.22,30.24Zm0,175.5c-47.97,0-87-39.03-87-87S64.25,31.74,112.22,31.74s87,39.03,87,87-39.03,87-87,87Z"/><path class="cls-5" d="M88.3,103.21l-24.24-17.61c-3.44,4.99-6.12,10.53-7.89,16.46,9.84,2.19,19.43,5.07,28.73,8.66,.79-2.71,1.94-5.23,3.41-7.51Z"/><path class="cls-3" d="M129.6,134.94c13.18-5.93,26.98-10.45,41.05-13.4,.04-.93,.07-1.87,.07-2.81,0-4.75-.58-9.36-1.66-13.78-19,4.21-37.03,11.1-53.85,20.56,4.9,2.93,9.7,6.07,14.38,9.43Z"/><path class="cls-8" d="M112.22,127.23c-4.85,2.84-9.6,5.9-14.24,9.18,4.84,2.28,9.59,4.75,14.24,7.41,4.65-2.66,9.4-5.13,14.24-7.41-4.64-3.27-9.39-6.34-14.24-9.18Z"/><path class="cls-6" d="M112.22,93.24c-11.56,0-21.46,7.59-24.53,18.6,8.43,3.4,16.62,7.37,24.53,11.92,7.92-4.54,16.11-8.51,24.53-11.92-3.07-11.01-12.97-18.6-24.53-18.6Z"/><path class="cls-2" d="M112.26,157.08c5.17,0,10.36,.1,15.55,.28-5.03-3.61-10.24-6.97-15.59-10.09-5.35,3.12-10.56,6.48-15.6,10.09,5.22-.19,10.43-.28,15.64-.28Z"/><g><path class="cls-3" d="M133.19,157.58c7.13,.34,14.25,.86,21.29,1.54,8.76-9.17,14.59-21.16,15.94-34.46-19.24,4.13-37.94,11.22-55.2,20.88,6.2,3.69,12.2,7.71,17.96,12.04Z"/><path class="cls-3" d="M109.22,145.54c-17.26-9.66-35.96-16.75-55.2-20.88,1.35,13.31,7.18,25.3,15.94,34.46,7.05-.69,14.15-1.2,21.28-1.54,5.76-4.33,11.76-8.35,17.97-12.04Z"/></g><path class="cls-2" d="M72.76,161.88c10.41,9.53,24.27,15.35,39.46,15.35s29.06-5.83,39.47-15.36c-13.04-1.19-26.29-1.8-39.43-1.8s-26.44,.61-39.5,1.8Z"/><path class="cls-5" d="M131.72,63.59l-9.27,28.53c4.7,1.79,8.8,4.78,11.94,8.66l24.24-17.61c-6.83-8.89-16.15-15.77-26.91-19.58Z"/><path class="cls-3" d="M109.23,125.52c-16.82-9.46-34.86-16.35-53.85-20.56-1.07,4.42-1.66,9.03-1.66,13.78,0,.94,.03,1.88,.07,2.81,14.08,2.95,27.88,7.47,41.05,13.4,4.68-3.36,9.48-6.5,14.38-9.43Z"/><path class="cls-5" d="M139.56,110.72c9.3-3.59,18.89-6.48,28.73-8.66-1.77-5.94-4.45-11.48-7.89-16.46l-24.24,17.61c1.47,2.28,2.62,4.8,3.41,7.51Z"/><path class="cls-5" d="M102,92.12l-9.27-28.53c-10.76,3.82-20.08,10.69-26.91,19.58l24.24,17.61c3.13-3.88,7.24-6.87,11.94-8.66Z"/><path class="cls-5" d="M112.22,90.24c2.54,0,5.02,.33,7.37,.95l9.27-28.53c-5.28-1.57-10.86-2.43-16.64-2.43s-11.36,.86-16.64,2.43l9.27,28.53c2.36-.62,4.83-.95,7.37-.95Z"/><g><g><path class="cls-1" d="M158.98,136.36c-3.95-2.74-7.62-5.16-10.73-7.13-1.8,.61-3.59,1.24-5.37,1.9,3.2,2.03,7.02,4.54,11.13,7.39,4.32,3,8.2,5.79,11.35,8.11,.74-1.4,1.42-2.83,2.04-4.3-2.51-1.82-5.35-3.84-8.42-5.97Z"/><path class="cls-1" d="M144.47,146.28c-5.88-4.09-11.14-7.43-14.83-9.7-.08,.04-.15,.07-.23,.11-1.84,.84-3.67,1.7-5.47,2.6,3.56,2.22,8.13,5.18,13.15,8.67,7.43,5.16,13.54,9.7,16.92,12.26,.5,.03,1,.07,1.5,.1,1.15-1.19,2.24-2.44,3.29-3.72-3.49-2.61-8.5-6.27-14.32-10.31Z"/><path class="cls-1" d="M152.19,141.15c-4.99-3.46-9.53-6.4-13.05-8.6-1.85,.73-3.69,1.48-5.51,2.26,3.52,2.2,8,5.1,12.89,8.5,5.88,4.08,10.93,7.78,14.45,10.41,1-1.39,1.93-2.82,2.81-4.29-3.18-2.34-7.15-5.21-11.6-8.29Z"/><path class="cls-1" d="M170.32,128.33c-1.98-1.37-3.89-2.66-5.69-3.86-1.43,.35-2.85,.71-4.27,1.09,1.9,1.26,3.92,2.62,6.01,4.08,1.46,1.02,2.88,2.01,4.23,2.97,.28-1.18,.52-2.37,.73-3.57-.33-.23-.67-.47-1.01-.7Z"/><path class="cls-1" d="M134.69,151.4c-6.04-4.2-11.43-7.61-15.13-9.89-2.47,1.3-4.92,2.65-7.33,4.04,7.11,4.12,13.96,8.64,20.48,13.58,4.56,.15,9.1,.35,13.63,.6-3.19-2.35-7.18-5.23-11.66-8.34Z"/><path class="cls-1" d="M171.78,125.94c.12-1.04,.22-2.08,.29-3.13-1.24,.25-2.48,.52-3.71,.79,1.11,.75,2.25,1.53,3.42,2.34Z"/><path class="cls-1" d="M164.78,131.94c-2.85-1.98-5.55-3.78-8-5.38-1.71,.49-3.4,1.01-5.09,1.54,2.69,1.74,5.7,3.74,8.89,5.96,2.85,1.98,5.51,3.87,7.89,5.59,.51-1.36,.96-2.74,1.37-4.15-1.6-1.14-3.29-2.33-5.06-3.56Z"/></g><g><path class="cls-1" d="M65.46,136.36c3.95-2.74,7.62-5.16,10.73-7.13,1.8,.61,3.59,1.24,5.37,1.9-3.2,2.03-7.02,4.54-11.13,7.39-4.32,3-8.2,5.79-11.35,8.11-.74-1.4-1.42-2.83-2.04-4.3,2.51-1.82,5.35-3.84,8.42-5.97Z"/><path class="cls-1" d="M79.98,146.28c5.88-4.09,11.14-7.43,14.83-9.7,.08,.04,.15,.07,.23,.11,1.84,.84,3.67,1.7,5.47,2.6-3.56,2.22-8.13,5.18-13.15,8.67-7.43,5.16-13.54,9.7-16.92,12.26-.5,.03-1,.07-1.5,.1-1.15-1.19-2.24-2.44-3.29-3.72,3.49-2.61,8.5-6.27,14.32-10.31Z"/><path class="cls-1" d="M72.26,141.15c4.99-3.46,9.53-6.4,13.05-8.6,1.85,.73,3.69,1.48,5.51,2.26-3.52,2.2-8,5.1-12.89,8.5-5.88,4.08-10.93,7.78-14.45,10.41-1-1.39-1.93-2.82-2.81-4.29,3.18-2.34,7.15-5.21,11.6-8.29Z"/><path class="cls-1" d="M54.13,128.33c1.98-1.37,3.89-2.66,5.69-3.86,1.43,.35,2.85,.71,4.27,1.09-1.9,1.26-3.92,2.62-6.01,4.08-1.46,1.02-2.88,2.01-4.23,2.97-.28-1.18-.52-2.37-.73-3.57,.33-.23,.67-.47,1.01-.7Z"/><path class="cls-1" d="M89.76,151.4c6.04-4.2,11.43-7.61,15.13-9.89,2.47,1.3,4.92,2.65,7.33,4.04-7.11,4.12-13.96,8.64-20.48,13.58-4.56,.15-9.1,.35-13.63,.6,3.19-2.35,7.18-5.23,11.66-8.34Z"/><path class="cls-1" d="M52.66,125.94c-.12-1.04-.22-2.08-.29-3.13,1.24,.25,2.48,.52,3.71,.79-1.11,.75-2.25,1.53-3.42,2.34Z"/><path class="cls-1" d="M59.67,131.94c2.85-1.98,5.55-3.78,8-5.38,1.71,.49,3.4,1.01,5.09,1.54-2.69,1.74-5.7,3.74-8.89,5.96-2.85,1.98-5.51,3.87-7.89,5.59-.51-1.36-.96-2.74-1.37-4.15,1.6-1.14,3.29-2.33,5.06-3.56Z"/></g></g><g><path class="cls-4" d="M147.23,159.82v7.71c2.97-2.14,5.74-4.55,8.27-7.18-2.75-.2-5.51-.37-8.27-.53Z"/><path class="cls-4" d="M99.23,177.4c3.24,.72,6.58,1.17,10,1.34v-19.92c-3.34,.02-6.67,.06-10,.14v18.44Z"/><path class="cls-4" d="M131.23,175.73c3.49-1.17,6.83-2.64,10-4.4v-11.83c-2.84-.13-5.68-.25-8.52-.34-.49-.02-.98-.03-1.48-.05v16.62Z"/><path class="cls-4" d="M125.23,158.95c-3.33-.07-6.66-.12-10-.14v19.92c3.42-.17,6.76-.62,10-1.34v-18.44Z"/><path class="cls-4" d="M82.23,170.77c3.46,2.01,7.14,3.67,11,4.96v-16.62c-.49,.02-.98,.03-1.47,.05-3.18,.11-6.36,.24-9.53,.39v11.22Z"/><path class="cls-4" d="M76.23,159.87c-2.43,.14-4.86,.3-7.28,.47,2.25,2.34,4.68,4.5,7.28,6.45v-6.93Z"/></g><path d="M112.22,57.24c-33.91,0-61.5,27.59-61.5,61.5s27.59,61.5,61.5,61.5,61.5-27.59,61.5-61.5-27.59-61.5-61.5-61.5Zm0,3c5.78,0,11.36,.86,16.64,2.43l-9.27,28.53c-2.36-.62-4.83-.95-7.37-.95s-5.02,.33-7.37,.95l-9.27-28.53c5.28-1.57,10.86-2.43,16.64-2.43Zm0,83.57c-4.65-2.66-9.4-5.13-14.24-7.41,4.64-3.27,9.39-6.34,14.24-9.18,4.85,2.84,9.6,5.9,14.24,9.18-4.84,2.28-9.59,4.75-14.24,7.41Zm0,3.46c5.35,3.12,10.56,6.48,15.59,10.09-5.19-.18-10.38-.28-15.55-.28s-10.42,.1-15.64,.28c5.03-3.61,10.24-6.97,15.6-10.09Zm-24.53-35.43c3.07-11.01,12.97-18.6,24.53-18.6s21.46,7.59,24.53,18.6c-8.43,3.4-16.62,7.37-24.53,11.92-7.92-4.54-16.11-8.51-24.53-11.92Zm5.04-48.25l9.27,28.53c-4.7,1.79-8.8,4.78-11.94,8.66l-24.24-17.61c6.83-8.89,16.15-15.77,26.91-19.58Zm-28.67,22l24.24,17.61c-1.47,2.28-2.62,4.8-3.41,7.51-9.3-3.59-18.89-6.48-28.73-8.66,1.77-5.94,4.45-11.48,7.89-16.46Zm-10.33,33.14c0-4.75,.58-9.36,1.66-13.78,19,4.21,37.03,11.1,53.85,20.56-4.9,2.93-9.7,6.07-14.38,9.43-13.18-5.93-26.98-10.45-41.05-13.4-.04-.93-.07-1.87-.07-2.81Zm.3,5.93c19.24,4.13,37.94,11.22,55.2,20.88-6.2,3.69-12.21,7.71-17.97,12.04-7.13,.34-14.24,.86-21.28,1.54-8.77-9.17-14.6-21.16-15.94-34.46Zm58.2,52.57c-15.19,0-29.05-5.83-39.46-15.35,13.07-1.19,26.34-1.8,39.5-1.8s26.39,.61,39.43,1.8c-10.41,9.53-24.27,15.36-39.47,15.36Zm42.26-18.12c-7.05-.68-14.16-1.2-21.29-1.54-5.76-4.33-11.76-8.35-17.96-12.04,17.26-9.66,35.96-16.75,55.2-20.88-1.34,13.3-7.18,25.29-15.94,34.46Zm16.24-40.38c0,.94-.03,1.88-.07,2.81-14.08,2.95-27.87,7.47-41.05,13.4-4.68-3.36-9.48-6.5-14.38-9.43,16.82-9.46,34.86-16.35,53.85-20.56,1.07,4.42,1.66,9.03,1.66,13.78Zm-2.44-16.68c-9.84,2.19-19.43,5.07-28.73,8.66-.79-2.71-1.94-5.23-3.41-7.51l24.24-17.61c3.44,4.99,6.12,10.53,7.89,16.46Zm-33.9-1.27c-3.13-3.88-7.24-6.87-11.94-8.66l9.27-28.53c10.76,3.82,20.08,10.69,26.91,19.58l-24.24,17.61Z"/></g></g></g></svg>