<?xml version="1.0" encoding="UTF-8"?><svg id="Layer_2" xmlns="http://www.w3.org/2000/svg" viewBox="0 0 226.64 230.82"><g id="Layer_1-2"><g><g><path d="M.31,124.09l8.03-.59,.25,3.49c.04,.49-.05,.93-.24,1.35-.2,.41-.48,.75-.85,1.02-.37,.25-.79,.41-1.27,.44-.46,.04-.9-.05-1.3-.25s-.73-.5-.99-.88c-.25-.37-.4-.81-.43-1.3l-.15-2.03-2.95,.21-.11-1.46Zm.34,4.66l3.47-2.3,.4,1.51-3.75,2.56-.12-1.77Zm4-3.51l.15,2.04c.02,.21,.09,.41,.21,.57,.11,.16,.26,.27,.46,.35,.19,.08,.39,.11,.62,.1,.25-.02,.47-.1,.63-.22,.18-.13,.31-.3,.41-.52,.09-.21,.13-.45,.11-.72l-.14-1.78-2.44,.19Z"/><path d="M1.51,136.51c-.09-.57-.07-1.1,.06-1.62s.35-.99,.65-1.41c.31-.42,.7-.76,1.17-1.04,.47-.27,1-.46,1.58-.55,.6-.1,1.15-.09,1.69,.03,.53,.12,1.01,.32,1.44,.62,.42,.3,.77,.68,1.05,1.13s.47,.97,.56,1.53c.09,.58,.08,1.12-.05,1.63-.13,.52-.35,.99-.66,1.41-.31,.41-.7,.75-1.17,1.04-.46,.27-.99,.46-1.58,.56-.59,.09-1.14,.08-1.67-.04s-1.01-.32-1.44-.62c-.43-.29-.78-.67-1.06-1.12s-.47-.97-.57-1.54Zm1.42-.22c.06,.37,.18,.68,.35,.97,.19,.27,.41,.51,.69,.68,.28,.19,.6,.31,.94,.38,.35,.08,.71,.08,1.1,.02,.38-.06,.73-.18,1.04-.36,.3-.18,.57-.39,.77-.64,.21-.26,.36-.56,.45-.87,.08-.32,.1-.66,.04-1.03s-.18-.67-.36-.96c-.18-.28-.41-.52-.68-.69-.27-.19-.59-.31-.93-.38-.35-.07-.72-.07-1.11,0-.38,.06-.73,.18-1.04,.35s-.57,.39-.77,.65c-.21,.25-.35,.55-.44,.87s-.1,.66-.04,1.02Z"/><path d="M3.56,146.43c-.15-.56-.18-1.1-.1-1.63s.25-1.01,.53-1.46c.27-.44,.62-.82,1.06-1.14,.45-.31,.96-.55,1.53-.69,.59-.15,1.14-.19,1.68-.12s1.04,.23,1.48,.49c.45,.26,.84,.61,1.16,1.04,.31,.42,.55,.91,.69,1.47,.14,.56,.18,1.1,.09,1.63-.08,.53-.25,1.02-.53,1.46s-.63,.82-1.07,1.13c-.43,.32-.95,.56-1.52,.7-.57,.15-1.12,.18-1.67,.11-.54-.07-1.04-.22-1.48-.49-.45-.25-.84-.6-1.16-1.02-.32-.43-.56-.92-.69-1.48Zm1.38-.35c.09,.35,.24,.66,.45,.93,.2,.25,.45,.47,.74,.62,.3,.16,.62,.25,.98,.29,.35,.05,.71,.02,1.09-.08s.71-.24,1-.45c.29-.21,.53-.45,.71-.72s.31-.58,.37-.91c.05-.32,.03-.66-.06-1.02s-.23-.66-.44-.93-.46-.47-.75-.62c-.28-.16-.61-.25-.96-.29s-.72,0-1.1,.1c-.38,.09-.71,.24-1.01,.44-.29,.21-.54,.44-.72,.71-.18,.28-.3,.59-.35,.92-.06,.32-.04,.66,.05,1.02Z"/><path d="M5.86,153.93l6.32-2.14-.73-2.18,1.3-.44,1.98,5.84-1.31,.44-.76-2.25-6.32,2.14-.48-1.42Z"/><path d="M7.92,159.7l7.42-3.12,2.03,4.86-1.25,.52-1.46-3.5-4.92,2.06,1.48,3.54-1.25,.53-2.05-4.9Zm3.45-.69l1.23-.52,1.54,3.68-1.23,.52-1.54-3.68Z"/><path d="M11.13,167.11l7.16-3.69,1.47,2.87c.27,.52,.43,1.04,.47,1.54,.05,.51,0,1-.18,1.46s-.42,.89-.77,1.28c-.35,.38-.8,.71-1.33,.99s-1.05,.45-1.58,.51c-.52,.07-1.02,.04-1.48-.1-.48-.14-.91-.37-1.3-.71-.38-.33-.71-.76-.98-1.28l-1.48-2.87Zm1.72,.8l.14-.21,.83,1.59c.17,.34,.38,.61,.62,.81s.51,.35,.81,.43,.62,.09,.96,.04c.34-.06,.69-.18,1.05-.36s.65-.4,.9-.64,.41-.52,.52-.81c.12-.29,.16-.6,.13-.91-.02-.32-.12-.64-.29-.98l-.84-1.62,.24,.04-5.07,2.62Z"/><path d="M18.02,179.38l1.09-.73,.74,1.09,4.48-3.01-.73-1.1,1.09-.73,2.3,3.44-1.09,.73-.74-1.09-4.48,3.01,.73,1.1-1.09,.73-2.3-3.44Z"/><path d="M21.55,184.58l6.36-4.93,.82,1.06-2.1,7.54-.2-.17c.15-.16,.31-.31,.47-.47,.17-.16,.34-.32,.53-.49,.18-.17,.37-.33,.58-.51s.42-.35,.65-.54c.22-.19,.47-.38,.73-.59l1.9-1.48,.91,1.17-6.36,4.94-.84-1.08,2.02-7.51,.24,.2c-.31,.29-.59,.54-.8,.74-.22,.21-.42,.39-.59,.54-.16,.15-.29,.26-.4,.36s-.21,.19-.3,.26-.18,.15-.26,.21l-2.46,1.9-.91-1.17Z"/><path d="M33.42,198.49c-.41-.4-.72-.85-.92-1.35-.21-.49-.31-1-.3-1.51,0-.52,.11-1.04,.32-1.53s.53-.96,.95-1.39c.42-.42,.88-.75,1.38-.97,.5-.22,1.01-.33,1.53-.34,.52,0,1.03,.09,1.52,.28,.49,.2,.94,.5,1.35,.9,.42,.41,.72,.86,.93,1.36,.21,.49,.3,1,.29,1.51,0,.53-.12,1.04-.32,1.53-.21,.5-.53,.96-.95,1.38s-.88,.74-1.37,.97c-.5,.21-1.02,.33-1.53,.35-.52,0-1.03-.08-1.52-.28-.49-.2-.95-.5-1.36-.91Zm1-1.02c.26,.26,.55,.45,.86,.57s.63,.17,.97,.15,.66-.11,.98-.25c.32-.15,.62-.35,.9-.63,.27-.27,.49-.58,.62-.9,.15-.32,.22-.65,.23-.99,.02-.33-.03-.65-.16-.97-.12-.3-.31-.59-.57-.85-.26-.25-.55-.44-.86-.56s-.63-.18-.96-.16c-.33,.02-.66,.11-.98,.25-.32,.15-.62,.36-.9,.64s-.49,.58-.63,.91c-.15,.32-.22,.64-.24,.98,0,.33,.04,.65,.17,.97,.13,.3,.31,.59,.57,.84Z"/><path d="M40.42,204.79c-.49-.41-.84-.88-1.04-1.41-.21-.53-.27-1.06-.19-1.62s.32-1.06,.71-1.52l3.18-3.82,1.16,.97-3.12,3.74c-.22,.27-.37,.57-.42,.89-.06,.32-.03,.63,.07,.95,.11,.3,.28,.56,.53,.76,.27,.22,.58,.37,.9,.42s.64,.03,.95-.09c.3-.11,.58-.3,.8-.58l3.12-3.73,1.11,.93-3.18,3.81c-.39,.47-.85,.79-1.38,.98s-1.07,.21-1.63,.11-1.08-.37-1.57-.78Z"/><path d="M45.28,208.6l4.65-6.57,2.85,2.01c.4,.28,.69,.62,.89,1.04,.2,.41,.27,.85,.24,1.3-.04,.45-.2,.87-.47,1.27-.26,.37-.61,.65-1.02,.83-.42,.19-.85,.25-1.31,.21-.45-.04-.88-.21-1.28-.49l-1.66-1.17-1.71,2.41-1.19-.84Zm3.65-2.64l1.67,1.18c.19,.13,.37,.21,.57,.21s.38-.04,.56-.14c.19-.1,.34-.23,.47-.41,.15-.21,.22-.42,.23-.63,0-.22-.03-.43-.14-.64-.11-.21-.27-.38-.49-.54l-1.46-1.04-1.41,2Zm.17,5.33l.42-4.15,1.43,.65-.41,4.52-1.44-1.03Z"/><path d="M56.75,216.09l3.84-7.08,1.32,.72-3.18,5.86,3.26,1.77-.65,1.21-4.58-2.48Z"/><path d="M62.03,218.97l6.22-6.01,1.27,.59-.53,8.61-1.41-.64,.34-4.88c0-.1,.02-.25,.04-.46s.05-.44,.08-.68,.06-.47,.09-.67c.03-.21,.05-.37,.06-.46l.26,.11c-.11,.12-.22,.25-.36,.4s-.28,.3-.43,.46c-.15,.17-.29,.31-.43,.46s-.26,.28-.38,.4l-3.47,3.41-1.36-.62Zm2.07-1.07l1.01-.97,3.34,1.53-.04,1.41-4.31-1.97Z"/><path d="M70.74,222.88l2.74-7.57,1.26,.46,2.25,7.5-.25-.04c.05-.21,.1-.43,.16-.64,.05-.22,.11-.45,.18-.69,.07-.23,.14-.48,.22-.74,.08-.25,.17-.52,.25-.8,.1-.28,.21-.58,.31-.89l.82-2.27,1.4,.51-2.74,7.57-1.29-.47-2.29-7.43,.31,.03c-.12,.42-.21,.77-.28,1.06s-.15,.55-.21,.76c-.07,.21-.12,.38-.16,.53-.04,.14-.08,.26-.11,.38l-.12,.32-1.05,2.93-1.4-.51Z"/><path d="M80.4,226.22l2.05-7.78,3.12,.83c.57,.15,1.04,.37,1.46,.67,.41,.31,.73,.68,.97,1.11,.23,.44,.38,.92,.43,1.44s0,1.07-.16,1.65c-.15,.58-.37,1.08-.67,1.51s-.66,.78-1.07,1.04c-.42,.26-.89,.42-1.4,.49-.51,.06-1.04,.02-1.6-.13l-3.12-.83Zm1.74-.74l-.06-.23,1.74,.46c.36,.09,.7,.12,1.03,.08,.31-.05,.6-.16,.86-.32,.25-.18,.48-.4,.66-.68,.2-.29,.33-.63,.44-1.03s.15-.76,.13-1.1-.11-.65-.25-.93-.34-.51-.59-.7c-.25-.2-.57-.33-.93-.43l-1.77-.47,.2-.15-1.46,5.51Z"/><path d="M89.01,230.52l-.34-.64c.3-.1,.57-.22,.77-.39s.33-.32,.36-.46c0-.08,0-.16,0-.23s-.08-.19-.19-.33c-.13-.18-.21-.32-.24-.44-.03-.12-.03-.23,0-.36,.05-.2,.15-.34,.31-.43,.17-.1,.36-.12,.59-.07,.21,.04,.38,.13,.52,.27s.23,.33,.28,.55,.05,.46,0,.72c-.05,.22-.14,.45-.26,.65-.12,.21-.27,.39-.46,.55s-.39,.29-.61,.4c-.22,.11-.46,.18-.71,.21Z"/><path d="M101.6,230.36c-.61-.06-1.15-.21-1.64-.47-.5-.26-.91-.6-1.25-1.01s-.6-.88-.75-1.4-.21-1.07-.16-1.66c.06-.59,.21-1.11,.48-1.59,.25-.48,.6-.89,1.02-1.22,.41-.33,.89-.58,1.43-.73s1.1-.21,1.69-.15c.42,.04,.82,.14,1.2,.29,.38,.15,.71,.34,1.01,.58s.53,.5,.71,.77l-1.04,.9c-.2-.22-.4-.42-.61-.58-.21-.17-.44-.29-.67-.39s-.49-.17-.74-.19c-.39-.04-.74,0-1.08,.1-.33,.11-.63,.27-.9,.49-.26,.22-.49,.5-.65,.81s-.27,.66-.31,1.05c-.03,.37,0,.73,.12,1.08,.11,.35,.27,.66,.5,.94s.5,.5,.82,.67,.66,.28,1.04,.31c.28,.03,.56,0,.8-.05,.25-.06,.49-.16,.69-.28s.36-.29,.49-.48c.12-.19,.2-.4,.21-.62l.03-.25,.18,.26-2.36-.23,.13-1.33,3.62,.35c0,.09,0,.19,0,.28,0,.11,0,.21,0,.3s0,.18-.02,.24c-.05,.53-.19,1-.41,1.42-.22,.41-.52,.76-.88,1.04-.36,.28-.77,.49-1.23,.62s-.94,.18-1.45,.12Z"/><path d="M107.85,230.7l.13-8.05,3.5,.05c.49,0,.92,.13,1.32,.36,.39,.23,.7,.55,.94,.94,.22,.39,.33,.83,.32,1.31,0,.46-.13,.88-.37,1.27-.23,.38-.56,.68-.96,.9-.4,.22-.84,.33-1.33,.32l-2.04-.03-.05,2.95-1.46-.02Zm1.52-4.23l2.05,.03c.22,0,.42-.05,.59-.15s.29-.24,.39-.43c.1-.18,.15-.38,.15-.61,0-.25-.05-.47-.17-.65-.11-.19-.26-.33-.47-.45-.21-.11-.45-.17-.71-.17l-1.79-.03-.04,2.45Zm3.14,4.3l-1.99-3.66,1.55-.26,2.21,3.97-1.77-.05Z"/><path d="M120.31,230.57c-.57,.04-1.11-.03-1.61-.21-.51-.17-.96-.43-1.35-.77s-.69-.76-.94-1.25c-.23-.49-.37-1.04-.41-1.63s.02-1.15,.18-1.67c.17-.53,.42-.98,.75-1.38,.34-.4,.74-.71,1.22-.96,.47-.24,1-.38,1.57-.43,.58-.04,1.12,.03,1.62,.2,.51,.18,.96,.44,1.34,.78,.39,.35,.69,.77,.93,1.26s.37,1.03,.42,1.62c.04,.59-.02,1.14-.19,1.66-.16,.52-.41,.99-.74,1.39s-.73,.71-1.21,.96c-.47,.24-1,.38-1.58,.43Zm-.1-1.43c.36-.03,.69-.12,.99-.27s.55-.36,.74-.62c.21-.27,.36-.57,.47-.91,.1-.34,.14-.7,.11-1.09s-.12-.74-.26-1.06c-.16-.32-.34-.6-.59-.83-.24-.22-.52-.4-.83-.52-.31-.11-.64-.16-1.02-.13-.36,.03-.68,.12-.99,.27-.29,.16-.55,.36-.75,.62-.2,.26-.35,.56-.45,.9-.1,.33-.14,.7-.11,1.1,.03,.39,.12,.74,.26,1.06,.15,.33,.33,.61,.58,.83,.23,.23,.52,.4,.83,.52,.31,.11,.65,.16,1.02,.13Z"/><path d="M128.39,229.63l-3.84-7.51,1.54-.26,2.21,4.44c.07,.13,.14,.28,.21,.45s.14,.33,.2,.5,.11,.32,.16,.46,.1,.25,.14,.35l-.31,.04c.03-.37,.05-.67,.07-.9,0-.22,.03-.42,.05-.58,0-.16,.03-.29,.06-.43l.74-3.65,1.26-.22,1.89,3.2c.11,.2,.21,.39,.31,.57,.09,.19,.18,.36,.24,.55,.08,.18,.15,.36,.21,.55l-.25,.11c0-.19,0-.34,0-.46,0-.12,0-.21,0-.31v-.27c0-.09,0-.2,.02-.33,0-.13,.03-.29,.05-.5l.59-4.9,1.53-.26-1.11,8.36-1.06,.19-2.85-4.48,.15,.03-1.09,5.11-1.07,.19Z"/><path d="M138.56,227.66l-.33-1.28,1.28-.33-1.36-5.22-1.29,.33-.33-1.28,4.01-1.04,.33,1.28-1.28,.33,1.36,5.23,1.28-.34,.33,1.28-4,1.04Z"/><path d="M145.16,225.88l-2.61-7.62,1.27-.43,6.46,4.43-.22,.13c-.1-.2-.2-.39-.29-.6-.09-.21-.19-.42-.28-.65-.1-.22-.2-.46-.29-.71-.1-.24-.2-.51-.3-.79-.1-.27-.21-.57-.31-.88l-.78-2.29,1.41-.48,2.6,7.62-1.29,.44-6.45-4.35,.25-.18c.18,.4,.32,.73,.45,1.01,.13,.28,.22,.52,.31,.72s.16,.37,.21,.51c.06,.13,.11,.25,.15,.36,.05,.12,.09,.22,.12,.32l1.01,2.95-1.4,.48Z"/><path d="M158.02,221.12c-.56,.24-1.1,.37-1.66,.39s-1.08-.07-1.58-.26c-.5-.19-.95-.47-1.34-.84-.39-.38-.71-.83-.95-1.38-.24-.53-.36-1.06-.38-1.61,0-.55,.09-1.06,.28-1.56,.21-.5,.5-.94,.89-1.34,.38-.4,.85-.72,1.4-.97,.39-.18,.78-.28,1.18-.34,.41-.05,.79-.05,1.17,.02,.37,.06,.7,.17,1,.32l-.46,1.28c-.28-.1-.56-.17-.82-.2-.26-.04-.52-.04-.77,0s-.51,.1-.74,.21c-.35,.16-.64,.36-.89,.62-.24,.26-.42,.56-.55,.88-.12,.32-.18,.65-.17,1.02s.09,.71,.25,1.07c.15,.34,.36,.63,.62,.89s.57,.44,.9,.57c.34,.13,.68,.2,1.04,.19s.71-.09,1.06-.23c.25-.12,.48-.26,.67-.44,.19-.18,.34-.37,.45-.59,.12-.21,.19-.44,.2-.66s-.03-.44-.12-.65l-.11-.22,.29,.14-2.18,.97-.55-1.22,3.33-1.48c.05,.08,.1,.16,.15,.24,.05,.1,.1,.19,.14,.27,.05,.08,.08,.16,.11,.21,.21,.49,.33,.97,.34,1.44,0,.47-.08,.92-.25,1.34-.19,.42-.44,.8-.77,1.14-.33,.33-.73,.61-1.2,.82Z"/><path d="M170.66,214.46c-.49,.29-1,.49-1.52,.57s-1.04,.06-1.55-.07c-.5-.13-.97-.36-1.41-.68-.43-.33-.81-.75-1.11-1.26-.31-.51-.52-1.04-.62-1.56-.09-.54-.08-1.06,.04-1.57s.32-.98,.63-1.41,.71-.8,1.2-1.1c.5-.3,1.02-.49,1.54-.57,.52-.09,1.04-.06,1.54,.08,.5,.13,.97,.36,1.4,.68,.44,.32,.81,.74,1.12,1.25,.3,.51,.51,1.03,.6,1.56,.1,.53,.09,1.05-.02,1.56-.12,.51-.32,.98-.63,1.42-.31,.43-.71,.8-1.21,1.1Zm-.74-1.22c.31-.2,.57-.42,.75-.69s.31-.58,.37-.91c.06-.32,.06-.66,0-1.01-.06-.35-.2-.69-.4-1.03s-.45-.61-.72-.82c-.28-.21-.59-.37-.9-.47-.32-.1-.64-.13-.98-.08-.32,.04-.64,.16-.97,.35-.3,.19-.56,.42-.74,.69-.2,.27-.32,.58-.38,.9s-.06,.66,0,1.01c.07,.35,.21,.69,.41,1.03,.21,.34,.45,.62,.72,.84,.28,.21,.58,.37,.9,.47,.31,.09,.64,.12,.98,.07s.64-.17,.96-.35Z"/><path d="M178.47,209.16c-.51,.38-1.04,.61-1.61,.68-.57,.07-1.1,0-1.62-.21-.51-.21-.95-.57-1.31-1.05l-2.94-4,1.22-.9,2.87,3.93c.21,.29,.47,.5,.77,.62,.29,.13,.61,.18,.93,.16,.32-.03,.62-.14,.88-.33,.28-.21,.49-.46,.62-.77,.13-.3,.18-.62,.15-.94s-.16-.62-.37-.92l-2.88-3.93,1.17-.85,2.94,4c.36,.49,.57,1.01,.62,1.56s-.04,1.09-.28,1.61c-.24,.51-.62,.96-1.14,1.34Z"/><path d="M183.31,205.36l-5.27-6.08,2.64-2.29c.37-.31,.78-.52,1.23-.61,.45-.1,.89-.07,1.32,.07,.43,.15,.8,.39,1.11,.76,.3,.34,.5,.74,.57,1.19,.08,.44,.04,.88-.11,1.31s-.41,.8-.78,1.12l-1.53,1.34,1.93,2.24-1.1,.96Zm-1.69-4.18l1.55-1.34c.17-.15,.28-.31,.33-.5,.06-.19,.06-.38,0-.58-.05-.21-.15-.38-.29-.56-.17-.19-.35-.31-.56-.38-.21-.06-.43-.07-.65,0-.22,.05-.44,.17-.64,.34l-1.35,1.17,1.6,1.85Zm5.21,1.11l-3.93-1.41,.98-1.22,4.3,1.48-1.35,1.14Z"/><path d="M195.6,193.72c-.39,.43-.82,.76-1.29,.99-.48,.22-.97,.34-1.48,.35-.51,0-1.02-.09-1.52-.28-.52-.2-1-.5-1.44-.91-.44-.39-.76-.83-1-1.32-.22-.49-.36-1-.39-1.52s.04-1.04,.22-1.54c.18-.5,.46-.97,.84-1.39,.26-.29,.57-.54,.9-.73s.67-.33,1.04-.42c.35-.1,.7-.13,1.04-.1l.14,1.41c-.29,0-.56,.05-.8,.11-.25,.06-.48,.15-.68,.26s-.39,.27-.55,.45c-.23,.25-.41,.55-.53,.86-.11,.32-.16,.64-.13,.97,.02,.33,.11,.65,.26,.97s.38,.61,.67,.88c.3,.27,.62,.47,.94,.6,.33,.14,.66,.19,1,.18s.65-.1,.97-.25,.61-.38,.87-.66c.17-.19,.31-.39,.42-.62s.19-.45,.22-.69c.04-.23,.06-.47,.05-.7l1.37,.25c.03,.27,0,.58-.08,.92-.08,.34-.21,.68-.39,1.03-.19,.35-.41,.66-.66,.94Z"/><path d="M201.25,186.91c-.35,.46-.75,.82-1.22,1.08-.46,.26-.95,.42-1.46,.49-.52,.06-1.04,.02-1.56-.14-.52-.15-1.02-.4-1.49-.77-.48-.36-.85-.77-1.13-1.24s-.46-.96-.53-1.47c-.08-.51-.05-1.03,.09-1.54s.38-1.01,.72-1.46c.36-.47,.77-.83,1.23-1.09s.96-.42,1.47-.48,1.04,0,1.55,.14,1.02,.4,1.49,.76c.47,.36,.84,.77,1.12,1.24,.27,.47,.46,.96,.54,1.47,.08,.51,.05,1.03-.09,1.54s-.38,1.01-.73,1.46Zm-1.13-.87c.22-.29,.38-.6,.46-.92s.08-.64,.02-.98c-.06-.32-.19-.64-.37-.95-.19-.29-.43-.57-.74-.8-.31-.24-.63-.41-.98-.51-.33-.1-.67-.14-1.01-.12-.33,.03-.64,.12-.94,.27-.28,.17-.55,.39-.77,.68-.21,.28-.36,.59-.45,.91-.08,.33-.09,.65-.03,.98,.06,.33,.19,.64,.37,.94,.19,.3,.44,.57,.75,.81s.63,.41,.98,.52,.67,.15,1.01,.12,.64-.12,.94-.28,.55-.38,.76-.67Z"/><path d="M205.05,181.57l-6.82-4.28,.75-1.2,5.6,.06-.45,.69-2.45-5.05,.71-1.13,6.82,4.28-.78,1.26-2.57-1.61c-.58-.37-1.09-.71-1.54-1.04s-.89-.66-1.3-1.03l.52,.11,1.93,4.16-.41,.64-4.51,.02-.36-.42c.48,.2,.96,.43,1.44,.68,.47,.26,1.03,.59,1.65,.99l2.57,1.61-.79,1.25Z"/><path d="M210.84,172.03l-7.21-3.58,.63-1.27,5.58-.5-.38,.73-2.94-4.78,.6-1.2,7.21,3.58-.65,1.33-2.71-1.35c-.62-.31-1.16-.6-1.64-.88-.48-.27-.95-.57-1.4-.89l.53,.06,2.33,3.95-.33,.68-4.49,.46-.41-.38c.5,.16,1,.33,1.5,.55,.5,.21,1.07,.48,1.75,.81l2.71,1.35-.66,1.33Z"/><path d="M216.71,159.37c-.22,.6-.56,1.07-1,1.44-.43,.37-.93,.6-1.47,.69-.56,.1-1.11,.03-1.68-.19l-4.63-1.81,.55-1.4,4.54,1.76c.33,.14,.66,.18,.98,.12,.32-.05,.62-.18,.87-.37s.45-.44,.57-.74c.13-.33,.16-.65,.11-.99-.06-.32-.19-.62-.38-.87-.21-.25-.47-.45-.81-.58l-4.53-1.77,.53-1.35,4.63,1.81c.57,.21,1.02,.55,1.36,.99s.55,.95,.62,1.5c.07,.57,0,1.15-.24,1.75Z"/><path d="M218.81,153.44l-7.73-2.25,.38-1.3,7.34-2.72-.03,.25c-.21-.03-.43-.07-.65-.11s-.46-.09-.7-.14c-.23-.05-.49-.11-.75-.17-.25-.07-.53-.14-.82-.21-.28-.07-.59-.16-.9-.24l-2.31-.67,.41-1.43,7.72,2.25-.38,1.32-7.26,2.77v-.31c.43,.08,.79,.16,1.08,.21,.3,.06,.56,.11,.77,.16s.39,.08,.54,.12c.14,.03,.27,.06,.38,.09,.12,.03,.22,.06,.33,.09l2.99,.87-.41,1.43Z"/><path d="M221.39,144.02l-1.3-.27,.27-1.3-5.28-1.11-.27,1.3-1.3-.27,.86-4.05,1.29,.27-.27,1.29,5.29,1.12,.27-1.3,1.29,.27-.85,4.05Z"/><path d="M222.98,135.53l-6.6-.95-.32,2.29-1.37-.2,.87-6.1,1.37,.2-.33,2.34,6.6,.95-.21,1.47Z"/><path d="M223.89,127.47l-3.99-.28,.57-.05-4.82,2.92,.13-1.74,3.73-2.23-.07,.54-3.37-2.49,.13-1.67,4.49,3.45-.77-.23,4.09,.29-.11,1.49Z"/></g><g><path d="M16.71,83.53c-.4,1.14-.98,2.12-1.7,2.94-.73,.8-1.58,1.43-2.57,1.86-.98,.43-2.03,.66-3.17,.69-1.13,.03-2.3-.17-3.5-.6-1.14-.41-2.13-.99-2.97-1.74-.83-.76-1.49-1.63-1.97-2.62s-.75-2.03-.82-3.14c-.06-1.11,.11-2.23,.51-3.36,.27-.76,.65-1.47,1.13-2.11,.49-.64,1.04-1.2,1.65-1.66,.62-.47,1.26-.8,1.93-1.02l1.39,2.6c-.55,.25-1.04,.53-1.46,.85-.43,.31-.79,.67-1.09,1.06s-.54,.82-.7,1.29c-.24,.69-.35,1.39-.31,2.09s.21,1.37,.53,1.97c.3,.61,.73,1.15,1.28,1.64,.56,.49,1.22,.86,2,1.15,.8,.27,1.57,.41,2.3,.39,.74-.02,1.43-.18,2.05-.47,.63-.29,1.18-.71,1.66-1.27,.48-.55,.85-1.21,1.12-1.97,.19-.51,.28-1.02,.31-1.52,.03-.52,0-1.02-.11-1.5s-.27-.96-.49-1.41l2.85-.63c.27,.51,.47,1.12,.59,1.85,.12,.71,.14,1.48,.07,2.29-.08,.82-.25,1.6-.52,2.33Z"/><path d="M24.09,67.84c-.6,1.04-1.35,1.89-2.23,2.57-.89,.67-1.87,1.14-2.91,1.41-1.05,.26-2.14,.32-3.26,.15-1.12-.17-2.23-.57-3.31-1.19-1.07-.62-1.97-1.38-2.68-2.27s-1.2-1.86-1.49-2.91c-.29-1.04-.36-2.11-.22-3.22,.14-1.09,.51-2.17,1.11-3.2,.61-1.05,1.36-1.91,2.24-2.59,.89-.67,1.87-1.13,2.92-1.4,1.05-.25,2.14-.29,3.25-.14,1.11,.17,2.22,.57,3.29,1.19,1.07,.62,1.95,1.37,2.67,2.26,.7,.89,1.2,1.86,1.5,2.9s.38,2.11,.24,3.22c-.14,1.09-.51,2.18-1.12,3.22Zm-2.58-1.48c.39-.66,.62-1.35,.69-2.03s0-1.36-.21-2.02-.56-1.28-1.03-1.86c-.46-.58-1.04-1.06-1.75-1.47s-1.43-.66-2.15-.78c-.73-.12-1.44-.11-2.12,.04-.68,.14-1.3,.41-1.87,.82-.56,.41-1.03,.94-1.42,1.6-.37,.65-.61,1.33-.68,2.02s0,1.37,.21,2.02c.21,.66,.55,1.27,1.02,1.84s1.05,1.06,1.78,1.48c.7,.41,1.43,.67,2.16,.8s1.44,.12,2.11-.03,1.29-.42,1.86-.83c.57-.42,1.04-.96,1.41-1.6Z"/><path d="M30.54,57.34l-12.79-10.89,4.73-5.55c.65-.78,1.43-1.33,2.32-1.65s1.82-.42,2.74-.26c.94,.16,1.79,.55,2.55,1.21,.73,.62,1.25,1.38,1.54,2.27,.3,.9,.36,1.82,.2,2.75-.18,.93-.6,1.79-1.26,2.56l-2.75,3.24,4.7,4-1.97,2.31Zm-4.79-8.08l2.76-3.25c.3-.36,.48-.73,.54-1.13s0-.8-.17-1.2c-.17-.39-.43-.74-.78-1.04-.4-.35-.83-.55-1.27-.62-.45-.07-.9,0-1.35,.18-.46,.19-.86,.49-1.22,.92l-2.41,2.83,3.9,3.31Zm11.09,.65l-8.54-1.66,1.63-2.84,9.34,1.7-2.42,2.8Z"/><path d="M44.46,42.49l-9.08-10.55-3.63,3.12-1.88-2.18,9.75-8.39,1.88,2.18-3.75,3.22,9.08,10.56-2.36,2.03Z"/><path d="M53.57,35.14l-8.97-14.2,2.64-1.66,7.44,11.76,6.55-4.14,1.53,2.43-9.19,5.81Z"/><path d="M64.61,28.16l-.62-18.02,2.7-1.16,12.61,12.86-2.97,1.29-7.08-7.36c-.16-.14-.37-.37-.66-.7s-.61-.68-.95-1.07c-.33-.38-.64-.74-.94-1.08-.28-.34-.49-.59-.62-.73l.54-.26c.04,.33,.08,.71,.13,1.12,.04,.42,.08,.86,.12,1.31s.07,.9,.11,1.31c.03,.43,.06,.8,.08,1.15l.44,10.12-2.86,1.24Zm1.21-4.7l-.08-2.93,7.03-3.03,2.14,2.04-9.09,3.92Z"/><path d="M82.36,20.91l-3.73-16.38,2.74-.62,12.41,10.64-.5,.21c-.16-.42-.31-.86-.47-1.31-.15-.45-.3-.92-.46-1.42-.15-.49-.3-1-.45-1.54-.15-.54-.29-1.11-.45-1.7-.15-.61-.3-1.23-.46-1.91l-1.11-4.9,3.02-.69,3.73,16.38-2.78,.64-12.42-10.45,.57-.29c.28,.85,.52,1.58,.71,2.19s.36,1.12,.49,1.56c.14,.43,.24,.8,.33,1.09,.1,.29,.18,.55,.23,.79,.07,.24,.12,.47,.17,.69l1.45,6.34-3.02,.68Z"/><path d="M102.11,17.02L101.58,.22,108.32,0c1.21-.04,2.32,.14,3.32,.5,1,.37,1.86,.92,2.6,1.65,.73,.72,1.31,1.6,1.71,2.61,.41,1.01,.63,2.14,.67,3.39s-.11,2.39-.46,3.44c-.34,1.04-.85,1.95-1.53,2.71-.67,.76-1.5,1.37-2.49,1.8-.98,.43-2.07,.66-3.29,.7l-6.74,.21Zm3.05-2.52l-.25-.45,3.74-.12c.78-.03,1.47-.18,2.08-.45,.62-.28,1.12-.66,1.54-1.15,.41-.5,.72-1.09,.93-1.78s.29-1.46,.26-2.3c-.03-.84-.17-1.6-.41-2.28s-.6-1.24-1.05-1.71c-.45-.47-.99-.82-1.6-1.05s-1.32-.34-2.1-.31l-3.82,.12,.3-.42,.38,11.9Z"/><path d="M130.98,18.22l4.18-16.27,3.03,.77-4.19,16.27-3.02-.77Zm2.98-6.38l.72-2.83,10.64,2.74-.72,2.83-10.64-2.74Zm7.45,9.06l4.19-16.27,3.02,.78-4.18,16.27-3.03-.78Z"/><path d="M147.51,22.67l12.97-12.53,2.66,1.22-1.1,17.98-2.95-1.35,.72-10.19c0-.21,.04-.53,.09-.97,.05-.43,.1-.9,.16-1.41,.06-.52,.13-1,.19-1.43,.06-.45,.1-.76,.13-.97l.55,.22c-.21,.25-.47,.54-.75,.85-.28,.3-.59,.63-.89,.97-.31,.33-.62,.64-.91,.96-.29,.3-.56,.58-.79,.82l-7.23,7.11-2.83-1.3Zm4.31-2.25l2.11-2.02,6.96,3.2-.09,2.95-8.98-4.13Z"/><path d="M164.98,31.22l9.53-13.83,6.01,4.14c.83,.57,1.46,1.29,1.88,2.15s.6,1.76,.54,2.7c-.05,.95-.36,1.84-.94,2.66-.55,.8-1.25,1.39-2.11,1.78s-1.76,.55-2.71,.47-1.85-.41-2.69-1l-3.5-2.4-3.51,5.08-2.51-1.74Zm7.55-5.59l3.52,2.43c.38,.26,.78,.4,1.18,.42,.41,.02,.8-.08,1.17-.29,.38-.2,.7-.49,.97-.88,.29-.43,.46-.88,.48-1.33s-.09-.9-.31-1.33c-.23-.43-.58-.8-1.04-1.11l-3.07-2.11-2.9,4.2Zm.48,11.11l.78-8.66,2.99,1.33-.74,9.45-3.03-2.12Z"/><path d="M181.79,44.13l6.78-16.78,2.46,2.36-3.96,9.53c-.21,.5-.39,.94-.56,1.31-.17,.39-.32,.73-.46,1.04-.15,.3-.28,.6-.43,.89-.15,.27-.3,.57-.45,.9l-.49-.47c.38-.23,.76-.47,1.15-.68,.38-.21,.8-.43,1.26-.66,.45-.23,.98-.49,1.58-.78l9.19-4.51,2.48,2.37-16.51,7.44-2.04-1.96Z"/><path d="M190.82,53.52l13.46-10.07,6.58,8.8-2.27,1.7-4.75-6.34-8.92,6.67,4.8,6.42-2.28,1.7-6.64-8.88Zm6.63-3.16l2.23-1.66,4.99,6.66-2.23,1.67-4.99-6.67Z"/><path d="M202.45,71.66c-.46-.87-.76-1.72-.92-2.55-.17-.84-.18-1.67-.04-2.48s.39-1.6,.78-2.38l2.99,.73c-.61,1.2-.91,2.24-.93,3.1s.19,1.7,.62,2.54c.25,.48,.56,.88,.92,1.2,.35,.32,.72,.52,1.1,.62,.38,.08,.74,.04,1.08-.14,.23-.13,.44-.29,.6-.49s.26-.43,.33-.7,.1-.59,.1-.92c0-.35-.03-.72-.12-1.11-.08-.39-.18-.81-.31-1.27-.25-.86-.4-1.65-.44-2.36-.04-.72,.03-1.39,.21-1.98,.18-.6,.47-1.12,.86-1.56s.9-.83,1.52-1.15,1.27-.49,1.93-.48c.67,0,1.33,.14,1.96,.42s1.22,.68,1.77,1.21,1.02,1.16,1.41,1.89c.43,.83,.72,1.63,.87,2.39s.16,1.5,.03,2.21c-.12,.71-.37,1.37-.76,1.99l-2.76-.88c.29-.53,.49-1.04,.6-1.54s.13-1,.06-1.48-.21-.96-.46-1.42c-.26-.52-.57-.92-.91-1.22-.33-.29-.69-.49-1.06-.57s-.74,0-1.11,.18c-.28,.16-.5,.35-.65,.59-.16,.25-.25,.53-.3,.86-.05,.31-.04,.7,.03,1.13s.17,.92,.31,1.43c.25,.87,.41,1.68,.48,2.44s.03,1.46-.1,2.08c-.14,.63-.37,1.18-.71,1.65s-.8,.85-1.37,1.14c-.98,.52-1.93,.72-2.88,.63-.94-.1-1.82-.47-2.63-1.1-.82-.63-1.51-1.51-2.1-2.64Z"/><path d="M208.14,83.89l13.15-4.55-1.56-4.53,2.71-.94,4.2,12.16-2.71,.95-1.62-4.69-13.15,4.55-1.02-2.95Z"/></g><g><path d="M112.23,28.74c-49.71,0-90,40.29-90,90s40.29,90,90,90,90-40.29,90-90S161.94,28.74,112.23,28.74Zm0,178.5c-48.8,0-88.5-39.7-88.5-88.5S63.43,30.24,112.23,30.24s88.5,39.7,88.5,88.5-39.7,88.5-88.5,88.5Z"/><path d="M112.23,30.24c-48.8,0-88.5,39.7-88.5,88.5s39.7,88.5,88.5,88.5,88.5-39.7,88.5-88.5S161.03,30.24,112.23,30.24Zm0,175.5c-47.97,0-87-39.03-87-87S64.26,31.74,112.23,31.74s87,39.03,87,87-39.03,87-87,87Z"/><path d="M112.23,57.24c-33.91,0-61.5,27.59-61.5,61.5s27.59,61.5,61.5,61.5,61.5-27.59,61.5-61.5-27.59-61.5-61.5-61.5Zm0,3c5.78,0,11.36,.86,16.64,2.43l-9.27,28.53c-2.36-.62-4.83-.95-7.37-.95s-5.02,.33-7.37,.95l-9.27-28.53c5.28-1.57,10.86-2.43,16.64-2.43Zm0,83.57c-4.65-2.66-9.4-5.13-14.24-7.41,4.64-3.27,9.39-6.34,14.24-9.18,4.85,2.84,9.6,5.9,14.24,9.18-4.84,2.28-9.59,4.75-14.24,7.41Zm0,3.46c5.35,3.12,10.56,6.48,15.59,10.09-5.19-.18-10.38-.28-15.55-.28s-10.42,.1-15.64,.28c5.03-3.61,10.24-6.97,15.6-10.09Zm-24.53-35.43c3.07-11.01,12.97-18.6,24.53-18.6s21.46,7.59,24.53,18.6c-8.43,3.4-16.62,7.37-24.53,11.92-7.92-4.54-16.11-8.51-24.53-11.92Zm5.04-48.25l9.27,28.53c-4.7,1.79-8.8,4.78-11.94,8.66l-24.24-17.61c6.83-8.89,16.15-15.77,26.91-19.58Zm-28.67,22l24.24,17.61c-1.47,2.28-2.62,4.8-3.41,7.51-9.3-3.59-18.89-6.48-28.73-8.66,1.77-5.94,4.45-11.48,7.89-16.46Zm-10.33,33.14c0-4.75,.58-9.36,1.66-13.78,19,4.21,37.03,11.1,53.85,20.56-4.9,2.93-9.7,6.07-14.38,9.43-13.18-5.93-26.98-10.45-41.05-13.4-.04-.93-.07-1.87-.07-2.81Zm.3,5.93c19.24,4.13,37.94,11.22,55.2,20.88-6.2,3.69-12.21,7.71-17.97,12.04-7.13,.34-14.24,.86-21.28,1.54-8.77-9.17-14.6-21.16-15.94-34.46Zm58.2,52.57c-15.19,0-29.05-5.83-39.46-15.35,13.07-1.19,26.34-1.8,39.5-1.8s26.39,.61,39.43,1.8c-10.41,9.53-24.27,15.36-39.47,15.36Zm42.26-18.12c-7.05-.68-14.16-1.2-21.29-1.54-5.76-4.33-11.76-8.35-17.96-12.04,17.26-9.66,35.96-16.75,55.2-20.88-1.34,13.3-7.18,25.29-15.94,34.46Zm16.24-40.38c0,.94-.03,1.88-.07,2.81-14.08,2.95-27.87,7.47-41.05,13.4-4.68-3.36-9.48-6.5-14.38-9.43,16.82-9.46,34.86-16.35,53.85-20.56,1.07,4.42,1.66,9.03,1.66,13.78Zm-2.44-16.68c-9.84,2.19-19.43,5.07-28.73,8.66-.79-2.71-1.94-5.23-3.41-7.51l24.24-17.61c3.44,4.99,6.12,10.53,7.89,16.46Zm-33.9-1.27c-3.13-3.88-7.24-6.87-11.94-8.66l9.27-28.53c10.76,3.82,20.08,10.69,26.91,19.58l-24.24,17.61Z"/></g></g></g></svg>