<?xml version="1.0" encoding="UTF-8"?><svg id="Layer_2" xmlns="http://www.w3.org/2000/svg" viewBox="0 0 832.95 345.59"><g id="Layer_1-2"><g><g><g><path d="M80.54,341.12v-16.8h7.29c1.02,0,1.93,.24,2.76,.71,.83,.47,1.49,1.11,1.98,1.92,.49,.81,.73,1.71,.73,2.72s-.24,1.85-.73,2.66c-.49,.81-1.14,1.45-1.97,1.92-.82,.47-1.74,.71-2.77,.71h-4.24v6.17h-3.05Zm3.05-8.88h4.27c.46,0,.87-.11,1.21-.32s.62-.52,.81-.9c.19-.39,.28-.81,.28-1.27,0-.53-.13-.98-.36-1.37s-.58-.69-1.01-.91c-.44-.22-.93-.34-1.49-.34h-3.71v5.11Zm6.7,8.88l-4.28-7.58,3.21-.6,4.76,8.21-3.69-.02Z"/><path d="M104.99,341.36c-1.2,0-2.31-.21-3.34-.65-1.03-.43-1.91-1.04-2.68-1.81s-1.35-1.69-1.76-2.74c-.42-1.06-.62-2.21-.62-3.46s.21-2.4,.62-3.46c.41-1.05,1-1.97,1.76-2.75s1.65-1.38,2.68-1.81c1.03-.43,2.14-.65,3.34-.65s2.33,.22,3.36,.65c1.02,.43,1.91,1.04,2.66,1.83,.76,.78,1.35,1.7,1.76,2.74,.41,1.05,.62,2.2,.62,3.45s-.21,2.37-.62,3.43c-.41,1.05-1,1.97-1.76,2.76-.74,.78-1.64,1.39-2.66,1.82-1.03,.43-2.15,.65-3.36,.65Zm0-2.97c.76,0,1.46-.14,2.09-.42,.64-.28,1.19-.68,1.65-1.2,.46-.52,.83-1.12,1.09-1.81s.4-1.44,.4-2.26-.14-1.57-.4-2.26-.63-1.29-1.09-1.81c-.46-.52-1.01-.92-1.65-1.2-.62-.28-1.33-.42-2.09-.42s-1.45,.14-2.09,.42-1.19,.67-1.66,1.19c-.46,.51-.82,1.11-1.07,1.8s-.39,1.45-.39,2.28,.14,1.57,.39,2.27c.25,.7,.62,1.3,1.07,1.81,.47,.51,1.02,.91,1.66,1.19,.64,.28,1.33,.42,2.09,.42Z"/><path d="M124.91,341.36c-1.2,0-2.31-.21-3.34-.65-1.03-.43-1.91-1.04-2.68-1.81s-1.35-1.69-1.76-2.74c-.42-1.06-.62-2.21-.62-3.46s.21-2.4,.62-3.46c.41-1.05,1-1.97,1.76-2.75s1.65-1.38,2.68-1.81c1.03-.43,2.14-.65,3.34-.65s2.33,.22,3.36,.65c1.02,.43,1.91,1.04,2.66,1.83,.76,.78,1.35,1.7,1.76,2.74,.41,1.05,.62,2.2,.62,3.45s-.21,2.37-.62,3.43c-.41,1.05-1,1.97-1.76,2.76-.74,.78-1.64,1.39-2.66,1.82-1.03,.43-2.15,.65-3.36,.65Zm0-2.97c.76,0,1.46-.14,2.09-.42,.64-.28,1.19-.68,1.65-1.2,.46-.52,.83-1.12,1.09-1.81s.4-1.44,.4-2.26-.14-1.57-.4-2.26-.63-1.29-1.09-1.81c-.46-.52-1.01-.92-1.65-1.2-.62-.28-1.33-.42-2.09-.42s-1.45,.14-2.09,.42-1.19,.67-1.66,1.19c-.46,.51-.82,1.11-1.07,1.8s-.39,1.45-.39,2.28,.14,1.57,.39,2.27c.25,.7,.62,1.3,1.07,1.81,.47,.51,1.02,.91,1.66,1.19,.64,.28,1.33,.42,2.09,.42Z"/><path d="M139.86,341.12v-13.92h-4.79v-2.88h12.86v2.88h-4.95v13.92h-3.12Z"/><path d="M151.96,341.12v-16.8h10.99v2.83h-7.92v11.14h8.02v2.83h-11.08Zm1.44-7.2v-2.78h8.33v2.78h-8.33Z"/><path d="M167.92,341.12v-16.8h6.74c1.22,0,2.32,.2,3.3,.6,1,.4,1.84,.98,2.55,1.73s1.26,1.64,1.63,2.67c.37,1.02,.57,2.16,.57,3.41s-.2,2.39-.57,3.42-.92,1.92-1.62,2.67c-.7,.74-1.54,1.31-2.54,1.71s-2.1,.6-3.32,.6h-6.74Zm3.12-2.42l-.24-.46h3.74c.78,0,1.48-.13,2.11-.38,.61-.26,1.13-.62,1.56-1.11,.43-.48,.76-1.06,.99-1.74s.34-1.45,.34-2.29-.12-1.61-.34-2.29c-.22-.68-.56-1.26-1-1.74s-.97-.85-1.57-1.1c-.61-.26-1.31-.39-2.09-.39h-3.81l.31-.41v11.9Z"/><path d="M195.52,341.12v-2.76h2.76v-11.28h-2.76v-2.76h8.64v2.76h-2.76v11.28h2.76v2.76h-8.64Z"/><path d="M208.96,341.12v-16.8h2.81l9.75,13.13-.53,.1c-.07-.45-.12-.91-.18-1.38-.04-.47-.09-.96-.13-1.47s-.07-1.05-.1-1.61c-.02-.56-.05-1.15-.06-1.76s-.03-1.27-.03-1.95v-5.04h3.11v16.8h-2.86l-9.79-12.93,.62-.17c.08,.9,.16,1.66,.21,2.29,.05,.63,.1,1.18,.13,1.63s.06,.83,.09,1.14c.02,.31,.04,.58,.04,.83,0,.25,.02,.48,.02,.71v6.5h-3.11Z"/><path d="M245.29,341.36c-1.2,0-2.31-.21-3.33-.65-1.04-.43-1.91-1.04-2.68-1.81s-1.35-1.69-1.77-2.74c-.42-1.06-.62-2.21-.62-3.46s.21-2.4,.62-3.46,1.01-1.97,1.77-2.75,1.64-1.38,2.68-1.81c1.02-.43,2.13-.65,3.33-.65s2.33,.22,3.37,.65c1.02,.43,1.9,1.04,2.66,1.83,.75,.78,1.34,1.7,1.76,2.74,.41,1.05,.62,2.2,.62,3.45s-.21,2.37-.62,3.43c-.42,1.05-1.01,1.97-1.76,2.76-.75,.78-1.64,1.39-2.66,1.82-1.04,.43-2.15,.65-3.37,.65Zm0-2.97c.77,0,1.47-.14,2.1-.42,.63-.28,1.18-.68,1.64-1.2,.47-.52,.84-1.12,1.09-1.81,.27-.69,.4-1.44,.4-2.26s-.13-1.57-.4-2.26c-.25-.69-.62-1.29-1.09-1.81-.46-.52-1.01-.92-1.64-1.2-.62-.28-1.33-.42-2.1-.42s-1.45,.14-2.08,.42c-.64,.28-1.19,.67-1.66,1.19s-.82,1.11-1.08,1.8c-.25,.69-.38,1.45-.38,2.28s.13,1.57,.38,2.27c.26,.7,.62,1.3,1.08,1.81,.47,.51,1.02,.91,1.66,1.19,.63,.28,1.33,.42,2.08,.42Z"/><path d="M264.76,341.27c-1.33,0-2.51-.28-3.55-.85-1.04-.57-1.86-1.35-2.46-2.35-.6-1-.9-2.13-.9-3.39v-10.37h3.14v10.16c0,.75,.18,1.42,.52,2s.81,1.05,1.38,1.41c.59,.35,1.21,.53,1.88,.53,.74,0,1.41-.18,1.99-.53,.59-.36,1.05-.82,1.41-1.41,.34-.59,.51-1.25,.51-2v-10.16h3.03v10.37c0,1.26-.29,2.4-.9,3.39-.6,1-1.42,1.79-2.46,2.35-1.04,.57-2.23,.85-3.57,.85Z"/><path d="M276.97,341.12v-16.8h7.29c1.02,0,1.93,.24,2.75,.71,.84,.47,1.5,1.11,1.99,1.92,.49,.81,.72,1.71,.72,2.72s-.23,1.85-.72,2.66c-.49,.81-1.15,1.45-1.97,1.92-.82,.47-1.75,.71-2.77,.71h-4.25v6.17h-3.05Zm3.05-8.88h4.27c.47,0,.88-.11,1.21-.32,.35-.21,.62-.52,.81-.9,.19-.39,.28-.81,.28-1.27,0-.53-.12-.98-.35-1.37-.24-.39-.59-.69-1.02-.91s-.92-.34-1.48-.34h-3.72v5.11Zm6.7,8.88l-4.27-7.58,3.2-.6,4.77,8.21-3.7-.02Z"/><path d="M303.64,341.12v-16.8h3.12v13.92h7.75v2.88h-10.87Z"/><path d="M316.22,341.12l6.54-16.8h2.93l6.5,16.8h-3.24l-3.59-9.55c-.08-.2-.2-.5-.33-.91s-.27-.87-.44-1.36-.3-.94-.43-1.37-.22-.73-.28-.92l.59-.02c-.09,.32-.2,.68-.33,1.08-.13,.4-.25,.82-.41,1.25-.14,.43-.27,.84-.41,1.25s-.26,.76-.37,1.08l-3.6,9.48h-3.12Zm2.97-3.84l1.07-2.71h7.66l1.15,2.71h-9.88Z"/><path d="M335.32,341.12v-16.8h2.8l9.75,13.13-.53,.1c-.07-.45-.13-.91-.17-1.38-.06-.47-.1-.96-.14-1.47s-.08-1.05-.1-1.61c-.02-.56-.04-1.15-.06-1.76s-.02-1.27-.02-1.95v-5.04h3.09v16.8h-2.85l-9.79-12.93,.62-.17c.08,.9,.14,1.66,.2,2.29,.06,.63,.1,1.18,.14,1.63,.03,.45,.06,.83,.08,1.14,.03,.31,.04,.58,.06,.83v7.21h-3.09Z"/><path d="M355.4,341.12v-16.8h6.75c1.22,0,2.31,.2,3.3,.6s1.83,.98,2.55,1.73c.7,.75,1.25,1.64,1.62,2.67,.38,1.02,.57,2.16,.57,3.41s-.19,2.39-.57,3.42c-.37,1.03-.91,1.92-1.61,2.67-.71,.74-1.55,1.31-2.55,1.71s-2.09,.6-3.31,.6h-6.75Zm3.12-2.42l-.23-.46h3.74c.78,0,1.48-.13,2.1-.38,.62-.26,1.13-.62,1.57-1.11,.43-.48,.75-1.06,.99-1.74,.21-.68,.33-1.45,.33-2.29s-.12-1.61-.33-2.29c-.23-.68-.57-1.26-1-1.74-.45-.48-.97-.85-1.58-1.1-.61-.26-1.3-.39-2.08-.39h-3.82l.31-.41v11.9Z"/><path d="M374.85,345.59l-1-1.18c.6-.32,1.07-.69,1.44-1.11s.54-.79,.54-1.09c0-.16-.04-.32-.11-.47s-.24-.36-.52-.61c-.33-.3-.56-.57-.66-.79-.12-.22-.18-.47-.18-.75,0-.42,.16-.75,.46-1.01s.69-.39,1.18-.39c.43,0,.81,.12,1.15,.36,.35,.24,.62,.57,.81,1,.19,.42,.28,.92,.28,1.47,0,.5-.08,.98-.25,1.46-.16,.47-.41,.91-.71,1.31-.31,.4-.67,.75-1.08,1.06s-.86,.56-1.35,.73Z"/><path d="M399.16,341.36c-1.26,0-2.43-.22-3.51-.66s-2-1.05-2.79-1.84-1.41-1.7-1.84-2.75c-.43-1.04-.64-2.19-.64-3.42s.21-2.35,.65-3.4c.44-1.04,1.06-1.96,1.87-2.73s1.74-1.38,2.81-1.81c1.08-.43,2.25-.65,3.5-.65,.88,0,1.73,.12,2.54,.36,.82,.24,1.56,.58,2.21,1.01,.66,.43,1.21,.92,1.64,1.46l-1.97,2.07c-.45-.43-.91-.79-1.38-1.08-.48-.29-.97-.51-1.47-.67-.52-.16-1.04-.24-1.58-.24-.8,0-1.54,.14-2.23,.43s-1.27,.69-1.78,1.2-.9,1.11-1.19,1.8c-.28,.69-.43,1.44-.43,2.26s.16,1.53,.45,2.23,.7,1.32,1.23,1.85,1.14,.94,1.84,1.24c.7,.3,1.45,.44,2.23,.44,.59,0,1.14-.09,1.66-.26,.51-.18,.96-.42,1.37-.73,.39-.31,.7-.67,.92-1.09s.32-.86,.32-1.34v-.53l.44,.51h-4.98v-2.79h7.62c.03,.18,.06,.38,.07,.59,.02,.21,.03,.42,.04,.62s0,.37,0,.51c0,1.1-.2,2.11-.58,3.01s-.93,1.68-1.62,2.34c-.69,.66-1.5,1.17-2.42,1.53-.92,.36-1.91,.54-2.99,.54Z"/><path d="M410.8,341.12v-16.8h7.29c1.02,0,1.93,.24,2.75,.71,.84,.47,1.5,1.11,1.99,1.92,.49,.81,.72,1.71,.72,2.72s-.23,1.85-.72,2.66c-.49,.81-1.15,1.45-1.97,1.92-.82,.47-1.75,.71-2.77,.71h-4.25v6.17h-3.05Zm3.05-8.88h4.27c.47,0,.88-.11,1.21-.32,.35-.21,.62-.52,.81-.9,.19-.39,.28-.81,.28-1.27,0-.53-.12-.98-.35-1.37-.24-.39-.59-.69-1.02-.91s-.92-.34-1.48-.34h-3.72v5.11Zm6.7,8.88l-4.27-7.58,3.2-.6,4.77,8.21-3.7-.02Z"/><path d="M435.25,341.36c-1.2,0-2.31-.21-3.33-.65-1.04-.43-1.91-1.04-2.68-1.81s-1.35-1.69-1.77-2.74c-.42-1.06-.62-2.21-.62-3.46s.21-2.4,.62-3.46,1.01-1.97,1.77-2.75,1.64-1.38,2.68-1.81c1.02-.43,2.13-.65,3.33-.65s2.33,.22,3.37,.65c1.02,.43,1.9,1.04,2.66,1.83,.75,.78,1.34,1.7,1.76,2.74,.41,1.05,.62,2.2,.62,3.45s-.21,2.37-.62,3.43c-.42,1.05-1.01,1.97-1.76,2.76-.75,.78-1.64,1.39-2.66,1.82-1.04,.43-2.15,.65-3.37,.65Zm0-2.97c.77,0,1.47-.14,2.1-.42,.63-.28,1.18-.68,1.64-1.2,.47-.52,.84-1.12,1.09-1.81,.27-.69,.4-1.44,.4-2.26s-.13-1.57-.4-2.26c-.25-.69-.62-1.29-1.09-1.81-.46-.52-1.01-.92-1.64-1.2-.62-.28-1.33-.42-2.1-.42s-1.45,.14-2.08,.42c-.64,.28-1.19,.67-1.66,1.19s-.82,1.11-1.08,1.8c-.25,.69-.38,1.45-.38,2.28s.13,1.57,.38,2.27c.26,.7,.62,1.3,1.08,1.81,.47,.51,1.02,.91,1.66,1.19,.63,.28,1.33,.42,2.08,.42Z"/><path d="M450.73,341.12l-5.22-16.8h3.26l2.98,9.91c.1,.31,.18,.64,.26,1.01,.08,.37,.15,.73,.21,1.09,.07,.36,.12,.69,.17,1,.05,.31,.1,.56,.15,.77l-.65-.02c.2-.75,.35-1.36,.46-1.83s.21-.85,.3-1.16,.18-.61,.27-.88l2.83-7.25h2.67l2.76,7.25c.16,.45,.29,.88,.43,1.28,.13,.41,.23,.81,.32,1.2s.17,.8,.25,1.21l-.58,.12c.06-.39,.12-.7,.14-.94,.04-.24,.07-.45,.1-.64,.04-.2,.07-.38,.1-.57,.04-.19,.09-.41,.16-.67,.08-.26,.17-.6,.27-1.02l2.96-9.87h3.23l-5.25,16.8h-2.25l-4.28-10.22,.29,.1-4.06,10.13h-2.29Z"/><path d="M471.24,341.12v-2.76h2.75v-11.28h-2.75v-2.76h8.63v2.76h-2.75v11.28h2.75v2.76h-8.63Z"/><path d="M484.72,341.12v-16.8h2.81l9.75,13.13-.53,.1c-.07-.45-.12-.91-.18-1.38-.04-.47-.09-.96-.13-1.47s-.07-1.05-.1-1.61c-.02-.56-.05-1.15-.06-1.76s-.03-1.27-.03-1.95v-5.04h3.11v16.8h-2.86l-9.79-12.93,.62-.17c.08,.9,.16,1.66,.21,2.29,.05,.63,.1,1.18,.13,1.63s.06,.83,.09,1.14c.02,.31,.04,.58,.04,.83,0,.25,.02,.48,.02,.71v6.5h-3.11Z"/><path d="M512.26,341.36c-1.27,0-2.44-.22-3.52-.66-1.06-.44-1.99-1.05-2.79-1.84-.78-.79-1.41-1.7-1.84-2.75-.43-1.04-.64-2.19-.64-3.42s.21-2.35,.66-3.4c.43-1.04,1.05-1.96,1.86-2.73s1.74-1.38,2.82-1.81c1.08-.43,2.24-.65,3.49-.65,.88,0,1.74,.12,2.55,.36s1.55,.58,2.21,1.01c.65,.43,1.2,.92,1.63,1.46l-1.97,2.07c-.44-.43-.9-.79-1.37-1.08-.48-.29-.98-.51-1.48-.67s-1.04-.24-1.58-.24c-.8,0-1.54,.14-2.23,.43-.67,.29-1.27,.69-1.77,1.2-.51,.51-.91,1.11-1.19,1.8s-.43,1.44-.43,2.26,.15,1.53,.44,2.23,.71,1.32,1.24,1.85,1.14,.94,1.84,1.24c.69,.3,1.44,.44,2.22,.44,.6,0,1.15-.09,1.66-.26s.97-.42,1.37-.73c.4-.31,.7-.67,.92-1.09s.33-.86,.33-1.34v-.53l.43,.51h-4.97v-2.79h7.61c.04,.18,.06,.38,.08,.59s.02,.42,.04,.62v.51c0,1.1-.19,2.11-.57,3.01-.39,.9-.93,1.68-1.62,2.34-.7,.66-1.5,1.17-2.42,1.53-.92,.36-1.91,.54-2.99,.54Z"/><path d="M540.3,341.36c-1.19,0-2.3-.21-3.34-.65-1.02-.43-1.91-1.04-2.68-1.81s-1.35-1.69-1.76-2.74c-.41-1.06-.62-2.21-.62-3.46s.21-2.4,.62-3.46,1-1.97,1.76-2.75,1.66-1.38,2.68-1.81c1.04-.43,2.15-.65,3.34-.65s2.34,.22,3.36,.65c1.03,.43,1.91,1.04,2.67,1.83,.75,.78,1.34,1.7,1.75,2.74,.42,1.05,.62,2.2,.62,3.45s-.21,2.37-.62,3.43c-.41,1.05-1,1.97-1.75,2.76-.75,.78-1.64,1.39-2.67,1.82-1.02,.43-2.15,.65-3.36,.65Zm0-2.97c.77,0,1.46-.14,2.1-.42,.63-.28,1.18-.68,1.65-1.2,.46-.52,.82-1.12,1.09-1.81,.25-.69,.39-1.44,.39-2.26s-.14-1.57-.39-2.26c-.27-.69-.63-1.29-1.09-1.81-.47-.52-1.02-.92-1.65-1.2s-1.33-.42-2.1-.42-1.45,.14-2.09,.42c-.63,.28-1.19,.67-1.65,1.19s-.83,1.11-1.08,1.8-.38,1.45-.38,2.28,.13,1.57,.38,2.27c.25,.7,.62,1.3,1.08,1.81,.46,.51,1.02,.91,1.65,1.19,.64,.28,1.34,.42,2.09,.42Z"/><path d="M559.78,341.27c-1.33,0-2.52-.28-3.55-.85s-1.86-1.35-2.46-2.35c-.61-1-.9-2.13-.9-3.39v-10.37h3.14v10.16c0,.75,.18,1.42,.51,2,.35,.59,.81,1.05,1.39,1.41,.58,.35,1.2,.53,1.88,.53,.73,0,1.4-.18,1.99-.53,.59-.36,1.05-.82,1.41-1.41,.33-.59,.51-1.25,.51-2v-10.16h3.03v10.37c0,1.26-.3,2.4-.9,3.39-.61,1-1.43,1.79-2.46,2.35s-2.23,.85-3.57,.85Z"/><path d="M571.98,341.12v-16.8h7.3c1.01,0,1.92,.24,2.75,.71,.84,.47,1.49,1.11,1.98,1.92,.49,.81,.73,1.71,.73,2.72s-.24,1.85-.73,2.66c-.49,.81-1.14,1.45-1.96,1.92-.83,.47-1.76,.71-2.77,.71h-4.26v6.17h-3.05Zm3.05-8.88h4.28c.47,0,.87-.11,1.21-.32,.35-.21,.62-.52,.8-.9,.2-.39,.29-.81,.29-1.27,0-.53-.12-.98-.36-1.37s-.58-.69-1.01-.91-.93-.34-1.48-.34h-3.73v5.11Zm6.7,8.88l-4.27-7.58,3.21-.6,4.76,8.21-3.7-.02Z"/><path d="M605.77,341.36c-1.21,0-2.32-.21-3.33-.62-1.01-.42-1.88-1.01-2.62-1.79s-1.31-1.69-1.72-2.76c-.4-1.06-.62-2.23-.62-3.49s.21-2.34,.65-3.38c.43-1.04,1.03-1.95,1.8-2.74,.77-.78,1.67-1.39,2.69-1.82,1.04-.43,2.14-.65,3.34-.65,.82,0,1.6,.12,2.38,.36,.76,.24,1.46,.57,2.11,1,.63,.42,1.17,.91,1.6,1.47l-1.99,2.18c-.41-.43-.84-.8-1.28-1.09-.44-.3-.9-.52-1.37-.67-.48-.15-.96-.23-1.46-.23-.74,0-1.43,.14-2.07,.41-.65,.27-1.21,.65-1.68,1.15-.48,.5-.85,1.08-1.12,1.76-.26,.68-.4,1.44-.4,2.27s.13,1.62,.39,2.3c.26,.68,.64,1.28,1.13,1.77,.49,.5,1.06,.88,1.75,1.14,.67,.26,1.43,.4,2.24,.4,.53,0,1.04-.07,1.54-.21,.49-.15,.96-.35,1.39-.62,.41-.26,.8-.57,1.15-.92l1.54,2.47c-.39,.43-.9,.83-1.54,1.18-.63,.35-1.35,.63-2.15,.83-.78,.2-1.58,.3-2.36,.3Z"/><path d="M623.27,341.36c-1.19,0-2.3-.21-3.34-.65-1.02-.43-1.91-1.04-2.68-1.81s-1.35-1.69-1.76-2.74c-.41-1.06-.62-2.21-.62-3.46s.21-2.4,.62-3.46,1-1.97,1.76-2.75,1.66-1.38,2.68-1.81c1.04-.43,2.15-.65,3.34-.65s2.34,.22,3.36,.65c1.03,.43,1.91,1.04,2.67,1.83,.75,.78,1.34,1.7,1.75,2.74,.42,1.05,.62,2.2,.62,3.45s-.21,2.37-.62,3.43c-.41,1.05-1,1.97-1.75,2.76-.75,.78-1.64,1.39-2.67,1.82-1.02,.43-2.15,.65-3.36,.65Zm0-2.97c.77,0,1.46-.14,2.1-.42,.63-.28,1.18-.68,1.65-1.2,.46-.52,.82-1.12,1.09-1.81,.25-.69,.39-1.44,.39-2.26s-.14-1.57-.39-2.26c-.27-.69-.63-1.29-1.09-1.81-.47-.52-1.02-.92-1.65-1.2s-1.33-.42-2.1-.42-1.45,.14-2.09,.42c-.63,.28-1.19,.67-1.65,1.19s-.83,1.11-1.08,1.8-.38,1.45-.38,2.28,.13,1.57,.38,2.27c.25,.7,.62,1.3,1.08,1.81,.46,.51,1.02,.91,1.65,1.19,.64,.28,1.34,.42,2.09,.42Z"/><path d="M635.63,341.12v-16.8h2.95l6.12,9.96-1.73-.02,6.19-9.94h2.81v16.8h-3.11v-6.31c0-1.44,.04-2.73,.12-3.89,.07-1.15,.2-2.29,.37-3.43l.38,1.04-5.21,8.04h-1.58l-5.04-7.97,.33-1.1c.18,1.07,.29,2.17,.37,3.3s.11,2.47,.11,4.02v6.31h-3.1Z"/><path d="M657.43,341.12v-16.8h2.95l6.11,9.96-1.72-.02,6.19-9.94h2.8v16.8h-3.1v-6.31c0-1.44,.04-2.73,.11-3.89s.2-2.29,.38-3.43l.37,1.04-5.2,8.04h-1.59l-5.04-7.97,.34-1.1c.18,1.07,.29,2.17,.37,3.3,.07,1.13,.1,2.47,.1,4.02v6.31h-3.09Z"/><path d="M685.93,341.27c-1.33,0-2.5-.28-3.54-.85s-1.87-1.35-2.46-2.35c-.6-1-.9-2.13-.9-3.39v-10.37h3.14v10.16c0,.75,.17,1.42,.52,2,.34,.59,.8,1.05,1.38,1.41,.58,.35,1.2,.53,1.87,.53,.74,0,1.41-.18,1.99-.53,.6-.36,1.06-.82,1.41-1.41,.35-.59,.52-1.25,.52-2v-10.16h3.03v10.37c0,1.26-.3,2.4-.91,3.39-.59,1-1.41,1.79-2.45,2.35s-2.24,.85-3.58,.85Z"/><path d="M698.12,341.12v-16.8h2.8l9.75,13.13-.53,.1c-.06-.45-.12-.91-.17-1.38s-.09-.96-.13-1.47-.08-1.05-.1-1.61c-.02-.56-.05-1.15-.06-1.76-.02-.62-.03-1.27-.03-1.95v-5.04h3.1v16.8h-2.85l-9.79-12.93,.62-.17c.08,.9,.15,1.66,.21,2.29,.06,.63,.1,1.18,.14,1.63,.02,.45,.06,.83,.08,1.14,.02,.31,.04,.58,.05,.83s0,.48,0,.71v6.5h-3.1Z"/><path d="M717.71,341.12v-2.76h2.76v-11.28h-2.76v-2.76h8.64v2.76h-2.76v11.28h2.76v2.76h-8.64Z"/><path d="M734.17,341.12v-13.92h-4.8v-2.88h12.87v2.88h-4.94v13.92h-3.12Z"/><path d="M750.24,341.12v-8.37l.18,1.17-6.8-9.6h3.65l5.18,7.44-1.12-.07,4.68-7.37h3.52l-6.5,9.87,.35-1.64v8.57h-3.12Z"/></g><g><path d="M24.84,280.77c-3.65,0-6.99-.62-10.01-1.87-3.03-1.25-5.64-3.04-7.85-5.36-2.21-2.33-3.93-5.09-5.15-8.28s-1.84-6.68-1.84-10.48,.64-7.03,1.94-10.15,3.1-5.85,5.4-8.21c2.3-2.35,4.99-4.17,8.07-5.47,3.07-1.3,6.41-1.95,10-1.95,2.45,0,4.82,.36,7.13,1.08,2.3,.72,4.42,1.71,6.34,2.98,1.92,1.27,3.53,2.75,4.82,4.43l-5.98,6.55c-1.25-1.29-2.53-2.39-3.85-3.28s-2.7-1.56-4.1-2.02c-1.42-.45-2.87-.68-4.37-.68-2.21,0-4.28,.41-6.22,1.23s-3.62,1.97-5.04,3.46-2.54,3.25-3.35,5.29c-.82,2.04-1.23,4.31-1.23,6.8s.4,4.85,1.19,6.91c.79,2.06,1.92,3.84,3.39,5.33s3.21,2.63,5.25,3.42,4.29,1.19,6.73,1.19c1.58,0,3.12-.22,4.61-.65,1.48-.43,2.87-1.04,4.14-1.84s2.43-1.72,3.5-2.77l4.6,7.42c-1.15,1.29-2.69,2.47-4.6,3.53-1.92,1.06-4.07,1.88-6.45,2.49-2.38,.6-4.75,.9-7.09,.9Z"/><path d="M79.7,280.77c-3.59,0-6.93-.64-10-1.94-3.08-1.29-5.75-3.11-8.04-5.43-2.28-2.33-4.04-5.08-5.28-8.24-1.25-3.17-1.88-6.63-1.88-10.37s.62-7.2,1.88-10.37c1.24-3.17,3.01-5.92,5.28-8.24,2.29-2.33,4.96-4.14,8.04-5.44,3.07-1.29,6.41-1.94,10-1.94s7.01,.65,10.09,1.94c3.07,1.3,5.73,3.12,7.99,5.47s4,5.1,5.25,8.24c1.25,3.14,1.88,6.59,1.88,10.33s-.62,7.13-1.88,10.3-3,5.93-5.25,8.28c-2.26,2.35-4.92,4.17-7.99,5.47-3.08,1.3-6.44,1.94-10.09,1.94Zm0-8.93c2.3,0,4.4-.42,6.3-1.26,1.9-.84,3.54-2.04,4.94-3.6,1.39-1.56,2.48-3.37,3.27-5.44,.79-2.06,1.19-4.32,1.19-6.77s-.4-4.7-1.19-6.77c-.79-2.06-1.88-3.88-3.27-5.43-1.4-1.56-3.04-2.76-4.94-3.6-1.89-.84-3.99-1.26-6.3-1.26s-4.35,.42-6.26,1.26c-1.92,.84-3.57,2.03-4.97,3.56-1.39,1.53-2.47,3.33-3.24,5.4-.76,2.07-1.15,4.35-1.15,6.84s.39,4.72,1.15,6.81c.77,2.08,1.86,3.9,3.24,5.43,1.4,1.54,3.05,2.72,4.97,3.56,1.91,.84,4,1.26,6.26,1.26Z"/><path d="M120.38,280.05v-50.4h21.89c3.02,0,5.78,.71,8.27,2.12,2.5,1.42,4.48,3.33,5.95,5.76,1.46,2.42,2.2,5.15,2.2,8.17s-.73,5.53-2.2,7.96c-1.46,2.42-3.44,4.35-5.91,5.76-2.47,1.42-5.24,2.12-8.31,2.12h-12.74v18.51h-9.15Zm9.15-26.64h12.81c1.39,0,2.61-.32,3.63-.97,1.04-.65,1.84-1.55,2.41-2.7s.87-2.42,.87-3.81c0-1.59-.36-2.95-1.08-4.11s-1.73-2.06-3.02-2.73c-1.3-.67-2.79-1.01-4.47-1.01h-11.15v15.34Zm20.09,26.64l-12.82-22.75,9.65-1.8,14.26,24.62-11.08-.07Z"/><path d="M184.46,280.05v-41.76h-14.4v-8.64h38.59v8.64h-14.83v41.76h-9.36Z"/><path d="M222.33,280.05v-50.4h9.36v41.76h23.26v8.64h-32.62Z"/><path d="M262.72,280.05l19.66-50.4h8.78l19.51,50.4h-9.72l-10.8-28.66c-.23-.58-.57-1.48-.97-2.73-.41-1.25-.86-2.6-1.34-4.07s-.91-2.83-1.29-4.11c-.39-1.27-.67-2.19-.87-2.77l1.8-.07c-.28,.96-.62,2.04-1.01,3.24-.38,1.2-.79,2.45-1.22,3.75-.43,1.3-.85,2.54-1.26,3.75s-.78,2.28-1.11,3.24l-10.8,28.44h-9.37Zm8.93-11.52l3.24-8.14h22.97l3.46,8.14h-29.67Z"/><path d="M322.77,280.05v-50.4h8.42l29.24,39.38-1.58,.29c-.2-1.34-.36-2.72-.51-4.14s-.27-2.89-.4-4.43c-.12-1.53-.21-3.14-.28-4.82s-.14-3.44-.19-5.29c-.04-1.85-.07-3.8-.07-5.86v-15.12h9.29v50.4h-8.56l-29.38-38.81,1.87-.5c.24,2.69,.45,4.98,.62,6.88,.17,1.9,.3,3.53,.4,4.9,.09,1.37,.18,2.51,.24,3.42,.08,.91,.13,1.74,.15,2.49,.03,.74,.04,1.45,.04,2.12v19.51h-9.29Z"/><path d="M385.99,280.05v-50.4h20.23c3.65,0,6.95,.6,9.9,1.8s5.5,2.92,7.63,5.18c2.14,2.26,3.77,4.92,4.9,7.99,1.12,3.07,1.69,6.48,1.69,10.22s-.57,7.16-1.69,10.26c-1.13,3.1-2.75,5.76-4.86,7.99s-4.66,3.95-7.64,5.15c-2.97,1.2-6.28,1.8-9.93,1.8h-20.23Zm9.37-7.27l-.72-1.37h11.23c2.35,0,4.45-.39,6.3-1.15,1.85-.77,3.43-1.88,4.72-3.32,1.3-1.44,2.29-3.18,2.96-5.22,.66-2.04,1.01-4.33,1.01-6.88s-.34-4.83-1.01-6.88c-.67-2.04-1.67-3.78-2.99-5.22-1.33-1.44-2.9-2.54-4.72-3.32-1.83-.77-3.92-1.15-6.27-1.15h-11.45l.94-1.23v35.71Z"/><path d="M476.05,280.05v-50.4h9.37v50.4h-9.37Zm3.89-20.74v-8.78h32.98v8.78h-32.98Zm28.45,20.74v-50.4h9.36v50.4h-9.36Z"/><path d="M529.91,280.05l19.65-50.4h8.79l19.51,50.4h-9.72l-10.8-28.66c-.24-.58-.57-1.48-.98-2.73s-.85-2.6-1.33-4.07-.92-2.83-1.3-4.11c-.38-1.27-.67-2.19-.86-2.77l1.8-.07c-.29,.96-.62,2.04-1.01,3.24-.39,1.2-.79,2.45-1.23,3.75-.43,1.3-.85,2.54-1.26,3.75-.4,1.2-.78,2.28-1.11,3.24l-10.8,28.44h-9.36Zm8.93-11.52l3.24-8.14h22.97l3.46,8.14h-29.67Z"/><path d="M589.95,280.05v-50.4h21.89c3.02,0,5.78,.71,8.27,2.12,2.5,1.42,4.48,3.33,5.95,5.76,1.46,2.42,2.2,5.15,2.2,8.17s-.73,5.53-2.2,7.96c-1.46,2.42-3.44,4.35-5.91,5.76-2.47,1.42-5.24,2.12-8.31,2.12h-12.74v18.51h-9.15Zm9.15-26.64h12.81c1.39,0,2.61-.32,3.63-.97,1.04-.65,1.84-1.55,2.41-2.7s.87-2.42,.87-3.81c0-1.59-.36-2.95-1.08-4.11s-1.73-2.06-3.02-2.73c-1.3-.67-2.79-1.01-4.47-1.01h-11.15v15.34Zm20.09,26.64l-12.82-22.75,9.65-1.8,14.26,24.62-11.08-.07Z"/><path d="M658.43,280.05l-20.16-50.4h10.22l11.23,28.87c.58,1.49,1.07,2.82,1.51,3.99,.43,1.18,.81,2.25,1.14,3.21,.34,.96,.64,1.89,.91,2.81s.56,1.87,.9,2.88h-2.02c.34-1.3,.7-2.58,1.08-3.85,.38-1.27,.83-2.63,1.33-4.07,.51-1.44,1.12-3.1,1.84-4.97l10.52-28.87h10.29l-20.3,50.4h-8.5Z"/><path d="M699.76,280.05v-50.4h32.98v8.5h-23.76v33.41h24.04v8.5h-33.26Zm4.32-21.6v-8.35h24.99v8.35h-24.99Z"/><path d="M766.14,280.77c-2.93,0-5.62-.37-8.07-1.11-2.45-.74-4.66-1.86-6.62-3.35-1.97-1.48-3.72-3.29-5.26-5.4l6.12-6.91c2.35,3.26,4.66,5.52,6.91,6.77s4.79,1.87,7.63,1.87c1.63,0,3.12-.25,4.46-.76,1.35-.5,2.4-1.2,3.17-2.08,.76-.89,1.15-1.91,1.15-3.06,0-.82-.16-1.57-.47-2.27-.31-.7-.78-1.32-1.41-1.88s-1.4-1.06-2.3-1.55c-.91-.48-1.94-.89-3.1-1.23-1.15-.33-2.42-.64-3.82-.93-2.64-.53-4.94-1.24-6.9-2.12-1.97-.89-3.63-1.99-4.97-3.31-1.35-1.32-2.33-2.81-2.95-4.47-.62-1.66-.94-3.54-.94-5.65s.47-4.06,1.4-5.83c.94-1.77,2.23-3.31,3.86-4.6,1.63-1.3,3.53-2.3,5.68-3.03,2.17-.72,4.49-1.08,6.99-1.08,2.82,0,5.36,.34,7.59,1.01,2.24,.67,4.2,1.67,5.91,2.99,1.7,1.32,3.11,2.92,4.21,4.79l-6.19,6.12c-.96-1.48-2.04-2.72-3.24-3.71-1.2-.98-2.49-1.73-3.89-2.23-1.39-.5-2.85-.76-4.38-.76-1.73,0-3.23,.24-4.5,.72-1.28,.48-2.28,1.16-2.99,2.05-.72,.89-1.08,1.96-1.08,3.2,0,.96,.21,1.81,.65,2.55,.43,.75,1.04,1.41,1.84,1.98,.79,.58,1.81,1.08,3.06,1.51,1.25,.43,2.67,.82,4.25,1.15,2.64,.53,5.01,1.24,7.13,2.12,2.11,.89,3.91,1.94,5.4,3.16,1.48,1.23,2.62,2.62,3.38,4.18,.77,1.56,1.15,3.3,1.15,5.22,0,3.31-.78,6.15-2.33,8.53-1.56,2.38-3.76,4.2-6.59,5.47-2.83,1.27-6.14,1.9-9.93,1.9Z"/><path d="M808.76,280.05v-41.76h-14.4v-8.64h38.59v8.64h-14.83v41.76h-9.36Z"/></g></g><g><path d="M419.66,0c-47.89,0-86.86,38.96-86.86,86.85s38.96,86.86,86.86,86.86,86.85-38.96,86.85-86.86S467.54,0,419.66,0Zm0,148.5c-33.99,0-61.65-27.66-61.65-61.65s27.66-61.64,61.65-61.64,61.64,27.65,61.64,61.64-27.65,61.65-61.64,61.65Z"/><path d="M392.22,78.63c.77-2.59,1.88-5.03,3.3-7.28l-23.99-17.43c-3.41,4.96-6.01,10.38-7.74,16.13,9.71,2.17,19.28,5.05,28.44,8.57Z"/><path d="M422.95,93.63c4.76,2.84,9.5,5.96,14.1,9.25,13.19-5.93,26.94-10.42,40.89-13.35,.05-1.06,.07-1.89,.07-2.69,0-4.55-.55-9.12-1.62-13.6-18.77,4.18-36.75,11.04-53.44,20.39Z"/><path d="M419.66,111.75c4.51-2.58,9.2-5.02,13.95-7.26-4.45-3.13-9.15-6.16-13.95-8.97-4.74,2.77-9.42,5.79-13.96,8.97,4.73,2.23,9.42,4.67,13.96,7.26Z"/><path d="M419.66,61.49c-11.46,0-21.23,7.38-24.36,18.37,8.35,3.37,16.54,7.35,24.36,11.83,7.8-4.47,15.99-8.45,24.35-11.83-3.12-10.99-12.9-18.37-24.35-18.37Z"/><path d="M419.7,125.05c5.08,0,10.14,.08,15.06,.25-4.79-3.42-9.87-6.69-15.1-9.75-5.22,3.05-10.3,6.33-15.12,9.76,4.88-.18,9.98-.26,15.16-.26Z"/><g><path d="M461.85,127.08c8.89-9.32,14.5-21.43,15.83-34.12-19.1,4.13-37.51,11.09-54.73,20.7,6.07,3.62,12.04,7.62,17.71,11.88,7.02,.33,14.15,.85,21.18,1.53Z"/><path d="M398.63,125.56c5.63-4.25,11.59-8.24,17.71-11.9-17.23-9.61-35.63-16.57-54.73-20.69,1.33,12.7,6.94,24.8,15.83,34.13,6.85-.67,13.96-1.19,21.18-1.53Z"/></g><path d="M419.66,145.21c14.48,0,28.35-5.36,39.11-15.1-12.94-1.17-26.07-1.77-39.07-1.77s-26.22,.61-39.15,1.78c10.76,9.73,24.64,15.09,39.11,15.09Z"/><path d="M439.25,31.89l-9.18,28.25c4.6,1.78,8.66,4.73,11.78,8.54l23.99-17.44c-6.88-8.9-16.06-15.59-26.59-19.36Z"/><path d="M361.37,89.53c13.95,2.93,27.7,7.42,40.89,13.35,4.6-3.29,9.35-6.41,14.1-9.25-16.69-9.36-34.67-16.21-53.44-20.39-1.07,4.48-1.62,9.05-1.62,13.6,0,.79,.02,1.62,.07,2.69Z"/><path d="M475.53,70.06c-1.74-5.75-4.34-11.17-7.74-16.13l-23.99,17.43c1.42,2.25,2.53,4.69,3.3,7.28,9.16-3.53,18.73-6.41,28.44-8.57Z"/><path d="M373.47,51.25l23.99,17.44c3.12-3.82,7.18-6.77,11.79-8.54l-9.19-28.25c-10.53,3.77-19.72,10.46-26.59,19.36Z"/><path d="M403.19,30.87l9.19,28.25c2.36-.61,4.8-.92,7.28-.92s4.9,.31,7.28,.92l9.18-28.25c-10.76-3.14-22.16-3.14-32.92,0Z"/></g></g></g></svg>