<?xml version="1.0" encoding="UTF-8"?><svg id="Layer_2" xmlns="http://www.w3.org/2000/svg" viewBox="0 0 832.96 345.44"><defs><style>.cls-1{fill:#fefefe;}</style></defs><g id="Layer_1-2"><g><g><g><path class="cls-1" d="M80.54,340.98v-16.8h7.29c1.01,0,1.92,.23,2.75,.7,.84,.48,1.49,1.11,1.98,1.92s.73,1.72,.73,2.72-.24,1.85-.73,2.66c-.49,.8-1.14,1.45-1.96,1.91-.83,.47-1.75,.71-2.77,.71h-4.25v6.16h-3.05Zm3.05-8.88h4.27c.47,0,.87-.11,1.21-.32,.35-.21,.62-.52,.81-.9,.19-.39,.28-.81,.28-1.28,0-.53-.12-.98-.36-1.37-.23-.38-.58-.68-1.01-.91s-.93-.34-1.48-.34h-3.72v5.12Zm6.7,8.88l-4.28-7.58,3.21-.61,4.76,8.21-3.69-.03Z"/><path class="cls-1" d="M104.99,341.23c-1.2,0-2.31-.21-3.34-.65-1.03-.43-1.91-1.04-2.68-1.81-.76-.78-1.35-1.69-1.76-2.74-.42-1.06-.62-2.22-.62-3.46s.21-2.4,.62-3.46c.41-1.05,1-1.97,1.76-2.75,.76-.77,1.65-1.38,2.68-1.81s2.14-.65,3.34-.65,2.33,.22,3.36,.65,1.91,1.04,2.67,1.83c.75,.78,1.34,1.7,1.75,2.74,.42,1.04,.62,2.2,.62,3.45s-.21,2.37-.62,3.43c-.41,1.05-1,1.97-1.75,2.76-.75,.78-1.64,1.39-2.67,1.82-1.03,.44-2.15,.65-3.36,.65Zm0-2.98c.77,0,1.46-.14,2.1-.42s1.18-.68,1.64-1.2c.47-.52,.83-1.12,1.09-1.81,.26-.69,.4-1.45,.4-2.26s-.14-1.57-.4-2.26c-.26-.69-.62-1.3-1.09-1.82-.46-.52-1.01-.92-1.64-1.2-.63-.27-1.33-.42-2.1-.42s-1.45,.15-2.09,.42c-.63,.28-1.19,.67-1.65,1.19-.47,.51-.83,1.11-1.08,1.8-.25,.69-.38,1.45-.38,2.29s.13,1.57,.38,2.27,.62,1.3,1.08,1.81c.46,.52,1.02,.91,1.65,1.19,.64,.28,1.34,.42,2.09,.42Z"/><path class="cls-1" d="M124.91,341.23c-1.2,0-2.31-.21-3.34-.65-1.03-.43-1.91-1.04-2.68-1.81-.76-.78-1.35-1.69-1.76-2.74-.42-1.06-.62-2.22-.62-3.46s.21-2.4,.62-3.46c.41-1.05,1-1.97,1.76-2.75,.76-.77,1.65-1.38,2.68-1.81s2.14-.65,3.34-.65,2.33,.22,3.36,.65,1.91,1.04,2.67,1.83c.75,.78,1.34,1.7,1.75,2.74,.42,1.04,.62,2.2,.62,3.45s-.21,2.37-.62,3.43c-.41,1.05-1,1.97-1.75,2.76-.75,.78-1.64,1.39-2.67,1.82-1.03,.44-2.15,.65-3.36,.65Zm0-2.98c.77,0,1.46-.14,2.1-.42s1.18-.68,1.64-1.2c.47-.52,.83-1.12,1.09-1.81,.26-.69,.4-1.45,.4-2.26s-.14-1.57-.4-2.26c-.26-.69-.62-1.3-1.09-1.82-.46-.52-1.01-.92-1.64-1.2-.63-.27-1.33-.42-2.1-.42s-1.45,.15-2.09,.42c-.63,.28-1.19,.67-1.65,1.19-.47,.51-.83,1.11-1.08,1.8-.25,.69-.38,1.45-.38,2.29s.13,1.57,.38,2.27,.62,1.3,1.08,1.81c.46,.52,1.02,.91,1.65,1.19,.64,.28,1.34,.42,2.09,.42Z"/><path class="cls-1" d="M139.86,340.98v-13.92h-4.79v-2.88h12.86v2.88h-4.94v13.92h-3.12Z"/><path class="cls-1" d="M151.96,340.98v-16.8h10.99v2.83h-7.92v11.13h8.02v2.83h-11.08Zm1.44-7.2v-2.78h8.33v2.78h-8.33Z"/><path class="cls-1" d="M167.92,340.98v-16.8h6.75c1.21,0,2.31,.2,3.3,.6s1.83,.98,2.54,1.73,1.26,1.64,1.63,2.67c.38,1.03,.57,2.16,.57,3.41s-.19,2.39-.57,3.42c-.37,1.04-.91,1.92-1.61,2.67-.71,.74-1.55,1.32-2.55,1.72s-2.1,.6-3.31,.6h-6.75Zm3.12-2.42l-.24-.46h3.75c.78,0,1.48-.13,2.1-.38s1.13-.62,1.57-1.1c.43-.48,.75-1.06,.98-1.74,.22-.68,.34-1.45,.34-2.29s-.12-1.61-.34-2.29c-.22-.67-.56-1.26-1-1.74s-.96-.85-1.57-1.1c-.61-.25-1.3-.38-2.08-.38h-3.82l.31-.41v11.9Z"/><path class="cls-1" d="M195.53,340.98v-2.75h2.75v-11.28h-2.75v-2.76h8.63v2.76h-2.75v11.28h2.75v2.75h-8.63Z"/><path class="cls-1" d="M208.96,340.98v-16.8h2.8l9.75,13.12-.53,.1c-.07-.45-.12-.91-.17-1.38-.05-.48-.1-.97-.14-1.47-.04-.52-.07-1.05-.1-1.61-.02-.56-.04-1.15-.06-1.77,0-.62-.02-1.27-.02-1.95v-5.04h3.1v16.8h-2.86l-9.79-12.93,.62-.18c.08,.9,.15,1.66,.21,2.29,.05,.63,.1,1.18,.13,1.63,.03,.46,.06,.84,.09,1.14,.02,.3,.04,.58,.05,.83,0,.24,0,.48,0,.7v6.5h-3.1Z"/><path class="cls-1" d="M245.29,341.23c-1.19,0-2.3-.21-3.33-.65-1.03-.43-1.91-1.04-2.68-1.81-.76-.78-1.35-1.69-1.77-2.74-.41-1.06-.62-2.22-.62-3.46s.21-2.4,.62-3.46c.42-1.05,1.01-1.97,1.77-2.75,.76-.77,1.65-1.38,2.68-1.81s2.14-.65,3.33-.65,2.34,.22,3.37,.65c1.02,.43,1.9,1.04,2.66,1.83,.75,.78,1.34,1.7,1.76,2.74,.41,1.04,.62,2.2,.62,3.45s-.21,2.37-.62,3.43c-.42,1.05-1.01,1.97-1.76,2.76-.75,.78-1.64,1.39-2.66,1.82-1.03,.44-2.15,.65-3.37,.65Zm0-2.98c.77,0,1.47-.14,2.1-.42,.63-.28,1.18-.68,1.65-1.2,.46-.52,.83-1.12,1.09-1.81,.26-.69,.39-1.45,.39-2.26s-.13-1.57-.39-2.26c-.26-.69-.63-1.3-1.09-1.82-.47-.52-1.02-.92-1.65-1.2-.62-.27-1.33-.42-2.1-.42s-1.45,.15-2.08,.42c-.64,.28-1.19,.67-1.66,1.19-.46,.51-.82,1.11-1.08,1.8-.25,.69-.38,1.45-.38,2.29s.13,1.57,.38,2.27c.26,.69,.62,1.3,1.08,1.81,.47,.52,1.02,.91,1.66,1.19,.63,.28,1.33,.42,2.08,.42Z"/><path class="cls-1" d="M264.76,341.13c-1.33,0-2.51-.28-3.54-.85-1.04-.57-1.87-1.36-2.46-2.35-.61-1-.9-2.13-.9-3.4v-10.37h3.14v10.16c0,.75,.17,1.42,.51,2,.35,.59,.81,1.05,1.39,1.41s1.2,.53,1.87,.53c.74,0,1.41-.18,1.99-.53,.6-.35,1.06-.82,1.41-1.41s.52-1.25,.52-2v-10.16h3.03v10.37c0,1.27-.3,2.4-.91,3.4-.6,1-1.42,1.79-2.45,2.35-1.04,.57-2.24,.85-3.58,.85Z"/><path class="cls-1" d="M276.97,340.98v-16.8h7.29c1.02,0,1.93,.23,2.76,.7,.83,.48,1.49,1.11,1.98,1.92s.73,1.72,.73,2.72-.24,1.85-.73,2.66c-.49,.8-1.14,1.45-1.97,1.91-.82,.47-1.75,.71-2.77,.71h-4.25v6.16h-3.05Zm3.05-8.88h4.28c.46,0,.87-.11,1.21-.32s.62-.52,.8-.9c.2-.39,.29-.81,.29-1.28,0-.53-.13-.98-.36-1.37-.24-.38-.58-.68-1.01-.91-.44-.22-.93-.34-1.49-.34h-3.72v5.12Zm6.7,8.88l-4.27-7.58,3.21-.61,4.76,8.21-3.7-.03Z"/><path class="cls-1" d="M303.64,340.98v-16.8h3.12v13.92h7.75v2.88h-10.87Z"/><path class="cls-1" d="M316.22,340.98l6.54-16.8h2.93l6.5,16.8h-3.23l-3.6-9.55c-.08-.2-.19-.5-.32-.91-.14-.42-.28-.87-.45-1.36-.16-.49-.3-.95-.43-1.37-.13-.43-.22-.73-.28-.93l.6-.02c-.1,.32-.21,.67-.33,1.07-.14,.4-.26,.82-.41,1.25s-.28,.85-.42,1.25-.26,.76-.37,1.07l-3.6,9.48h-3.12Zm2.97-3.84l1.08-2.71h7.66l1.15,2.71h-9.89Z"/><path class="cls-1" d="M335.32,340.98v-16.8h2.8l9.75,13.12-.53,.1c-.07-.45-.12-.91-.17-1.38-.05-.48-.1-.97-.14-1.47-.04-.52-.07-1.05-.1-1.61-.02-.56-.04-1.15-.06-1.77,0-.62-.02-1.27-.02-1.95v-5.04h3.1v16.8h-2.86l-9.79-12.93,.62-.18c.08,.9,.15,1.66,.21,2.29,.05,.63,.1,1.18,.13,1.63,.03,.46,.06,.84,.09,1.14,.02,.3,.04,.58,.05,.83,0,.24,0,.48,0,.7v6.5h-3.1Z"/><path class="cls-1" d="M355.41,340.98v-16.8h6.74c1.22,0,2.32,.2,3.3,.6,.99,.4,1.84,.98,2.55,1.73s1.25,1.64,1.63,2.67c.37,1.03,.57,2.16,.57,3.41s-.2,2.39-.57,3.42c-.38,1.04-.92,1.92-1.62,2.67s-1.55,1.32-2.55,1.72c-.99,.4-2.09,.6-3.31,.6h-6.74Zm3.12-2.42l-.23-.46h3.74c.78,0,1.48-.13,2.1-.38s1.14-.62,1.57-1.1,.76-1.06,.99-1.74c.22-.68,.33-1.45,.33-2.29s-.11-1.61-.33-2.29c-.22-.67-.56-1.26-1-1.74s-.97-.85-1.57-1.1-1.31-.38-2.09-.38h-3.82l.31-.41v11.9Z"/><path class="cls-1" d="M374.85,345.44l-.99-1.17c.59-.32,1.06-.69,1.43-1.11,.36-.43,.54-.79,.54-1.09,0-.17-.03-.32-.11-.47-.07-.16-.24-.36-.52-.62-.33-.3-.56-.57-.66-.79-.12-.22-.18-.47-.18-.74,0-.42,.16-.75,.46-1.01s.69-.39,1.18-.39c.43,0,.81,.13,1.16,.36,.34,.24,.61,.58,.8,1,.2,.43,.29,.92,.29,1.47,0,.5-.09,.99-.25,1.46s-.41,.91-.72,1.31-.67,.75-1.08,1.06c-.4,.31-.86,.56-1.35,.73Z"/><path class="cls-1" d="M399.16,341.23c-1.26,0-2.43-.22-3.51-.66-1.06-.44-2-1.04-2.79-1.84-.79-.78-1.41-1.7-1.84-2.74s-.64-2.19-.64-3.42,.21-2.35,.65-3.4,1.06-1.96,1.87-2.73c.8-.78,1.74-1.39,2.82-1.82,1.07-.43,2.24-.64,3.49-.64,.88,0,1.73,.12,2.55,.36,.81,.23,1.55,.58,2.21,1.01s1.2,.92,1.63,1.46l-1.97,2.06c-.44-.43-.91-.79-1.38-1.07-.47-.29-.97-.52-1.47-.67-.52-.17-1.04-.24-1.58-.24-.8,0-1.54,.15-2.23,.43-.67,.29-1.27,.69-1.77,1.2-.51,.52-.91,1.11-1.19,1.81-.29,.68-.43,1.44-.43,2.26s.15,1.52,.44,2.23,.71,1.32,1.24,1.85,1.13,.95,1.84,1.24c.69,.29,1.44,.44,2.22,.44,.6,0,1.14-.09,1.66-.26,.51-.18,.97-.42,1.37-.73,.4-.3,.7-.67,.92-1.08,.21-.42,.32-.87,.32-1.35v-.53l.44,.51h-4.97v-2.79h7.61c.03,.19,.06,.38,.07,.6,.02,.21,.03,.42,.04,.62,0,.2,0,.37,0,.51,0,1.1-.19,2.11-.58,3.02-.38,.9-.92,1.68-1.62,2.33-.69,.66-1.5,1.17-2.42,1.53-.92,.35-1.91,.54-2.99,.54Z"/><path class="cls-1" d="M410.8,340.98v-16.8h7.29c1.02,0,1.93,.23,2.76,.7,.83,.48,1.49,1.11,1.98,1.92s.73,1.72,.73,2.72-.24,1.85-.73,2.66c-.49,.8-1.14,1.45-1.97,1.91-.82,.47-1.75,.71-2.77,.71h-4.25v6.16h-3.05Zm3.05-8.88h4.28c.46,0,.87-.11,1.21-.32s.62-.52,.8-.9c.2-.39,.29-.81,.29-1.28,0-.53-.13-.98-.36-1.37-.24-.38-.58-.68-1.01-.91-.44-.22-.93-.34-1.49-.34h-3.72v5.12Zm6.7,8.88l-4.27-7.58,3.21-.61,4.76,8.21-3.7-.03Z"/><path class="cls-1" d="M435.25,341.23c-1.19,0-2.3-.21-3.33-.65-1.03-.43-1.91-1.04-2.68-1.81-.76-.78-1.35-1.69-1.77-2.74-.41-1.06-.62-2.22-.62-3.46s.21-2.4,.62-3.46c.42-1.05,1.01-1.97,1.77-2.75,.76-.77,1.65-1.38,2.68-1.81s2.14-.65,3.33-.65,2.34,.22,3.37,.65c1.02,.43,1.9,1.04,2.66,1.83,.75,.78,1.34,1.7,1.76,2.74,.41,1.04,.62,2.2,.62,3.45s-.21,2.37-.62,3.43c-.42,1.05-1.01,1.97-1.76,2.76-.75,.78-1.64,1.39-2.66,1.82-1.03,.44-2.15,.65-3.37,.65Zm0-2.98c.77,0,1.47-.14,2.1-.42,.63-.28,1.18-.68,1.65-1.2,.46-.52,.83-1.12,1.09-1.81,.26-.69,.39-1.45,.39-2.26s-.13-1.57-.39-2.26c-.26-.69-.63-1.3-1.09-1.82-.47-.52-1.02-.92-1.65-1.2-.62-.27-1.33-.42-2.1-.42s-1.45,.15-2.08,.42c-.64,.28-1.19,.67-1.66,1.19-.46,.51-.82,1.11-1.08,1.8-.25,.69-.38,1.45-.38,2.29s.13,1.57,.38,2.27c.26,.69,.62,1.3,1.08,1.81,.47,.52,1.02,.91,1.66,1.19,.63,.28,1.33,.42,2.08,.42Z"/><path class="cls-1" d="M450.74,340.98l-5.23-16.8h3.26l2.98,9.91c.1,.3,.19,.63,.26,1.01s.16,.73,.21,1.09c.07,.36,.12,.69,.17,1s.1,.56,.15,.77l-.64-.03c.19-.75,.34-1.36,.45-1.83,.12-.46,.21-.85,.3-1.16s.19-.61,.27-.88l2.83-7.25h2.67l2.76,7.25c.16,.45,.3,.88,.43,1.29s.23,.81,.32,1.2,.18,.79,.25,1.21l-.58,.12c.07-.38,.12-.69,.15-.94,.03-.23,.06-.45,.1-.64,.03-.2,.06-.38,.09-.57,.04-.19,.09-.41,.16-.67,.08-.26,.17-.6,.28-1.02l2.95-9.86h3.24l-5.25,16.8h-2.26l-4.28-10.22,.29,.1-4.06,10.13h-2.28Z"/><path class="cls-1" d="M471.24,340.98v-2.75h2.75v-11.28h-2.75v-2.76h8.63v2.76h-2.75v11.28h2.75v2.75h-8.63Z"/><path class="cls-1" d="M484.73,340.98v-16.8h2.8l9.75,13.12-.53,.1c-.07-.45-.12-.91-.17-1.38-.05-.48-.1-.97-.14-1.47-.04-.52-.07-1.05-.1-1.61-.02-.56-.04-1.15-.06-1.77,0-.62-.02-1.27-.02-1.95v-5.04h3.1v16.8h-2.86l-9.79-12.93,.62-.18c.08,.9,.15,1.66,.21,2.29,.05,.63,.1,1.18,.13,1.63,.03,.46,.06,.84,.09,1.14,.02,.3,.04,.58,.05,.83,0,.24,0,.48,0,.7v6.5h-3.1Z"/><path class="cls-1" d="M512.26,341.23c-1.27,0-2.43-.22-3.51-.66s-2-1.04-2.79-1.84c-.79-.78-1.41-1.7-1.84-2.74-.44-1.04-.65-2.19-.65-3.42s.22-2.35,.66-3.4,1.05-1.96,1.86-2.73c.8-.78,1.75-1.39,2.82-1.82,1.08-.43,2.25-.64,3.5-.64,.88,0,1.73,.12,2.54,.36,.82,.23,1.55,.58,2.21,1.01s1.2,.92,1.63,1.46l-1.96,2.06c-.45-.43-.91-.79-1.38-1.07-.48-.29-.97-.52-1.48-.67-.51-.17-1.04-.24-1.58-.24-.8,0-1.53,.15-2.22,.43-.68,.29-1.27,.69-1.78,1.2-.51,.52-.9,1.11-1.19,1.81-.28,.68-.43,1.44-.43,2.26s.15,1.52,.45,2.23c.29,.7,.7,1.32,1.23,1.85s1.14,.95,1.84,1.24,1.44,.44,2.23,.44c.59,0,1.14-.09,1.65-.26,.52-.18,.97-.42,1.37-.73,.4-.3,.71-.67,.93-1.08,.21-.42,.32-.87,.32-1.35v-.53l.43,.51h-4.97v-2.79h7.62c.03,.19,.05,.38,.07,.6s.03,.42,.04,.62c0,.2,0,.37,0,.51,0,1.1-.2,2.11-.58,3.02-.38,.9-.93,1.68-1.62,2.33-.69,.66-1.5,1.17-2.42,1.53-.92,.35-1.91,.54-2.99,.54Z"/><path class="cls-1" d="M540.3,341.23c-1.19,0-2.3-.21-3.33-.65-1.03-.43-1.91-1.04-2.68-1.81-.76-.78-1.35-1.69-1.77-2.74-.41-1.06-.62-2.22-.62-3.46s.21-2.4,.62-3.46c.42-1.05,1.01-1.97,1.77-2.75,.76-.77,1.65-1.38,2.68-1.81s2.14-.65,3.33-.65,2.34,.22,3.37,.65c1.02,.43,1.9,1.04,2.66,1.83,.75,.78,1.34,1.7,1.76,2.74,.41,1.04,.62,2.2,.62,3.45s-.21,2.37-.62,3.43c-.42,1.05-1.01,1.97-1.76,2.76-.75,.78-1.64,1.39-2.66,1.82-1.03,.44-2.15,.65-3.37,.65Zm0-2.98c.77,0,1.47-.14,2.1-.42,.63-.28,1.18-.68,1.65-1.2,.46-.52,.83-1.12,1.09-1.81,.26-.69,.39-1.45,.39-2.26s-.13-1.57-.39-2.26c-.26-.69-.63-1.3-1.09-1.82-.47-.52-1.02-.92-1.65-1.2-.62-.27-1.33-.42-2.1-.42s-1.45,.15-2.08,.42c-.64,.28-1.19,.67-1.66,1.19-.46,.51-.82,1.11-1.08,1.8-.25,.69-.38,1.45-.38,2.29s.13,1.57,.38,2.27c.26,.69,.62,1.3,1.08,1.81,.47,.52,1.02,.91,1.66,1.19,.63,.28,1.33,.42,2.08,.42Z"/><path class="cls-1" d="M559.78,341.13c-1.33,0-2.51-.28-3.55-.85-1.04-.57-1.86-1.36-2.46-2.35-.6-1-.9-2.13-.9-3.4v-10.37h3.14v10.16c0,.75,.18,1.42,.52,2s.8,1.05,1.38,1.41,1.2,.53,1.88,.53c.73,0,1.4-.18,1.99-.53,.59-.35,1.05-.82,1.41-1.41,.34-.59,.51-1.25,.51-2v-10.16h3.03v10.37c0,1.27-.3,2.4-.9,3.4s-1.42,1.79-2.46,2.35c-1.04,.57-2.23,.85-3.57,.85Z"/><path class="cls-1" d="M571.99,340.98v-16.8h7.29c1.01,0,1.92,.23,2.75,.7,.84,.48,1.49,1.11,1.98,1.92s.73,1.72,.73,2.72-.24,1.85-.73,2.66c-.49,.8-1.14,1.45-1.96,1.91-.83,.47-1.75,.71-2.77,.71h-4.25v6.16h-3.05Zm3.05-8.88h4.27c.47,0,.87-.11,1.21-.32,.35-.21,.62-.52,.81-.9,.19-.39,.28-.81,.28-1.28,0-.53-.12-.98-.36-1.37-.23-.38-.58-.68-1.01-.91s-.93-.34-1.48-.34h-3.72v5.12Zm6.7,8.88l-4.28-7.58,3.21-.61,4.76,8.21-3.69-.03Z"/><path class="cls-1" d="M605.78,341.23c-1.22,0-2.33-.21-3.34-.62s-1.88-1.02-2.62-1.79c-.73-.78-1.31-1.7-1.72-2.76-.4-1.06-.61-2.23-.61-3.49s.21-2.34,.64-3.39c.43-1.04,1.04-1.95,1.8-2.73,.77-.78,1.67-1.4,2.7-1.83s2.13-.64,3.33-.64c.82,0,1.61,.12,2.38,.36,.76,.23,1.46,.57,2.11,1,.63,.42,1.17,.91,1.61,1.47l-1.99,2.18c-.42-.43-.85-.79-1.29-1.08-.44-.3-.9-.53-1.37-.67-.47-.16-.96-.23-1.46-.23-.73,0-1.43,.14-2.07,.41-.65,.27-1.21,.65-1.68,1.15-.48,.5-.85,1.08-1.12,1.77-.26,.68-.4,1.44-.4,2.27s.13,1.62,.39,2.3,.64,1.28,1.13,1.78,1.06,.88,1.75,1.14,1.43,.39,2.25,.39c.53,0,1.04-.07,1.53-.21s.96-.35,1.39-.62c.42-.26,.81-.57,1.16-.92l1.53,2.47c-.38,.43-.9,.82-1.53,1.17-.64,.35-1.36,.63-2.15,.83-.79,.21-1.58,.3-2.36,.3Z"/><path class="cls-1" d="M623.27,341.23c-1.19,0-2.3-.21-3.33-.65-1.03-.43-1.91-1.04-2.68-1.81-.76-.78-1.35-1.69-1.77-2.74-.41-1.06-.62-2.22-.62-3.46s.21-2.4,.62-3.46c.42-1.05,1.01-1.97,1.77-2.75,.76-.77,1.65-1.38,2.68-1.81s2.14-.65,3.33-.65,2.34,.22,3.37,.65c1.02,.43,1.9,1.04,2.66,1.83,.75,.78,1.34,1.7,1.76,2.74,.41,1.04,.62,2.2,.62,3.45s-.21,2.37-.62,3.43c-.42,1.05-1.01,1.97-1.76,2.76-.75,.78-1.64,1.39-2.66,1.82-1.03,.44-2.15,.65-3.37,.65Zm0-2.98c.77,0,1.47-.14,2.1-.42,.63-.28,1.18-.68,1.65-1.2,.46-.52,.83-1.12,1.09-1.81,.26-.69,.39-1.45,.39-2.26s-.13-1.57-.39-2.26c-.26-.69-.63-1.3-1.09-1.82-.47-.52-1.02-.92-1.65-1.2-.62-.27-1.33-.42-2.1-.42s-1.45,.15-2.08,.42c-.64,.28-1.19,.67-1.66,1.19-.46,.51-.82,1.11-1.08,1.8-.25,.69-.38,1.45-.38,2.29s.13,1.57,.38,2.27c.26,.69,.62,1.3,1.08,1.81,.47,.52,1.02,.91,1.66,1.19,.63,.28,1.33,.42,2.08,.42Z"/><path class="cls-1" d="M635.63,340.98v-16.8h2.96l6.11,9.96-1.73-.03,6.19-9.93h2.81v16.8h-3.1v-6.31c0-1.45,.04-2.73,.11-3.89s.2-2.29,.37-3.44l.38,1.04-5.21,8.04h-1.58l-5.04-7.97,.33-1.1c.18,1.07,.3,2.18,.37,3.3,.08,1.13,.11,2.47,.11,4.02v6.31h-3.1Z"/><path class="cls-1" d="M657.43,340.98v-16.8h2.95l6.12,9.96-1.73-.03,6.19-9.93h2.8v16.8h-3.1v-6.31c0-1.45,.04-2.73,.11-3.89,.08-1.15,.2-2.29,.38-3.44l.38,1.04-5.21,8.04h-1.59l-5.04-7.97,.34-1.1c.18,1.07,.29,2.18,.37,3.3,.07,1.13,.11,2.47,.11,4.02v6.31h-3.1Z"/><path class="cls-1" d="M685.94,341.13c-1.33,0-2.51-.28-3.55-.85-1.04-.57-1.86-1.36-2.46-2.35-.6-1-.9-2.13-.9-3.4v-10.37h3.14v10.16c0,.75,.18,1.42,.52,2s.8,1.05,1.38,1.41,1.2,.53,1.88,.53c.73,0,1.4-.18,1.99-.53,.59-.35,1.05-.82,1.41-1.41,.34-.59,.51-1.25,.51-2v-10.16h3.03v10.37c0,1.27-.3,2.4-.9,3.4s-1.42,1.79-2.46,2.35c-1.04,.57-2.23,.85-3.57,.85Z"/><path class="cls-1" d="M698.12,340.98v-16.8h2.81l9.75,13.12-.53,.1c-.07-.45-.13-.91-.18-1.38-.05-.48-.09-.97-.13-1.47-.04-.52-.08-1.05-.1-1.61s-.05-1.15-.06-1.77c-.02-.62-.03-1.27-.03-1.95v-5.04h3.1v16.8h-2.85l-9.79-12.93,.62-.18c.08,.9,.15,1.66,.21,2.29s.1,1.18,.14,1.63c.03,.46,.06,.84,.08,1.14,.03,.3,.04,.58,.05,.83,0,.24,0,.48,0,.7v6.5h-3.1Z"/><path class="cls-1" d="M717.71,340.98v-2.75h2.75v-11.28h-2.75v-2.76h8.63v2.76h-2.75v11.28h2.75v2.75h-8.63Z"/><path class="cls-1" d="M734.17,340.98v-13.92h-4.79v-2.88h12.86v2.88h-4.94v13.92h-3.12Z"/><path class="cls-1" d="M750.25,340.98v-8.37l.17,1.17-6.79-9.6h3.64l5.19,7.44-1.13-.08,4.69-7.36h3.51l-6.5,9.86,.35-1.63v8.56h-3.12Z"/></g><g><path class="cls-1" d="M24.84,280.63c-3.65,0-6.98-.62-10.01-1.87-3.02-1.25-5.63-3.04-7.84-5.36-2.22-2.33-3.93-5.09-5.16-8.28-1.22-3.19-1.84-6.69-1.84-10.48s.65-7.03,1.94-10.16c1.3-3.12,3.1-5.85,5.4-8.2s5-4.18,8.07-5.47c3.08-1.3,6.41-1.95,10.01-1.95,2.45,0,4.82,.36,7.13,1.08s4.41,1.72,6.34,2.99c1.91,1.27,3.53,2.74,4.82,4.42l-5.98,6.55c-1.25-1.29-2.54-2.38-3.86-3.27s-2.69-1.56-4.1-2.02c-1.42-.45-2.87-.68-4.36-.68-2.21,0-4.29,.41-6.23,1.23-1.94,.81-3.62,1.96-5.04,3.46-1.42,1.48-2.53,3.25-3.35,5.29-.81,2.04-1.22,4.31-1.22,6.8s.4,4.85,1.19,6.91,1.91,3.84,3.38,5.33c1.46,1.48,3.21,2.63,5.25,3.42s4.29,1.19,6.74,1.19c1.58,0,3.12-.22,4.61-.65,1.48-.43,2.86-1.04,4.14-1.84,1.27-.79,2.43-1.72,3.49-2.77l4.61,7.42c-1.15,1.29-2.69,2.47-4.61,3.53s-4.06,1.88-6.45,2.48c-2.37,.61-4.74,.9-7.09,.9Z"/><path class="cls-1" d="M79.71,280.63c-3.6,0-6.93-.64-10.01-1.94-3.08-1.29-5.75-3.11-8.03-5.43-2.29-2.33-4.04-5.08-5.29-8.24-1.25-3.17-1.88-6.63-1.88-10.37s.62-7.2,1.88-10.37c1.25-3.16,3.01-5.92,5.29-8.24,2.28-2.32,4.95-4.14,8.03-5.44,3.08-1.29,6.41-1.94,10.01-1.94s7,.65,10.08,1.94c3.08,1.3,5.73,3.12,7.99,5.48s4.01,5.1,5.26,8.24c1.24,3.14,1.87,6.59,1.87,10.33s-.62,7.13-1.87,10.29c-1.25,3.17-3.01,5.93-5.26,8.28s-4.91,4.18-7.99,5.47c-3.08,1.3-6.44,1.94-10.08,1.94Zm0-8.93c2.3,0,4.4-.42,6.3-1.26s3.54-2.04,4.93-3.59c1.4-1.56,2.48-3.38,3.27-5.44,.8-2.06,1.19-4.32,1.19-6.77s-.39-4.71-1.19-6.77c-.79-2.06-1.88-3.88-3.27-5.44-1.4-1.55-3.04-2.75-4.93-3.59s-3.99-1.26-6.3-1.26-4.35,.42-6.27,1.26c-1.91,.84-3.57,2.02-4.96,3.56-1.4,1.53-2.47,3.33-3.24,5.39-.77,2.07-1.15,4.35-1.15,6.85s.38,4.72,1.15,6.81c.77,2.08,1.85,3.9,3.24,5.43,1.39,1.54,3.05,2.72,4.96,3.56,1.92,.84,4.01,1.26,6.27,1.26Z"/><path class="cls-1" d="M120.39,279.92v-50.4h21.88c3.03,0,5.78,.7,8.28,2.12s4.47,3.34,5.94,5.76,2.2,5.15,2.2,8.17-.73,5.53-2.2,7.96c-1.46,2.42-3.43,4.35-5.9,5.75-2.48,1.42-5.24,2.13-8.32,2.13h-12.74v18.51h-9.14Zm9.14-26.64h12.81c1.4,0,2.61-.32,3.64-.98,1.03-.64,1.84-1.54,2.41-2.7s.86-2.42,.86-3.82c0-1.58-.36-2.95-1.07-4.1-.72-1.15-1.73-2.06-3.03-2.73s-2.78-1.02-4.46-1.02h-11.16v15.34Zm20.09,26.64l-12.81-22.75,9.65-1.8,14.26,24.62-11.09-.07Z"/><path class="cls-1" d="M184.46,279.92v-41.76h-14.39v-8.64h38.59v8.64h-14.83v41.76h-9.37Z"/><path class="cls-1" d="M222.33,279.92v-50.4h9.37v41.76h23.25v8.64h-32.62Z"/><path class="cls-1" d="M262.73,279.92l19.65-50.4h8.79l19.51,50.4h-9.72l-10.8-28.66c-.24-.58-.57-1.48-.98-2.73s-.85-2.6-1.33-4.06-.92-2.83-1.3-4.11c-.38-1.27-.67-2.19-.86-2.76l1.8-.08c-.29,.97-.62,2.04-1.01,3.24-.39,1.2-.79,2.45-1.23,3.74-.43,1.3-.85,2.55-1.26,3.75-.4,1.2-.78,2.28-1.11,3.23l-10.8,28.45h-9.36Zm8.93-11.52l3.24-8.13h22.97l3.46,8.13h-29.67Z"/><path class="cls-1" d="M322.77,279.92v-50.4h8.43l29.23,39.38-1.58,.28c-.2-1.34-.36-2.72-.51-4.14-.14-1.42-.27-2.89-.39-4.42s-.21-3.14-.29-4.82c-.07-1.68-.13-3.45-.18-5.29s-.07-3.81-.07-5.87v-15.12h9.29v50.4h-8.57l-29.38-38.81,1.88-.51c.23,2.7,.44,4.98,.62,6.88,.17,1.9,.29,3.54,.39,4.9s.19,2.51,.25,3.42,.12,1.74,.15,2.48c.02,.74,.03,1.46,.03,2.13v19.51h-9.29Z"/><path class="cls-1" d="M386,279.92v-50.4h20.23c3.64,0,6.94,.6,9.89,1.8,2.96,1.2,5.5,2.93,7.64,5.19,2.13,2.26,3.77,4.92,4.89,7.99,1.13,3.08,1.69,6.48,1.69,10.22s-.56,7.17-1.69,10.26c-1.12,3.1-2.74,5.76-4.85,7.99-2.12,2.24-4.66,3.96-7.64,5.15-2.98,1.2-6.29,1.81-9.93,1.81h-20.23Zm9.36-7.28l-.71-1.37h11.23c2.34,0,4.45-.38,6.3-1.15s3.42-1.88,4.72-3.31c1.29-1.45,2.28-3.18,2.95-5.22,.67-2.03,1.01-4.33,1.01-6.88s-.33-4.83-1.01-6.88-1.67-3.78-2.99-5.21c-1.32-1.45-2.89-2.55-4.72-3.32-1.83-.76-3.92-1.14-6.26-1.14h-11.46l.94-1.23v35.71Z"/><path class="cls-1" d="M476.06,279.92v-50.4h9.36v50.4h-9.36Zm3.89-20.74v-8.78h32.98v8.78h-32.98Zm28.44,20.74v-50.4h9.37v50.4h-9.37Z"/><path class="cls-1" d="M529.91,279.92l19.66-50.4h8.78l19.51,50.4h-9.72l-10.8-28.66c-.23-.58-.57-1.48-.97-2.73-.41-1.25-.86-2.6-1.34-4.06s-.91-2.83-1.29-4.11c-.39-1.27-.67-2.19-.87-2.76l1.8-.08c-.28,.97-.62,2.04-1.01,3.24-.38,1.2-.79,2.45-1.22,3.74-.43,1.3-.85,2.55-1.26,3.75s-.78,2.28-1.11,3.23l-10.8,28.45h-9.37Zm8.93-11.52l3.24-8.13h22.97l3.46,8.13h-29.67Z"/><path class="cls-1" d="M589.96,279.92v-50.4h21.88c3.03,0,5.78,.7,8.28,2.12s4.47,3.34,5.94,5.76,2.2,5.15,2.2,8.17-.73,5.53-2.2,7.96c-1.46,2.42-3.43,4.35-5.9,5.75-2.48,1.42-5.24,2.13-8.32,2.13h-12.74v18.51h-9.14Zm9.14-26.64h12.81c1.4,0,2.61-.32,3.64-.98,1.03-.64,1.84-1.54,2.41-2.7s.86-2.42,.86-3.82c0-1.58-.36-2.95-1.07-4.1-.72-1.15-1.73-2.06-3.03-2.73s-2.78-1.02-4.46-1.02h-11.16v15.34Zm20.09,26.64l-12.81-22.75,9.65-1.8,14.26,24.62-11.09-.07Z"/><path class="cls-1" d="M658.43,279.92l-20.16-50.4h10.22l11.23,28.87c.58,1.49,1.08,2.82,1.51,3.99,.43,1.18,.82,2.25,1.15,3.21,.33,.96,.63,1.89,.9,2.8,.26,.92,.57,1.88,.9,2.88h-2.01c.33-1.3,.69-2.58,1.07-3.85,.39-1.28,.83-2.64,1.34-4.07,.5-1.44,1.11-3.1,1.84-4.97l10.51-28.87h10.3l-20.31,50.4h-8.5Z"/><path class="cls-1" d="M699.76,279.92v-50.4h32.98v8.5h-23.76v33.41h24.05v8.5h-33.27Zm4.33-21.6v-8.35h24.98v8.35h-24.98Z"/><path class="cls-1" d="M766.14,280.63c-2.93,0-5.62-.37-8.07-1.11-2.44-.74-4.66-1.86-6.62-3.35-1.97-1.48-3.72-3.28-5.25-5.4l6.11-6.9c2.35,3.26,4.66,5.52,6.91,6.77s4.8,1.87,7.64,1.87c1.63,0,3.12-.24,4.46-.75,1.34-.51,2.4-1.2,3.16-2.09,.77-.89,1.15-1.9,1.15-3.06,0-.82-.16-1.57-.47-2.27-.31-.7-.78-1.33-1.4-1.88-.62-.56-1.4-1.06-2.3-1.55-.92-.48-1.94-.89-3.1-1.22s-2.43-.64-3.82-.94c-2.65-.53-4.94-1.23-6.91-2.12s-3.62-1.99-4.97-3.31c-1.34-1.33-2.32-2.81-2.95-4.47-.62-1.65-.94-3.54-.94-5.64s.47-4.06,1.41-5.84c.94-1.77,2.22-3.31,3.85-4.6,1.63-1.3,3.54-2.3,5.69-3.03s4.48-1.08,6.98-1.08c2.83,0,5.36,.34,7.6,1.02,2.23,.66,4.2,1.66,5.9,2.99,1.71,1.32,3.12,2.91,4.22,4.79l-6.19,6.11c-.97-1.48-2.04-2.71-3.24-3.7s-2.5-1.73-3.89-2.24c-1.4-.5-2.86-.75-4.39-.75-1.73,0-3.23,.23-4.5,.72-1.27,.48-2.27,1.16-2.99,2.05-.71,.89-1.07,1.95-1.07,3.2,0,.96,.21,1.81,.64,2.55,.43,.75,1.04,1.41,1.84,1.98s1.82,1.08,3.06,1.51c1.25,.43,2.67,.82,4.25,1.15,2.65,.53,5.02,1.24,7.13,2.13,2.12,.89,3.92,1.94,5.4,3.16,1.49,1.22,2.62,2.62,3.39,4.18,.76,1.55,1.15,3.3,1.15,5.21,0,3.31-.78,6.15-2.34,8.54-1.56,2.37-3.76,4.2-6.58,5.47-2.84,1.27-6.15,1.9-9.94,1.9Z"/><path class="cls-1" d="M808.76,279.92v-41.76h-14.39v-8.64h38.59v8.64h-14.83v41.76h-9.37Z"/></g></g><g><path class="cls-1" d="M419.65,0c-47.81,0-86.71,38.9-86.71,86.71s38.9,86.71,86.71,86.71,86.71-38.9,86.71-86.71S467.46,0,419.65,0Zm0,148.51c-34.07,0-61.8-27.72-61.8-61.8s27.72-61.79,61.8-61.79,61.8,27.71,61.8,61.79-27.72,61.8-61.8,61.8Z"/><path class="cls-1" d="M392.12,78.29c.76-2.52,1.84-4.88,3.19-7.03l-23.76-17.28c-3.34,4.9-5.89,10.22-7.59,15.82,9.62,2.16,19.09,5.01,28.15,8.49Z"/><path class="cls-1" d="M423.24,93.5c4.76,2.86,9.4,5.91,13.82,9.07,13.11-5.88,26.81-10.35,40.73-13.29,.05-.97,.07-1.77,.07-2.57,0-4.48-.54-8.99-1.58-13.43-18.62,4.16-36.46,10.97-53.04,20.21Z"/><path class="cls-1" d="M419.65,111.44c4.39-2.51,8.98-4.89,13.64-7.11-4.4-3.09-8.98-6.04-13.64-8.77-4.66,2.72-9.24,5.68-13.64,8.77,4.66,2.22,9.25,4.6,13.64,7.11Z"/><path class="cls-1" d="M419.65,61.5c-11.33,0-21.03,7.29-24.17,18.13,8.29,3.36,16.43,7.31,24.17,11.74,7.74-4.42,15.88-8.38,24.17-11.74-3.14-10.85-12.84-18.13-24.17-18.13Z"/><path class="cls-1" d="M419.69,124.76c4.94,0,9.84,.08,14.57,.24-4.74-3.35-9.65-6.51-14.61-9.4-5,2.92-9.91,6.07-14.61,9.4,4.75-.17,9.67-.24,14.65-.24Z"/><g><path class="cls-1" d="M461.8,126.79c8.77-9.23,14.35-21.21,15.71-33.77-18.92,4.1-37.17,11-54.26,20.51,6.03,3.6,11.89,7.55,17.47,11.74,7.14,.34,14.23,.85,21.07,1.52Z"/><path class="cls-1" d="M416.05,113.53c-17.09-9.51-35.34-16.41-54.26-20.51,1.37,12.57,6.94,24.55,15.72,33.77,7.02-.68,14.11-1.19,21.05-1.52,2.06-1.55,4.28-2.83,6.4-4.3,1.57-1.09,3.15-2.15,4.75-3.19,2.13-1.38,4.17-2.95,6.33-4.25Z"/></g><path class="cls-1" d="M419.65,144.92c14.32,0,28.07-5.27,38.76-14.84-12.98-1.15-26.01-1.74-38.72-1.74s-25.86,.59-38.8,1.75c10.7,9.57,24.46,14.83,38.76,14.83Z"/><path class="cls-1" d="M439.33,31.94l-9.08,27.98c4.53,1.78,8.54,4.69,11.62,8.43l23.75-17.27c-6.81-8.77-15.89-15.38-26.29-19.14Z"/><path class="cls-1" d="M361.52,89.28c13.93,2.94,27.63,7.41,40.73,13.29,4.41-3.16,9.05-6.22,13.82-9.07-16.57-9.26-34.41-16.05-53.04-20.21-1.04,4.43-1.58,8.95-1.58,13.43,0,.8,.02,1.6,.07,2.57Z"/><path class="cls-1" d="M475.34,69.8c-1.71-5.62-4.26-10.94-7.59-15.82l-23.76,17.28c1.36,2.15,2.43,4.51,3.19,7.03,9.06-3.48,18.54-6.33,28.15-8.49Z"/><path class="cls-1" d="M373.68,51.08l23.76,17.27c3.08-3.74,7.09-6.65,11.62-8.43l-9.08-27.98c-10.4,3.76-19.48,10.37-26.3,19.14Z"/><path class="cls-1" d="M412.48,58.8c2.34-.59,4.76-.88,7.17-.88s4.82,.29,7.17,.88l9.09-27.96c-10.59-3.09-21.93-3.09-32.52,0l9.09,27.96Z"/></g></g></g></svg>