<?xml version="1.0" encoding="UTF-8"?><svg id="Layer_2" xmlns="http://www.w3.org/2000/svg" viewBox="0 0 832.95 348.74"><g id="Layer_1-2"><g><g><path d="M419.65,0c-49.71,0-90,40.29-90,90s40.29,90,90,90,90-40.29,90-90S469.36,0,419.65,0Zm0,178.5c-48.8,0-88.5-39.7-88.5-88.5S370.85,1.5,419.65,1.5s88.5,39.7,88.5,88.5-39.7,88.5-88.5,88.5Z"/><path d="M419.65,1.5c-48.8,0-88.5,39.7-88.5,88.5s39.7,88.5,88.5,88.5,88.5-39.7,88.5-88.5S468.45,1.5,419.65,1.5Zm0,175.5c-47.97,0-87-39.03-87-87S371.68,3,419.65,3s87,39.03,87,87-39.03,87-87,87Z"/><path d="M419.65,28.5c-33.91,0-61.5,27.59-61.5,61.5s27.59,61.5,61.5,61.5,61.5-27.59,61.5-61.5-27.59-61.5-61.5-61.5Zm0,3c5.78,0,11.36,.86,16.64,2.43l-9.27,28.53c-2.36-.62-4.83-.95-7.37-.95s-5.02,.33-7.37,.95l-9.27-28.53c5.28-1.57,10.86-2.43,16.64-2.43Zm0,83.57c-4.65-2.66-9.4-5.13-14.24-7.41,4.64-3.27,9.39-6.34,14.24-9.18,4.85,2.84,9.6,5.9,14.24,9.18-4.84,2.28-9.59,4.75-14.24,7.41Zm0,3.46c5.35,3.12,10.56,6.48,15.59,10.09-5.19-.18-10.38-.28-15.55-.28s-10.42,.1-15.64,.28c5.03-3.61,10.24-6.97,15.6-10.09Zm-24.53-35.43c3.07-11.01,12.97-18.6,24.53-18.6s21.46,7.59,24.53,18.6c-8.43,3.4-16.62,7.37-24.53,11.92-7.92-4.54-16.11-8.51-24.53-11.92Zm5.04-48.25l9.27,28.53c-4.7,1.79-8.8,4.78-11.94,8.66l-24.24-17.61c6.83-8.89,16.15-15.77,26.91-19.58Zm-28.67,22l24.24,17.61c-1.47,2.28-2.62,4.8-3.41,7.51-9.3-3.59-18.89-6.48-28.73-8.66,1.77-5.94,4.45-11.48,7.89-16.46Zm-10.33,33.14c0-4.75,.58-9.36,1.66-13.78,19,4.21,37.03,11.1,53.85,20.56-4.9,2.93-9.7,6.07-14.38,9.43-13.18-5.93-26.98-10.45-41.05-13.4-.04-.93-.07-1.87-.07-2.81Zm.3,5.93c19.24,4.13,37.94,11.22,55.2,20.88-6.2,3.69-12.21,7.71-17.97,12.04-7.13,.34-14.24,.86-21.28,1.54-8.77-9.17-14.6-21.16-15.94-34.46Zm58.2,52.57c-15.19,0-29.05-5.83-39.46-15.35,13.07-1.19,26.34-1.8,39.5-1.8s26.39,.61,39.43,1.8c-10.41,9.53-24.27,15.36-39.47,15.36Zm42.26-18.12c-7.05-.68-14.16-1.2-21.29-1.54-5.76-4.33-11.76-8.35-17.96-12.04,17.26-9.66,35.96-16.75,55.2-20.88-1.34,13.3-7.18,25.29-15.94,34.46Zm16.24-40.38c0,.94-.03,1.88-.07,2.81-14.08,2.95-27.87,7.47-41.05,13.4-4.68-3.36-9.48-6.5-14.38-9.43,16.82-9.46,34.86-16.35,53.85-20.56,1.07,4.42,1.66,9.03,1.66,13.78Zm-2.44-16.68c-9.84,2.19-19.43,5.07-28.73,8.66-.79-2.71-1.94-5.23-3.41-7.51l24.24-17.61c3.44,4.99,6.12,10.53,7.89,16.46Zm-33.9-1.27c-3.13-3.88-7.24-6.87-11.94-8.66l9.27-28.53c10.76,3.82,20.08,10.69,26.91,19.58l-24.24,17.61Z"/></g><g><g><path d="M80.54,344.28v-16.81h7.29c1.02,0,1.93,.24,2.76,.71s1.49,1.11,1.98,1.92c.49,.8,.73,1.71,.73,2.71s-.24,1.85-.73,2.66-1.14,1.45-1.97,1.92c-.82,.47-1.74,.7-2.77,.7h-4.24v6.17h-3.05Zm3.05-8.89h4.27c.46,0,.87-.11,1.21-.32s.62-.52,.81-.9c.19-.38,.28-.81,.28-1.27,0-.53-.13-.99-.36-1.37-.23-.39-.58-.69-1.01-.92-.44-.22-.93-.33-1.49-.33h-3.71v5.11Zm6.7,8.89l-4.28-7.59,3.21-.6,4.76,8.2-3.69-.02Z"/><path d="M104.99,344.51c-1.2,0-2.31-.21-3.34-.64s-1.91-1.04-2.68-1.82c-.76-.77-1.35-1.69-1.76-2.74-.42-1.05-.62-2.21-.62-3.46s.21-2.4,.62-3.46c.41-1.05,1-1.97,1.76-2.74,.76-.78,1.65-1.38,2.68-1.82,1.03-.43,2.14-.64,3.34-.64s2.33,.21,3.36,.64c1.02,.44,1.91,1.04,2.66,1.83,.76,.78,1.35,1.7,1.76,2.74,.41,1.05,.62,2.2,.62,3.45s-.21,2.37-.62,3.44c-.41,1.05-1,1.97-1.76,2.75-.74,.78-1.64,1.4-2.66,1.83-1.03,.43-2.15,.64-3.36,.64Zm0-2.97c.76,0,1.46-.15,2.09-.42,.64-.28,1.19-.68,1.65-1.2,.46-.53,.83-1.12,1.09-1.82,.26-.68,.4-1.44,.4-2.26s-.14-1.56-.4-2.26c-.26-.68-.63-1.29-1.09-1.81-.46-.53-1.01-.93-1.65-1.2-.62-.28-1.33-.42-2.09-.42s-1.45,.14-2.09,.42c-.64,.27-1.19,.67-1.66,1.18-.46,.52-.82,1.11-1.07,1.81-.25,.68-.39,1.45-.39,2.28s.14,1.57,.39,2.27c.25,.7,.62,1.31,1.07,1.82,.47,.51,1.02,.91,1.66,1.19,.64,.27,1.33,.42,2.09,.42Z"/><path d="M124.91,344.51c-1.2,0-2.31-.21-3.34-.64s-1.91-1.04-2.68-1.82c-.76-.77-1.35-1.69-1.76-2.74-.42-1.05-.62-2.21-.62-3.46s.21-2.4,.62-3.46c.41-1.05,1-1.97,1.76-2.74,.76-.78,1.65-1.38,2.68-1.82,1.03-.43,2.14-.64,3.34-.64s2.33,.21,3.36,.64c1.02,.44,1.91,1.04,2.66,1.83,.76,.78,1.35,1.7,1.76,2.74,.41,1.05,.62,2.2,.62,3.45s-.21,2.37-.62,3.44c-.41,1.05-1,1.97-1.76,2.75-.74,.78-1.64,1.4-2.66,1.83-1.03,.43-2.15,.64-3.36,.64Zm0-2.97c.76,0,1.46-.15,2.09-.42,.64-.28,1.19-.68,1.65-1.2,.46-.53,.83-1.12,1.09-1.82,.26-.68,.4-1.44,.4-2.26s-.14-1.56-.4-2.26c-.26-.68-.63-1.29-1.09-1.81-.46-.53-1.01-.93-1.65-1.2-.62-.28-1.33-.42-2.09-.42s-1.45,.14-2.09,.42c-.64,.27-1.19,.67-1.66,1.18-.46,.52-.82,1.11-1.07,1.81-.25,.68-.39,1.45-.39,2.28s.14,1.57,.39,2.27c.25,.7,.62,1.31,1.07,1.82,.47,.51,1.02,.91,1.66,1.19,.64,.27,1.33,.42,2.09,.42Z"/><path d="M139.86,344.28v-13.93h-4.79v-2.88h12.86v2.88h-4.95v13.93h-3.12Z"/><path d="M151.96,344.28v-16.81h10.99v2.83h-7.92v11.14h8.02v2.83h-11.08Zm1.44-7.21v-2.78h8.33v2.78h-8.33Z"/><path d="M167.92,344.28v-16.81h6.74c1.22,0,2.32,.21,3.3,.61,1,.4,1.84,.98,2.55,1.73s1.26,1.64,1.63,2.67c.37,1.02,.57,2.16,.57,3.41s-.2,2.38-.57,3.42c-.37,1.03-.92,1.91-1.62,2.67-.7,.74-1.54,1.31-2.54,1.71s-2.1,.61-3.32,.61h-6.74Zm3.12-2.42l-.24-.46h3.74c.78,0,1.48-.13,2.11-.38,.61-.26,1.13-.62,1.56-1.11,.43-.48,.76-1.05,.99-1.74,.22-.67,.34-1.45,.34-2.29s-.12-1.61-.34-2.29-.56-1.26-1-1.74-.97-.85-1.57-1.1c-.61-.26-1.31-.39-2.09-.39h-3.81l.31-.4v11.9Z"/><path d="M195.52,344.28v-2.76h2.76v-11.28h-2.76v-2.76h8.64v2.76h-2.76v11.28h2.76v2.76h-8.64Z"/><path d="M208.96,344.28v-16.81h2.81l9.75,13.13-.53,.1c-.07-.45-.12-.91-.18-1.39-.04-.47-.09-.96-.13-1.47-.04-.51-.07-1.04-.1-1.61-.02-.56-.05-1.14-.06-1.76s-.03-1.27-.03-1.95v-5.05h3.11v16.81h-2.86l-9.79-12.94,.62-.17c.08,.9,.16,1.66,.21,2.29,.05,.62,.1,1.17,.13,1.63,.03,.45,.06,.83,.09,1.13,.02,.31,.04,.59,.04,.83,0,.25,.02,.49,.02,.71v6.5h-3.11Z"/><path d="M245.29,344.51c-1.2,0-2.31-.21-3.33-.64-1.04-.43-1.91-1.04-2.68-1.82-.76-.77-1.35-1.69-1.77-2.74s-.62-2.21-.62-3.46,.21-2.4,.62-3.46,1.01-1.97,1.77-2.74c.76-.78,1.64-1.38,2.68-1.82,1.02-.43,2.13-.64,3.33-.64s2.33,.21,3.37,.64c1.02,.44,1.9,1.04,2.66,1.83s1.34,1.7,1.76,2.74c.41,1.05,.62,2.2,.62,3.45s-.21,2.37-.62,3.44c-.42,1.05-1.01,1.97-1.76,2.75s-1.64,1.4-2.66,1.83c-1.04,.43-2.15,.64-3.37,.64Zm0-2.97c.77,0,1.47-.15,2.1-.42,.63-.28,1.18-.68,1.64-1.2,.47-.53,.84-1.12,1.09-1.82,.27-.68,.4-1.44,.4-2.26s-.13-1.56-.4-2.26c-.25-.68-.62-1.29-1.09-1.81-.46-.53-1.01-.93-1.64-1.2-.62-.28-1.33-.42-2.1-.42s-1.45,.14-2.08,.42c-.64,.27-1.19,.67-1.66,1.18-.47,.52-.82,1.11-1.08,1.81-.25,.68-.38,1.45-.38,2.28s.13,1.57,.38,2.27c.26,.7,.62,1.31,1.08,1.82s1.02,.91,1.66,1.19c.63,.27,1.33,.42,2.08,.42Z"/><path d="M264.76,344.41c-1.33,0-2.51-.28-3.55-.85-1.04-.57-1.86-1.35-2.46-2.35-.6-1-.9-2.13-.9-3.39v-10.37h3.14v10.16c0,.75,.18,1.42,.52,2s.81,1.04,1.38,1.41c.59,.35,1.21,.53,1.88,.53,.74,0,1.41-.18,1.99-.53,.59-.36,1.05-.82,1.41-1.41,.34-.59,.51-1.25,.51-2v-10.16h3.03v10.37c0,1.26-.29,2.39-.9,3.39-.6,1.01-1.42,1.79-2.46,2.35-1.04,.57-2.23,.85-3.57,.85Z"/><path d="M276.97,344.28v-16.81h7.29c1.02,0,1.93,.24,2.75,.71,.84,.47,1.5,1.11,1.99,1.92,.49,.8,.72,1.71,.72,2.71s-.23,1.85-.72,2.66-1.15,1.45-1.97,1.92c-.82,.47-1.75,.7-2.77,.7h-4.25v6.17h-3.05Zm3.05-8.89h4.27c.47,0,.88-.11,1.21-.32,.35-.21,.62-.52,.81-.9s.28-.81,.28-1.27c0-.53-.12-.99-.35-1.37-.24-.39-.59-.69-1.02-.92s-.92-.33-1.48-.33h-3.72v5.11Zm6.7,8.89l-4.27-7.59,3.2-.6,4.77,8.2-3.7-.02Z"/><path d="M303.64,344.28v-16.81h3.12v13.93h7.75v2.88h-10.87Z"/><path d="M316.22,344.28l6.54-16.81h2.93l6.5,16.81h-3.24l-3.59-9.55c-.08-.2-.2-.5-.33-.92-.14-.41-.27-.87-.44-1.36s-.3-.94-.43-1.37c-.13-.42-.22-.73-.28-.92l.59-.03c-.09,.32-.2,.68-.33,1.08-.13,.4-.25,.81-.41,1.25-.14,.43-.27,.84-.41,1.24s-.26,.76-.37,1.08l-3.6,9.48h-3.12Zm2.97-3.84l1.07-2.71h7.66l1.15,2.71h-9.88Z"/><path d="M335.32,344.28v-16.81h2.8l9.75,13.13-.53,.1c-.07-.45-.13-.91-.17-1.39-.06-.47-.1-.96-.14-1.47-.04-.51-.08-1.04-.1-1.61-.02-.56-.04-1.14-.06-1.76s-.02-1.27-.02-1.95v-5.05h3.09v16.81h-2.85l-9.79-12.94,.62-.17c.08,.9,.14,1.66,.2,2.29,.06,.62,.1,1.17,.14,1.63,.03,.45,.06,.83,.08,1.13,.03,.31,.04,.59,.06,.83v7.22h-3.09Z"/><path d="M355.4,344.28v-16.81h6.75c1.22,0,2.31,.21,3.3,.61s1.83,.98,2.55,1.73c.7,.75,1.25,1.64,1.62,2.67,.38,1.02,.57,2.16,.57,3.41s-.19,2.38-.57,3.42c-.37,1.03-.91,1.91-1.61,2.67-.71,.74-1.55,1.31-2.55,1.71s-2.09,.61-3.31,.61h-6.75Zm3.12-2.42l-.23-.46h3.74c.78,0,1.48-.13,2.1-.38,.62-.26,1.13-.62,1.57-1.11,.43-.48,.75-1.05,.99-1.74,.21-.67,.33-1.45,.33-2.29s-.12-1.61-.33-2.29c-.23-.68-.57-1.26-1-1.74-.45-.48-.97-.85-1.58-1.1-.61-.26-1.3-.39-2.08-.39h-3.82l.31-.4v11.9Z"/><path d="M374.85,348.74l-1-1.18c.6-.31,1.07-.68,1.44-1.11,.36-.42,.54-.79,.54-1.09,0-.16-.04-.31-.11-.47-.07-.15-.24-.35-.52-.61-.33-.3-.56-.57-.66-.79-.12-.22-.18-.48-.18-.75,0-.41,.16-.75,.46-1.01s.69-.38,1.18-.38c.43,0,.81,.12,1.15,.36,.35,.23,.62,.57,.81,1,.19,.42,.28,.92,.28,1.47,0,.5-.08,.98-.25,1.46-.16,.47-.41,.91-.71,1.31-.31,.39-.67,.75-1.08,1.06s-.86,.56-1.35,.73Z"/><path d="M399.16,344.51c-1.26,0-2.43-.21-3.51-.65s-2-1.05-2.79-1.84c-.79-.79-1.41-1.7-1.84-2.75-.43-1.04-.64-2.19-.64-3.42s.21-2.34,.65-3.4c.44-1.04,1.06-1.95,1.87-2.73,.8-.77,1.74-1.38,2.81-1.81,1.08-.44,2.25-.65,3.5-.65,.88,0,1.73,.13,2.54,.36,.82,.24,1.56,.58,2.21,1.01,.66,.44,1.21,.93,1.64,1.46l-1.97,2.07c-.45-.44-.91-.79-1.38-1.08-.48-.28-.97-.51-1.47-.67-.52-.16-1.04-.23-1.58-.23-.8,0-1.54,.14-2.23,.43-.68,.28-1.27,.68-1.78,1.2-.51,.51-.9,1.11-1.19,1.8-.28,.69-.43,1.45-.43,2.26s.16,1.53,.45,2.24,.7,1.32,1.23,1.85,1.14,.94,1.84,1.23c.7,.3,1.45,.45,2.23,.45,.59,0,1.14-.09,1.66-.26,.51-.18,.96-.42,1.37-.73,.39-.31,.7-.67,.92-1.09,.21-.41,.32-.86,.32-1.34v-.54l.44,.51h-4.98v-2.78h7.62c.03,.18,.06,.37,.07,.59,.02,.21,.03,.43,.04,.62,0,.21,0,.37,0,.52,0,1.1-.2,2.11-.58,3.01-.38,.91-.93,1.69-1.62,2.34s-1.5,1.16-2.42,1.52-1.91,.54-2.99,.54Z"/><path d="M410.8,344.28v-16.81h7.29c1.02,0,1.93,.24,2.75,.71,.84,.47,1.5,1.11,1.99,1.92,.49,.8,.72,1.71,.72,2.71s-.23,1.85-.72,2.66-1.15,1.45-1.97,1.92c-.82,.47-1.75,.7-2.77,.7h-4.25v6.17h-3.05Zm3.05-8.89h4.27c.47,0,.88-.11,1.21-.32,.35-.21,.62-.52,.81-.9s.28-.81,.28-1.27c0-.53-.12-.99-.35-1.37-.24-.39-.59-.69-1.02-.92s-.92-.33-1.48-.33h-3.72v5.11Zm6.7,8.89l-4.27-7.59,3.2-.6,4.77,8.2-3.7-.02Z"/><path d="M435.25,344.51c-1.2,0-2.31-.21-3.33-.64-1.04-.43-1.91-1.04-2.68-1.82-.76-.77-1.35-1.69-1.77-2.74s-.62-2.21-.62-3.46,.21-2.4,.62-3.46,1.01-1.97,1.77-2.74c.76-.78,1.64-1.38,2.68-1.82,1.02-.43,2.13-.64,3.33-.64s2.33,.21,3.37,.64c1.02,.44,1.9,1.04,2.66,1.83s1.34,1.7,1.76,2.74c.41,1.05,.62,2.2,.62,3.45s-.21,2.37-.62,3.44c-.42,1.05-1.01,1.97-1.76,2.75s-1.64,1.4-2.66,1.83c-1.04,.43-2.15,.64-3.37,.64Zm0-2.97c.77,0,1.47-.15,2.1-.42,.63-.28,1.18-.68,1.64-1.2,.47-.53,.84-1.12,1.09-1.82,.27-.68,.4-1.44,.4-2.26s-.13-1.56-.4-2.26c-.25-.68-.62-1.29-1.09-1.81-.46-.53-1.01-.93-1.64-1.2-.62-.28-1.33-.42-2.1-.42s-1.45,.14-2.08,.42c-.64,.27-1.19,.67-1.66,1.18-.47,.52-.82,1.11-1.08,1.81-.25,.68-.38,1.45-.38,2.28s.13,1.57,.38,2.27c.26,.7,.62,1.31,1.08,1.82s1.02,.91,1.66,1.19c.63,.27,1.33,.42,2.08,.42Z"/><path d="M450.73,344.28l-5.22-16.81h3.26l2.98,9.91c.1,.31,.18,.64,.26,1.02,.08,.36,.15,.73,.21,1.08,.07,.36,.12,.69,.17,1,.05,.31,.1,.57,.15,.77l-.65-.02c.2-.75,.35-1.37,.46-1.83,.11-.47,.21-.85,.3-1.16s.18-.61,.27-.88l2.83-7.25h2.67l2.76,7.25c.16,.45,.29,.88,.43,1.28,.13,.41,.23,.81,.32,1.2s.17,.8,.25,1.21l-.58,.13c.06-.39,.12-.7,.14-.94,.04-.24,.07-.46,.1-.64,.04-.2,.07-.38,.1-.57,.04-.19,.09-.41,.16-.67,.08-.26,.17-.61,.27-1.02l2.96-9.87h3.23l-5.25,16.81h-2.25l-4.28-10.22,.29,.1-4.06,10.13h-2.29Z"/><path d="M471.24,344.28v-2.76h2.75v-11.28h-2.75v-2.76h8.63v2.76h-2.75v11.28h2.75v2.76h-8.63Z"/><path d="M484.72,344.28v-16.81h2.81l9.75,13.13-.53,.1c-.07-.45-.12-.91-.18-1.39-.04-.47-.09-.96-.13-1.47-.04-.51-.07-1.04-.1-1.61-.02-.56-.05-1.14-.06-1.76s-.03-1.27-.03-1.95v-5.05h3.11v16.81h-2.86l-9.79-12.94,.62-.17c.08,.9,.16,1.66,.21,2.29,.05,.62,.1,1.17,.13,1.63,.03,.45,.06,.83,.09,1.13,.02,.31,.04,.59,.04,.83,0,.25,.02,.49,.02,.71v6.5h-3.11Z"/><path d="M512.26,344.51c-1.27,0-2.44-.21-3.52-.65-1.06-.44-1.99-1.05-2.79-1.84-.78-.79-1.41-1.7-1.84-2.75-.43-1.04-.64-2.19-.64-3.42s.21-2.34,.66-3.4c.43-1.04,1.05-1.95,1.86-2.73,.8-.77,1.74-1.38,2.82-1.81,1.08-.44,2.24-.65,3.49-.65,.88,0,1.74,.13,2.55,.36,.81,.24,1.55,.58,2.21,1.01,.65,.44,1.2,.93,1.63,1.46l-1.97,2.07c-.44-.44-.9-.79-1.37-1.08-.48-.28-.98-.51-1.48-.67-.51-.16-1.04-.23-1.58-.23-.8,0-1.54,.14-2.23,.43-.67,.28-1.27,.68-1.77,1.2-.51,.51-.91,1.11-1.19,1.8-.28,.69-.43,1.45-.43,2.26s.15,1.53,.44,2.24,.71,1.32,1.24,1.85,1.14,.94,1.84,1.23c.69,.3,1.44,.45,2.22,.45,.6,0,1.15-.09,1.66-.26s.97-.42,1.37-.73,.7-.67,.92-1.09c.21-.41,.33-.86,.33-1.34v-.54l.43,.51h-4.97v-2.78h7.61c.04,.18,.06,.37,.08,.59s.02,.43,.04,.62v.52c0,1.1-.19,2.11-.57,3.01-.39,.91-.93,1.69-1.62,2.34-.7,.65-1.5,1.16-2.42,1.52s-1.91,.54-2.99,.54Z"/><path d="M540.3,344.51c-1.19,0-2.3-.21-3.34-.64-1.02-.43-1.91-1.04-2.68-1.82-.76-.77-1.35-1.69-1.76-2.74s-.62-2.21-.62-3.46,.21-2.4,.62-3.46,1-1.97,1.76-2.74c.76-.78,1.66-1.38,2.68-1.82,1.04-.43,2.15-.64,3.34-.64s2.34,.21,3.36,.64c1.03,.44,1.91,1.04,2.67,1.83s1.34,1.7,1.75,2.74c.42,1.05,.62,2.2,.62,3.45s-.21,2.37-.62,3.44c-.41,1.05-1,1.97-1.75,2.75s-1.64,1.4-2.67,1.83c-1.02,.43-2.15,.64-3.36,.64Zm0-2.97c.77,0,1.46-.15,2.1-.42,.63-.28,1.18-.68,1.65-1.2,.46-.53,.82-1.12,1.09-1.82,.25-.68,.39-1.44,.39-2.26s-.14-1.56-.39-2.26c-.27-.68-.63-1.29-1.09-1.81-.47-.53-1.02-.93-1.65-1.2-.63-.28-1.33-.42-2.1-.42s-1.45,.14-2.09,.42c-.63,.27-1.19,.67-1.65,1.18-.46,.52-.83,1.11-1.08,1.81-.25,.68-.38,1.45-.38,2.28s.13,1.57,.38,2.27c.25,.7,.62,1.31,1.08,1.82s1.02,.91,1.65,1.19c.64,.27,1.34,.42,2.09,.42Z"/><path d="M559.78,344.41c-1.33,0-2.52-.28-3.55-.85s-1.86-1.35-2.46-2.35c-.61-1-.9-2.13-.9-3.39v-10.37h3.14v10.16c0,.75,.18,1.42,.51,2,.35,.59,.81,1.04,1.39,1.41,.58,.35,1.2,.53,1.88,.53,.73,0,1.4-.18,1.99-.53,.59-.36,1.05-.82,1.41-1.41,.33-.59,.51-1.25,.51-2v-10.16h3.03v10.37c0,1.26-.3,2.39-.9,3.39-.61,1.01-1.43,1.79-2.46,2.35s-2.23,.85-3.57,.85Z"/><path d="M571.98,344.28v-16.81h7.3c1.01,0,1.92,.24,2.75,.71,.84,.47,1.49,1.11,1.98,1.92,.49,.8,.73,1.71,.73,2.71s-.24,1.85-.73,2.66-1.14,1.45-1.96,1.92c-.83,.47-1.76,.7-2.77,.7h-4.26v6.17h-3.05Zm3.05-8.89h4.28c.47,0,.87-.11,1.21-.32,.35-.21,.62-.52,.8-.9,.2-.38,.29-.81,.29-1.27,0-.53-.12-.99-.36-1.37-.24-.39-.58-.69-1.01-.92s-.93-.33-1.48-.33h-3.73v5.11Zm6.7,8.89l-4.27-7.59,3.21-.6,4.76,8.2-3.7-.02Z"/><path d="M605.77,344.51c-1.21,0-2.32-.21-3.33-.62-1.01-.41-1.88-1.01-2.62-1.79-.73-.77-1.31-1.69-1.72-2.75-.4-1.06-.62-2.23-.62-3.5s.21-2.34,.65-3.38c.43-1.04,1.03-1.95,1.8-2.74,.77-.78,1.67-1.39,2.69-1.82,1.04-.44,2.14-.65,3.34-.65,.82,0,1.6,.13,2.38,.36,.76,.24,1.46,.58,2.11,1,.63,.43,1.17,.92,1.6,1.47l-1.99,2.19c-.41-.43-.84-.8-1.28-1.09s-.9-.52-1.37-.67c-.48-.15-.96-.22-1.46-.22-.74,0-1.43,.14-2.07,.41-.65,.27-1.21,.65-1.68,1.15-.48,.5-.85,1.08-1.12,1.76-.26,.68-.4,1.44-.4,2.28s.13,1.61,.39,2.3c.26,.68,.64,1.28,1.13,1.77,.49,.5,1.06,.88,1.75,1.14,.67,.26,1.43,.4,2.24,.4,.53,0,1.04-.08,1.54-.21,.49-.15,.96-.35,1.39-.62,.41-.26,.8-.58,1.15-.93l1.54,2.47c-.39,.44-.9,.83-1.54,1.18-.63,.35-1.35,.62-2.15,.83-.78,.2-1.58,.29-2.36,.29Z"/><path d="M623.27,344.51c-1.19,0-2.3-.21-3.34-.64-1.02-.43-1.91-1.04-2.68-1.82-.76-.77-1.35-1.69-1.76-2.74s-.62-2.21-.62-3.46,.21-2.4,.62-3.46,1-1.97,1.76-2.74c.76-.78,1.66-1.38,2.68-1.82,1.04-.43,2.15-.64,3.34-.64s2.34,.21,3.36,.64c1.03,.44,1.91,1.04,2.67,1.83s1.34,1.7,1.75,2.74c.42,1.05,.62,2.2,.62,3.45s-.21,2.37-.62,3.44c-.41,1.05-1,1.97-1.75,2.75s-1.64,1.4-2.67,1.83c-1.02,.43-2.15,.64-3.36,.64Zm0-2.97c.77,0,1.46-.15,2.1-.42,.63-.28,1.18-.68,1.65-1.2,.46-.53,.82-1.12,1.09-1.82,.25-.68,.39-1.44,.39-2.26s-.14-1.56-.39-2.26c-.27-.68-.63-1.29-1.09-1.81-.47-.53-1.02-.93-1.65-1.2-.63-.28-1.33-.42-2.1-.42s-1.45,.14-2.09,.42c-.63,.27-1.19,.67-1.65,1.18-.46,.52-.83,1.11-1.08,1.81-.25,.68-.38,1.45-.38,2.28s.13,1.57,.38,2.27c.25,.7,.62,1.31,1.08,1.82s1.02,.91,1.65,1.19c.64,.27,1.34,.42,2.09,.42Z"/><path d="M635.63,344.28v-16.81h2.95l6.12,9.96-1.73-.02,6.19-9.94h2.81v16.81h-3.11v-6.32c0-1.44,.04-2.73,.12-3.89,.07-1.15,.2-2.29,.37-3.43l.38,1.04-5.21,8.04h-1.58l-5.04-7.97,.33-1.1c.18,1.07,.29,2.17,.37,3.3,.08,1.12,.11,2.47,.11,4.01v6.32h-3.1Z"/><path d="M657.43,344.28v-16.81h2.95l6.11,9.96-1.72-.02,6.19-9.94h2.8v16.81h-3.1v-6.32c0-1.44,.04-2.73,.11-3.89s.2-2.29,.38-3.43l.37,1.04-5.2,8.04h-1.59l-5.04-7.97,.34-1.1c.18,1.07,.29,2.17,.37,3.3,.07,1.12,.1,2.47,.1,4.01v6.32h-3.09Z"/><path d="M685.93,344.41c-1.33,0-2.5-.28-3.54-.85s-1.87-1.35-2.46-2.35c-.6-1-.9-2.13-.9-3.39v-10.37h3.14v10.16c0,.75,.17,1.42,.52,2,.34,.59,.8,1.04,1.38,1.41,.58,.35,1.2,.53,1.87,.53,.74,0,1.41-.18,1.99-.53,.6-.36,1.06-.82,1.41-1.41,.35-.59,.52-1.25,.52-2v-10.16h3.03v10.37c0,1.26-.3,2.39-.91,3.39-.59,1.01-1.41,1.79-2.45,2.35s-2.24,.85-3.58,.85Z"/><path d="M698.12,344.28v-16.81h2.8l9.75,13.13-.53,.1c-.06-.45-.12-.91-.17-1.39-.05-.47-.09-.96-.13-1.47-.04-.51-.08-1.04-.1-1.61-.02-.56-.05-1.14-.06-1.76-.02-.62-.03-1.27-.03-1.95v-5.05h3.1v16.81h-2.85l-9.79-12.94,.62-.17c.08,.9,.15,1.66,.21,2.29,.06,.62,.1,1.17,.14,1.63,.02,.45,.06,.83,.08,1.13,.02,.31,.04,.59,.05,.83,0,.25,0,.49,0,.71v6.5h-3.1Z"/><path d="M717.71,344.28v-2.76h2.76v-11.28h-2.76v-2.76h8.64v2.76h-2.76v11.28h2.76v2.76h-8.64Z"/><path d="M734.17,344.28v-13.93h-4.8v-2.88h12.87v2.88h-4.94v13.93h-3.12Z"/><path d="M750.24,344.28v-8.38l.18,1.17-6.8-9.6h3.65l5.18,7.44-1.12-.07,4.68-7.37h3.52l-6.5,9.87,.35-1.64v8.57h-3.12Z"/></g><g><path d="M24.84,283.92c-3.65,0-6.99-.62-10.01-1.88-3.03-1.24-5.64-3.04-7.85-5.36s-3.93-5.09-5.15-8.28-1.84-6.68-1.84-10.48,.64-7.03,1.94-10.15c1.3-3.12,3.1-5.86,5.4-8.21,2.3-2.34,4.99-4.17,8.07-5.47,3.07-1.3,6.41-1.94,10-1.94,2.45,0,4.82,.36,7.13,1.08,2.3,.71,4.42,1.71,6.34,2.98,1.92,1.28,3.53,2.75,4.82,4.43l-5.98,6.55c-1.25-1.3-2.53-2.39-3.85-3.28s-2.7-1.55-4.1-2.01c-1.42-.46-2.87-.68-4.37-.68-2.21,0-4.28,.41-6.22,1.22-1.94,.82-3.62,1.97-5.04,3.46-1.42,1.49-2.54,3.25-3.35,5.29-.82,2.04-1.23,4.31-1.23,6.81s.4,4.84,1.19,6.91c.79,2.06,1.92,3.84,3.39,5.32,1.46,1.49,3.21,2.63,5.25,3.42s4.29,1.19,6.73,1.19c1.58,0,3.12-.21,4.61-.64,1.48-.44,2.87-1.04,4.14-1.84s2.43-1.72,3.5-2.77l4.6,7.41c-1.15,1.3-2.69,2.47-4.6,3.53-1.92,1.06-4.07,1.88-6.45,2.49-2.38,.6-4.75,.9-7.09,.9Z"/><path d="M79.7,283.92c-3.59,0-6.93-.64-10-1.94-3.08-1.3-5.75-3.11-8.04-5.44-2.28-2.32-4.04-5.08-5.28-8.24-1.25-3.16-1.88-6.62-1.88-10.37s.62-7.2,1.88-10.36c1.24-3.17,3.01-5.92,5.28-8.24,2.29-2.33,4.96-4.14,8.04-5.44,3.07-1.3,6.41-1.94,10-1.94s7.01,.64,10.09,1.94c3.07,1.3,5.73,3.12,7.99,5.47s4,5.11,5.25,8.24c1.25,3.14,1.88,6.59,1.88,10.33s-.62,7.13-1.88,10.3c-1.25,3.16-3,5.93-5.25,8.28-2.26,2.34-4.92,4.17-7.99,5.47-3.08,1.3-6.44,1.94-10.09,1.94Zm0-8.93c2.3,0,4.4-.42,6.3-1.26,1.9-.84,3.54-2.04,4.94-3.6,1.39-1.56,2.48-3.37,3.27-5.44,.79-2.06,1.19-4.32,1.19-6.77s-.4-4.7-1.19-6.77c-.79-2.06-1.88-3.88-3.27-5.43-1.4-1.56-3.04-2.76-4.94-3.6-1.89-.84-3.99-1.26-6.3-1.26s-4.35,.42-6.26,1.26c-1.92,.84-3.57,2.03-4.97,3.56-1.39,1.53-2.47,3.34-3.24,5.4-.76,2.06-1.15,4.35-1.15,6.84s.39,4.72,1.15,6.81c.77,2.09,1.86,3.91,3.24,5.44,1.4,1.53,3.05,2.72,4.97,3.56,1.91,.84,4,1.26,6.26,1.26Z"/><path d="M120.38,283.2v-50.4h21.89c3.02,0,5.78,.71,8.27,2.13,2.5,1.42,4.48,3.33,5.95,5.76,1.46,2.42,2.2,5.15,2.2,8.16s-.73,5.54-2.2,7.96-3.44,4.35-5.91,5.76-5.24,2.12-8.31,2.12h-12.74v18.51h-9.15Zm9.15-26.64h12.81c1.39,0,2.61-.32,3.63-.97,1.04-.65,1.84-1.55,2.41-2.71s.87-2.42,.87-3.81c0-1.59-.36-2.96-1.08-4.11s-1.73-2.06-3.02-2.73c-1.3-.67-2.79-1.01-4.47-1.01h-11.15v15.33Zm20.09,26.64l-12.82-22.75,9.65-1.8,14.26,24.63-11.08-.08Z"/><path d="M184.46,283.2v-41.76h-14.4v-8.64h38.59v8.64h-14.83v41.76h-9.36Z"/><path d="M222.33,283.2v-50.4h9.36v41.77h23.26v8.63h-32.62Z"/><path d="M262.72,283.2l19.66-50.4h8.78l19.51,50.4h-9.72l-10.8-28.65c-.23-.58-.57-1.48-.97-2.73-.41-1.25-.86-2.61-1.34-4.07s-.91-2.83-1.29-4.1c-.39-1.27-.67-2.2-.87-2.77l1.8-.07c-.28,.96-.62,2.04-1.01,3.23-.38,1.2-.79,2.45-1.22,3.75s-.85,2.54-1.26,3.74-.78,2.29-1.11,3.24l-10.8,28.44h-9.37Zm8.93-11.51l3.24-8.14h22.97l3.46,8.14h-29.67Z"/><path d="M322.77,283.2v-50.4h8.42l29.24,39.38-1.58,.29c-.2-1.35-.36-2.72-.51-4.14s-.27-2.89-.4-4.43c-.12-1.53-.21-3.14-.28-4.82s-.14-3.44-.19-5.29c-.04-1.85-.07-3.8-.07-5.86v-15.13h9.29v50.4h-8.56l-29.38-38.81,1.87-.5c.24,2.69,.45,4.98,.62,6.88s.3,3.53,.4,4.89c.09,1.37,.18,2.51,.24,3.42,.08,.92,.13,1.75,.15,2.49,.03,.74,.04,1.45,.04,2.12v19.51h-9.29Z"/><path d="M385.99,283.2v-50.4h20.23c3.65,0,6.95,.61,9.9,1.81s5.5,2.92,7.63,5.18c2.14,2.27,3.77,4.92,4.9,8,1.12,3.07,1.69,6.47,1.69,10.22s-.57,7.16-1.69,10.25c-1.13,3.1-2.75,5.76-4.86,8-2.11,2.23-4.66,3.95-7.64,5.15-2.97,1.2-6.28,1.8-9.93,1.8h-20.23Zm9.37-7.27l-.72-1.37h11.23c2.35,0,4.45-.39,6.3-1.15,1.85-.77,3.43-1.88,4.72-3.32,1.3-1.44,2.29-3.17,2.96-5.21,.66-2.04,1.01-4.34,1.01-6.88s-.34-4.83-1.01-6.88c-.67-2.04-1.67-3.78-2.99-5.22-1.33-1.44-2.9-2.54-4.72-3.31-1.83-.77-3.92-1.15-6.27-1.15h-11.45l.94-1.22v35.71Z"/><path d="M476.05,283.2v-50.4h9.37v50.4h-9.37Zm3.89-20.73v-8.79h32.98v8.79h-32.98Zm28.45,20.73v-50.4h9.36v50.4h-9.36Z"/><path d="M529.91,283.2l19.65-50.4h8.79l19.51,50.4h-9.72l-10.8-28.65c-.24-.58-.57-1.48-.98-2.73s-.85-2.61-1.33-4.07-.92-2.83-1.3-4.1-.67-2.2-.86-2.77l1.8-.07c-.29,.96-.62,2.04-1.01,3.23-.39,1.2-.79,2.45-1.23,3.75-.43,1.3-.85,2.54-1.26,3.74-.4,1.2-.78,2.29-1.11,3.24l-10.8,28.44h-9.36Zm8.93-11.51l3.24-8.14h22.97l3.46,8.14h-29.67Z"/><path d="M589.95,283.2v-50.4h21.89c3.02,0,5.78,.71,8.27,2.13,2.5,1.42,4.48,3.33,5.95,5.76,1.46,2.42,2.2,5.15,2.2,8.16s-.73,5.54-2.2,7.96-3.44,4.35-5.91,5.76-5.24,2.12-8.31,2.12h-12.74v18.51h-9.15Zm9.15-26.64h12.81c1.39,0,2.61-.32,3.63-.97,1.04-.65,1.84-1.55,2.41-2.71s.87-2.42,.87-3.81c0-1.59-.36-2.96-1.08-4.11s-1.73-2.06-3.02-2.73c-1.3-.67-2.79-1.01-4.47-1.01h-11.15v15.33Zm20.09,26.64l-12.82-22.75,9.65-1.8,14.26,24.63-11.08-.08Z"/><path d="M658.43,283.2l-20.16-50.4h10.22l11.23,28.88c.58,1.48,1.07,2.82,1.51,3.99,.43,1.17,.81,2.25,1.14,3.2,.34,.96,.64,1.89,.91,2.81,.26,.91,.56,1.87,.9,2.88h-2.02c.34-1.3,.7-2.59,1.08-3.86s.83-2.63,1.33-4.06c.51-1.45,1.12-3.11,1.84-4.97l10.52-28.88h10.29l-20.3,50.4h-8.5Z"/><path d="M699.76,283.2v-50.4h32.98v8.5h-23.76v33.41h24.04v8.5h-33.26Zm4.32-21.6v-8.35h24.99v8.35h-24.99Z"/><path d="M766.14,283.92c-2.93,0-5.62-.37-8.07-1.11-2.45-.74-4.66-1.87-6.62-3.35-1.97-1.48-3.72-3.29-5.26-5.4l6.12-6.91c2.35,3.26,4.66,5.52,6.91,6.77s4.79,1.88,7.63,1.88c1.63,0,3.12-.25,4.46-.76,1.35-.5,2.4-1.19,3.17-2.08,.76-.89,1.15-1.91,1.15-3.07,0-.81-.16-1.57-.47-2.27s-.78-1.32-1.41-1.88c-.62-.55-1.4-1.06-2.3-1.54s-1.94-.89-3.1-1.23c-1.15-.33-2.42-.64-3.82-.93-2.64-.53-4.94-1.24-6.9-2.13-1.97-.89-3.63-1.99-4.97-3.31-1.35-1.32-2.33-2.81-2.95-4.46-.62-1.66-.94-3.54-.94-5.65s.47-4.05,1.4-5.83c.94-1.78,2.23-3.31,3.86-4.61s3.53-2.3,5.68-3.03c2.17-.71,4.49-1.07,6.99-1.07,2.82,0,5.36,.33,7.59,1.01,2.24,.67,4.2,1.67,5.91,2.99,1.7,1.32,3.11,2.92,4.21,4.79l-6.19,6.12c-.96-1.48-2.04-2.72-3.24-3.71-1.2-.98-2.49-1.73-3.89-2.23-1.39-.51-2.85-.76-4.38-.76-1.73,0-3.23,.24-4.5,.72-1.28,.48-2.28,1.16-2.99,2.05-.72,.89-1.08,1.96-1.08,3.2,0,.97,.21,1.82,.65,2.56,.43,.74,1.04,1.41,1.84,1.98,.79,.58,1.81,1.07,3.06,1.51,1.25,.43,2.67,.81,4.25,1.15,2.64,.53,5.01,1.23,7.13,2.12,2.11,.89,3.91,1.94,5.4,3.16,1.48,1.23,2.62,2.62,3.38,4.18,.77,1.56,1.15,3.3,1.15,5.22,0,3.31-.78,6.15-2.33,8.53-1.56,2.38-3.76,4.2-6.59,5.48-2.83,1.27-6.14,1.9-9.93,1.9Z"/><path d="M808.76,283.2v-41.76h-14.4v-8.64h38.59v8.64h-14.83v41.76h-9.36Z"/></g></g></g></g></svg>