<?xml version="1.0" encoding="UTF-8"?><svg id="Layer_2" xmlns="http://www.w3.org/2000/svg" viewBox="0 0 832.95 281.93"><defs><style>.cls-1{fill:#fefefe;}</style></defs><g id="Layer_1-2"><g><g><path class="cls-1" d="M419.65,0c-49.71,0-90,40.29-90,90s40.29,90,90,90,90-40.29,90-90S469.36,0,419.65,0Zm0,178.5c-48.8,0-88.5-39.7-88.5-88.5S370.85,1.5,419.65,1.5s88.5,39.7,88.5,88.5-39.7,88.5-88.5,88.5Z"/><path class="cls-1" d="M419.65,28.5c-33.91,0-61.5,27.59-61.5,61.5s27.59,61.5,61.5,61.5,61.5-27.59,61.5-61.5-27.59-61.5-61.5-61.5Zm0,3c5.78,0,11.36,.86,16.64,2.43l-9.27,28.53c-2.36-.62-4.83-.95-7.37-.95s-5.02,.33-7.37,.95l-9.27-28.53c5.28-1.57,10.86-2.43,16.64-2.43Zm0,83.57c-4.65-2.66-9.4-5.13-14.24-7.41,4.64-3.27,9.39-6.34,14.24-9.18,4.85,2.84,9.6,5.9,14.24,9.18-4.84,2.28-9.59,4.75-14.24,7.41Zm0,3.46c5.35,3.12,10.56,6.48,15.59,10.09-5.19-.18-10.38-.28-15.55-.28s-10.42,.1-15.64,.28c5.03-3.61,10.24-6.97,15.6-10.09Zm-24.53-35.43c3.07-11.01,12.97-18.6,24.53-18.6s21.46,7.59,24.53,18.6c-8.43,3.4-16.62,7.37-24.53,11.92-7.92-4.54-16.11-8.51-24.53-11.92Zm5.04-48.25l9.27,28.53c-4.7,1.79-8.8,4.78-11.94,8.66l-24.24-17.61c6.83-8.89,16.15-15.77,26.91-19.58Zm-28.67,22l24.24,17.61c-1.47,2.28-2.62,4.8-3.41,7.51-9.3-3.59-18.89-6.48-28.73-8.66,1.77-5.94,4.45-11.48,7.89-16.46Zm-10.33,33.14c0-4.75,.58-9.36,1.66-13.78,19,4.21,37.03,11.1,53.85,20.56-4.9,2.93-9.7,6.07-14.38,9.43-13.18-5.93-26.98-10.45-41.05-13.4-.04-.93-.07-1.87-.07-2.81Zm.3,5.93c19.24,4.13,37.94,11.22,55.2,20.88-6.2,3.69-12.21,7.71-17.97,12.04-7.13,.34-14.24,.86-21.28,1.54-8.77-9.17-14.6-21.16-15.94-34.46Zm58.2,52.57c-15.19,0-29.05-5.83-39.46-15.35,13.07-1.19,26.34-1.8,39.5-1.8s26.39,.61,39.43,1.8c-10.41,9.53-24.27,15.36-39.47,15.36Zm42.26-18.12c-7.05-.68-14.16-1.2-21.29-1.54-5.76-4.33-11.76-8.35-17.96-12.04,17.26-9.66,35.96-16.75,55.2-20.88-1.34,13.3-7.18,25.29-15.94,34.46Zm16.24-40.38c0,.94-.03,1.88-.07,2.81-14.08,2.95-27.87,7.47-41.05,13.4-4.68-3.36-9.48-6.5-14.38-9.43,16.82-9.46,34.86-16.35,53.85-20.56,1.07,4.42,1.66,9.03,1.66,13.78Zm-2.44-16.68c-9.84,2.19-19.43,5.07-28.73,8.66-.79-2.71-1.94-5.23-3.41-7.51l24.24-17.61c3.44,4.99,6.12,10.53,7.89,16.46Zm-33.9-1.27c-3.13-3.88-7.24-6.87-11.94-8.66l9.27-28.53c10.76,3.82,20.08,10.69,26.91,19.58l-24.24,17.61Z"/></g><g><path class="cls-1" d="M24.84,281.93c-3.65,0-6.99-.62-10.01-1.87-3.03-1.25-5.64-3.04-7.85-5.36-2.21-2.33-3.93-5.09-5.15-8.28s-1.84-6.69-1.84-10.48,.64-7.03,1.94-10.16c1.3-3.12,3.1-5.85,5.4-8.2s4.99-4.18,8.07-5.47c3.07-1.3,6.41-1.95,10-1.95,2.45,0,4.82,.36,7.13,1.08s4.42,1.72,6.34,2.99c1.92,1.27,3.53,2.74,4.82,4.42l-5.98,6.55c-1.25-1.29-2.53-2.38-3.85-3.27s-2.7-1.56-4.1-2.02c-1.42-.45-2.87-.68-4.37-.68-2.21,0-4.28,.41-6.22,1.23-1.94,.81-3.62,1.96-5.04,3.46-1.42,1.48-2.54,3.25-3.35,5.29-.82,2.04-1.23,4.31-1.23,6.8s.4,4.85,1.19,6.91,1.92,3.84,3.39,5.33c1.46,1.48,3.21,2.63,5.25,3.42s4.29,1.19,6.73,1.19c1.58,0,3.12-.22,4.61-.65s2.87-1.04,4.14-1.84,2.43-1.72,3.5-2.77l4.6,7.42c-1.15,1.29-2.69,2.47-4.6,3.53-1.92,1.05-4.07,1.88-6.45,2.48-2.38,.61-4.75,.9-7.09,.9Z"/><path class="cls-1" d="M79.7,281.93c-3.59,0-6.93-.64-10-1.94-3.08-1.29-5.75-3.11-8.04-5.43-2.28-2.33-4.04-5.08-5.28-8.24-1.25-3.17-1.88-6.63-1.88-10.37s.62-7.2,1.88-10.37c1.24-3.16,3.01-5.92,5.28-8.24,2.29-2.32,4.96-4.14,8.04-5.44,3.07-1.29,6.41-1.94,10-1.94s7.01,.65,10.09,1.94c3.07,1.3,5.73,3.12,7.99,5.48s4,5.1,5.25,8.24,1.88,6.59,1.88,10.33-.62,7.13-1.88,10.29c-1.25,3.17-3,5.93-5.25,8.28s-4.92,4.18-7.99,5.47c-3.08,1.3-6.44,1.94-10.09,1.94Zm0-8.93c2.3,0,4.4-.42,6.3-1.26,1.9-.84,3.54-2.04,4.94-3.59,1.39-1.56,2.48-3.38,3.27-5.44s1.19-4.32,1.19-6.77-.4-4.71-1.19-6.77-1.88-3.88-3.27-5.44c-1.4-1.55-3.04-2.75-4.94-3.59-1.89-.84-3.99-1.26-6.3-1.26s-4.35,.42-6.26,1.26c-1.92,.84-3.57,2.02-4.97,3.56-1.39,1.53-2.47,3.33-3.24,5.39-.76,2.07-1.15,4.35-1.15,6.85s.39,4.72,1.15,6.81c.77,2.08,1.86,3.9,3.24,5.43,1.4,1.54,3.05,2.72,4.97,3.56,1.91,.84,4,1.26,6.26,1.26Z"/><path class="cls-1" d="M120.38,281.22v-50.4h21.89c3.02,0,5.78,.7,8.27,2.12,2.5,1.42,4.48,3.34,5.95,5.76s2.2,5.15,2.2,8.17-.73,5.53-2.2,7.96c-1.46,2.42-3.44,4.35-5.91,5.75-2.47,1.42-5.24,2.13-8.31,2.13h-12.74v18.51h-9.15Zm9.15-26.64h12.81c1.39,0,2.61-.32,3.63-.98,1.04-.64,1.84-1.54,2.41-2.7s.87-2.42,.87-3.82c0-1.58-.36-2.95-1.08-4.1s-1.73-2.06-3.02-2.73c-1.3-.67-2.79-1.02-4.47-1.02h-11.15v15.34Zm20.09,26.64l-12.82-22.75,9.65-1.8,14.26,24.62-11.08-.07Z"/><path class="cls-1" d="M184.46,281.22v-41.76h-14.4v-8.64h38.59v8.64h-14.83v41.76h-9.36Z"/><path class="cls-1" d="M222.33,281.22v-50.4h9.36v41.76h23.26v8.64h-32.62Z"/><path class="cls-1" d="M262.72,281.22l19.66-50.4h8.78l19.51,50.4h-9.72l-10.8-28.66c-.23-.58-.57-1.48-.97-2.73-.41-1.25-.86-2.6-1.34-4.06s-.91-2.83-1.29-4.11c-.39-1.27-.67-2.19-.87-2.76l1.8-.08c-.28,.97-.62,2.04-1.01,3.24-.38,1.2-.79,2.45-1.22,3.74-.43,1.3-.85,2.55-1.26,3.75s-.78,2.28-1.11,3.23l-10.8,28.45h-9.37Zm8.93-11.52l3.24-8.13h22.97l3.46,8.13h-29.67Z"/><path class="cls-1" d="M322.77,281.22v-50.4h8.42l29.24,39.38-1.58,.28c-.2-1.34-.36-2.72-.51-4.14s-.27-2.89-.4-4.42c-.12-1.53-.21-3.14-.28-4.82s-.14-3.45-.19-5.29c-.04-1.85-.07-3.81-.07-5.87v-15.12h9.29v50.4h-8.56l-29.38-38.81,1.87-.51c.24,2.7,.45,4.98,.62,6.88,.17,1.9,.3,3.54,.4,4.9,.09,1.37,.18,2.51,.24,3.42,.08,.91,.13,1.74,.15,2.48,.03,.74,.04,1.46,.04,2.13v19.51h-9.29Z"/><path class="cls-1" d="M385.99,281.22v-50.4h20.23c3.65,0,6.95,.6,9.9,1.8s5.5,2.93,7.63,5.19c2.14,2.26,3.77,4.92,4.9,7.99,1.12,3.08,1.69,6.48,1.69,10.22s-.57,7.17-1.69,10.26c-1.13,3.1-2.75,5.76-4.86,7.99-2.11,2.24-4.66,3.96-7.64,5.15-2.97,1.2-6.28,1.81-9.93,1.81h-20.23Zm9.37-7.28l-.72-1.37h11.23c2.35,0,4.45-.38,6.3-1.15s3.43-1.88,4.72-3.31c1.3-1.45,2.29-3.18,2.96-5.22,.66-2.03,1.01-4.33,1.01-6.88s-.34-4.83-1.01-6.88c-.67-2.04-1.67-3.78-2.99-5.21-1.33-1.45-2.9-2.55-4.72-3.32-1.83-.76-3.92-1.14-6.27-1.14h-11.45l.94-1.23v35.71Z"/><path class="cls-1" d="M476.05,281.22v-50.4h9.37v50.4h-9.37Zm3.89-20.74v-8.78h32.98v8.78h-32.98Zm28.45,20.74v-50.4h9.36v50.4h-9.36Z"/><path class="cls-1" d="M529.91,281.22l19.65-50.4h8.79l19.51,50.4h-9.72l-10.8-28.66c-.24-.58-.57-1.48-.98-2.73s-.85-2.6-1.33-4.06-.92-2.83-1.3-4.11c-.38-1.27-.67-2.19-.86-2.76l1.8-.08c-.29,.97-.62,2.04-1.01,3.24-.39,1.2-.79,2.45-1.23,3.74-.43,1.3-.85,2.55-1.26,3.75-.4,1.2-.78,2.28-1.11,3.23l-10.8,28.45h-9.36Zm8.93-11.52l3.24-8.13h22.97l3.46,8.13h-29.67Z"/><path class="cls-1" d="M589.95,281.22v-50.4h21.89c3.02,0,5.78,.7,8.27,2.12,2.5,1.42,4.48,3.34,5.95,5.76s2.2,5.15,2.2,8.17-.73,5.53-2.2,7.96c-1.46,2.42-3.44,4.35-5.91,5.75-2.47,1.42-5.24,2.13-8.31,2.13h-12.74v18.51h-9.15Zm9.15-26.64h12.81c1.39,0,2.61-.32,3.63-.98,1.04-.64,1.84-1.54,2.41-2.7s.87-2.42,.87-3.82c0-1.58-.36-2.95-1.08-4.1s-1.73-2.06-3.02-2.73c-1.3-.67-2.79-1.02-4.47-1.02h-11.15v15.34Zm20.09,26.64l-12.82-22.75,9.65-1.8,14.26,24.62-11.08-.07Z"/><path class="cls-1" d="M658.43,281.22l-20.16-50.4h10.22l11.23,28.87c.58,1.49,1.07,2.82,1.51,3.99,.43,1.18,.81,2.25,1.14,3.21,.34,.96,.64,1.89,.91,2.8,.26,.92,.56,1.88,.9,2.88h-2.02c.34-1.3,.7-2.58,1.08-3.85,.38-1.28,.83-2.64,1.33-4.07,.51-1.44,1.12-3.1,1.84-4.97l10.52-28.87h10.29l-20.3,50.4h-8.5Z"/><path class="cls-1" d="M699.76,281.22v-50.4h32.98v8.5h-23.76v33.41h24.04v8.5h-33.26Zm4.32-21.6v-8.35h24.99v8.35h-24.99Z"/><path class="cls-1" d="M766.14,281.93c-2.93,0-5.62-.37-8.07-1.11-2.45-.74-4.66-1.86-6.62-3.35-1.97-1.48-3.72-3.28-5.26-5.4l6.12-6.9c2.35,3.26,4.66,5.52,6.91,6.77s4.79,1.87,7.63,1.87c1.63,0,3.12-.24,4.46-.75,1.35-.51,2.4-1.2,3.17-2.09,.76-.89,1.15-1.9,1.15-3.06,0-.82-.16-1.57-.47-2.27-.31-.7-.78-1.33-1.41-1.88-.62-.56-1.4-1.06-2.3-1.55-.91-.48-1.94-.89-3.1-1.22s-2.42-.64-3.82-.94c-2.64-.53-4.94-1.23-6.9-2.12-1.97-.89-3.63-1.99-4.97-3.31-1.35-1.33-2.33-2.81-2.95-4.47-.62-1.65-.94-3.54-.94-5.64s.47-4.06,1.4-5.84c.94-1.77,2.23-3.31,3.86-4.6,1.63-1.3,3.53-2.3,5.68-3.03,2.17-.72,4.49-1.08,6.99-1.08,2.82,0,5.36,.34,7.59,1.02,2.24,.66,4.2,1.66,5.91,2.99,1.7,1.32,3.11,2.91,4.21,4.79l-6.19,6.11c-.96-1.48-2.04-2.71-3.24-3.7s-2.49-1.73-3.89-2.24c-1.39-.5-2.85-.75-4.38-.75-1.73,0-3.23,.23-4.5,.72-1.28,.48-2.28,1.16-2.99,2.05-.72,.89-1.08,1.95-1.08,3.2,0,.96,.21,1.81,.65,2.55,.43,.75,1.04,1.41,1.84,1.98,.79,.58,1.81,1.08,3.06,1.51s2.67,.82,4.25,1.15c2.64,.53,5.01,1.24,7.13,2.13,2.11,.89,3.91,1.94,5.4,3.16,1.48,1.22,2.62,2.62,3.38,4.18,.77,1.55,1.15,3.3,1.15,5.21,0,3.31-.78,6.15-2.33,8.54-1.56,2.37-3.76,4.2-6.59,5.47s-6.14,1.9-9.93,1.9Z"/><path class="cls-1" d="M808.76,281.22v-41.76h-14.4v-8.64h38.59v8.64h-14.83v41.76h-9.36Z"/></g></g></g></svg>