<?xml version="1.0" encoding="UTF-8"?><svg id="Layer_2" xmlns="http://www.w3.org/2000/svg" viewBox="0 0 832.96 278.63"><defs><style>.cls-1{fill:#fefefe;}</style></defs><g id="Layer_1-2"><g><g><path class="cls-1" d="M24.84,278.63c-3.65,0-6.98-.62-10.01-1.88-3.02-1.24-5.63-3.04-7.84-5.36-2.22-2.32-3.93-5.09-5.16-8.28-1.22-3.19-1.84-6.68-1.84-10.48s.65-7.03,1.94-10.15c1.3-3.12,3.1-5.86,5.4-8.21,2.3-2.34,5-4.17,8.07-5.47,3.08-1.3,6.41-1.94,10.01-1.94,2.45,0,4.82,.36,7.13,1.08,2.3,.71,4.41,1.71,6.34,2.98,1.91,1.28,3.53,2.75,4.82,4.43l-5.98,6.55c-1.25-1.3-2.54-2.39-3.86-3.28s-2.69-1.55-4.1-2.01-2.87-.68-4.36-.68c-2.21,0-4.29,.41-6.23,1.22-1.94,.82-3.62,1.97-5.04,3.46-1.42,1.49-2.53,3.25-3.35,5.29-.81,2.04-1.22,4.31-1.22,6.81s.4,4.84,1.19,6.91c.79,2.06,1.91,3.84,3.38,5.32,1.46,1.49,3.21,2.63,5.25,3.42s4.29,1.19,6.74,1.19c1.58,0,3.12-.21,4.61-.64,1.48-.44,2.86-1.04,4.14-1.84,1.27-.79,2.43-1.72,3.49-2.77l4.61,7.41c-1.15,1.3-2.69,2.47-4.61,3.53-1.92,1.06-4.06,1.88-6.45,2.49-2.37,.6-4.74,.9-7.09,.9Z"/><path class="cls-1" d="M79.71,278.63c-3.6,0-6.93-.64-10.01-1.94s-5.75-3.11-8.03-5.44c-2.29-2.32-4.04-5.08-5.29-8.24s-1.88-6.62-1.88-10.37,.62-7.2,1.88-10.36c1.25-3.17,3.01-5.92,5.29-8.24,2.28-2.33,4.95-4.14,8.03-5.44s6.41-1.94,10.01-1.94,7,.64,10.08,1.94,5.73,3.12,7.99,5.47,4.01,5.11,5.26,8.24c1.24,3.14,1.87,6.59,1.87,10.33s-.62,7.13-1.87,10.3c-1.25,3.16-3.01,5.93-5.26,8.28-2.26,2.34-4.91,4.17-7.99,5.47s-6.44,1.94-10.08,1.94Zm0-8.93c2.3,0,4.4-.42,6.3-1.26s3.54-2.04,4.93-3.6,2.48-3.37,3.27-5.44c.8-2.06,1.19-4.32,1.19-6.77s-.39-4.7-1.19-6.77c-.79-2.06-1.88-3.88-3.27-5.43-1.4-1.56-3.04-2.76-4.93-3.6s-3.99-1.26-6.3-1.26-4.35,.42-6.27,1.26c-1.91,.84-3.57,2.03-4.96,3.56-1.4,1.53-2.47,3.34-3.24,5.4s-1.15,4.35-1.15,6.84,.38,4.72,1.15,6.81,1.85,3.91,3.24,5.44c1.39,1.53,3.05,2.72,4.96,3.56,1.92,.84,4.01,1.26,6.27,1.26Z"/><path class="cls-1" d="M120.39,277.91v-50.4h21.88c3.03,0,5.78,.71,8.28,2.13s4.47,3.33,5.94,5.76c1.46,2.42,2.2,5.15,2.2,8.16s-.73,5.54-2.2,7.96-3.43,4.35-5.9,5.76c-2.48,1.42-5.24,2.12-8.32,2.12h-12.74v18.51h-9.14Zm9.14-26.64h12.81c1.4,0,2.61-.32,3.64-.97,1.03-.65,1.84-1.55,2.41-2.71s.86-2.42,.86-3.81c0-1.59-.36-2.96-1.07-4.11-.72-1.15-1.73-2.06-3.03-2.73s-2.78-1.01-4.46-1.01h-11.16v15.33Zm20.09,26.64l-12.81-22.75,9.65-1.8,14.26,24.63-11.09-.08Z"/><path class="cls-1" d="M184.46,277.91v-41.76h-14.39v-8.64h38.59v8.64h-14.83v41.76h-9.37Z"/><path class="cls-1" d="M222.33,277.91v-50.4h9.37v41.77h23.25v8.63h-32.62Z"/><path class="cls-1" d="M262.73,277.91l19.65-50.4h8.79l19.51,50.4h-9.72l-10.8-28.65c-.24-.58-.57-1.48-.98-2.73s-.85-2.61-1.33-4.07-.92-2.83-1.3-4.1-.67-2.2-.86-2.77l1.8-.07c-.29,.96-.62,2.04-1.01,3.23-.39,1.2-.79,2.45-1.23,3.75-.43,1.3-.85,2.54-1.26,3.74-.4,1.2-.78,2.29-1.11,3.24l-10.8,28.44h-9.36Zm8.93-11.51l3.24-8.14h22.97l3.46,8.14h-29.67Z"/><path class="cls-1" d="M322.77,277.91v-50.4h8.43l29.23,39.38-1.58,.29c-.2-1.35-.36-2.72-.51-4.14-.14-1.42-.27-2.89-.39-4.43-.12-1.53-.21-3.14-.29-4.82-.07-1.68-.13-3.44-.18-5.29-.05-1.85-.07-3.8-.07-5.86v-15.13h9.29v50.4h-8.57l-29.38-38.81,1.88-.5c.23,2.69,.44,4.98,.62,6.88,.17,1.89,.29,3.53,.39,4.89s.19,2.51,.25,3.42c.07,.92,.12,1.75,.15,2.49,.02,.74,.03,1.45,.03,2.12v19.51h-9.29Z"/><path class="cls-1" d="M386,277.91v-50.4h20.23c3.64,0,6.94,.61,9.89,1.81,2.96,1.2,5.5,2.92,7.64,5.18,2.13,2.27,3.77,4.92,4.89,8,1.13,3.07,1.69,6.47,1.69,10.22s-.56,7.16-1.69,10.25c-1.12,3.1-2.74,5.76-4.85,8-2.12,2.23-4.66,3.95-7.64,5.15s-6.29,1.8-9.93,1.8h-20.23Zm9.36-7.27l-.71-1.37h11.23c2.34,0,4.45-.39,6.3-1.15,1.85-.77,3.42-1.88,4.72-3.32,1.29-1.44,2.28-3.17,2.95-5.21s1.01-4.34,1.01-6.88-.33-4.83-1.01-6.88-1.67-3.78-2.99-5.22c-1.32-1.44-2.89-2.54-4.72-3.31s-3.92-1.15-6.26-1.15h-11.46l.94-1.22v35.71Z"/><path class="cls-1" d="M476.06,277.91v-50.4h9.36v50.4h-9.36Zm3.89-20.73v-8.79h32.98v8.79h-32.98Zm28.44,20.73v-50.4h9.37v50.4h-9.37Z"/><path class="cls-1" d="M529.91,277.91l19.66-50.4h8.78l19.51,50.4h-9.72l-10.8-28.65c-.23-.58-.57-1.48-.97-2.73-.41-1.25-.86-2.61-1.34-4.07s-.91-2.83-1.29-4.1c-.39-1.27-.67-2.2-.87-2.77l1.8-.07c-.28,.96-.62,2.04-1.01,3.23-.38,1.2-.79,2.45-1.22,3.75s-.85,2.54-1.26,3.74-.78,2.29-1.11,3.24l-10.8,28.44h-9.37Zm8.93-11.51l3.24-8.14h22.97l3.46,8.14h-29.67Z"/><path class="cls-1" d="M589.96,277.91v-50.4h21.88c3.03,0,5.78,.71,8.28,2.13s4.47,3.33,5.94,5.76c1.46,2.42,2.2,5.15,2.2,8.16s-.73,5.54-2.2,7.96-3.43,4.35-5.9,5.76c-2.48,1.42-5.24,2.12-8.32,2.12h-12.74v18.51h-9.14Zm9.14-26.64h12.81c1.4,0,2.61-.32,3.64-.97,1.03-.65,1.84-1.55,2.41-2.71s.86-2.42,.86-3.81c0-1.59-.36-2.96-1.07-4.11-.72-1.15-1.73-2.06-3.03-2.73s-2.78-1.01-4.46-1.01h-11.16v15.33Zm20.09,26.64l-12.81-22.75,9.65-1.8,14.26,24.63-11.09-.08Z"/><path class="cls-1" d="M658.43,277.91l-20.16-50.4h10.22l11.23,28.88c.58,1.48,1.08,2.82,1.51,3.99s.82,2.25,1.15,3.2,.63,1.89,.9,2.81c.26,.91,.57,1.87,.9,2.88h-2.01c.33-1.3,.69-2.59,1.07-3.86,.39-1.27,.83-2.63,1.34-4.06,.5-1.45,1.11-3.11,1.84-4.97l10.51-28.88h10.3l-20.31,50.4h-8.5Z"/><path class="cls-1" d="M699.76,277.91v-50.4h32.98v8.5h-23.76v33.41h24.05v8.5h-33.27Zm4.33-21.6v-8.35h24.98v8.35h-24.98Z"/><path class="cls-1" d="M766.14,278.63c-2.93,0-5.62-.37-8.07-1.11-2.44-.74-4.66-1.87-6.62-3.35-1.97-1.48-3.72-3.29-5.25-5.4l6.11-6.91c2.35,3.26,4.66,5.52,6.91,6.77s4.8,1.88,7.64,1.88c1.63,0,3.12-.25,4.46-.76,1.34-.5,2.4-1.19,3.16-2.08,.77-.89,1.15-1.91,1.15-3.07,0-.81-.16-1.57-.47-2.27s-.78-1.32-1.4-1.88c-.62-.55-1.4-1.06-2.3-1.54-.92-.48-1.94-.89-3.1-1.23-1.15-.33-2.43-.64-3.82-.93-2.65-.53-4.94-1.24-6.91-2.13s-3.62-1.99-4.97-3.31c-1.34-1.32-2.32-2.81-2.95-4.46-.62-1.66-.94-3.54-.94-5.65s.47-4.05,1.41-5.83,2.22-3.31,3.85-4.61,3.54-2.3,5.69-3.03c2.16-.71,4.48-1.07,6.98-1.07,2.83,0,5.36,.33,7.6,1.01,2.23,.67,4.2,1.67,5.9,2.99,1.71,1.32,3.12,2.92,4.22,4.79l-6.19,6.12c-.97-1.48-2.04-2.72-3.24-3.71-1.2-.98-2.5-1.73-3.89-2.23-1.4-.51-2.86-.76-4.39-.76-1.73,0-3.23,.24-4.5,.72s-2.27,1.16-2.99,2.05c-.71,.89-1.07,1.96-1.07,3.2,0,.97,.21,1.82,.64,2.56s1.04,1.41,1.84,1.98,1.82,1.07,3.06,1.51c1.25,.43,2.67,.81,4.25,1.15,2.65,.53,5.02,1.23,7.13,2.12,2.12,.89,3.92,1.94,5.4,3.16,1.49,1.23,2.62,2.62,3.39,4.18,.76,1.56,1.15,3.3,1.15,5.22,0,3.31-.78,6.15-2.34,8.53-1.56,2.38-3.76,4.2-6.58,5.48-2.84,1.27-6.15,1.9-9.94,1.9Z"/><path class="cls-1" d="M808.76,277.91v-41.76h-14.39v-8.64h38.59v8.64h-14.83v41.76h-9.37Z"/></g><g><path class="cls-1" d="M419.65,0c-47.81,0-86.71,38.9-86.71,86.71s38.9,86.71,86.71,86.71,86.71-38.9,86.71-86.71S467.46,0,419.65,0Zm0,148.51c-34.07,0-61.8-27.72-61.8-61.8s27.72-61.79,61.8-61.79,61.8,27.71,61.8,61.79-27.72,61.8-61.8,61.8Z"/><path class="cls-1" d="M392.12,78.29c.76-2.52,1.84-4.88,3.19-7.03l-23.76-17.28c-3.34,4.9-5.89,10.22-7.59,15.82,9.62,2.16,19.09,5.01,28.15,8.49Z"/><path class="cls-1" d="M423.24,93.5c4.76,2.86,9.4,5.91,13.82,9.07,13.11-5.88,26.81-10.35,40.73-13.29,.05-.97,.07-1.77,.07-2.57,0-4.48-.54-8.99-1.58-13.43-18.62,4.16-36.46,10.97-53.04,20.21Z"/><path class="cls-1" d="M419.65,111.44c4.39-2.51,8.98-4.89,13.64-7.11-4.4-3.09-8.98-6.04-13.64-8.77-4.66,2.72-9.24,5.68-13.64,8.77,4.66,2.22,9.25,4.6,13.64,7.11Z"/><path class="cls-1" d="M419.65,61.5c-11.33,0-21.03,7.29-24.17,18.13,8.29,3.36,16.43,7.31,24.17,11.74,7.74-4.42,15.88-8.38,24.17-11.74-3.14-10.85-12.84-18.13-24.17-18.13Z"/><path class="cls-1" d="M419.69,124.76c4.94,0,9.84,.08,14.57,.24-4.74-3.35-9.65-6.51-14.61-9.4-5,2.92-9.91,6.07-14.61,9.4,4.75-.17,9.67-.24,14.65-.24Z"/><g><path class="cls-1" d="M461.8,126.79c8.77-9.23,14.35-21.21,15.71-33.77-18.92,4.1-37.17,11-54.26,20.51,6.03,3.6,11.89,7.55,17.47,11.74,7.14,.34,14.23,.85,21.07,1.52Z"/><path class="cls-1" d="M416.05,113.53c-17.09-9.51-35.34-16.41-54.26-20.51,1.37,12.57,6.94,24.55,15.72,33.77,7.02-.68,14.11-1.19,21.05-1.52,2.06-1.55,4.28-2.83,6.4-4.3,1.57-1.09,3.15-2.15,4.75-3.19,2.13-1.38,4.17-2.95,6.33-4.25Z"/></g><path class="cls-1" d="M419.65,144.92c14.32,0,28.07-5.27,38.76-14.84-12.98-1.15-26.01-1.74-38.72-1.74s-25.86,.59-38.8,1.75c10.7,9.57,24.46,14.83,38.76,14.83Z"/><path class="cls-1" d="M439.33,31.94l-9.08,27.98c4.53,1.78,8.54,4.69,11.62,8.43l23.75-17.27c-6.81-8.77-15.89-15.38-26.29-19.14Z"/><path class="cls-1" d="M361.52,89.28c13.93,2.94,27.63,7.41,40.73,13.29,4.41-3.16,9.05-6.22,13.82-9.07-16.57-9.26-34.41-16.05-53.04-20.21-1.04,4.43-1.58,8.95-1.58,13.43,0,.8,.02,1.6,.07,2.57Z"/><path class="cls-1" d="M475.34,69.8c-1.71-5.62-4.26-10.94-7.59-15.82l-23.76,17.28c1.36,2.15,2.43,4.51,3.19,7.03,9.06-3.48,18.54-6.33,28.15-8.49Z"/><path class="cls-1" d="M373.68,51.08l23.76,17.27c3.08-3.74,7.09-6.65,11.62-8.43l-9.08-27.98c-10.4,3.76-19.48,10.37-26.3,19.14Z"/><path class="cls-1" d="M412.48,58.8c2.34-.59,4.76-.88,7.17-.88s4.82,.29,7.17,.88l9.09-27.96c-10.59-3.09-21.93-3.09-32.52,0l9.09,27.96Z"/></g></g></g></svg>