<?xml version="1.0" encoding="UTF-8"?><svg id="Layer_2" xmlns="http://www.w3.org/2000/svg" viewBox="0 0 140 140"><defs><style>.cls-1{fill:none;stroke:#000;stroke-miterlimit:10;stroke-width:4px;}</style></defs><g id="Square_window"><rect class="cls-1" x="2" y="2" width="136" height="136"/><line class="cls-1" x1="50.07" y1="49.25" x2="10.82" y2="10.41"/><line class="cls-1" x1="91.16" y1="49.25" x2="130" y2="10"/><rect class="cls-1" x="10" y="10" width="120" height="120"/><path class="cls-1" d="M10,114.48c19.41-1.36,39.28-2.06,59.5-2.06s40.77,.73,60.5,2.13"/><path class="cls-1" d="M10,76.1c30.01,6.17,57.57,17.07,81.03,35.04l2.01,1.59"/><path class="cls-1" d="M130,75.9c-30.4,6.09-58.31,17.07-82.03,35.25l-2.01,1.59"/><path class="cls-1" d="M10,52.1c28.17,5.79,54.19,19.51,76.68,35.8"/><line class="cls-1" x1="69.5" y1="39.83" x2="69.5" y2="10"/><path class="cls-1" d="M40.34,62.91c3.19-13.15,15.03-22.91,29.16-22.91s25.97,9.76,29.16,22.91"/><path class="cls-1" d="M52.32,87.9c22.76-16.48,49.12-30.28,77.68-36"/></g></svg>