<?xml version="1.0" encoding="UTF-8"?><svg id="Layer_2" xmlns="http://www.w3.org/2000/svg" viewBox="0 0 144 144"><defs><style>.cls-1{stroke:#000;stroke-miterlimit:10;stroke-width:4px;}.cls-1,.cls-2{fill:none;}</style></defs><g id="Square_window"><circle class="cls-1" cx="72" cy="72" r="70"/><g><path class="cls-2" d="M52,74c-5.52,0-11.44,4.48-17.59,13.3,8.32,12.8,14.68,29.75,17.59,38.24,3.04-8.87,9.33-25.54,17.59-38.24-6.15-8.82-12.06-13.3-17.59-13.3Z"/><path class="cls-2" d="M72.5,40.13c17.27,0,31.44,14.1,32.54,31.85,1.64-.8,3.28-1.31,4.93-1.54-.82-19.95-17.31-35.94-37.46-35.94s-36.73,16.07-37.46,36.11c1.63,.35,3.26,.97,4.89,1.87,.85-17.99,15.13-32.35,32.57-32.35Z"/><path class="cls-2" d="M92,70c2.67,0,5.35,.78,8.04,2.28-.93-15.14-12.93-27.15-27.55-27.15s-26.32,11.73-27.51,26.61c2.34-1.15,4.68-1.74,7.01-1.74,3.38,0,6.79,1.22,10.2,3.63,6.53-4.47,13.05-4.46,19.58,0,3.42-2.41,6.83-3.64,10.21-3.64Z"/><path class="cls-2" d="M111.96,83.74l.04-.06,.04,.06c2.29-3.14,4.59-5.74,6.88-7.81-2.37-1.45-4.69-2.19-6.92-2.19s-4.55,.74-6.92,2.19c2.3,2.07,4.59,4.67,6.88,7.81Z"/><path class="cls-2" d="M92,74c-5.52,0-11.44,4.48-17.59,13.3,8.26,12.71,14.55,29.37,17.59,38.24,2.91-8.49,9.27-25.44,17.59-38.24-6.15-8.82-12.06-13.3-17.59-13.3Z"/><path class="cls-2" d="M30.04,70.42c.83-22.7,19.55-40.92,42.46-40.92s41.72,18.31,42.46,41.1c2.27,.47,4.55,1.48,6.83,3.03,2.56-1.81,5.12-2.95,7.66-3.41-.94-30.89-26.34-55.73-57.46-55.73S15.49,39.34,14.54,70.23c2.54,.46,5.1,1.6,7.66,3.4,2.61-1.79,5.23-2.85,7.84-3.21Z"/><path class="cls-2" d="M72,83.8c2.31-3.16,4.62-5.77,6.93-7.86-2.37-1.45-4.69-2.19-6.93-2.19s-4.56,.74-6.92,2.19c2.31,2.08,4.62,4.69,6.92,7.85Z"/><path class="cls-2" d="M25.08,75.94c2.31,2.08,4.62,4.7,6.92,7.86,2.3-3.16,4.61-5.78,6.92-7.86-2.37-1.45-4.69-2.19-6.92-2.19s-4.55,.74-6.92,2.19Z"/><path class="cls-2" d="M55.68,127.13c5.18,1.53,10.65,2.37,16.32,2.37s11.14-.84,16.32-2.37c-2.82-8.28-8.66-23.89-16.32-36.17-7.65,12.28-13.49,27.89-16.32,36.17Z"/><path class="cls-2" d="M96.83,123.86c9.06-4.36,16.81-11.03,22.49-19.23-2.41-5.15-4.86-9.74-7.31-13.67-6.76,10.86-12.13,24.4-15.17,32.9Z"/><path class="cls-2" d="M114.41,87.31c2.49,3.83,4.98,8.29,7.43,13.32,4.5-7.8,7.22-16.75,7.61-26.3-4.78,1.16-9.82,5.5-15.03,12.98Z"/><path class="cls-2" d="M24.69,104.62c5.68,8.21,13.42,14.88,22.49,19.23-3.04-8.5-8.41-22.03-15.17-32.89-2.45,3.93-4.9,8.51-7.32,13.66Z"/><path class="cls-2" d="M14.56,74.33c.38,9.55,3.1,18.5,7.61,26.3,2.45-5.03,4.94-9.49,7.42-13.32-5.21-7.47-10.25-11.82-15.03-12.98Z"/><path d="M72,9.5c-34.46,0-62.5,28.04-62.5,62.5s28.04,62.5,62.5,62.5,62.5-28.04,62.5-62.5S106.46,9.5,72,9.5Zm0,5c31.11,0,56.51,24.84,57.46,55.73-2.55,.46-5.1,1.6-7.66,3.41-2.28-1.56-4.55-2.56-6.83-3.03-.74-22.79-19.5-41.1-42.46-41.1S30.87,47.72,30.04,70.42c-2.61,.36-5.22,1.42-7.84,3.21-2.56-1.8-5.11-2.94-7.66-3.4,.94-30.89,26.34-55.73,57.46-55.73Zm-9.8,59.13c-3.42-2.41-6.82-3.63-10.2-3.63-2.33,0-4.66,.59-7.01,1.74,1.18-14.88,13.06-26.61,27.51-26.61s26.61,12.01,27.55,27.15c-2.69-1.5-5.38-2.28-8.04-2.28-3.38,0-6.79,1.22-10.21,3.64-6.53-4.47-13.05-4.48-19.58,0Zm16.72,2.31c-2.31,2.08-4.62,4.69-6.93,7.86-2.3-3.16-4.61-5.77-6.92-7.85,2.37-1.45,4.69-2.19,6.92-2.19s4.56,.74,6.93,2.19Zm-43.89-5.33c.74-20.03,17.25-36.11,37.46-36.11s36.64,15.98,37.46,35.94c-1.64,.23-3.28,.75-4.93,1.54-1.09-17.75-15.26-31.85-32.54-31.85s-31.72,14.36-32.57,32.35c-1.63-.9-3.26-1.53-4.89-1.87Zm3.88,5.33c-2.31,2.08-4.62,4.7-6.92,7.86-2.3-3.16-4.61-5.78-6.92-7.86,2.37-1.45,4.69-2.19,6.92-2.19s4.55,.74,6.92,2.19Zm73.08-2.19c2.23,0,4.55,.74,6.92,2.19-2.3,2.07-4.59,4.67-6.88,7.81l-.04-.06-.04,.06c-2.29-3.13-4.59-5.74-6.88-7.81,2.37-1.45,4.69-2.19,6.92-2.19Zm-97.44,.58c4.78,1.16,9.82,5.5,15.03,12.98-2.49,3.83-4.98,8.29-7.42,13.32-4.5-7.8-7.22-16.75-7.61-26.3Zm10.13,30.3c2.41-5.15,4.87-9.73,7.32-13.66,6.76,10.86,12.13,24.39,15.17,32.89-9.06-4.36-16.81-11.03-22.49-19.23Zm9.73-17.32c6.15-8.82,12.06-13.3,17.59-13.3s11.44,4.48,17.59,13.3c-8.26,12.7-14.55,29.37-17.59,38.24-2.91-8.49-9.27-25.44-17.59-38.24Zm37.59,42.2c-5.67,0-11.14-.84-16.32-2.37,2.82-8.28,8.66-23.89,16.32-36.17,7.65,12.28,13.49,27.89,16.32,36.17-5.18,1.53-10.65,2.37-16.32,2.37Zm2.41-42.2c6.15-8.82,12.06-13.3,17.59-13.3s11.44,4.48,17.59,13.3c-8.32,12.8-14.68,29.75-17.59,38.24-3.04-8.87-9.33-25.54-17.59-38.24Zm22.41,36.56c3.04-8.5,8.41-22.04,15.17-32.9,2.45,3.93,4.9,8.51,7.31,13.67-5.68,8.21-13.42,14.88-22.49,19.23Zm25.01-23.23c-2.45-5.03-4.94-9.49-7.43-13.32,5.21-7.47,10.25-11.82,15.03-12.98-.38,9.55-3.1,18.5-7.61,26.3Z"/></g></g></svg>