<?xml version="1.0" encoding="UTF-8"?><svg id="Layer_2" xmlns="http://www.w3.org/2000/svg" viewBox="0 0 214 112"><defs><style>.cls-1{fill:#ffd967;}.cls-2{fill:#3f4d21;}.cls-3{fill:#ffe6aa;}.cls-4{fill:#154037;}.cls-5{fill:#133f36;}.cls-6{fill:#f9a865;}.cls-7{fill:#eb6e56;}</style></defs><g id="Square_window"><path class="cls-3" d="M191.8,62.22c1.34-.61,2.71-1.14,4.11-1.59,3.7-1.44,7.58-2.39,11.59-2.58,.5-.02,1-.06,1.5-.06V5.5h-44.41c15.52,14.31,25.7,34.33,27.21,56.72Z"/><path class="cls-3" d="M49.41,5.5H5V58c6.06,0,11.85,1.74,17.19,4.42,1.46-22.48,11.65-42.57,27.22-56.92Z"/><path class="cls-1" d="M22.19,62.42c.23,.12,.46,.24,.69,.36,.26,.09,.51,.19,.77,.29,4.73-3.05,9.91-5.07,15.35-5.07,4.68,0,9.17,1.5,13.35,3.86,3.05-27.49,26.35-48.86,54.65-48.86s51.6,21.38,54.65,48.86c4.17-2.36,8.67-3.86,13.35-3.86,5.39,0,10.52,1.99,15.21,4.99,.53-.26,1.05-.52,1.59-.76-1.51-22.4-11.68-42.41-27.21-56.72-.19-.17-.38-.33-.57-.5H49.98c-.19,.17-.38,.33-.57,.5-15.57,14.35-25.76,34.45-27.22,56.92Z"/><path class="cls-6" d="M161.65,61.86c-3.05-27.49-26.35-48.86-54.65-48.86s-51.6,21.38-54.65,48.86c.62,.35,1.24,.71,1.84,1.1,1.74-.87,3.53-1.63,5.4-2.24,4.26-1.7,8.76-2.73,13.41-2.73,1.88,0,3.73,.17,5.55,.48,3.98-11.9,15.21-20.48,28.45-20.48s24.48,8.59,28.45,20.5c1.82-.31,3.67-.5,5.55-.5,4.5,0,8.85,.97,12.97,2.56,2.11,.58,4.19,1.32,6.2,2.18,.49-.3,.98-.59,1.47-.87Z"/><path class="cls-7" d="M107,38c-13.24,0-24.47,8.58-28.45,20.48,2.54,.43,5.02,1.15,7.42,2.08,2.11,.58,4.18,1.32,6.2,2.18,4.58-2.86,9.58-4.74,14.82-4.74s10.51,1.98,15.19,4.96c1.74-.87,3.53-1.63,5.4-2.24,2.54-1.01,5.17-1.77,7.87-2.23-3.98-11.91-15.21-20.5-28.45-20.5Z"/><path class="cls-2" d="M54.19,62.96c-.61-.39-1.22-.75-1.84-1.1-4.17-2.36-8.67-3.86-13.35-3.86-5.44,0-10.62,2.03-15.35,5.07,6.18,2.28,11.84,5.7,16.42,9.85,4.33-3.79,8.97-7.38,14.12-9.96Z"/><path class="cls-2" d="M176.06,72.92c4.31-3.77,9-7.35,14.15-9.93-4.69-3-9.82-4.99-15.21-4.99-4.68,0-9.17,1.5-13.35,3.86-.5,.28-.99,.57-1.47,.87,5.97,2.54,11.44,6.15,15.89,10.18Z"/><path class="cls-2" d="M122.19,62.96c-4.68-2.99-9.81-4.96-15.19-4.96s-10.24,1.88-14.82,4.74c5.97,2.54,11.45,6.15,15.89,10.19,4.33-3.79,8.97-7.38,14.12-9.96Z"/><path class="cls-1" d="M190.21,62.99c-5.15,2.58-9.84,6.16-14.15,9.93-4.45-4.03-9.92-7.64-15.89-10.18-2.02-.86-4.09-1.59-6.2-2.18,13.73,5.3,24.97,17.59,30.76,24.94h2.78c-2.51-3.25-6.26-7.74-10.97-12.21,5.45-5,12.05-9.81,19.36-12.66-1.4,.45-2.77,.98-4.11,1.59-.54,.24-1.06,.5-1.59,.76Z"/><path class="cls-1" d="M40.07,72.93c-4.58-4.15-10.25-7.57-16.42-9.85-.26-.1-.51-.2-.77-.29,11.48,6,20.77,16.27,25.86,22.72h2.78c-2.51-3.26-6.27-7.75-10.98-12.21,5.37-4.93,11.86-9.7,19.05-12.56-1.86,.61-3.66,1.37-5.4,2.24-5.15,2.58-9.79,6.17-14.12,9.96Z"/><path class="cls-1" d="M108.07,72.93c-4.45-4.04-9.92-7.65-15.89-10.19-2.02-.86-4.09-1.59-6.2-2.18,13.73,5.3,24.97,17.59,30.76,24.94h2.78c-2.51-3.26-6.27-7.75-10.98-12.21,5.37-4.93,11.86-9.7,19.05-12.56-1.86,.61-3.66,1.37-5.4,2.24-5.15,2.58-9.79,6.17-14.12,9.96Z"/><path class="cls-5" d="M48.59,107H209V58c-.5,0-1,.03-1.5,.06-4.01,.19-7.89,1.13-11.59,2.58-7.31,2.85-13.92,7.66-19.36,12.66,4.71,4.46,8.46,8.95,10.97,12.21h-2.78c-5.79-7.35-17.03-19.64-30.76-24.94-4.13-1.59-8.48-2.56-12.97-2.56-1.88,0-3.73,.19-5.55,.5-2.7,.46-5.33,1.22-7.87,2.23-7.19,2.86-13.69,7.63-19.05,12.56,4.71,4.47,8.47,8.96,10.98,12.21h-2.78c-5.79-7.35-17.03-19.64-30.76-24.94-2.4-.93-4.88-1.65-7.42-2.08-1.82-.31-3.67-.48-5.55-.48-4.66,0-9.16,1.03-13.41,2.73-7.19,2.86-13.69,7.63-19.05,12.56,4.71,4.47,8.47,8.96,10.98,12.21h-2.78c-5.09-6.45-14.38-16.72-25.86-22.72-.23-.12-.46-.24-.69-.36-5.34-2.68-11.13-4.42-17.19-4.42v49H48.59Z"/><path class="cls-4" d="M211,3V109H3V3H211m3-3H0V112H214V0h0Z"/></g></svg>