<?xml version="1.0" encoding="UTF-8"?><svg id="Layer_2" xmlns="http://www.w3.org/2000/svg" xmlns:xlink="http://www.w3.org/1999/xlink" viewBox="0 0 210 120"><defs><style>.cls-1{fill:#18331b;}.cls-2{fill:#3c441b;}.cls-3{fill:#547532;}.cls-4{fill:#ffaa64;}.cls-5{fill:#fff7bd;}.cls-6{clip-path:url(#clippath);}.cls-7{fill:none;}.cls-8{fill:#ffda66;}</style><clipPath id="clippath"><rect class="cls-7" width="210" height="120"/></clipPath></defs><g id="Layer_3"><g class="cls-6"><rect class="cls-8" width="210" height="120"/><polyline class="cls-5" points="-132.44 141.4 243.44 4.6 243.44 141.4 -132.44 4.6"/><polyline class="cls-5" points="20.77 269.96 90.23 -123.96 208.71 -55.56 -97.71 201.56"/><polyline class="cls-5" points="208.71 201.56 -97.71 -55.56 20.77 -123.96 90.23 269.96"/><circle class="cls-4" cx="55.5" cy="72" r="27"/><path class="cls-8" d="M213,99.44s-17.91,89.56-40,89.56-40-99.56-40-99.56c0,0,17.91-24.44,40-24.44s40,34.44,40,34.44Z"/><path class="cls-8" d="M145,91.83s-17.91,96.67-40,96.67-40-96.67-40-96.67c0,0,17.91-23.33,40-23.33s40,23.33,40,23.33Z"/><path class="cls-8" d="M77,89.44s-17.91,99.56-40,99.56S-3,99.44-3,99.44c0,0,17.91-34.44,40-34.44s40,24.44,40,24.44Z"/><path class="cls-2" d="M212.35,100.89s-17.62,88.11-39.35,88.11-39.35-97.95-39.35-97.95c0,0,17.62-24.05,39.35-24.05s39.35,33.89,39.35,33.89Z"/><path class="cls-2" d="M144.33,93.44s-17.61,95.06-39.33,95.06-39.33-95.06-39.33-95.06c0,0,17.61-22.94,39.33-22.94s39.33,22.94,39.33,22.94Z"/><path class="cls-2" d="M76.35,91.05s-17.62,97.95-39.35,97.95S-2.35,100.89-2.35,100.89c0,0,17.62-33.89,39.35-33.89s39.35,24.05,39.35,24.05Z"/><g><path class="cls-8" d="M209,60c-18.67,0-29.72,7.42-40.51,15.93-7.67-4.35-17.49-8.93-27.49-8.93-19,0-28.37,7.32-35.52,12.02-8.36-5.61-19.72-12.02-32.48-12.02-17,0-24.21,5.57-30.47,8.98-8.49-6.78-21.97-15.98-37.53-15.98-10.39,0-13.32,3.25-19.2,6.59,5.34-2.73,11.14-4.51,17.2-4.51,17.01,0,31.95,9.8,40.47,16.83l8.51,6.01c.01-.06,.02-.1,.02-.1,0,0-3.13-3.63-8.51-8.05,7.79-4.27,17.28-7.76,27.51-7.76,13.94,0,26.49,6.45,35.26,12.57l8.64,4.76c-2.19-1.96-5.02-4.28-8.39-6.62,8.55-5.5,19.96-10.72,32.49-10.72,10.94,0,21.02,3.97,29.09,8.64l10.64,5.2c-2.61-2.06-5.7-4.25-9.2-6.31,8.45-6.41,21.99-14.45,37.6-14.45,26.13,0,47.87,33.81,47.87,33.81,0,0-17.67,76.57-40.73,90.84,24.03-10.77,42.73-90.91,42.73-90.91,0,0-20.13-35.81-48-35.81Z"/><path class="cls-3" d="M255,95.89s-21.48-33.79-47.98-33.81c0,0-.02,0-.02,0-.59,0-1.18,.03-1.76,.05-14.44,.57-27.25,8-35.71,14.41,3.49,2.06,6.58,4.25,9.2,6.31l-10.64-5.2c-8.07-4.67-18.15-8.64-29.09-8.64-12.53,0-23.94,5.22-32.49,10.72,3.37,2.34,6.2,4.66,8.39,6.62l-8.64-4.76c-8.77-6.12-21.32-12.57-35.26-12.57-10.24,0-19.72,3.48-27.51,7.76,5.38,4.42,8.51,8.05,8.51,8.05,0,0,0,.04-.02,.1l-8.51-6.01c-8.52-7.03-23.46-16.83-40.47-16.83-6.06,0-11.86,1.78-17.2,4.51-18.01,9.2-30.8,29.3-30.8,29.3,0,0,21.49,93.11,48,93.11,2.26,0,4.48-.76,6.65-2.13,12.16-7.65,22.86-34.69,30.33-58.87h1.09c-1.26,4.16-2.6,8.39-4.04,12.58,8.37,23.3,19.82,46.62,32.51,48.31,.49,.06,.97,.11,1.46,.11,2.25,0,4.45-.71,6.62-1.98,12.86-7.55,24.09-35.45,31.6-59.02h1.06c-1.43,4.61-3,9.37-4.7,14.1,8.32,22.79,19.54,45.14,31.96,46.79,.49,.06,.97,.11,1.46,.11,2.25,0,4.45-.71,6.62-1.98,12.86-7.55,24.09-35.45,31.6-59.02h1.06c-1.28,4.11-2.66,8.34-4.15,12.56,8.26,23.75,19.27,46.6,31.41,48.33,.49,.07,.98,.12,1.47,.12,2.47,0,4.9-.81,7.27-2.28,23.06-14.27,40.73-90.84,40.73-90.84Z"/></g><path class="cls-1" d="M255,95.89s-21.48-33.79-47.98-33.81c0,0-.02,0-.02,0-.59,0-1.18,.03-1.76,.05-14.44,.57-24.71,16.41-24.71,16.41l7.2,8.31-19.64-9.2c-8.07-4.67-18.15-8.64-29.09-8.64-12.53,0-21.49,12.72-21.49,12.72l5.39,8.62-16.64-8.76c-8.77-6.12-21.32-12.57-35.26-12.57-10.24,0-17.51,9.76-17.51,9.76l6.51,10.05s-8.01-3.96-8.02-3.9l-8.51-6.01c-8.52-7.03-23.46-16.83-40.47-16.83-6.06,0-11.86,1.78-17.2,4.51-18.01,9.2-30.8,29.3-30.8,29.3,0,0,21.49,103.11,48,103.11,2.26,0,4.48-.76,6.65-2.13,12.16-7.65,22.86-34.69,30.33-58.87h1.09c-1.26,4.16-2.6,8.39-4.04,12.58,8.37,23.3,19.82,46.62,32.51,48.31,.49,.06,.97,.11,1.46,.11,2.25,0,4.45-.71,6.62-1.98,12.86-7.55,24.09-35.45,31.6-59.02h1.06c-1.43,4.61-3,9.37-4.7,14.1,8.32,22.79,19.54,45.14,31.96,46.79,.49,.06,.97,.11,1.46,.11,2.25,0,4.45-.71,6.62-1.98,12.86-7.55,24.09-35.45,31.6-59.02h1.06c-1.28,4.11-2.66,8.34-4.15,12.56,8.26,23.75,19.27,46.6,31.41,48.33,.49,.07,.98,.12,1.47,.12,2.47,0,4.9-.81,7.27-2.28,23.06-14.27,40.73-100.84,40.73-100.84Z"/></g></g></svg>