<?xml version="1.0" encoding="UTF-8"?><svg id="Layer_1" xmlns="http://www.w3.org/2000/svg" xmlns:xlink="http://www.w3.org/1999/xlink" viewBox="0 0 1920 1440"><defs><style>.cls-1{fill:#6a6a6a;}.cls-2{fill:#555;}.cls-3{clip-path:url(#clippath-2);}.cls-3,.cls-4{fill:none;}.cls-5{fill:#48bb87;}.cls-6{fill:#777;}.cls-7{fill:#9f9f9f;}.cls-8{fill:#7c7c7c;}.cls-9{fill:#656565;}.cls-10{fill:#e1e1e1;}.cls-11{fill:#3b3b3b;}.cls-12{fill:#494949;}.cls-13{fill:#bbb;}.cls-4{clip-path:url(#clippath);}</style><clipPath id="clippath"><path class="cls-9" d="m527.43,745.33c0,57.44-46.56,104-104,104s-104-46.56-104-104,68.98-125.87,104-90.85c35.02-35.02,104,33.41,104,90.85Z"/></clipPath><clipPath id="clippath-2"><path class="cls-2" d="m765.38,745.33c0-57.44-46.56-104-104-104s-104,46.56-104,104c0,49.54,34.64,90.99,81.02,101.45,13.37,9.14,22.98,14.55,22.98,14.55,0,0,9.61-5.41,22.98-14.55,46.38-10.46,81.02-51.91,81.02-101.45Z"/></clipPath></defs><g id="main_logo"><polygon class="cls-13" points="775.07 1022.99 811.05 1034.59 803.11 1071.55 828.47 1099.59 803.11 1127.63 811.05 1164.59 775.07 1176.2 763.47 1212.18 726.51 1204.23 698.47 1229.59 670.43 1204.23 633.47 1212.18 621.87 1176.2 585.89 1164.59 593.83 1127.63 568.47 1099.59 593.83 1071.55 585.89 1034.59 621.87 1022.99 633.47 987.01 670.43 994.95 698.47 969.59 726.51 994.95 763.47 987.01 775.07 1022.99"/><circle class="cls-10" cx="697.99" cy="1100.23" r="87"/><path class="cls-9" d="m527.43,745.33c0,57.44-46.56,104-104,104s-104-46.56-104-104,68.98-125.87,104-90.85c35.02-35.02,104,33.41,104,90.85Z"/><g class="cls-4"><path class="cls-6" d="m459.45,775.23c-40.61,40.62-106.46,40.62-147.08,0s-40.61-106.47,0-147.08c40.61-40.62,137.78-40.23,137.78,9.3,49.53,0,49.91,97.17,9.3,137.78Z"/></g><path class="cls-7" d="m477.51,645.49s-14.9-12.48-33.28-12.48c-3.91,0-7.66.57-11.15,1.46-4.23-6.04-9.65-9.11-9.65-9.11,0,0-5.42,3.06-9.65,9.11-3.49-.89-7.24-1.46-11.15-1.46-18.38,0-33.28,12.48-33.28,12.48,0,0,14.9,12.48,33.28,12.48,2.57,0,5.08-.25,7.48-.67,3.52,10.19,13.32,13.82,13.32,13.82,0,0,9.8-3.63,13.32-13.82,2.41.42,4.91.67,7.48.67,18.38,0,33.28-12.48,33.28-12.48Z"/><path class="cls-8" d="m501.38,237.4c-9.52,0-18.74,1.29-27.5,3.68-8.76-2.4-17.98-3.68-27.5-3.68-44.18,0-80,46.56-80,104s35.82,104,80,104h55c44.18,0,80-46.56,80-104s-35.82-104-80-104Z"/><path class="cls-12" d="m426.38,320.4h95c6.88,0,12.5-5.62,12.5-12.5s-5.62-12.5-12.5-12.5h-80c-6.88,0-12.5-5.62-12.5-12.5s5.62-12.5,12.5-12.5h65c6.88,0,12.5-5.62,12.5-12.5s-5.62-12.5-12.5-12.5h-45.03c4.05-1.69,8.23-3.14,12.53-4.32-8.76-2.4-17.98-3.68-27.5-3.68-44.18,0-80,46.56-80,104s35.82,104,80,104c-6.88,0-12.5-5.62-12.5-12.5s5.62-12.5,12.5-12.5h55c6.88,0,12.5-5.62,12.5-12.5s-5.62-12.5-12.5-12.5h-70c-6.88,0-12.5-5.62-12.5-12.5s5.62-12.5,12.5-12.5h85c6.88,0,12.5-5.62,12.5-12.5s-5.62-12.5-12.5-12.5h-90c-6.88,0-12.5-5.62-12.5-12.5s5.62-12.5,12.5-12.5Z"/><path class="cls-7" d="m523.88,183.05c-15.12-15.19-34.43-1.12-43.29,14.07-.05.08-.09.16-.14.24.04-6.53-.28-12.45-1.22-16.77-1.13-5.21-3.61-16.39-9.35-19.19-2.44-1.29-6.58-1.04-9,1-1.2,1.01-4.56,3-3.6,4.66.96,1.66.57,2.99.16,4.57-.27,1.2-2.25,3.67-2.26,3.86-.04.13.56,1.28.77,1.7,3.3,7.53,5.57,16.12,8.15,24.63-3.38-3.1-7.67-5.65-13.11-7.28-6.91-2.08-12.98-.71-17.68,6.33,0,0,3.12,10.1,10.28,12.4,5.09,1.64,9.69,3.24,14.42,6.28,5.4,3.4,9.25,10.03,11.26,16.46-3.57,2.96-7.91,7.05-7.91,9.41h25.05c0-2.37-4.38-6.48-7.96-9.45,2.49-10.79,7.44-20.65,15.66-28.37,9.78-9.18,18.81-12.23,23.78-15.91,6.75-5,6-8.62,6-8.62Z"/><rect class="cls-5" x="447.79" y="231.15" width=".04" height=".04"/><path class="cls-11" d="m346.27,405.27c-18.77,25.7-48.14,42.43-81.6,42.43-56.3,0-102-48.14-102-107.3s45.7-107.71,102-107.71c33.46,0,62.83,16.73,81.6,42.84l-55.08,29.78c-7.34-7.34-16.73-11.42-26.52-11.42-23.26,0-40.8,22.03-40.8,46.51s17.54,46.1,40.8,46.1c9.79,0,19.17-4.08,26.52-11.02l55.08,29.78Z"/><path class="cls-11" d="m241.01,643.4h52.63v61.2h-52.63v142.8h-61.2v-142.8h-19.17v-61.2h19.17v-37.13c0-38.35,31.42-69.77,70.17-69.77,18.77,0,38.15,7.55,52.63,24.07l-44.06,43.25c-1.43-4.08-5.3-6.12-8.57-6.12-4.9,0-8.98,3.67-8.98,8.57v37.13Z"/><path class="cls-11" d="m174.91,1303.93v-305.99h61.2v19.18c12.65-14.28,29.38-24.48,51.41-24.48,59.57,0,107.3,48.14,107.3,107.3s-47.73,107.71-107.3,107.71c-22.03,0-38.76-10.2-51.41-24.48v120.76h-61.2Zm66.5-203.99c0,26.93,20.4,48.55,45.29,48.55s45.69-21.62,45.69-48.55-20.4-48.55-45.69-48.55-45.29,22.03-45.29,48.55Z"/><path class="cls-11" d="m430.58,997.94h61.2l.2,12.85c13.67-11.63,31.42-18.56,50.79-18.56,7.75,0,15.3,1.22,22.44,3.26l-24.07,62.01c-4.49-2.04-9.38-3.26-14.69-3.26-19.17,0-34.47,15.3-34.47,34.48v113.22h-61.2l-.2-204Z"/><path class="cls-11" d="m830.36,1242.73c19.17,0,35.09-15.5,35.09-35.09v-209.71h61.2v209.71c0,53.04-42.84,96.29-96.29,96.29v-61.2Zm34.88-296.61c0-17.14,13.46-30.6,31.01-30.6s30.6,13.46,30.6,30.6-13.06,30.6-30.6,30.6-31.01-13.06-31.01-30.6Z"/><path class="cls-11" d="m965.4,1099.73c0-59.36,45.7-107.51,102-107.51,65.07,0,112.4,63.04,100.16,127.91h-136.06c5.71,14.48,16.93,25.5,35.9,25.91,11.83.2,22.44-5.71,29.99-14.89l62.42,14.48c-16.52,36.31-51.61,61.61-92.41,61.61-56.3,0-102-48.14-102-107.5Zm140.35-24.48c-5.92-17.54-20.81-29.99-38.35-29.99s-32.23,12.44-38.15,29.99h76.5Z"/><path class="cls-11" d="m1384.56,1164.8c-18.77,25.7-48.14,42.43-81.6,42.43-56.3,0-102-48.14-102-107.3s45.7-107.71,102-107.71c33.46,0,62.83,16.73,81.6,42.84l-55.08,29.78c-7.34-7.34-16.73-11.42-26.52-11.42-23.26,0-40.8,22.03-40.8,46.51s17.54,46.1,40.8,46.1c9.79,0,19.17-4.08,26.52-11.02l55.08,29.78Z"/><path class="cls-11" d="m1502.96,1059.14v142.8h-61.2v-142.8h-26.52v-61.2h26.52v-64.05h61.2v64.05h34.68v61.2h-34.68Z"/><path class="cls-2" d="m765.38,745.33c0-57.44-46.56-104-104-104s-104,46.56-104,104c0,49.54,34.64,90.99,81.02,101.45,13.37,9.14,22.98,14.55,22.98,14.55,0,0,9.61-5.41,22.98-14.55,46.38-10.46,81.02-51.91,81.02-101.45Z"/><g class="cls-3"><path class="cls-1" d="m755.38,695.33c0-57.44-36.56-54-94-54s-104,46.56-104,104c0,49.54,34.64,90.99,81.02,101.45,13.37,9.14,22.98,14.55,22.98,14.55,0,0-3.87-47.7,12.98-64.55,26.18-26.18,81.02-45.45,81.02-101.45Z"/></g><path class="cls-7" d="m680.44,614.81c1.42-8,.26-14.63.26-14.63,0,0-6.13,2.24-12.25,7.3-2.77-7.58-7.06-12.71-7.06-12.71,0,0-4.51,5.39-7.27,13.29-6.34-5.47-12.94-7.88-12.94-7.88,0,0-1.14,6.5.22,14.39-9.01-2.15-17-.75-17-.75,0,0,5,13.69,16.94,20.59,4.63,2.67,9.62,3.93,13.99,4.46.11,2.78.41,4.54.41,4.54,0,0,1.41-.52,3.56-1.61,1.21,1.84,2.09,2.89,2.09,2.89,0,0,.77-.92,1.87-2.56,1.76.86,2.88,1.27,2.88,1.27,0,0,.3-1.71.41-4.43,4.59-.47,9.95-1.71,14.9-4.57,11.94-6.89,16.94-20.59,16.94-20.59,0,0-8.55-1.5-17.94.99Z"/><path class="cls-11" d="m615.56,238.4h61.2l.2,12.85c13.67-11.63,31.42-18.56,50.79-18.56,7.75,0,15.3,1.22,22.44,3.26l-24.07,62.01c-4.49-2.04-9.38-3.26-14.69-3.26-19.17,0-34.47,15.3-34.47,34.48v113.22h-61.2l-.2-204Z"/><path class="cls-11" d="m860.43,299.6v142.8h-61.2v-142.8h-26.52v-61.2h26.52v-64.05h61.2v64.05h34.68v61.2h-34.68Z"/><path class="cls-11" d="m939.99,136.4h61.2v305.99h-61.2V136.4Z"/><path class="cls-11" d="m1261.9,238.4v204h-61.4l-2.86-18.36c-10.2,14.28-25.5,23.66-45.9,23.66-60.79,0-109.95-49.37-109.75-110.16-.2-57.93,46.31-104.85,104.04-104.85,23.46,0,42.43,11.02,57.53,25.3l-2.86-19.58h61.2Zm-66.09,102c0-26.93-20.4-48.55-45.7-48.55s-45.29,21.62-45.29,48.55,20.4,48.55,45.29,48.55,45.7-21.62,45.7-48.55Z"/><path class="cls-11" d="m1503.41,442.4h-61.2v-113.22c0-19.18-15.5-34.48-34.48-34.48s-34.47,15.3-34.47,34.48v113.22h-61.2l-.2-204h61.2l.2,12.85c13.67-11.63,31.42-18.56,50.79-18.56,43.86,0,79.35,35.5,79.35,79.35v130.35Z"/><path class="cls-11" d="m1760.37,136.4v305.99h-61.2v-18.77c-12.65,14.28-29.78,24.07-51.81,24.07-59.16,0-107.3-48.14-107.3-107.3s48.14-107.3,107.3-107.3c22.03,0,39.17,9.79,51.81,24.07v-120.76h61.2Zm-66.5,204c0-26.93-20.4-48.55-45.7-48.55s-45.29,21.62-45.29,48.55,20.4,48.55,45.29,48.55,45.7-21.62,45.7-48.55Z"/><path class="cls-11" d="m1014.85,541.4v305.99h-61.2v-18.77c-12.65,14.28-29.78,24.07-51.81,24.07-59.16,0-107.3-48.14-107.3-107.3s48.14-107.3,107.3-107.3c22.03,0,39.17,9.79,51.81,24.07v-120.76h61.2Zm-66.5,204c0-26.93-20.4-48.55-45.7-48.55s-45.29,21.62-45.29,48.55,20.4,48.55,45.29,48.55,45.7-21.62,45.7-48.55Z"/></g></svg>