<?xml version="1.0" encoding="UTF-8"?><svg id="Layer_1" xmlns="http://www.w3.org/2000/svg" viewBox="0 0 1920 1440"><defs><style>.cls-1{fill:#48bb87;}</style></defs><g id="main_logo"><path d="m828.47,1099.59l-25.36-28.04,7.94-36.96-35.98-11.6-11.6-35.98-36.96,7.94-28.04-25.36-28.04,25.36-36.96-7.94-11.6,35.98-35.98,11.6,7.94,36.96-25.36,28.04,25.36,28.04-7.94,36.96,35.98,11.6,11.6,35.98,36.96-7.94,28.04,25.36,28.04-25.36,36.96,7.94,11.6-35.98,35.98-11.6-7.94-36.96,25.36-28.04Zm-130.48,87.64c-48.05,0-87-38.95-87-87s38.95-87,87-87,87,38.95,87,87-38.95,87-87,87Z"/><path d="m501.38,237.4c-6.59,0-13.03.63-19.27,1.8-1.18-1.14-2.47-2.26-3.66-3.25,2.49-10.79,7.44-20.65,15.66-28.37,9.78-9.18,18.81-12.23,23.78-15.91,6.75-5,6-8.62,6-8.62-15.12-15.19-34.43-1.12-43.29,14.07-.05.08-.09.16-.14.24.04-6.53-.28-12.45-1.22-16.77-1.13-5.21-3.61-16.39-9.35-19.19-2.44-1.29-6.58-1.04-9,1-1.2,1.01-4.56,3-3.6,4.66.96,1.66.57,2.99.16,4.57-.27,1.2-2.25,3.67-2.26,3.86-.04.13.56,1.28.77,1.7,3.3,7.53,5.57,16.12,8.15,24.63-3.38-3.1-7.67-5.65-13.11-7.28-6.91-2.08-12.98-.71-17.68,6.33,0,0,3.12,10.1,10.28,12.4,5.09,1.64,9.69,3.24,14.42,6.28,5.4,3.4,9.25,10.03,11.26,16.46-1.18.98-2.45,2.09-3.61,3.21,0,0,0,0,0,0-2.2-.41-4.42-.76-6.67-1.03-.28-.03-.56-.07-.85-.1-.61-.07-1.22-.14-1.83-.19-.8-.08-1.6-.14-2.4-.2-.41-.03-.82-.05-1.24-.08-.72-.04-1.44-.08-2.17-.11-.33-.01-.67-.03-1-.04-1.03-.03-2.07-.05-3.11-.05-44.18,0-80,46.56-80,104s35.82,104,80,104h55c44.18,0,80-46.56,80-104s-35.82-104-80-104Zm0,203h-55c-3.62,0-7.17-.35-10.65-1-1.17-1.9-1.85-4.12-1.85-6.5,0-6.88,5.62-12.5,12.5-12.5h55c6.88,0,12.5-5.62,12.5-12.5s-5.62-12.5-12.5-12.5h-70c-6.88,0-12.5-5.62-12.5-12.5s5.62-12.5,12.5-12.5h85c6.88,0,12.5-5.62,12.5-12.5s-5.62-12.5-12.5-12.5h-90c-6.88,0-12.5-5.62-12.5-12.5s5.62-12.5,12.5-12.5h95c6.88,0,12.5-5.62,12.5-12.5s-5.62-12.5-12.5-12.5h-80c-6.88,0-12.5-5.62-12.5-12.5s5.62-12.5,12.5-12.5h65c6.88,0,12.5-5.62,12.5-12.5s-5.62-12.5-12.5-12.5h-19.98c0-.52-.22-1.12-.58-1.77,5.13-.81,10.33-1.23,15.55-1.23,41.36,0,75,44.41,75,99s-33.64,99-75,99Z"/><rect class="cls-1" x="447.79" y="231.15" width=".04" height=".04"/><path d="m346.27,405.27c-18.77,25.7-48.14,42.43-81.6,42.43-56.3,0-102-48.14-102-107.3s45.7-107.71,102-107.71c33.46,0,62.83,16.73,81.6,42.84l-55.08,29.78c-7.34-7.34-16.73-11.42-26.52-11.42-23.26,0-40.8,22.03-40.8,46.51s17.54,46.1,40.8,46.1c9.79,0,19.17-4.08,26.52-11.02l55.08,29.78Z"/><path d="m241.01,643.4h52.63v61.2h-52.63v142.8h-61.2v-142.8h-19.17v-61.2h19.17v-37.13c0-38.35,31.42-69.77,70.17-69.77,18.77,0,38.15,7.55,52.63,24.07l-44.06,43.25c-1.43-4.08-5.3-6.12-8.57-6.12-4.9,0-8.98,3.67-8.98,8.57v37.13Z"/><path d="m174.91,1303.93v-305.99h61.2v19.18c12.65-14.28,29.38-24.48,51.41-24.48,59.57,0,107.3,48.14,107.3,107.3s-47.73,107.71-107.3,107.71c-22.03,0-38.76-10.2-51.41-24.48v120.76h-61.2Zm66.5-203.99c0,26.93,20.4,48.55,45.29,48.55s45.69-21.62,45.69-48.55-20.4-48.55-45.69-48.55-45.29,22.03-45.29,48.55Z"/><path d="m430.58,997.94h61.2l.2,12.85c13.67-11.63,31.42-18.56,50.79-18.56,7.75,0,15.3,1.22,22.44,3.26l-24.07,62.01c-4.49-2.04-9.38-3.26-14.69-3.26-19.17,0-34.47,15.3-34.47,34.48v113.22h-61.2l-.2-204Z"/><path d="m830.36,1242.73c19.17,0,35.09-15.5,35.09-35.09v-209.71h61.2v209.71c0,53.04-42.84,96.29-96.29,96.29v-61.2Zm34.88-296.61c0-17.14,13.46-30.6,31.01-30.6s30.6,13.46,30.6,30.6-13.06,30.6-30.6,30.6-31.01-13.06-31.01-30.6Z"/><path d="m965.4,1099.73c0-59.36,45.7-107.51,102-107.51,65.07,0,112.4,63.04,100.16,127.91h-136.06c5.71,14.48,16.93,25.5,35.9,25.91,11.83.2,22.44-5.71,29.99-14.89l62.42,14.48c-16.52,36.31-51.61,61.61-92.41,61.61-56.3,0-102-48.14-102-107.5Zm140.35-24.48c-5.92-17.54-20.81-29.99-38.35-29.99s-32.23,12.44-38.15,29.99h76.5Z"/><path d="m1384.56,1164.8c-18.77,25.7-48.14,42.43-81.6,42.43-56.3,0-102-48.14-102-107.3s45.7-107.71,102-107.71c33.46,0,62.83,16.73,81.6,42.84l-55.08,29.78c-7.34-7.34-16.73-11.42-26.52-11.42-23.26,0-40.8,22.03-40.8,46.51s17.54,46.1,40.8,46.1c9.79,0,19.17-4.08,26.52-11.02l55.08,29.78Z"/><path d="m1502.96,1059.14v142.8h-61.2v-142.8h-26.52v-61.2h26.52v-64.05h61.2v64.05h34.68v61.2h-34.68Z"/><path d="m615.56,238.4h61.2l.2,12.85c13.67-11.63,31.42-18.56,50.79-18.56,7.75,0,15.3,1.22,22.44,3.26l-24.07,62.01c-4.49-2.04-9.38-3.26-14.69-3.26-19.17,0-34.47,15.3-34.47,34.48v113.22h-61.2l-.2-204Z"/><path d="m860.43,299.6v142.8h-61.2v-142.8h-26.52v-61.2h26.52v-64.05h61.2v64.05h34.68v61.2h-34.68Z"/><path d="m939.99,136.4h61.2v305.99h-61.2V136.4Z"/><path d="m1261.9,238.4v204h-61.4l-2.86-18.36c-10.2,14.28-25.5,23.66-45.9,23.66-60.79,0-109.95-49.37-109.75-110.16-.2-57.93,46.31-104.85,104.04-104.85,23.46,0,42.43,11.02,57.53,25.3l-2.86-19.58h61.2Zm-66.09,102c0-26.93-20.4-48.55-45.7-48.55s-45.29,21.62-45.29,48.55,20.4,48.55,45.29,48.55,45.7-21.62,45.7-48.55Z"/><path d="m1503.41,442.4h-61.2v-113.22c0-19.18-15.5-34.48-34.48-34.48s-34.47,15.3-34.47,34.48v113.22h-61.2l-.2-204h61.2l.2,12.85c13.67-11.63,31.42-18.56,50.79-18.56,43.86,0,79.35,35.5,79.35,79.35v130.35Z"/><path d="m1760.37,136.4v305.99h-61.2v-18.77c-12.65,14.28-29.78,24.07-51.81,24.07-59.16,0-107.3-48.14-107.3-107.3s48.14-107.3,107.3-107.3c22.03,0,39.17,9.79,51.81,24.07v-120.76h61.2Zm-66.5,204c0-26.93-20.4-48.55-45.7-48.55s-45.29,21.62-45.29,48.55,20.4,48.55,45.29,48.55,45.7-21.62,45.7-48.55Z"/><path d="m1014.85,541.4v305.99h-61.2v-18.77c-12.65,14.28-29.78,24.07-51.81,24.07-59.16,0-107.3-48.14-107.3-107.3s48.14-107.3,107.3-107.3c22.03,0,39.17,9.79,51.81,24.07v-120.76h61.2Zm-66.5,204c0-26.93-20.4-48.55-45.7-48.55s-45.29,21.62-45.29,48.55,20.4,48.55,45.29,48.55,45.7-21.62,45.7-48.55Z"/><path d="m527.38,742.65c0-.26-.02-.52-.03-.78-.03-.68-.07-1.37-.12-2.05-.02-.24-.03-.48-.05-.72-.07-.9-.16-1.79-.27-2.69-.02-.13-.04-.27-.05-.4-.09-.78-.2-1.55-.32-2.33-.04-.27-.08-.53-.12-.8-.12-.72-.24-1.45-.38-2.17-.04-.2-.07-.39-.11-.58-.18-.91-.36-1.82-.57-2.73-.04-.18-.09-.37-.13-.55-.17-.74-.35-1.49-.54-2.23-.06-.25-.13-.49-.19-.74-.22-.82-.44-1.63-.68-2.45-.03-.1-.05-.19-.08-.29-.27-.92-.56-1.85-.86-2.77-.06-.19-.13-.38-.19-.57-.25-.75-.51-1.51-.77-2.26-.07-.2-.14-.41-.22-.61-.67-1.85-1.39-3.68-2.16-5.51-.07-.17-.14-.34-.22-.51-.34-.8-.69-1.6-1.05-2.39-.06-.13-.11-.25-.17-.38-.85-1.86-1.75-3.69-2.69-5.51-.06-.12-.13-.24-.19-.36-.47-.89-.94-1.78-1.43-2.66,0,0,0,0,0,0-1.03-1.86-2.11-3.7-3.22-5.51-.03-.06-.07-.11-.1-.17-11.02-17.77-26.16-32.79-41.58-40.79,5.36-2.91,8.63-5.65,8.63-5.65,0,0-14.9-12.48-33.28-12.48-3.91,0-7.66.57-11.15,1.46-4.23-6.04-9.65-9.11-9.65-9.11,0,0-5.42,3.06-9.65,9.11-3.49-.89-7.24-1.46-11.15-1.46-18.38,0-33.28,12.48-33.28,12.48,0,0,3.27,2.74,8.63,5.65-29.8,15.45-58.55,57.12-58.55,94.19,0,16.76,3.97,32.59,11.01,46.62.01.03.03.06.04.09,1.08,2.15,2.24,4.26,3.46,6.32.03.05.06.11.1.16,1.22,2.04,2.5,4.04,3.85,5.98.05.07.09.13.14.2,1.35,1.93,2.75,3.82,4.22,5.65.06.07.12.15.18.22,1.47,1.82,3,3.59,4.58,5.31.07.07.14.15.21.22,1.59,1.71,3.23,3.37,4.94,4.97.07.07.15.14.22.21.81.76,1.63,1.5,2.46,2.23.05.04.1.09.15.13.88.77,1.77,1.52,2.68,2.26.07.05.14.11.2.16.83.68,1.68,1.34,2.53,1.99.11.08.21.16.32.24.92.7,1.85,1.38,2.79,2.05.05.03.09.06.14.1.88.62,1.77,1.22,2.67,1.81.15.1.29.19.44.29.96.63,1.93,1.24,2.91,1.83,0,0,0,0,0,0,.95.57,1.91,1.13,2.88,1.68.18.1.37.21.55.31,1.96,1.09,3.96,2.11,5.99,3.07.21.1.42.2.63.3.97.45,1.95.89,2.93,1.31.05.02.09.04.14.06,1.03.44,2.07.86,3.12,1.26.23.09.46.17.68.26.92.35,1.85.69,2.78,1.01.14.05.29.1.43.15,1.05.36,2.12.7,3.18,1.03.23.07.46.14.7.21.91.27,1.82.53,2.74.77.21.06.42.12.63.17,1.08.28,2.16.55,3.25.79.22.05.45.1.67.15.92.2,1.84.39,2.77.57.26.05.51.1.77.15,1.1.2,2.21.39,3.32.56.19.03.38.05.58.08.95.14,1.91.26,2.88.37.29.03.57.07.86.1,1.13.12,2.26.23,3.4.31.13,0,.26.02.39.02,1.03.07,2.06.13,3.09.17.3.01.61.02.91.03,1.16.04,2.32.06,3.48.06,1.79,0,3.58-.05,5.35-.14,6.2-.31,12.26-1.17,18.14-2.53,1.68-.39,3.34-.81,4.98-1.28,1.65-.47,3.27-.97,4.88-1.52.81-.27,1.61-.55,2.4-.85,7.17-2.62,13.97-6.02,20.3-10.07,1.41-.9,2.79-1.84,4.15-2.8,4.42-3.14,8.58-6.63,12.45-10.41.6-.58,1.18-1.17,1.76-1.76,1.38-1.42,2.73-2.87,4.03-4.37.61-.7,1.21-1.4,1.8-2.12,1.96-2.37,3.81-4.83,5.55-7.38.31-.45.61-.9.91-1.35,7.23-10.89,12.47-23.22,15.18-36.47.87-4.23,1.47-8.56,1.81-12.96.13-1.76.22-3.53.27-5.32.02-.89.03-1.79.03-2.68s-.02-1.78-.05-2.68Zm-176.92-61.81c10.28-12.53,22.11-21.93,33.35-26.91,5.35,2.24,11.84,4.04,18.83,4.04,2.57,0,5.08-.25,7.48-.67,3.52,10.19,13.32,13.82,13.32,13.82,0,0,9.8-3.63,13.32-13.82,2.41.42,4.91.67,7.48.67,6.99,0,13.47-1.81,18.83-4.04,7.32,3.24,14.88,8.36,22.1,14.99,9.31,32.04.05,80.55-25.71,106.31-33.17,33.17-83.16,39.24-122.5,18.24-7.97-14.26-12.52-30.67-12.52-48.13,0-20.52,9.73-44.63,26.03-64.49Z"/><path d="m765.38,745.33h0c0-.96-.01-1.91-.04-2.85,0-.31-.02-.62-.04-.93-.02-.64-.05-1.27-.08-1.91-.02-.36-.05-.72-.07-1.08-.04-.58-.08-1.17-.12-1.75-.03-.37-.07-.75-.1-1.12-.05-.57-.11-1.14-.17-1.7-.04-.37-.08-.74-.13-1.11-.07-.57-.14-1.14-.22-1.7-.05-.36-.1-.72-.15-1.07-.09-.59-.18-1.18-.28-1.76-.05-.33-.11-.66-.16-.98-.11-.65-.24-1.3-.36-1.94-.05-.26-.1-.52-.15-.77-.18-.87-.36-1.73-.56-2.59,0-.03-.01-.06-.02-.1-.21-.93-.44-1.85-.68-2.77-.02-.07-.04-.15-.06-.22-.21-.82-.44-1.63-.67-2.43-.06-.21-.13-.42-.19-.64-.2-.67-.4-1.34-.61-2-.08-.25-.16-.5-.24-.75-.2-.63-.41-1.25-.63-1.87-.09-.26-.18-.51-.27-.77-.22-.62-.44-1.23-.67-1.84-.09-.25-.19-.49-.28-.74-.24-.63-.49-1.25-.74-1.87-.09-.22-.18-.44-.27-.66-.28-.67-.57-1.34-.86-2.01-.07-.16-.14-.32-.21-.48-.37-.82-.74-1.64-1.13-2.45,0,0,0,0,0,0h0c-16.08-33.55-49.62-57.15-88.85-59,.06-.68.13-1.51.17-2.47,4.59-.47,9.95-1.71,14.9-4.57,11.94-6.89,16.94-20.59,16.94-20.59,0,0-8.55-1.5-17.94.99,1.42-8,.26-14.63.26-14.63,0,0-6.13,2.24-12.25,7.3-2.77-7.58-7.06-12.71-7.06-12.71,0,0-4.51,5.39-7.27,13.29-6.34-5.47-12.94-7.88-12.94-7.88,0,0-1.14,6.5.22,14.39-9.01-2.15-17-.75-17-.75,0,0,5,13.69,16.94,20.59,4.63,2.67,9.62,3.93,13.99,4.46.04,1.03.1,1.92.17,2.62-54.7,3.05-98.11,48.37-98.11,103.83,0,49.54,34.64,90.99,81.02,101.45,13.37,9.14,22.98,14.55,22.98,14.55,0,0,9.61-5.41,22.98-14.55,46.38-10.46,81.02-51.91,81.02-101.45h0Zm-124.94,96.78l-.93-.21c-21.56-4.86-41.13-17.06-55.12-34.34-14.19-17.53-22.01-39.63-22.01-62.23,0-54.59,44.41-99,99-99,42.26,0,78.41,26.62,92.59,63.96-8.73,44.75-55.91,62.79-79.61,86.49-13.18,13.18-13.68,45.26-13.27,58.59-3.74-2.22-10.98-6.65-19.86-12.72l-.79-.54Z"/></g></svg>