<?xml version="1.0" encoding="UTF-8"?><svg id="Layer_2" xmlns="http://www.w3.org/2000/svg" viewBox="0 0 196 196"><defs><style>.cls-1{fill:none;stroke:#000;stroke-miterlimit:10;stroke-width:6px;}</style></defs><g id="as_a_plant"><g id="as_a_plant_1"><path d="m134.5,36.5c3.28,0,6.48.35,9.57,1-5.46-3.18-11.8-5-18.57-5-20.43,0-37,16.57-37,37,0,2.09.18,4.13.51,6.12,3.32-22.14,22.42-39.12,45.49-39.12Z"/><path d="m120.55,53c-13.32,2.99-23.33,12.81-27.17,24.95-1.86,5.89-1.87,11.88-1.44,17.99.16,2.18.34,4.37.16,6.55-.48,6.09-3.1,12.39-6.26,17.57-1.54,2.53-3.33,4.9-5.33,7.08-1.01,1.11-2.08,2.16-3.2,3.16-.93.84-2.34,2.47-3.54,2.86,1.92-.63,3.81-1.41,5.66-2.38,7.98-4.18,13.8-10.86,17.01-18.58,1.51-3.63,2.39-7.49,2.73-11.4s-.39-8.13.08-12.21c1.02-8.87,5.95-17.51,12.12-23.84,1.22-1.25,2.5-2.43,3.83-3.51,4.46-2.91,9.5-5.08,15-6.32,3.2-.71,6.4-1.07,9.56-1.11-6.03-1.91-12.61-2.3-19.22-.82Z"/><path d="m81.71,103.77c-3.6,3.19-10.55,1.67-15.76-3.55s-6.82-12.52-3.31-16.04c3.17-3.17,9.31-2.26,14.41,1.86-.54-.64-1.1-1.27-1.71-1.89-7.42-7.42-17.39-9.48-22.27-4.6-4.88,4.88-2.82,14.85,4.6,22.27s17.39,9.48,22.27,4.6c.77-.77,1.34-1.67,1.77-2.66Z"/><path d="m103.12,129.44c3.6,3.19,10.55,1.67,15.76-3.55s6.82-12.52,3.31-16.04c-3.17-3.17-9.31-2.26-14.41,1.86.54-.64,1.1-1.27,1.71-1.89,7.42-7.42,17.39-9.48,22.27-4.6s2.82,14.85-4.6,22.27-17.39,9.48-22.27,4.6c-.77-.77-1.34-1.67-1.77-2.66Z"/><path d="m85.21,173.17c-1.62-.91-2.47-1.88-2.59-3.45,0,0,.11-3.45.11-3.45.56-9.2,2.03-18.43,5.1-27.15,1.61-4.28,3.57-8.65,6.16-12.42,1.3-1.9,2.74-3.74,4.5-5.21-.64.94-1.15,1.95-1.65,2.95-5.19,11.06-6.72,23.39-7.6,35.46,0,0-.29,6.62-.29,6.62l-.03,3.32c-.19,1.55-1.1,2.41-2.73,3.32,0,0-1,0-1,0h0Z"/><circle class="cls-1" cx="98" cy="98" r="95"/></g></g></svg>