<?xml version="1.0" encoding="UTF-8"?><svg id="Layer_2" xmlns="http://www.w3.org/2000/svg" viewBox="0 0 181 221"><g id="as_a_plant"><g id="Layer_14"><path d="m42.89,45.61c-9.76-9.76-7.07-28.28-7.07-28.28,0,0,18.52-2.69,28.28,7.07s7.07,28.28,7.07,28.28c0,0-18.52,2.69-28.28-7.07Z"/><path d="m138.07,45.61c9.76-9.76,7.07-28.28,7.07-28.28,0,0-18.52-2.69-28.28,7.07s-7.07,28.28-7.07,28.28c0,0,18.52,2.69,28.28-7.07Z"/><path d="m104.46,25c0-13.81-15-25-15-25,0,0-15,11.19-15,25,0,13.81,15,25,15,25,0,0,15-11.19,15-25Z"/><path d="m135,59H46C20.59,59,0,95.26,0,140s20.59,81,46,81h89c25.41,0,46-36.26,46-81s-20.59-81-46-81Zm-71,126h9v-36h24c4.97,0,9-4.03,9-9s-4.03-9-9-9h-24v-18h27c14.89,0,27,12.11,27,27s-11.57,26.45-26,26.97v.03h-10v15c0,1.02-.11,2.02-.27,3h27.27c4.97,0,9,4.03,9,9s-4.03,9-9,9h-63c-19.8,0-35.85-28.21-35.85-63s16.05-63,35.85-63v.02c.17,0,.33-.02.5-.02s.33.02.5.02v-.02h62c4.97,0,9,4.03,9,9s-4.03,9-9,9h-54c-4.97,0-9,4.03-9,9v72c0,4.97,4.03,9,9,9Z"/></g></g></svg>