<svg width="349" height="241" viewBox="0 0 349 241" fill="none" xmlns="http://www.w3.org/2000/svg">
<path d="M148.268 237.968C146.084 237.968 143.984 237.604 141.968 236.876C139.896 236.204 138.048 235.168 136.424 233.768L142.052 224.612C142.612 225.228 143.312 225.676 144.152 225.956C144.936 226.236 145.748 226.376 146.588 226.376C147.428 226.376 148.184 226.18 148.856 225.788C149.528 225.452 150.06 224.92 150.452 224.192C150.844 223.464 151.04 222.652 151.04 221.756V176.9H164.48V220.748C164.48 224.108 163.752 227.076 162.296 229.652C160.896 232.284 158.964 234.328 156.5 235.784C154.092 237.24 151.348 237.968 148.268 237.968ZM151.04 171.86V159.68H164.48V171.86H151.04ZM194.755 221.84C191.003 221.84 187.671 221.252 184.759 220.076C181.847 218.844 179.355 217.192 177.283 215.12C175.267 213.048 173.727 210.668 172.663 207.98C171.599 205.236 171.067 202.38 171.067 199.412C171.067 195.156 171.991 191.292 173.839 187.82C175.743 184.292 178.459 181.464 181.987 179.336C185.515 177.152 189.771 176.06 194.755 176.06C199.739 176.06 203.967 177.124 207.439 179.252C210.967 181.38 213.655 184.18 215.503 187.652C217.351 191.068 218.275 194.792 218.275 198.824C218.275 199.608 218.219 200.392 218.107 201.176C218.051 201.904 217.995 202.548 217.939 203.108H185.347C185.515 205.068 186.047 206.72 186.943 208.064C187.895 209.408 189.099 210.444 190.555 211.172C192.011 211.844 193.551 212.18 195.175 212.18C197.191 212.18 199.067 211.704 200.803 210.752C202.595 209.8 203.827 208.512 204.499 206.888L215.923 210.08C214.803 212.376 213.207 214.42 211.135 216.212C209.119 217.948 206.711 219.32 203.911 220.328C201.167 221.336 198.115 221.84 194.755 221.84ZM185.011 194.876H204.163C203.939 193.028 203.407 191.432 202.567 190.088C201.727 188.688 200.607 187.624 199.207 186.896C197.807 186.112 196.267 185.72 194.587 185.72C192.851 185.72 191.283 186.112 189.883 186.896C188.539 187.624 187.447 188.688 186.607 190.088C185.767 191.432 185.235 193.028 185.011 194.876ZM245.45 221.84C241.698 221.84 238.366 221.224 235.454 219.992C232.542 218.76 230.05 217.08 227.978 214.952C225.962 212.824 224.422 210.388 223.358 207.644C222.294 204.9 221.762 201.988 221.762 198.908C221.762 194.876 222.686 191.124 224.534 187.652C226.438 184.18 229.154 181.38 232.682 179.252C236.21 177.124 240.466 176.06 245.45 176.06C250.49 176.06 254.746 177.152 258.218 179.336C261.746 181.464 264.378 184.264 266.114 187.736L253.01 191.684C252.17 190.34 251.078 189.304 249.734 188.576C248.446 187.848 246.99 187.484 245.366 187.484C243.518 187.484 241.838 187.96 240.326 188.912C238.87 189.864 237.694 191.18 236.798 192.86C235.958 194.54 235.538 196.556 235.538 198.908C235.538 201.204 235.986 203.22 236.882 204.956C237.778 206.692 238.954 208.064 240.41 209.072C241.866 210.024 243.518 210.5 245.366 210.5C246.486 210.5 247.522 210.332 248.474 209.996C249.482 209.604 250.378 209.072 251.162 208.4C252.002 207.728 252.646 206.972 253.094 206.132L266.198 210.164C265.134 212.404 263.594 214.42 261.578 216.212C259.618 217.948 257.294 219.32 254.606 220.328C251.918 221.336 248.866 221.84 245.45 221.84ZM300.832 218.648C299.6 219.152 298.228 219.656 296.716 220.16C295.26 220.664 293.72 221.056 292.096 221.336C290.472 221.672 288.876 221.84 287.308 221.84C285.068 221.84 282.996 221.476 281.092 220.748C279.244 219.964 277.76 218.704 276.64 216.968C275.576 215.232 275.044 212.936 275.044 210.08V187.064H269.416V176.9H275.044V162.872H288.484V176.9H297.472V187.064H288.484V205.46C288.484 206.916 288.848 207.98 289.576 208.652C290.304 209.268 291.228 209.576 292.348 209.576C293.3 209.576 294.308 209.408 295.372 209.072C296.492 208.736 297.444 208.372 298.228 207.98L300.832 218.648Z" fill="black"/>
<path d="M32.508 221.84C29.204 221.84 26.32 221.14 23.856 219.74C21.392 218.284 19.46 216.324 18.06 213.86V238.892H4.62V176.9H16.296V184.04C17.92 181.52 19.964 179.56 22.428 178.16C24.892 176.76 27.776 176.06 31.08 176.06C34.048 176.06 36.764 176.648 39.228 177.824C41.748 179 43.932 180.624 45.78 182.696C47.628 184.768 49.056 187.176 50.064 189.92C51.072 192.664 51.576 195.632 51.576 198.824C51.576 203.192 50.764 207.112 49.14 210.584C47.516 214.056 45.248 216.8 42.336 218.816C39.48 220.832 36.204 221.84 32.508 221.84ZM27.972 210.5C29.428 210.5 30.744 210.192 31.92 209.576C33.152 208.904 34.216 208.036 35.112 206.972C36.008 205.908 36.68 204.676 37.128 203.276C37.632 201.82 37.884 200.308 37.884 198.74C37.884 197.116 37.604 195.632 37.044 194.288C36.54 192.944 35.812 191.768 34.86 190.76C33.908 189.696 32.788 188.884 31.5 188.324C30.212 187.764 28.812 187.484 27.3 187.484C26.404 187.484 25.48 187.624 24.528 187.904C23.632 188.184 22.764 188.604 21.924 189.164C21.14 189.668 20.412 190.284 19.74 191.012C19.068 191.74 18.508 192.58 18.06 193.532V202.604C18.676 204.116 19.488 205.46 20.496 206.636C21.504 207.812 22.652 208.764 23.94 209.492C25.228 210.164 26.572 210.5 27.972 210.5ZM86.3225 188.408C83.0745 188.408 80.1345 188.94 77.5025 190.004C74.8705 191.012 72.9665 192.524 71.7905 194.54V221H58.3505V176.9H70.6985V185.804C72.2105 182.836 74.1705 180.512 76.5785 178.832C78.9865 177.152 81.5065 176.284 84.1385 176.228C84.7545 176.228 85.2025 176.228 85.4825 176.228C85.8185 176.228 86.0985 176.256 86.3225 176.312V188.408Z" fill="black"/>
<path d="M148.1 131.908C148.1 127.596 148.94 123.732 150.62 120.316C152.3 116.844 154.596 114.1 157.508 112.084C160.42 110.068 163.78 109.06 167.588 109.06C170.668 109.06 173.468 109.816 175.988 111.328C178.508 112.784 180.412 114.716 181.7 117.124V92.68H195.14V139.048C195.14 140.392 195.364 141.344 195.812 141.904C196.26 142.408 196.988 142.716 197.996 142.828V154C195.644 154.448 193.74 154.672 192.284 154.672C189.988 154.672 188.112 154.168 186.656 153.16C185.256 152.152 184.388 150.752 184.052 148.96L183.8 146.692C182.232 149.436 180.104 151.48 177.416 152.824C174.728 154.168 171.9 154.84 168.932 154.84C165.908 154.84 163.108 154.28 160.532 153.16C158.012 151.984 155.8 150.36 153.896 148.288C152.048 146.216 150.62 143.78 149.612 140.98C148.604 138.18 148.1 135.156 148.1 131.908ZM181.784 137.368V128.128C181.224 126.616 180.412 125.3 179.348 124.18C178.34 123.06 177.164 122.164 175.82 121.492C174.532 120.82 173.216 120.484 171.872 120.484C170.416 120.484 169.072 120.792 167.84 121.408C166.664 122.024 165.628 122.892 164.732 124.012C163.836 125.076 163.136 126.308 162.632 127.708C162.184 129.108 161.96 130.592 161.96 132.16C161.96 133.784 162.212 135.296 162.716 136.696C163.276 138.04 164.032 139.244 164.984 140.308C165.936 141.316 167.056 142.1 168.344 142.66C169.632 143.22 171.032 143.5 172.544 143.5C173.496 143.5 174.42 143.36 175.316 143.08C176.212 142.744 177.052 142.324 177.836 141.82C178.676 141.316 179.432 140.672 180.104 139.888C180.776 139.104 181.336 138.264 181.784 137.368Z" fill="black"/>
<path d="M7.476 154V123.676H1.848V113.512H7.476V109.9C7.476 106.204 8.092 103.012 9.324 100.324C10.612 97.636 12.404 95.564 14.7 94.108C17.052 92.596 19.768 91.84 22.848 91.84C24.752 91.84 26.656 92.064 28.56 92.512C30.464 92.96 32.396 93.604 34.356 94.444L31.92 104.524C31.08 104.132 30.1 103.824 28.98 103.6C27.86 103.32 26.824 103.18 25.872 103.18C24.248 103.18 23.016 103.712 22.176 104.776C21.336 105.784 20.916 107.324 20.916 109.396V113.512H31.164V123.676H20.916V154H7.476Z" fill="black"/>
<path d="M129.592 46.408C126.344 46.408 123.404 46.94 120.772 48.004C118.14 49.012 116.236 50.524 115.06 52.54V79H101.62V34.9H113.968V43.804C115.48 40.836 117.44 38.512 119.848 36.832C122.256 35.152 124.776 34.284 127.408 34.228C128.024 34.228 128.472 34.228 128.752 34.228C129.088 34.228 129.368 34.256 129.592 34.312V46.408ZM163.813 76.648C162.581 77.152 161.209 77.656 159.697 78.16C158.241 78.664 156.701 79.056 155.077 79.336C153.453 79.672 151.857 79.84 150.289 79.84C148.049 79.84 145.977 79.476 144.073 78.748C142.225 77.964 140.741 76.704 139.621 74.968C138.557 73.232 138.025 70.936 138.025 68.08V45.064H132.397V34.9H138.025V20.872H151.465V34.9H160.453V45.064H151.465V63.46C151.465 64.916 151.829 65.98 152.557 66.652C153.285 67.268 154.209 67.576 155.329 67.576C156.281 67.576 157.289 67.408 158.353 67.072C159.473 66.736 160.425 66.372 161.209 65.98L163.813 76.648ZM168.882 17.68H182.322V63.292C182.322 65.14 182.658 66.456 183.33 67.24C184.002 68.024 184.954 68.416 186.186 68.416C187.026 68.416 187.866 68.304 188.706 68.08C189.602 67.8 190.386 67.492 191.058 67.156L192.822 77.236C191.142 78.02 189.21 78.636 187.026 79.084C184.842 79.532 182.798 79.756 180.894 79.756C177.086 79.756 174.118 78.748 171.99 76.732C169.918 74.66 168.882 71.748 168.882 67.996V17.68ZM194.414 65.812C194.414 62.9 195.226 60.352 196.85 58.168C198.474 55.984 200.714 54.276 203.57 53.044C206.426 51.756 209.702 51.112 213.398 51.112C215.19 51.112 216.954 51.28 218.69 51.616C220.426 51.896 221.938 52.316 223.226 52.876V50.944C223.226 48.536 222.498 46.688 221.042 45.4C219.586 44.112 217.374 43.468 214.406 43.468C211.942 43.468 209.618 43.888 207.434 44.728C205.306 45.568 203.038 46.772 200.63 48.34L196.598 39.772C199.51 37.868 202.534 36.44 205.67 35.488C208.862 34.536 212.222 34.06 215.75 34.06C222.358 34.06 227.482 35.656 231.122 38.848C234.818 41.984 236.666 46.548 236.666 52.54V64.048C236.666 65.392 236.862 66.344 237.254 66.904C237.702 67.408 238.458 67.716 239.522 67.828V79C238.402 79.224 237.338 79.392 236.33 79.504C235.378 79.616 234.538 79.672 233.81 79.672C231.29 79.672 229.358 79.168 228.014 78.16C226.726 77.152 225.914 75.78 225.578 74.044L225.326 72.112C223.366 74.632 221.014 76.564 218.27 77.908C215.582 79.196 212.754 79.84 209.786 79.84C206.874 79.84 204.242 79.224 201.89 77.992C199.594 76.76 197.774 75.08 196.43 72.952C195.086 70.824 194.414 68.444 194.414 65.812ZM221.126 67.492C221.742 66.988 222.246 66.428 222.638 65.812C223.03 65.196 223.226 64.608 223.226 64.048V60.1C222.106 59.652 220.846 59.316 219.446 59.092C218.102 58.812 216.842 58.672 215.666 58.672C213.202 58.672 211.158 59.232 209.534 60.352C207.91 61.416 207.098 62.844 207.098 64.636C207.098 65.644 207.378 66.568 207.938 67.408C208.498 68.248 209.254 68.92 210.206 69.424C211.214 69.928 212.39 70.18 213.734 70.18C215.078 70.18 216.422 69.928 217.766 69.424C219.11 68.92 220.23 68.276 221.126 67.492ZM288.909 79H275.469V54.22C275.469 51.308 274.909 49.208 273.789 47.92C272.725 46.576 271.297 45.904 269.505 45.904C268.273 45.904 267.013 46.24 265.725 46.912C264.437 47.584 263.261 48.508 262.197 49.684C261.189 50.86 260.405 52.204 259.845 53.716V79H246.405V34.9H258.501V42.292C259.621 40.556 261.021 39.072 262.701 37.84C264.381 36.608 266.313 35.684 268.497 35.068C270.681 34.396 273.061 34.06 275.637 34.06C278.493 34.06 280.789 34.592 282.525 35.656C284.317 36.664 285.661 38.008 286.557 39.688C287.509 41.368 288.125 43.188 288.405 45.148C288.741 47.052 288.909 48.928 288.909 50.776V79ZM295.319 56.908C295.319 52.596 296.159 48.732 297.839 45.316C299.519 41.844 301.815 39.1 304.727 37.084C307.639 35.068 310.999 34.06 314.807 34.06C317.887 34.06 320.687 34.816 323.207 36.328C325.727 37.784 327.631 39.716 328.919 42.124V17.68H342.359V64.048C342.359 65.392 342.583 66.344 343.031 66.904C343.479 67.408 344.207 67.716 345.215 67.828V79C342.863 79.448 340.959 79.672 339.503 79.672C337.207 79.672 335.331 79.168 333.875 78.16C332.475 77.152 331.607 75.752 331.271 73.96L331.019 71.692C329.451 74.436 327.323 76.48 324.635 77.824C321.947 79.168 319.119 79.84 316.151 79.84C313.127 79.84 310.327 79.28 307.751 78.16C305.231 76.984 303.019 75.36 301.115 73.288C299.267 71.216 297.839 68.78 296.831 65.98C295.823 63.18 295.319 60.156 295.319 56.908ZM329.003 62.368V53.128C328.443 51.616 327.631 50.3 326.567 49.18C325.559 48.06 324.383 47.164 323.039 46.492C321.751 45.82 320.435 45.484 319.091 45.484C317.635 45.484 316.291 45.792 315.059 46.408C313.883 47.024 312.847 47.892 311.951 49.012C311.055 50.076 310.355 51.308 309.851 52.708C309.403 54.108 309.179 55.592 309.179 57.16C309.179 58.784 309.431 60.296 309.935 61.696C310.495 63.04 311.251 64.244 312.203 65.308C313.155 66.316 314.275 67.1 315.563 67.66C316.851 68.22 318.251 68.5 319.763 68.5C320.715 68.5 321.639 68.36 322.535 68.08C323.431 67.744 324.271 67.324 325.055 66.82C325.895 66.316 326.651 65.672 327.323 64.888C327.995 64.104 328.555 63.264 329.003 62.368Z" fill="black"/>
<path d="M25.704 79.84C21.952 79.84 18.62 79.224 15.708 77.992C12.796 76.76 10.304 75.08 8.232 72.952C6.216 70.824 4.676 68.388 3.612 65.644C2.548 62.9 2.016 59.988 2.016 56.908C2.016 52.876 2.94 49.124 4.788 45.652C6.692 42.18 9.408 39.38 12.936 37.252C16.464 35.124 20.72 34.06 25.704 34.06C30.744 34.06 35 35.152 38.472 37.336C42 39.464 44.632 42.264 46.368 45.736L33.264 49.684C32.424 48.34 31.332 47.304 29.988 46.576C28.7 45.848 27.244 45.484 25.62 45.484C23.772 45.484 22.092 45.96 20.58 46.912C19.124 47.864 17.948 49.18 17.052 50.86C16.212 52.54 15.792 54.556 15.792 56.908C15.792 59.204 16.24 61.22 17.136 62.956C18.032 64.692 19.208 66.064 20.664 67.072C22.12 68.024 23.772 68.5 25.62 68.5C26.74 68.5 27.776 68.332 28.728 67.996C29.736 67.604 30.632 67.072 31.416 66.4C32.256 65.728 32.9 64.972 33.348 64.132L46.452 68.164C45.388 70.404 43.848 72.42 41.832 74.212C39.872 75.948 37.548 77.32 34.86 78.328C32.172 79.336 29.12 79.84 25.704 79.84Z" fill="black"/>
<circle cx="117" cy="198" r="24" fill="black"/>
<path d="M97.4852 171.485C99.6944 171.485 105.485 175.485 105.485 175.485C105.485 175.485 99.6944 179.485 97.4852 179.485C95.2761 179.485 89.4852 175.485 89.4852 175.485C89.4852 175.485 95.2761 171.485 97.4852 171.485Z" fill="black"/>
<circle cx="69" cy="57.5146" r="24" fill="black"/>
<path d="M61.8285 25.1716C63.3906 26.7337 64.6569 33.6569 64.6569 33.6569C64.6569 33.6569 57.7337 32.3906 56.1716 30.8285C54.6095 29.2664 53.3432 22.3432 53.3432 22.3432C53.3432 22.3432 60.2664 23.6095 61.8285 25.1716Z" fill="black"/>
<path d="M75.6569 25.1716C74.0948 26.7337 72.8284 33.6569 72.8284 33.6569C72.8284 33.6569 79.7516 32.3906 81.3137 30.8285C82.8758 29.2664 84.1422 22.3432 84.1422 22.3432C84.1422 22.3432 77.219 23.6095 75.6569 25.1716Z" fill="black"/>
<path d="M72.5 24C72.5 26.2091 68.5 32 68.5 32C68.5 32 64.5 26.2091 64.5 24C64.5 21.7909 68.5 16 68.5 16C68.5 16 72.5 21.7909 72.5 24Z" fill="black"/>
<circle cx="119" cy="133.515" r="24" fill="black"/>
<path d="M103.142 104.171C101.58 105.733 100.314 112.657 100.314 112.657C100.314 112.657 107.237 111.39 108.799 109.828C110.361 108.266 111.627 101.343 111.627 101.343C111.627 101.343 104.704 102.609 103.142 104.171Z" fill="black"/>
<path d="M96.3137 108.171C97.8758 109.733 99.1421 116.657 99.1421 116.657C99.1421 116.657 92.219 115.39 90.6569 113.828C89.0948 112.266 87.8284 105.343 87.8284 105.343C87.8284 105.343 94.7516 106.609 96.3137 108.171Z" fill="black"/>
<path d="M50.6569 104.657C49.0948 106.219 47.8284 113.142 47.8284 113.142C47.8284 113.142 54.7516 111.876 56.3137 110.314C57.8758 108.751 59.1422 101.828 59.1422 101.828C59.1422 101.828 52.219 103.095 50.6569 104.657Z" fill="black"/>
<path d="M44.3137 108.172C45.8758 109.734 47.1421 116.657 47.1421 116.657C47.1421 116.657 40.219 115.391 38.6569 113.828C37.0948 112.266 35.8284 105.343 35.8284 105.343C35.8284 105.343 42.7516 106.61 44.3137 108.172Z" fill="black"/>
<circle cx="66" cy="133.515" r="24" fill="black"/>
</svg>
