<?xml version="1.0" encoding="UTF-8"?><svg id="Layer_2" xmlns="http://www.w3.org/2000/svg" viewBox="0 0 918.29 1120.77"><defs><style>.cls-1{fill:#48ba87;}</style></defs><g id="Layer_1-2"><g id="alternate_logo"><path d="m517.35,387.94c-13.18,0-26.07,1.23-38.57,3.58-2.36-2.28-4.93-4.52-7.32-6.5,4.99-21.58,14.89-41.28,31.33-56.72,19.56-18.37,37.63-24.46,47.56-31.82,13.51-10,12-17.24,12-17.24-30.23-30.38-68.87-2.24-86.58,28.13-.09.15-.18.31-.27.46.08-13.05-.57-24.88-2.45-33.53-2.26-10.42-7.23-32.78-18.7-38.39-4.88-2.57-13.16-2.07-18,2-2.39,2.01-9.12,6-7.2,9.31s1.14,5.98.33,9.13c-.55,2.39-4.51,7.35-4.52,7.71-.08.26,1.12,2.56,1.54,3.39,6.6,15.04,11.12,32.21,16.27,49.22-6.76-6.18-15.34-11.25-26.2-14.52-13.82-4.15-25.96-1.42-35.36,12.66,0,0,6.25,20.2,20.55,24.8,10.18,3.28,19.38,6.48,28.84,12.56,10.8,6.79,18.51,20.06,22.54,32.9-2.36,1.96-4.89,4.17-7.22,6.42-12.5-2.35-25.39-3.58-38.57-3.58-88.37,0-160,93.12-160,208h0c0,114.88,71.63,208,160,208h110c88.37,0,160-93.12,160-208s-71.63-208-160-208Zm0,406h-110c-7.24,0-14.36-.7-21.34-2.01-2.32-3.79-3.66-8.24-3.66-12.99,0-13.75,11.25-25,25-25h110c13.75,0,25-11.25,25-25s-11.25-25-25-25h-140c-13.75,0-25-11.25-25-25s11.25-25,25-25h170c13.75,0,25-11.25,25-25s-11.25-25-25-25h-180c-13.75,0-25-11.25-25-25s11.25-25,25-25h190c13.75,0,25-11.25,25-25s-11.25-25-25-25h-160c-13.75,0-25-11.25-25-25s11.25-25,25-25h130c13.75,0,25-11.25,25-25s-11.25-25-25-25h-39.95c0-1.03-.42-2.23-1.15-3.54,10.26-1.62,20.66-2.46,31.1-2.46,82.71,0,150,88.82,150,198s-67.29,198-150,198Z"/><rect class="cls-1" x="410.16" y="375.44" width=".08" height=".08"/><path d="m86,793.21l12.22,18.52-21.54,14.2-12.22-18.52-50.25,33.14-14.2-21.54,50.25-33.14-4.45-6.75,21.54-14.21,4.45,6.75,13.07-8.62c13.5-8.9,31.84-5.14,40.84,8.5,4.36,6.61,6.2,15.18,3.74,24.11l-25.45-5.47c1.1-1.45.92-3.29.17-4.44-1.14-1.72-3.38-2.31-5.1-1.17l-13.07,8.62Z"/><path d="m71.75,849.48c18.24-17.26,46.22-17.22,62.53.02,16.32,17.24,14.82,45.18-3.42,62.44-18.11,17.14-46.09,17.1-62.41-.13-16.32-17.24-14.82-45.18,3.29-62.32Zm41.38,43.72c7.87-7.45,8.8-19.22,2.42-25.97-6.62-7-18.44-6.22-26.06.99-7.99,7.57-8.68,19.1-2.29,25.85,6.74,7.12,18.32,6.34,25.94-.87Z"/><path d="m145.27,924.28c14.25-20.68,41.63-26.46,61.17-12.99,19.54,13.47,23.89,41.11,9.64,61.79-14.15,20.54-41.53,26.32-61.08,12.85-19.55-13.47-23.89-41.11-9.74-61.65Zm49.57,34.16c6.15-8.92,4.61-20.63-3.04-25.91-7.93-5.46-19.34-2.25-25.29,6.39-6.25,9.06-4.51,20.49,3.13,25.76,8.07,5.56,19.24,2.39,25.19-6.25Z"/><path d="m350.05,937.11l-48.07,119.71-23.94-9.61,2.95-7.34c-7.19,3.6-15.43,4.74-24.05,1.28-23.14-9.29-34.41-35.69-25.12-58.83,9.29-23.14,35.69-34.41,58.83-25.12,8.62,3.46,13.78,9.98,16.49,17.56l18.97-47.24,23.94,9.61Zm-58.06,69.36c4.23-10.53-.35-22.2-10.25-26.17-9.98-4.01-21.11,1.35-25.34,11.88-4.23,10.53.35,22.2,10.09,26.11,9.9,3.97,21.27-1.28,25.5-11.82Z"/><path d="m392.33,1119.62l5.72-128.88,25.78,1.14-.36,8.08c5.59-5.78,12.83-9.76,22.11-9.35,25.09,1.11,44.29,22.28,43.19,47.2-1.11,25.09-22.12,44.47-47.21,43.36-9.28-.41-16.13-5.02-21.19-11.27l-2.26,50.87-25.78-1.14Zm31.83-84.68c-.5,11.34,7.68,20.83,18.17,21.3,10.65.47,19.65-8.25,20.15-19.59.5-11.17-7.68-20.83-18.34-21.3-10.48-.47-19.49,8.43-19.98,19.6Z"/><path d="m504.96,991.82l25.53-3.74.87,5.35c4.99-5.68,11.97-9.66,20.06-10.84,3.23-.47,6.46-.42,9.56,0l-6.26,27.34c-2-.58-4.11-.79-6.33-.46-8,1.17-13.45,8.49-12.28,16.49l6.91,47.23-25.53,3.74-12.54-85.09Z"/><path d="m572.75,1025.77c-7.64-23.92,4.54-49.11,27.15-56.33,22.61-7.22,47.13,6.26,54.77,30.18,7.58,23.76-4.59,48.95-27.21,56.17-22.61,7.22-47.13-6.26-54.72-30.02Zm57.35-18.31c-3.29-10.32-13.5-16.27-22.35-13.45-9.18,2.93-13.61,13.92-10.42,23.91,3.35,10.49,13.45,16.11,22.3,13.28,9.34-2.98,13.67-13.75,10.47-23.75Z"/><path d="m644.51,931.43c-3.26-6.45-.76-14.07,5.84-17.41,6.45-3.26,14.07-.76,17.33,5.69,3.34,6.6.91,14-5.69,17.34-6.6,3.34-14.15.99-17.49-5.61Zm43.34,118.22c7.21-3.65,10.25-12.51,6.52-19.88l-39.92-78.89,23.02-11.65,39.92,78.88c10.1,19.95,2.21,44.38-17.89,54.55l-11.65-23.02Z"/><path d="m716.23,968.57c-14.56-20.35-10.71-48.06,8.59-61.88,22.31-15.97,54-5.97,65.72,19.27l-46.64,33.38c5.51,3.56,12.06,4.59,18.66.07,4.11-2.83,6.29-7.46,6.63-12.46l24.95-10.35c3.24,16.5-2.58,33.78-16.56,43.79-19.3,13.81-46.78,8.52-61.34-11.83Zm42.11-42.83c-6.33-4.56-14.49-5.18-20.5-.87-5.94,4.25-8,12.17-5.72,19.64l26.22-18.77Z"/><path d="m872.69,867.9c2.54,13.17-.73,27.04-10.34,37.37-16.17,17.38-44.15,17.65-62.4.67-18.38-17.11-20.12-45.03-3.95-62.41,9.61-10.33,23.21-14.59,36.65-12.88l-6.62,25.55c-4.38.16-8.33,1.88-11.14,4.9-6.68,7.18-4.92,18.92,2.64,25.95,7.43,6.91,19.27,7.82,25.94.65,2.81-3.02,4.25-7.09,4.21-11.35l25.01-8.45Z"/><path d="m868.22,795.44l50.07,33.42-14.32,21.46-50.07-33.42-6.21,9.3-21.46-14.32,6.21-9.3-22.46-14.99,14.32-21.46,22.46,14.99,8.12-12.16,21.46,14.32-8.12,12.16Z"/><path d="m220.97,186.38c.81,13.39-4.23,26.72-15.1,35.71-18.29,15.13-46.07,11.78-61.96-7.44-16.01-19.35-14.11-47.26,4.18-62.39,10.87-8.99,24.9-11.45,38.01-8.02l-9.88,24.48c-4.36-.41-8.5.79-11.68,3.42-7.55,6.25-7.33,18.12-.75,26.07,6.47,7.82,18.09,10.26,25.64,4.01,3.18-2.63,5.13-6.48,5.65-10.71l25.89-5.13Z"/><path d="m211.54,159.42c-11.82-22.16-4.37-49.13,16.58-60.3s47.49-2.33,59.31,19.83c11.73,22.01,4.29,48.98-16.66,60.15-20.94,11.17-47.49,2.33-59.23-19.68Zm53.12-28.33c-5.1-9.56-16.21-13.58-24.4-9.21-8.5,4.53-10.89,16.14-5.95,25.39,5.18,9.71,16.13,13.43,24.32,9.06,8.65-4.61,10.97-15.98,6.03-25.24Z"/><path d="m293.16,72.16l24.66-7.59,1.68,5.15c4.06-6.38,10.35-11.38,18.16-13.78,3.12-.96,6.32-1.41,9.45-1.47l-2,27.97c-2.06-.26-4.19-.15-6.32.51-7.73,2.38-11.99,10.44-9.61,18.17l14.05,45.61-24.66,7.59-25.4-82.16Z"/><path d="m400.2,72.88l9.36,59.47-25.49,4.01-9.36-59.47-11.04,1.74-4.01-25.49,11.04-1.74-4.2-26.68,25.49-4.01,4.2,26.68,14.44-2.27,4.01,25.49-14.44,2.27Z"/><path d="m435.81.65l25.79-.65,3.23,128.95-25.79.65L435.81.65Z"/><path d="m581.48,55.42l-12.77,85.05-25.6-3.84-.04-7.83c-5.15,5.32-12.11,8.27-20.62,6.99-25.35-3.81-42.75-27.47-38.86-52.8,3.54-24.17,25.87-40.82,49.94-37.2,9.78,1.47,17,7.25,22.4,14.15l.04-8.34,25.52,3.83Zm-33.94,38.39c1.69-11.23-5.46-21.52-16.01-23.1-10.63-1.6-20.24,6.18-21.92,17.41-1.69,11.23,5.46,21.52,15.84,23.08,10.55,1.58,20.41-6.16,22.09-17.38Z"/><path d="m659.55,177.13l-23.79-9.97,18.45-44.02c3.12-7.46-.41-15.93-7.79-19.02-7.46-3.12-15.9.33-19.02,7.79l-18.45,44.02-23.79-9.97,33.17-79.35,23.79,9.97-2.02,5.03c7.21-2.29,15.24-2.1,22.78,1.06,17.05,7.15,25.07,26.73,17.92,43.79l-21.25,50.68Z"/><path d="m817.53,131.37l-76.63,103.77-20.75-15.33,4.7-6.36c-7.87,1.68-16.13.71-23.6-4.81-20.06-14.82-24.33-43.2-9.52-63.26,14.81-20.06,43.2-24.33,63.26-9.52,7.47,5.52,10.83,13.13,11.54,21.14l30.24-40.96,20.76,15.33Zm-73.64,52.53c6.74-9.13,5.24-21.57-3.34-27.91-8.65-6.39-20.77-4.01-27.52,5.12-6.74,9.13-5.24,21.57,3.2,27.81,8.58,6.33,20.91,4.11,27.66-5.02Z"/></g></g></svg>