<?xml version="1.0" encoding="UTF-8"?><svg id="Layer_2" xmlns="http://www.w3.org/2000/svg" viewBox="0 0 915.52 1118.7"><defs><style>.cls-1{fill:#fff;}.cls-2{fill:#48bb87;}.cls-3{fill:#5b9357;}.cls-4{fill:#385134;}</style></defs><g id="Layer_1-2"><g id="alternate_logo"><path class="cls-3" d="m515.77,386.93c-19.04,0-37.48,2.57-55,7.36-17.52-4.79-35.96-7.36-55-7.36-88.37,0-160,93.12-160,208s71.63,208,160,208h110c88.37,0,160-93.12,160-208s-71.63-208-160-208Z"/><path class="cls-4" d="m365.77,552.93h190c13.75,0,25-11.25,25-25s-11.25-25-25-25h-160c-13.75,0-25-11.25-25-25s11.25-25,25-25h130c13.75,0,25-11.25,25-25s-11.25-25-25-25h-90.05c8.11-3.38,16.46-6.29,25.05-8.64-17.52-4.79-35.96-7.36-55-7.36-88.37,0-160,93.12-160,208s71.63,208,160,208c-13.75,0-25-11.25-25-25s11.25-25,25-25h110c13.75,0,25-11.25,25-25s-11.25-25-25-25h-140c-13.75,0-25-11.25-25-25s11.25-25,25-25h170c13.75,0,25-11.25,25-25s-11.25-25-25-25h-180c-13.75,0-25-11.25-25-25s11.25-25,25-25Z"/><path class="cls-2" d="m560.77,278.24c-30.23-30.38-68.87-2.24-86.58,28.13-.09.15-.18.31-.27.46.08-13.05-.57-24.88-2.45-33.53-2.26-10.42-7.23-32.78-18.7-38.39-4.88-2.57-13.16-2.07-18,2-2.39,2.01-9.12,6-7.2,9.31s1.14,5.98.33,9.13c-.55,2.39-4.51,7.35-4.52,7.71-.08.26,1.12,2.56,1.54,3.39,6.6,15.04,11.12,32.21,16.27,49.22-6.76-6.18-15.34-11.25-26.2-14.52-13.82-4.15-25.96-1.42-35.36,12.66,0,0,6.25,20.2,20.55,24.8,10.18,3.28,19.38,6.48,28.84,12.56,10.8,6.79,18.51,20.06,22.54,32.9-7.15,5.93-15.85,14.12-15.85,18.83h50.1c0-4.74-8.78-12.98-15.94-18.91,4.99-21.58,14.89-41.28,31.33-56.72,19.56-18.37,37.63-24.46,47.56-31.82,13.51-10,12-17.24,12-17.24Z"/><path class="cls-1" d="m123.48,771.09c-8.68-13.16-26.38-16.84-39.46-8.22l-13.9,9.17-4.45-6.75-19.87,13.1,4.45,6.75L0,818.28l13.1,19.87,50.25-33.14,12.22,18.52,19.87-13.1-12.22-18.52,13.9-9.17c2.16-1.42,5.01-.78,6.48,1.46.7,1.07,1.06,2.72.5,4.29l23.22,4.99c1.89-7.81.54-15.73-3.85-22.38Z"/><path class="cls-1" d="m67.8,910.09c15.92,16.82,43.28,16.86,60.99.09,8.63-8.17,13.73-19.02,14.36-30.56.63-11.51-3.27-22.33-10.98-30.47s-18.29-12.63-29.82-12.63h-.03c-11.54,0-22.65,4.49-31.27,12.66-17.71,16.77-19.17,44.09-3.26,60.91Zm12.77-29.74c.41-5.16,2.84-10.09,6.85-13.88,3.9-3.69,8.89-5.85,14.05-6.09,5.3-.25,10.06,1.58,13.43,5.15,3.3,3.49,4.87,8.28,4.41,13.5-.46,5.2-2.9,10.13-6.86,13.89-3.91,3.7-8.86,5.86-13.94,6.08-.29.01-.57.02-.86.02-4.89,0-9.32-1.85-12.55-5.27-3.32-3.51-4.92-8.26-4.52-13.38Z"/><path class="cls-1" d="m137.11,956.58c1.8,11.38,7.86,21.15,17.09,27.51s20.51,8.55,31.79,6.17c11.29-2.38,21.2-9.04,27.9-18.77,13.89-20.16,9.68-47.26-9.39-60.4-19.07-13.14-45.89-7.42-59.78,12.74-6.7,9.72-9.4,21.35-7.6,32.75Zm27.2-19.25c6.45-9.36,18.42-12.34,26.68-6.64,8.26,5.69,9.74,17.94,3.29,27.3-3.05,4.43-7.45,7.57-12.37,8.85-1.56.4-3.13.61-4.66.61-3.43,0-6.71-1-9.55-2.95-3.98-2.74-6.53-7.06-7.2-12.15-.67-5.13.68-10.46,3.81-15Z"/><path class="cls-1" d="m325.28,927.78l-19.58,48.76-.89-2.48c-2.92-8.19-8.28-13.9-15.92-16.96-22.63-9.09-48.44,1.93-57.53,24.57-9.09,22.63,1.93,48.44,24.57,57.53,7.64,3.07,15.46,2.65,23.23-1.24l2.36-1.18-3.56,8.86,22.08,8.87,47.32-117.85-22.08-8.87Zm-33.75,78.04c-2.14,5.33-6.09,9.55-11.13,11.88-2.72,1.26-5.59,1.89-8.44,1.89-2.45,0-4.9-.47-7.23-1.4-4.98-2-8.83-5.95-10.84-11.14-2.01-5.17-1.94-10.95.2-16.27,2.15-5.35,6.06-9.58,11.02-11.92,5.01-2.37,10.56-2.55,15.63-.51,5.05,2.03,8.95,6,10.98,11.19,2.03,5.17,1.96,10.95-.18,16.28Z"/><path class="cls-1" d="m419.75,1068.25c5.57,6.88,12.45,10.55,20.46,10.9,24.36,1.08,45.08-17.94,46.17-42.41,1.08-24.37-17.86-45.08-42.23-46.16-8.01-.35-15.19,2.69-21.35,9.05l-1.83,1.89.43-9.71-23.78-1.06-5.63,126.89,23.78,1.06,2.33-52.5,1.66,2.05Zm2.01-34.37c.25-5.66,2.58-10.93,6.54-14.83,4-3.93,9.14-5.96,14.48-5.72,5.42.24,10.41,2.72,14.07,6.99,3.62,4.23,5.48,9.69,5.23,15.36-.25,5.74-2.59,11.03-6.57,14.9-3.78,3.67-8.63,5.67-13.75,5.67-.29,0-.58,0-.88-.02-11.07-.49-19.65-10.51-19.12-22.34h0Z"/><path class="cls-1" d="m552.58,1007.67l5.78-25.25c-2.82-.29-5.57-.25-8.19.14-7.56,1.11-14.47,4.84-19.45,10.51l-1.4,1.59-1.05-6.47-23.56,3.45,12.24,83.11,23.55-3.45-6.77-46.24c-.6-4.13.42-8.23,2.89-11.55s6.1-5.47,10.23-6.07c1.88-.28,3.81-.2,5.72.23Z"/><path class="cls-1" d="m631.04,972.7c-6.32-3.48-13.16-5.24-20.01-5.24-4.1,0-8.2.63-12.2,1.91-22.06,7.04-33.95,31.75-26.5,55.08,7.42,23.24,31.4,36.41,53.46,29.37,10.67-3.41,19.31-10.99,24.33-21.37,5.03-10.38,5.82-22.3,2.23-33.55-3.61-11.32-11.18-20.62-21.3-26.2Zm-1.94,48.63c-2.06,4.81-5.81,8.29-10.55,9.8-1.64.52-3.32.78-5.01.78-3.06,0-6.15-.85-9.01-2.52-4.47-2.61-7.86-6.94-9.53-12.19-3.46-10.82,1.51-22.11,11.07-25.17,4.58-1.46,9.58-.79,14.07,1.89,4.49,2.67,7.87,7.01,9.53,12.21,1.64,5.13,1.43,10.52-.57,15.2Z"/><path class="cls-1" d="m650.95,935.99c2.97.94,6.25.64,9.21-.86,6.15-3.11,8.36-9.84,5.25-15.99-2.12-4.18-6.22-6.57-10.53-6.57-1.83,0-3.69.43-5.46,1.32-2.95,1.49-5.12,3.97-6.12,6.97-.99,2.99-.74,6.22.72,9.1h0c1.49,2.94,3.95,5.08,6.93,6.03Z"/><path class="cls-1" d="m717.43,1047.73c3.27-10.03,2.45-20.75-2.32-30.18l-39.47-77.99-21.24,10.75,39.47,77.99c3.78,7.47,1.04,16.56-6.08,20.74l10.76,21.25c9.02-4.85,15.71-12.82,18.88-22.56Z"/><path class="cls-1" d="m775.6,978.56c12.77-9.14,19.12-25.35,16.38-41.58l-23.24,9.64c-.52,5.37-2.99,9.82-7.01,12.6-7.91,5.41-15.12,2.95-19.77-.06l-1.23-.8,47.16-33.75c-5.84-12.02-16.51-20.83-29.39-24.22-12.25-3.22-24.49-1.06-34.48,6.09-18.83,13.48-22.58,40.61-8.36,60.48,14.22,19.87,41.11,25.08,59.95,11.6Zm-39.74-55.53c6.24-4.46,14.74-4.12,21.67.87l1.13.81-28.49,20.39-.41-1.33c-2.45-8.04,0-16.38,6.09-20.74Z"/><path class="cls-1" d="m795.34,843.18c-15.77,16.95-14.02,44.32,3.9,61,17.86,16.61,45.22,16.34,60.99-.62,8.77-9.42,12.48-22.25,10.29-35.37l-23.24,7.85c-.13,4.34-1.7,8.33-4.47,11.31-6.84,7.35-19.11,7.08-27.36-.6-3.84-3.57-6.38-8.51-6.97-13.53-.62-5.29.9-10.2,4.28-13.83,2.82-3.03,6.73-4.85,11.09-5.18l6.15-23.73c-1.53-.16-3.04-.23-4.55-.23-11.58,0-22.33,4.56-30.12,12.93Z"/><polygon class="cls-1" points="902.3 847.91 915.52 828.11 865.44 794.69 873.56 782.53 853.76 769.32 845.65 781.48 823.19 766.48 809.97 786.28 832.43 801.27 826.23 810.57 846.02 823.78 852.23 814.49 902.3 847.91"/><path class="cls-1" d="m147.34,152.01c-17.84,14.76-19.66,42.12-4.05,60.99,15.55,18.79,42.72,22.07,60.56,7.3,9.91-8.2,15.27-20.45,14.79-33.73l-24.06,4.77c-.69,4.28-2.77,8.04-5.9,10.63-3.81,3.15-8.8,4.39-14.04,3.49-4.97-.86-9.72-3.64-13.01-7.63-7.24-8.75-6.85-21.08.88-27.48,3.19-2.64,7.31-3.94,11.67-3.7l9.18-22.73c-3.38-.8-6.76-1.19-10.08-1.19-9.49,0-18.57,3.19-25.93,9.28Z"/><path class="cls-1" d="m259.49,96.46c-10.93-3.65-22.4-2.76-32.29,2.52-20.43,10.9-27.68,37.34-16.16,58.95,5.56,10.42,14.65,18.16,25.59,21.8,10.93,3.64,22.4,2.74,32.28-2.53,20.43-10.9,27.72-37.27,16.24-58.79-5.59-10.49-14.71-18.28-25.67-21.94Zm-1.78,59.73c-2.42,1.29-5.09,1.94-7.82,1.94-2.08,0-4.2-.38-6.28-1.13-4.87-1.76-8.98-5.41-11.57-10.28-5.35-10.03-2.49-22.03,6.36-26.75,8.85-4.72,20.41-.41,25.76,9.62,5.3,9.94,2.41,21.87-6.44,26.59Z"/><path class="cls-1" d="m344.63,54.48c-2.83.14-5.54.61-8.07,1.39-7.3,2.25-13.55,6.99-17.61,13.36l-1.14,1.79-2.03-6.23-22.76,7.01,24.81,80.25,22.75-7.01-13.76-44.66c-1.23-3.99-.84-8.2,1.09-11.85s5.19-6.34,9.18-7.57c1.82-.56,3.73-.78,5.69-.65l1.85-25.84Z"/><polygon class="cls-1" points="412.12 68.75 408.42 45.24 393.97 47.51 389.78 20.83 366.26 24.53 370.46 51.21 359.41 52.95 363.11 76.46 374.16 74.72 383.52 134.2 407.03 130.5 397.67 71.02 412.12 68.75"/><rect class="cls-1" x="437.04" y=".28" width="23.8" height="126.99" transform="translate(-1.46 11.25) rotate(-1.43)"/><path class="cls-1" d="m555.58,51.72l-.04,10.07-1.77-2.27c-6.18-7.9-13.5-12.54-21.76-13.78-11.34-1.7-22.65,1.12-31.84,7.94-9.26,6.86-15.28,16.96-16.96,28.42-1.84,12,1.1,23.98,8.29,33.74,7.18,9.76,17.74,16.12,29.73,17.92,7.58,1.14,14.41-1.18,19.75-6.7l1.71-1.76.05,9.43,23.77,3.57,12.47-83.08-23.38-3.51Zm-8.43,41.21c-1.6,10.69-10.44,18.44-20.37,18.44-.94,0-1.9-.07-2.86-.21-5.31-.8-9.97-3.76-13.12-8.33-3.15-4.57-4.41-10.21-3.56-15.88.86-5.7,3.69-10.72,7.97-14.15,4.33-3.46,9.69-4.91,15.09-4.1,5.38.81,10.09,3.77,13.27,8.35,3.17,4.56,4.44,10.21,3.59,15.89Z"/><path class="cls-1" d="m678.6,100.19c-3.28-8.02-9.5-14.28-17.5-17.64-7.05-2.95-14.89-3.32-22.09-1.03l-2.02.64,2.44-6.08-21.96-9.21-32.4,77.5,21.95,9.2,18.07-43.1c3.31-7.9,12.43-11.63,20.33-8.32,7.9,3.31,11.63,12.43,8.32,20.33l-18.07,43.1,21.95,9.2,20.86-49.76c3.35-8,3.39-16.82.11-24.84Z"/><path class="cls-1" d="m795.6,116.42l-31.21,42.27-.23-2.63c-.77-8.66-4.52-15.53-11.14-20.42-19.62-14.49-47.37-10.31-61.86,9.31-14.49,19.62-10.31,47.37,9.31,61.86,6.62,4.89,14.29,6.45,22.8,4.64l2.58-.55-5.67,7.68,19.15,14.14,75.44-102.17-19.15-14.14Zm-52.29,67.05c-3.41,4.62-8.3,7.71-13.77,8.7-1.24.22-2.47.34-3.7.34-4.19,0-8.21-1.3-11.59-3.8-4.32-3.19-7.05-7.98-7.69-13.5-.64-5.51.88-11.09,4.28-15.7,3.42-4.64,8.27-7.75,13.66-8.77,5.44-1.03,10.86.19,15.25,3.44,4.38,3.23,7.15,8.06,7.81,13.59.66,5.51-.85,11.1-4.26,15.72Z"/></g></g></svg>