<?xml version="1.0" encoding="UTF-8"?><svg id="Layer_2" xmlns="http://www.w3.org/2000/svg" viewBox="0 0 1597.73 1165.52"><defs><style>.cls-1{fill:#fff;}.cls-2{fill:#48bb87;}</style></defs><g id="Layer_1-2"><g id="main_logo"><path class="cls-1" d="m665.49,962.19l-25.09-27.75,7.86-36.58-35.61-11.48-11.48-35.61-36.58,7.86-27.75-25.09-27.75,25.09-36.58-7.86-11.48,35.61-35.61,11.48,7.86,36.58-25.09,27.75,25.09,27.75-7.86,36.58,35.61,11.48,11.48,35.61,36.58-7.86,27.75,25.09,27.75-25.09,36.58,7.86,11.48-35.61,35.61-11.48-7.86-36.58,25.09-27.75Zm-129.13,88.63c-48.52,0-88-39.48-88-88s39.48-88,88-88,88,39.48,88,88-39.48,88-88,88Z"/><path class="cls-1" d="m315.33,697.1c.24-.14.48-.29.72-.44,2.29-1.41,4.53-2.9,6.7-4.47,26.08-18.9,43.05-49.6,43.05-84.27,0-.01,0-.03,0-.04,0-.86-.02-1.72-.05-2.58,0-.27-.02-.54-.04-.8-.03-.64-.07-1.28-.11-1.93-.02-.27-.04-.54-.06-.81-.07-.86-.15-1.73-.25-2.59,0-.02,0-.04,0-.06-.1-.88-.22-1.77-.35-2.65-.04-.26-.08-.53-.12-.79-.1-.66-.21-1.32-.33-1.97-.05-.26-.09-.52-.14-.79-.34-1.78-.73-3.57-1.18-5.35-.06-.25-.13-.49-.19-.74-.18-.68-.36-1.36-.55-2.04-.07-.24-.13-.48-.2-.72-.52-1.8-1.1-3.59-1.72-5.38-.07-.21-.15-.42-.22-.63-.26-.72-.52-1.44-.79-2.16-.08-.2-.15-.4-.23-.6-.7-1.81-1.45-3.61-2.24-5.4-.07-.15-.14-.3-.21-.46-.35-.77-.7-1.54-1.07-2.31-.07-.14-.13-.28-.2-.43-.87-1.81-1.78-3.61-2.74-5.38-.05-.09-.09-.17-.14-.25-.45-.83-.91-1.65-1.38-2.47-.04-.07-.08-.15-.12-.22-1.03-1.8-2.11-3.58-3.23-5.33,0-.01-.01-.02-.02-.03-.56-.88-1.14-1.76-1.72-2.62,0,0,0,0,0,0-11.01-16.37-25.44-29.98-40.03-37.22,3.85-2.04,6.71-4.03,8.12-5.08-3.59-2.68-16.5-11.48-31.65-11.48-4.07,0-7.98.65-11.59,1.63-3.39-5.1-7.76-8.17-9.21-9.1-1.45.93-5.82,4-9.21,9.1-3.61-.98-7.51-1.63-11.59-1.63-15.15,0-28.07,8.8-31.65,11.48,1.41,1.05,4.27,3.05,8.12,5.08-30.2,14.98-59.67,57.21-59.67,94.76,0,17.31,4.23,33.62,11.71,47.98.13.25.26.49.39.74.44.82.88,1.64,1.34,2.44.08.14.16.29.24.43.53.93,1.08,1.85,1.64,2.76.13.22.27.43.4.65.47.75.94,1.49,1.43,2.23.13.2.26.39.39.59.59.89,1.2,1.76,1.82,2.63.12.16.24.33.36.49.53.73,1.06,1.44,1.6,2.15.16.21.33.43.49.64.66.85,1.32,1.68,2,2.51.05.06.11.13.16.19.63.76,1.28,1.51,1.94,2.26.18.21.37.42.55.63.65.73,1.32,1.45,1.99,2.17.06.07.13.14.19.21.74.77,1.49,1.53,2.25,2.28.19.19.38.37.57.56.64.62,1.28,1.23,1.94,1.84.15.14.3.28.45.42.78.72,1.58,1.42,2.38,2.11.18.15.36.3.54.45.67.57,1.34,1.13,2.03,1.68.2.16.4.32.6.48.83.66,1.68,1.31,2.53,1.95.13.1.26.19.39.28.74.55,1.5,1.09,2.26,1.62.23.16.46.32.69.48,1.77,1.21,3.58,2.37,5.42,3.48.24.14.48.28.72.43.8.47,1.6.93,2.41,1.38.14.08.29.16.43.24.94.51,1.89,1.01,2.84,1.49.23.12.47.23.7.35.79.39,1.58.77,2.38,1.15.22.1.44.21.66.31.98.45,1.96.88,2.95,1.29.19.08.39.16.58.24.83.34,1.67.68,2.52,1,.26.1.52.2.78.3,1.02.38,2.04.75,3.07,1.1.09.03.18.06.27.09.95.32,1.91.62,2.87.91.28.08.55.17.83.25.96.28,1.93.55,2.91.81.09.02.19.05.28.08,1.06.27,2.13.53,3.21.77.27.06.55.12.83.18.9.19,1.8.38,2.71.55.21.04.43.08.64.12,1.09.2,2.18.38,3.27.54.25.04.49.07.74.1.9.13,1.81.24,2.73.35.27.03.54.06.82.09,1.11.12,2.23.22,3.35.31.18.01.35.02.53.03.97.07,1.95.12,2.93.16.3.01.6.02.9.03,1.14.04,2.29.06,3.44.06,17.05,0,33.15-4.1,47.35-11.38.04-.02.08-.04.12-.06,2.06-1.06,4.08-2.19,6.06-3.38Zm-127.28-154.3c10.65-12.97,22.6-22.48,34.06-27.42,5.35,2.29,11.87,4.18,18.89,4.18,2.81,0,5.54-.31,8.16-.82,2.74,9.24,10.82,13.12,12.64,13.89,1.82-.77,9.9-4.65,12.64-13.89,2.61.51,5.35.82,8.16.82,7.02,0,13.53-1.89,18.89-4.18,7.59,3.27,15.4,8.55,22.9,15.51,4.37,14.77,4.9,33.23,1.34,51.9-4.33,22.74-14,42.53-27.21,55.74-19.83,19.83-46.2,30.75-74.25,30.75,0,0,0,0,0,0-17.62,0-34.57-4.32-49.66-12.44-8.15-14.47-12.81-31.16-12.81-48.92,0-20.75,9.81-45.09,26.25-65.12Z"/><rect class="cls-2" x="286.15" y="93.74" width=".04" height=".04"/><path class="cls-1" d="m103.04,96.29c-55.69,0-101,47.87-101,106.71s45.31,106.3,101,106.3c31.48,0,60.61-14.96,80.11-41.1l-53.43-28.89c-7.62,6.97-17.06,10.79-26.67,10.79-11.33,0-21.94-5.1-29.88-14.37-7.57-8.85-11.92-20.77-11.92-32.73,0-26.2,18.75-47.51,41.8-47.51,9.77,0,19.22,3.97,26.69,11.19l53.42-28.89c-19.38-26.39-48.52-41.5-80.12-41.5Z"/><path class="cls-1" d="m131,507h-52.63v-38.13c0-5.36,4.38-9.57,9.98-9.57,3.07,0,6.95,1.7,8.9,5.39l42.35-41.57c-13.36-14.86-31.52-23.02-51.25-23.02-38.14,0-69.17,30.85-69.17,68.77v38.13H0v59.2h19.17v142.8h59.2v-142.8h52.63v-59.2Z"/><path class="cls-1" d="m125.88,1069.24c58.61,0,106.3-47.87,106.3-106.71s-47.69-106.3-106.3-106.3c-19.43,0-36.47,8.12-50.66,24.14l-1.75,1.97v-20.81H14.28v303.99h59.2v-122.4l1.75,1.97c14.19,16.02,31.23,24.14,50.66,24.14Zm-.82-156.26c25.75,0,46.69,22.23,46.69,49.55s-20.95,49.55-46.69,49.55-46.29-22.23-46.29-49.55,20.76-49.55,46.29-49.55Z"/><path class="cls-1" d="m364.83,915.83c4.79,0,9.54.98,14.13,2.93l23.29-60.01c-7.14-1.95-14.23-2.93-21.11-2.93-18.45,0-36.26,6.51-50.15,18.33l-1.61,1.37-.22-13.99h-59.21l.2,202h59.2v-112.22c0-19.89,15.58-35.48,35.47-35.48Z"/><path class="cls-1" d="m734.61,779.12c-16.83,0-30.01,13-30.01,29.6s12.9,29.6,30.01,29.6,29.6-12.73,29.6-29.6-13-29.6-29.6-29.6Z"/><path class="cls-1" d="m764.01,861.53h-59.2v208.71c0,19.56-15.65,35.54-35.09,36.07v59.21c52.08-.54,94.29-43.07,94.29-95.28v-208.71Z"/><path class="cls-1" d="m981.75,892.18c-19.16-23.11-46.85-36.36-75.98-36.36-55.69,0-101,47.78-101,106.51s45.31,106.5,101,106.5c38.33,0,73.91-23.47,90.99-59.91l-60.62-14.07c-8.21,9.73-18.96,14.97-30.38,14.78-21.97-.47-32.14-14.69-36.82-26.54l-.54-1.37h136.7c5.8-32.03-2.69-64.62-23.35-89.54Zm-115.52,46.66l.45-1.32c6.19-18.34,21.9-30.67,39.09-30.67s33.02,12.04,39.3,30.67l.45,1.32h-79.28Z"/><path class="cls-1" d="m1141.33,855.82c-55.69,0-101,47.87-101,106.71s45.31,106.3,101,106.3c31.48,0,60.61-14.96,80.11-41.1l-53.43-28.89c-7.62,6.97-17.06,10.79-26.67,10.79-11.33,0-21.94-5.1-29.88-14.37-7.57-8.85-11.92-20.77-11.92-32.73,0-26.2,18.75-47.51,41.8-47.51,9.77,0,19.22,3.97,26.69,11.19l53.42-28.89c-19.38-26.39-48.52-41.5-80.12-41.5Z"/><polygon class="cls-1" points="1375.01 861.53 1340.33 861.53 1340.33 797.48 1281.13 797.48 1281.13 861.53 1254.61 861.53 1254.61 920.73 1281.13 920.73 1281.13 1063.53 1340.33 1063.53 1340.33 920.73 1375.01 920.73 1375.01 861.53"/><path class="cls-1" d="m603.75,607.93c0-.07,0-.14,0-.21,0-.86-.01-1.71-.03-2.56,0-.33-.03-.66-.04-.99-.02-.59-.04-1.19-.07-1.78-.02-.37-.05-.74-.07-1.11-.03-.55-.07-1.1-.11-1.64-.03-.38-.07-.76-.1-1.13-.05-.54-.1-1.07-.15-1.6-.04-.38-.09-.76-.13-1.13-.06-.53-.12-1.06-.19-1.58-.05-.37-.1-.75-.16-1.12-.08-.53-.15-1.06-.24-1.58-.06-.36-.12-.73-.18-1.09-.09-.53-.18-1.07-.28-1.6-.07-.35-.13-.7-.2-1.05-.11-.54-.22-1.09-.33-1.63-.07-.33-.14-.67-.22-1-.12-.56-.26-1.11-.39-1.67-.07-.31-.15-.62-.23-.92-.15-.58-.3-1.16-.45-1.74-.08-.28-.15-.56-.23-.83-.17-.61-.35-1.23-.53-1.84-.07-.24-.14-.47-.21-.71-.21-.68-.42-1.35-.64-2.02-.05-.17-.11-.33-.16-.5-.27-.81-.55-1.61-.84-2.41,0-.03-.02-.05-.03-.08-14.08-38.76-50.56-66.76-93.78-68.39.07-.67.13-1.51.17-2.48l.03-.87.86-.09c5.5-.57,10.38-2.06,14.5-4.44,9.47-5.47,14.52-15.5,16.01-18.9-2.67-.29-9.26-.72-16.26,1.13l-1.51.4.27-1.54c1.01-5.72.67-10.78.42-13.03-2.04.89-6.44,3.05-10.8,6.65l-1.09.9-.49-1.33c-1.98-5.42-4.78-9.59-6.12-11.41-1.38,1.88-4.33,6.28-6.32,11.98l-.48,1.39-1.11-.96c-4.57-3.94-9.33-6.28-11.47-7.22-.25,2.23-.58,7.18.38,12.8l.26,1.49-1.47-.35c-6.65-1.58-12.79-1.18-15.35-.9,1.5,3.4,6.54,13.43,16.01,18.9,3.89,2.25,8.47,3.71,13.62,4.34l.84.1.03.85c.04,1.03.11,1.91.18,2.61-55.17,2.55-99.11,48.08-99.11,103.88,0,49.54,34.64,90.99,81.02,101.45,13.37,9.14,22.98,14.55,22.98,14.55,0,0,.48-.27,1.34-.77.08-.05.15-.09.24-.14.12-.07.25-.15.39-.23.15-.09.3-.18.47-.28.13-.08.26-.15.4-.24.2-.12.41-.24.62-.37.14-.08.27-.16.42-.25.3-.18.63-.38.96-.58.07-.05.14-.08.22-.13.42-.25.87-.53,1.33-.81.12-.07.25-.15.37-.23.36-.22.72-.45,1.11-.68.17-.1.34-.21.51-.31.37-.23.75-.47,1.14-.71.18-.11.35-.22.53-.34.45-.28.9-.57,1.37-.87.13-.08.26-.16.39-.25.61-.39,1.24-.79,1.89-1.21.11-.07.23-.15.34-.22.53-.34,1.08-.7,1.63-1.06.21-.14.43-.28.65-.42.48-.31.96-.63,1.45-.96.24-.16.48-.32.72-.48.5-.33,1.02-.68,1.53-1.02.23-.15.46-.31.69-.46.74-.5,1.49-1,2.25-1.53,0,0,.01,0,.02-.01,18.84-4.25,35.75-13.61,49.18-26.56,19.63-18.92,31.84-45.48,31.84-74.89Zm-124.72,98.15l-.63-.43-.75-.17c-21.77-4.91-41.55-17.23-55.68-34.68-14.33-17.71-22.23-40.03-22.23-62.86,0-55.14,44.86-100,100-100,42.77,0,79.35,27,93.61,64.84-6.11,32.17-31.73,50.66-54.7,67.21-9.43,6.79-18.34,13.21-25.23,20.1-13.16,13.16-13.37,46.2-12.94,58.78-.27.16-.51.3-.74.44-3.45-2.03-11.14-6.68-20.72-13.23Z"/><path class="cls-1" d="m549.8,156.3c4.79,0,9.54.98,14.13,2.93l23.29-60.01c-7.14-1.95-14.23-2.93-21.11-2.93-18.45,0-36.26,6.51-50.15,18.33l-1.61,1.37-.22-13.99h-59.21l.2,202h59.2v-112.22c0-19.89,15.58-35.48,35.47-35.48Z"/><polygon class="cls-1" points="732.48 102 697.8 102 697.8 37.94 638.6 37.94 638.6 102 612.08 102 612.08 161.2 638.6 161.2 638.6 303.99 697.8 303.99 697.8 161.2 732.48 161.2 732.48 102"/><rect class="cls-1" x="779.36" width="59.2" height="303.99"/><path class="cls-1" d="m911.53,126.52c-19.55,19.62-30.27,45.77-30.17,73.61-.1,29.15,11.17,56.56,31.73,77.19,20.55,20.62,47.9,31.97,77.02,31.97,18.63,0,34.22-8.04,45.08-23.24l1.43-2,3.1,19.94h59.55V102h-59.04l3.11,21.29-2.09-1.98c-17.55-16.6-36.68-25.02-56.84-25.02-27.56,0-53.44,10.74-72.87,30.24Zm123.64,76.47c0,27.32-20.95,49.55-46.7,49.55s-46.29-22.23-46.29-49.55,20.33-49.55,46.29-49.55,46.7,22.23,46.7,49.55Z"/><path class="cls-1" d="m1246.1,156.3c19.56,0,35.48,15.91,35.48,35.48v112.22h59.2v-129.35c0-43.2-35.15-78.35-78.35-78.35-18.45,0-36.26,6.51-50.15,18.33l-1.61,1.37-.22-13.99h-59.21l.2,202h59.2v-112.22c0-19.89,15.58-35.48,35.47-35.48Z"/><path class="cls-1" d="m1597.73,303.99V0h-59.2v122.4l-1.75-1.97c-13.95-15.75-31.13-23.73-51.07-23.73-58.61,0-106.3,47.69-106.3,106.3s47.69,106.3,106.3,106.3c19.94,0,37.12-7.99,51.07-23.73l1.75-1.97v20.4h59.2Zm-111.2-51.45c-25.52,0-46.29-22.23-46.29-49.55s20.33-49.55,46.29-49.55,46.7,22.23,46.7,49.55-20.95,49.55-46.7,49.55Z"/><path class="cls-1" d="m852.22,708.99v-303.99h-59.2v122.4l-1.75-1.97c-13.95-15.75-31.13-23.73-51.07-23.73-58.62,0-106.3,47.69-106.3,106.3s47.69,106.3,106.3,106.3c19.93,0,37.12-7.99,51.07-23.73l1.75-1.97v20.4h59.2Zm-111.2-51.45c-25.52,0-46.29-22.23-46.29-49.55s20.33-49.55,46.29-49.55,46.7,22.23,46.7,49.55-20.95,49.55-46.7,49.55Z"/><path class="cls-1" d="m339.75,99.99c-7.01,0-13.86.7-20.49,2.03-.86-.81-1.87-1.7-3.09-2.71l-.48-.39.14-.6c2.72-11.78,8.08-21.49,15.95-28.87,6.62-6.21,12.81-9.61,17.79-12.34,2.4-1.32,4.48-2.46,6.08-3.64,5.03-3.73,5.58-6.54,5.62-7.38-4.71-4.61-10.09-6.57-15.98-5.81-11.04,1.41-20.62,11.63-25.47,19.95l-.14.25-1.88,3.2.02-3.72c.04-7.12-.36-12.69-1.2-16.56-1.03-4.75-3.45-15.88-8.81-18.51-2.02-1.06-5.75-.96-7.92.87-.23.19-.53.42-.86.66-.71.53-2.86,2.14-2.52,2.72,1.13,1.95.71,3.58.31,5.15l-.04.16c-.21.9-1.03,2.14-1.92,3.42-.08.11-.15.21-.21.3.15.33.39.79.49.99l.07.15c2.69,6.14,4.73,13.04,6.7,19.72.5,1.69,1,3.38,1.51,5.08l1.06,3.49-2.69-2.46c-3.49-3.2-7.77-5.57-12.72-7.06-7.01-2.1-12.19-.35-16.29,5.52.69,1.92,3.73,9.45,9.47,11.3,5.16,1.66,9.83,3.29,14.65,6.39,5.02,3.16,9.28,9.35,11.67,17l.2.64-.52.43c-1.19.99-2.19,1.87-3.04,2.67-.86-.17-1.73-.33-2.6-.49-.48-.08-.96-.16-1.43-.23-.54-.09-1.08-.17-1.63-.25-.46-.07-.93-.13-1.4-.19-.68-.09-1.36-.17-2.05-.24-.32-.04-.64-.08-.97-.11-.99-.1-1.98-.18-2.97-.25-.33-.02-.67-.04-1-.06-.76-.05-1.52-.09-2.29-.12-.32-.01-.64-.03-.96-.04-1.06-.03-2.12-.05-3.18-.05-24.8,0-46.97,14.67-61.64,37.7-11.47,18-18.36,41.1-18.36,66.3,0,.16,0,.33,0,.49,0,.72,0,1.44.02,2.15,0,.36.02.72.03,1.08.01.52.03,1.04.05,1.55.02.4.04.79.06,1.18.02.48.04.96.07,1.43.02.41.05.81.08,1.21.03.46.06.92.09,1.38.03.41.07.82.11,1.23.04.45.08.9.12,1.35.04.42.09.83.13,1.24.05.44.09.88.14,1.31.05.42.1.84.16,1.26.05.43.11.86.16,1.28.06.42.12.84.18,1.26.06.42.12.84.19,1.26.07.42.14.84.21,1.26.07.41.14.83.21,1.24.07.42.15.83.23,1.25.08.41.15.82.23,1.23.08.42.17.83.25,1.25.08.4.16.8.25,1.2.09.42.18.83.28,1.25.09.39.18.78.27,1.17.1.42.2.84.31,1.26.09.38.19.76.29,1.14.11.42.22.83.33,1.25.1.37.2.75.3,1.12.12.42.24.83.36,1.25.11.36.21.73.32,1.09.12.42.25.83.38,1.25.11.36.22.71.34,1.07.13.42.27.84.41,1.25.11.34.23.69.35,1.03.14.42.29.84.44,1.25.12.33.24.67.36,1,.15.42.31.84.47,1.26.12.32.24.64.37.97.16.42.33.84.5,1.26.13.31.25.62.38.93.17.42.35.84.52,1.26.13.3.26.6.39.9.18.42.37.84.56,1.26.13.29.26.57.39.86.2.43.39.85.59,1.27.13.27.26.54.39.81.21.43.42.86.63,1.28.13.26.26.52.39.77.22.43.44.86.67,1.29.13.24.26.49.39.73.23.44.47.87.7,1.3.12.23.25.45.38.67.25.44.5.88.75,1.32.12.21.24.41.36.61.27.45.53.9.8,1.34.11.18.23.37.34.55.28.46.57.92.86,1.37.1.16.2.31.3.47.31.47.61.94.93,1.41.09.13.18.26.27.39.33.49.66.97,1,1.45.07.1.14.19.21.29.36.51.72,1.01,1.09,1.51.04.05.08.1.11.15,8.18,11.04,18.23,19.72,29.47,25.21,0,0,0,0,.01,0,.59.29,1.18.56,1.77.83,0,0,.02,0,.03.01.59.27,1.18.52,1.77.77.02,0,.03.01.05.02.59.25,1.18.48,1.77.71.02,0,.05.02.07.03.59.23,1.19.44,1.78.65.02,0,.05.02.07.02.6.21,1.19.41,1.79.6.03,0,.05.02.08.03.6.19,1.2.37,1.8.54.03,0,.06.02.09.02.61.17,1.21.33,1.82.49.03,0,.05.01.08.02.61.15,1.23.3,1.84.43.03,0,.05.01.08.02.62.13,1.24.26,1.86.37.02,0,.04,0,.07.01.63.12,1.26.22,1.89.32.02,0,.04,0,.05,0,.64.1,1.28.18,1.92.26.01,0,.02,0,.03,0,.65.08,1.3.14,1.95.2,0,0,.01,0,.02,0,1.79.16,3.6.24,5.43.24h55c44.18,0,80-46.56,80-104s-35.82-104-80-104Zm0,204h-55c-3.83,0-7.59-.38-11.27-1.1-1.4-2.13-2.23-4.67-2.23-7.4,0-7.44,6.06-13.5,13.5-13.5h55c6.34,0,11.5-5.16,11.5-11.5s-5.16-11.5-11.5-11.5h-70c-7.44,0-13.5-6.06-13.5-13.5s6.06-13.5,13.5-13.5h85c6.34,0,11.5-5.16,11.5-11.5s-5.16-11.5-11.5-11.5h-90c-7.44,0-13.5-6.06-13.5-13.5s6.06-13.5,13.5-13.5h95c6.34,0,11.5-5.16,11.5-11.5s-5.16-11.5-11.5-11.5h-80c-7.44,0-13.5-6.06-13.5-13.5s6.06-13.5,13.5-13.5h65c6.34,0,11.5-5.16,11.5-11.5s-5.16-11.5-11.5-11.5h-20.97v-1c0-.29-.15-1.04-1.27-2.5,5.68-.99,11.45-1.5,17.24-1.5,41.91,0,76,44.86,76,100s-34.09,100-76,100Z"/></g></g></svg>