<?xml version="1.0" encoding="UTF-8"?><svg id="Layer_2" xmlns="http://www.w3.org/2000/svg" xmlns:xlink="http://www.w3.org/1999/xlink" viewBox="0 0 1597.73 1165.52"><defs><style>.cls-1{clip-path:url(#clippath-2);}.cls-1,.cls-2{fill:none;}.cls-3{fill:#fff;}.cls-4{fill:#48bb87;}.cls-5{fill:#8b56a2;}.cls-6{fill:#814098;}.cls-7{fill:#fcc15b;}.cls-8{fill:#ca3b3a;}.cls-9{fill:#5b9357;}.cls-10{fill:#fee671;}.cls-2{clip-path:url(#clippath);}.cls-11{fill:#385134;}.cls-12{fill:#ce4d4e;}</style><clipPath id="clippath"><path class="cls-8" d="m365.61,607.94c0,57.44-46.56,104-104,104s-104-46.56-104-104,68.98-125.87,104-90.85c35.02-35.02,104,33.41,104,90.85Z"/></clipPath><clipPath id="clippath-2"><path class="cls-6" d="m603.56,607.94c0-57.44-46.56-104-104-104s-104,46.56-104,104c0,49.54,34.64,90.99,81.02,101.45,13.37,9.14,22.98,14.55,22.98,14.55,0,0,9.61-5.41,22.98-14.55,46.38-10.46,81.02-51.91,81.02-101.45Z"/></clipPath></defs><g id="Layer_1-2"><g id="main_logo"><polygon class="cls-7" points="613.25 885.6 649.23 897.2 641.29 934.16 666.64 962.2 641.29 990.24 649.23 1027.2 613.25 1038.8 601.64 1074.78 564.68 1066.84 536.64 1092.2 508.61 1066.84 471.64 1074.78 460.04 1038.8 424.06 1027.2 432 990.24 406.64 962.2 432 934.16 424.06 897.2 460.04 885.6 471.64 849.62 508.6 857.56 536.64 832.2 564.68 857.56 601.64 849.62 613.25 885.6"/><circle class="cls-10" cx="536.17" cy="962.84" r="87"/><path class="cls-8" d="m365.61,607.94c0,57.44-46.56,104-104,104s-104-46.56-104-104,68.98-125.87,104-90.85c35.02-35.02,104,33.41,104,90.85Z"/><path class="cls-8" d="m365.61,607.94c0,57.44-46.56,104-104,104s-104-46.56-104-104,68.98-125.87,104-90.85c35.02-35.02,104,33.41,104,90.85Z"/><g class="cls-2"><path class="cls-8" d="m365.61,607.94c0,57.44-46.56,104-104,104s-104-46.56-104-104,68.98-125.87,104-90.85c35.02-35.02,104,33.41,104,90.85Z"/><path class="cls-12" d="m297.62,637.83c-40.61,40.62-106.46,40.62-147.08,0s-40.61-106.47,0-147.08c40.61-40.62,137.78-40.23,137.78,9.3,49.53,0,49.91,97.17,9.3,137.78Z"/></g><path class="cls-4" d="m315.69,508.1s-14.9-12.48-33.28-12.48c-3.91,0-7.66.57-11.15,1.46-4.23-6.04-9.65-9.11-9.65-9.11,0,0-5.42,3.06-9.65,9.11-3.49-.89-7.24-1.46-11.15-1.46-18.38,0-33.28,12.48-33.28,12.48,0,0,14.9,12.48,33.28,12.48,2.57,0,5.08-.25,7.48-.67,3.52,10.19,13.32,13.82,13.32,13.82,0,0,9.8-3.63,13.32-13.82,2.41.42,4.91.67,7.48.67,18.38,0,33.28-12.48,33.28-12.48Z"/><path class="cls-6" d="m603.56,607.94c0-57.44-46.56-104-104-104s-104,46.56-104,104c0,49.54,34.64,90.99,81.02,101.45,13.37,9.14,22.98,14.55,22.98,14.55,0,0,9.61-5.41,22.98-14.55,46.38-10.46,81.02-51.91,81.02-101.45Z"/><g class="cls-1"><path class="cls-5" d="m593.56,557.94c0-57.44-36.56-54-94-54s-104,46.56-104,104c0,49.54,34.64,90.99,81.02,101.45,13.37,9.14,22.98,14.55,22.98,14.55,0,0-3.87-47.7,12.98-64.55,26.18-26.18,81.02-45.45,81.02-101.45Z"/></g><path class="cls-4" d="m518.61,477.42c1.42-8,.26-14.63.26-14.63,0,0-6.13,2.24-12.25,7.3-2.77-7.58-7.06-12.71-7.06-12.71,0,0-4.51,5.39-7.27,13.29-6.34-5.47-12.94-7.88-12.94-7.88,0,0-1.14,6.5.22,14.39-9.01-2.15-17-.75-17-.75,0,0,5,13.69,16.94,20.59,4.63,2.67,9.62,3.93,13.99,4.46.11,2.78.41,4.54.41,4.54,0,0,1.41-.52,3.56-1.61,1.21,1.84,2.09,2.89,2.09,2.89,0,0,.77-.92,1.87-2.56,1.76.86,2.88,1.27,2.88,1.27,0,0,.3-1.71.41-4.43,4.59-.47,9.95-1.71,14.9-4.57,11.94-6.89,16.94-20.59,16.94-20.59,0,0-8.55-1.5-17.94.99Z"/><path class="cls-9" d="m339.56,100c-9.52,0-18.74,1.29-27.5,3.68-8.76-2.4-17.98-3.68-27.5-3.68-44.18,0-80,46.56-80,104s35.82,104,80,104h55c44.18,0,80-46.56,80-104s-35.82-104-80-104Z"/><path class="cls-11" d="m264.56,183h95c6.88,0,12.5-5.62,12.5-12.5s-5.62-12.5-12.5-12.5h-80c-6.88,0-12.5-5.62-12.5-12.5s5.62-12.5,12.5-12.5h65c6.87,0,12.5-5.62,12.5-12.5s-5.62-12.5-12.5-12.5h-45.03c4.05-1.69,8.23-3.14,12.53-4.32-8.76-2.4-17.98-3.68-27.5-3.68-44.18,0-80,46.56-80,104s35.82,104,80,104c-6.88,0-12.5-5.62-12.5-12.5s5.62-12.5,12.5-12.5h55c6.88,0,12.5-5.62,12.5-12.5s-5.62-12.5-12.5-12.5h-70c-6.88,0-12.5-5.62-12.5-12.5s5.62-12.5,12.5-12.5h85c6.88,0,12.5-5.62,12.5-12.5s-5.62-12.5-12.5-12.5h-90c-6.88,0-12.5-5.62-12.5-12.5s5.62-12.5,12.5-12.5Z"/><path class="cls-4" d="m362.06,45.66c-15.12-15.19-34.43-1.12-43.29,14.07-.05.08-.09.16-.14.24.04-6.53-.28-12.45-1.22-16.77-1.13-5.21-3.61-16.39-9.35-19.19-2.44-1.29-6.58-1.04-9,1-1.2,1.01-4.56,3-3.6,4.66s.57,2.99.16,4.57c-.27,1.2-2.25,3.67-2.26,3.86-.04.13.56,1.28.77,1.7,3.3,7.53,5.57,16.12,8.15,24.63-3.38-3.1-7.67-5.65-13.11-7.28-6.91-2.08-12.98-.71-17.68,6.33,0,0,3.12,10.1,10.28,12.4,5.09,1.64,9.69,3.24,14.42,6.28,5.4,3.4,9.25,10.03,11.26,16.46-3.57,2.96-7.91,7.05-7.91,9.41h25.05c0-2.37-4.38-6.48-7.96-9.45,2.49-10.79,7.44-20.65,15.66-28.37,9.78-9.18,18.81-12.23,23.78-15.91,6.75-5,6-8.62,6-8.62Z"/><path class="cls-3" d="m103.04,96.29c-55.69,0-101,47.87-101,106.71s45.31,106.3,101,106.3c31.48,0,60.61-14.96,80.11-41.1l-53.43-28.89c-7.62,6.97-17.06,10.79-26.67,10.79-11.33,0-21.94-5.1-29.88-14.37-7.57-8.85-11.92-20.77-11.92-32.73,0-26.2,18.75-47.51,41.8-47.51,9.77,0,19.22,3.97,26.69,11.19l53.42-28.89c-19.38-26.39-48.52-41.5-80.12-41.5Z"/><path class="cls-3" d="m131,507h-52.63v-38.13c0-5.36,4.38-9.57,9.98-9.57,3.07,0,6.95,1.7,8.9,5.39l42.35-41.57c-13.36-14.86-31.52-23.02-51.25-23.02-38.14,0-69.17,30.85-69.17,68.77v38.13H0v59.2h19.17v142.8h59.2v-142.8h52.63v-59.2Z"/><path class="cls-3" d="m125.88,1069.24c58.61,0,106.3-47.87,106.3-106.71s-47.69-106.3-106.3-106.3c-19.43,0-36.47,8.12-50.66,24.14l-1.75,1.97v-20.81H14.28v303.99h59.2v-122.4l1.75,1.97c14.19,16.02,31.23,24.14,50.66,24.14Zm-.82-156.26c25.75,0,46.69,22.23,46.69,49.55s-20.95,49.55-46.69,49.55-46.29-22.23-46.29-49.55,20.76-49.55,46.29-49.55Z"/><path class="cls-3" d="m364.83,915.83c4.79,0,9.54.98,14.13,2.93l23.29-60.01c-7.14-1.95-14.23-2.93-21.11-2.93-18.45,0-36.26,6.51-50.15,18.33l-1.61,1.37-.22-13.99h-59.21l.2,202h59.2v-112.22c0-19.89,15.58-35.48,35.47-35.48Z"/><path class="cls-3" d="m734.61,779.12c-16.83,0-30.01,13-30.01,29.6s12.9,29.6,30.01,29.6,29.6-12.73,29.6-29.6-13-29.6-29.6-29.6Z"/><path class="cls-3" d="m764.01,861.53h-59.2v208.71c0,19.56-15.65,35.54-35.09,36.07v59.21c52.08-.54,94.29-43.07,94.29-95.28v-208.71Z"/><path class="cls-3" d="m981.75,892.18c-19.16-23.11-46.85-36.36-75.98-36.36-55.69,0-101,47.78-101,106.51s45.31,106.5,101,106.5c38.33,0,73.91-23.47,90.99-59.91l-60.62-14.07c-8.21,9.73-18.96,14.97-30.38,14.78-21.97-.47-32.14-14.69-36.82-26.54l-.54-1.37h136.7c5.8-32.03-2.69-64.62-23.35-89.54Zm-115.52,46.66l.45-1.32c6.19-18.34,21.9-30.67,39.09-30.67s33.02,12.04,39.3,30.67l.45,1.32h-79.28Z"/><path class="cls-3" d="m1141.33,855.82c-55.69,0-101,47.87-101,106.71s45.31,106.3,101,106.3c31.48,0,60.61-14.96,80.11-41.1l-53.43-28.89c-7.62,6.97-17.06,10.79-26.67,10.79-11.33,0-21.94-5.1-29.88-14.37-7.57-8.85-11.92-20.77-11.92-32.73,0-26.2,18.75-47.51,41.8-47.51,9.77,0,19.22,3.97,26.69,11.19l53.42-28.89c-19.38-26.39-48.52-41.5-80.12-41.5Z"/><polygon class="cls-3" points="1375.01 861.53 1340.33 861.53 1340.33 797.48 1281.13 797.48 1281.13 861.53 1254.61 861.53 1254.61 920.73 1281.13 920.73 1281.13 1063.53 1340.33 1063.53 1340.33 920.73 1375.01 920.73 1375.01 861.53"/><path class="cls-3" d="m549.8,156.3c4.79,0,9.54.98,14.13,2.93l23.29-60.01c-7.14-1.95-14.23-2.93-21.11-2.93-18.45,0-36.26,6.51-50.15,18.33l-1.61,1.37-.22-13.99h-59.21l.2,202h59.2v-112.22c0-19.89,15.58-35.48,35.47-35.48Z"/><polygon class="cls-3" points="732.48 102 697.8 102 697.8 37.94 638.6 37.94 638.6 102 612.08 102 612.08 161.2 638.6 161.2 638.6 303.99 697.8 303.99 697.8 161.2 732.48 161.2 732.48 102"/><rect class="cls-3" x="779.36" width="59.2" height="303.99"/><path class="cls-3" d="m911.53,126.52c-19.55,19.62-30.27,45.77-30.17,73.61-.1,29.15,11.17,56.56,31.73,77.19,20.55,20.62,47.9,31.97,77.02,31.97,18.63,0,34.22-8.04,45.08-23.24l1.43-2,3.1,19.94h59.55V102h-59.04l3.11,21.29-2.09-1.98c-17.55-16.6-36.68-25.02-56.84-25.02-27.56,0-53.44,10.74-72.87,30.24Zm123.64,76.47c0,27.32-20.95,49.55-46.7,49.55s-46.29-22.23-46.29-49.55,20.33-49.55,46.29-49.55,46.7,22.23,46.7,49.55Z"/><path class="cls-3" d="m1246.1,156.3c19.56,0,35.48,15.91,35.48,35.48v112.22h59.2v-129.35c0-43.2-35.15-78.35-78.35-78.35-18.45,0-36.26,6.51-50.15,18.33l-1.61,1.37-.22-13.99h-59.21l.2,202h59.2v-112.22c0-19.89,15.58-35.48,35.47-35.48Z"/><path class="cls-3" d="m1597.73,303.99V0h-59.2v122.4l-1.75-1.97c-13.95-15.75-31.13-23.73-51.07-23.73-58.61,0-106.3,47.69-106.3,106.3s47.69,106.3,106.3,106.3c19.94,0,37.12-7.99,51.07-23.73l1.75-1.97v20.4h59.2Zm-111.2-51.45c-25.52,0-46.29-22.23-46.29-49.55s20.33-49.55,46.29-49.55,46.7,22.23,46.7,49.55-20.95,49.55-46.7,49.55Z"/><path class="cls-3" d="m852.22,708.99v-303.99h-59.2v122.4l-1.75-1.97c-13.95-15.75-31.13-23.73-51.07-23.73-58.62,0-106.3,47.69-106.3,106.3s47.69,106.3,106.3,106.3c19.93,0,37.12-7.99,51.07-23.73l1.75-1.97v20.4h59.2Zm-111.2-51.45c-25.52,0-46.29-22.23-46.29-49.55s20.33-49.55,46.29-49.55,46.7,22.23,46.7,49.55-20.95,49.55-46.7,49.55Z"/></g></g></svg>